<svg width="493" height="264" viewBox="0 0 493 264" fill="none" xmlns="http://www.w3.org/2000/svg">
<path d="M196.174 262H72.7772V196.571H196.174V262ZM124.718 67.1486H1.60904L67.0378 1.71979H124.718V67.1486ZM196.174 67.1486V114.498H130.458V1.71979L196.174 67.1486ZM67.0378 72.8879V92.6887H1.60904V72.8879H67.0378ZM67.0378 191.693V262L1.60904 197.432V191.693H67.0378ZM196.174 120.238L130.458 185.953H1.60904L67.0378 120.238H196.174Z" fill="#6096BA"/>
<path d="M420.968 262V207.476L416.09 202.598H367.305V262H426.708H420.968ZM420.968 1.71979V66.8616H372.184L367.305 61.9831V1.71979H420.968ZM420.968 201.737L367.305 148.361V67.7225L420.968 121.386V201.737ZM361.566 262L296.424 196.858V66.8616L361.566 1.71979V262ZM491.562 66.8616L426.708 1.71979V262L491.562 196.858V66.8616Z" fill="#609F90"/>
<path d="M279.188 257.982L217.49 196.571H279.188V257.982Z" fill="#6096BA"/>
<path d="M213.472 200.302L275.17 262H213.472V200.302Z" fill="#609F90"/>
<path d="M426.708 262H367.305V202.598H416.09L420.968 207.476V262H426.708ZM426.708 262V1.71979L491.562 66.8616V196.858L426.708 262ZM196.174 262H72.7772V196.571H196.174V262ZM124.718 67.1486H1.60904L67.0378 1.71979H124.718V67.1486ZM196.174 67.1486V114.498H130.458V1.71979L196.174 67.1486ZM67.0378 72.8879V92.6887H1.60904V72.8879H67.0378ZM67.0378 191.693V262L1.60904 197.432V191.693H67.0378ZM196.174 120.238L130.458 185.953H1.60904L67.0378 120.238H196.174ZM279.188 257.982L217.49 196.571H279.188V257.982ZM213.472 200.302L275.17 262H213.472V200.302ZM420.968 1.71979V66.8616H372.184L367.305 61.9831V1.71979H420.968ZM420.968 201.737L367.305 148.361V67.7225L420.968 121.386V201.737ZM361.566 262L296.424 196.858V66.8616L361.566 1.71979V262Z" stroke="#465558" stroke-dasharray="10 10"/>
</svg>
