<svg width="1440" height="566" viewBox="0 0 1440 566" fill="none" xmlns="http://www.w3.org/2000/svg">
<path fill-rule="evenodd" clip-rule="evenodd" d="M1443.63 489.687L1440.2 489.687C1439.46 489.637 1440.05 490.895 1439.86 491.414C1436.6 491.241 1436.43 494.128 1432.34 493.116C1431.57 493.165 1432.19 494.572 1431.99 495.164C1429.87 495.682 1428.32 496.743 1427.56 498.593C1425.26 498.593 1422.53 498.125 1422.43 500.296L1418.34 500.296C1416.51 504.071 1408.99 502.122 1407.05 505.773C1405.62 503.627 1402.91 505.477 1401.57 506.464C1400.56 505.403 1398.2 505.675 1398.15 507.5L1394.06 507.5C1393.14 509.573 1389.2 508.561 1388.58 510.93L1381.75 510.93C1381.68 512.46 1378.92 511.275 1379.71 513.669C1378.03 514.039 1376.18 514.261 1376.28 516.407C1373.72 515.495 1372.63 518.998 1371.5 516.407C1370.61 516.778 1370.27 517.69 1369.45 518.11C1365.98 517.024 1361.89 519.714 1360.21 522.551C1358.76 522.452 1357.28 522.378 1357.13 523.587C1356.17 523.415 1354.24 524.204 1354.74 522.551C1353.11 524.92 1352.05 521.687 1348.92 522.551C1348.62 523.168 1348.03 523.489 1347.88 524.253C1344.41 524.105 1341.6 524.574 1340.71 526.992L1337.28 526.992C1336.67 528.769 1334.23 528.719 1334.55 531.433C1331.44 531.285 1331.47 534.295 1328.38 534.172C1328.38 536.22 1325.82 535.702 1325.65 537.602C1319.61 538.07 1314.46 539.403 1309.92 541.377C1308.54 541.845 1308.71 540.76 1308.22 540.34C1306.72 542.043 1304.92 543.424 1301.39 543.079C1300.87 541.821 1296.34 541.278 1295.92 543.079C1290.08 542.462 1284.46 546.829 1279.5 543.77C1278.37 544.115 1277.09 545.818 1276.42 543.77C1276 544.831 1273.98 544.288 1274.03 545.818C1268.53 545.003 1269.2 550.333 1264.46 550.259L1264.46 548.211C1261.53 550.185 1259.71 546.953 1257.29 549.247C1257.93 547.693 1255.93 548.778 1256.26 547.52C1253.89 547.792 1250.36 548.236 1248.05 550.259C1247.5 549.099 1245.09 549.79 1245.66 547.52C1243.78 547.249 1243.66 548.729 1241.56 548.211C1241.29 549.543 1240.48 550.333 1240.53 551.986L1231.63 551.986C1232.27 550.432 1230.27 551.517 1230.59 550.284C1228.79 551.986 1224.18 548.359 1223.42 551.986C1222.09 549.099 1219.2 553.935 1217.95 550.95C1216.37 552.356 1213.09 552.035 1212.82 554.725C1208.53 553.96 1208.21 557.192 1203.92 556.427C1204.41 555.144 1202.98 555.761 1203.23 554.725C1199.9 554.281 1197.59 556.427 1195.02 554.725C1194.11 555.169 1192.93 555.366 1193.32 557.118C1191.55 556.822 1191.27 558.031 1190.58 558.82C1189.43 559.166 1190.04 557.759 1189.89 557.118C1188.02 556.723 1187.55 557.735 1187.16 558.82C1181.17 557.217 1177.69 563.039 1173.48 559.857C1172.69 560.77 1171.41 561.189 1171.09 562.595C1168.97 562.768 1165.79 561.855 1165.96 564.298L1160.83 564.298C1160.09 564.248 1160.68 565.507 1160.49 566L1152.62 566C1153.26 563.878 1150.95 564.693 1151.59 562.571C1145.77 563.262 1142.14 561.954 1137.21 563.262C1136.55 562.768 1135.34 562.842 1135.51 561.559C1133.12 562.028 1132.28 560.893 1130.39 560.868C1131.1 558.549 1128.81 559.24 1129.35 557.093C1127.67 556.6 1125.31 556.822 1124.57 555.391C1123.83 555.341 1124.42 556.6 1124.22 557.093C1120.97 557.488 1119.02 556.6 1116.36 556.402C1115.69 556.772 1115.47 557.562 1114.98 558.105C1114.22 556.921 1113.16 556.057 1111.9 555.366C1110.84 555.81 1109.11 557.439 1108.47 555.366C1107.9 556.156 1107.41 557.044 1106.08 557.069C1104.92 557.414 1105.54 556.008 1105.39 555.366L1102.65 555.366C1102.9 554.305 1101.47 554.947 1101.96 553.664L1099.23 553.664L1099.23 551.961C1097.33 551.789 1097.01 553.146 1094.79 552.652L1094.79 550.95C1093.11 551.073 1091.17 549.198 1090.01 550.95C1088.85 551.295 1089.47 549.889 1089.32 549.247C1088.65 549.346 1087.67 551.517 1087.62 549.247C1086.98 550.876 1083.55 549.741 1082.49 550.95C1082.27 549.469 1079.38 550.629 1078.05 550.259C1078.64 548.655 1076.45 549.815 1077.02 548.211C1075.17 547.841 1074.35 548.532 1073.59 549.247C1074.3 547.273 1072.31 548.014 1072.55 546.509C1071.42 546.385 1072.18 548.186 1070.51 547.545C1069.45 545.053 1064.12 546.879 1062.64 544.806C1061.31 546.78 1057.39 546.163 1057.17 549.247C1055.52 548.63 1053.87 547.989 1052.04 547.52C1052.78 545.398 1050.49 544.288 1052.04 543.424C1049.65 543.03 1045.91 543.424 1043.84 545.818C1043 545.522 1042.58 544.781 1042.48 543.77C1036.81 541.673 1033.51 547.199 1029.14 544.806C1027.64 544.559 1028.38 546.558 1026.41 545.842C1025.35 545.077 1024.44 544.165 1023.67 543.104C1022.44 543.227 1022.32 544.485 1021.28 544.806C1021.65 543.4 1020.1 543.918 1019.9 543.104C1016.23 544.189 1010.14 542.289 1005.53 542.067C1003.09 544.757 1000.77 547.569 995.618 547.545C993.424 549.667 991.847 552.43 988.79 553.713C987.828 553.565 989.061 555.588 988.1 555.415C986.892 551.394 979.472 553.565 979.546 548.236C979.003 548.211 978.362 548.285 978.51 547.545C976.859 548.088 977.426 548.088 975.774 547.545C972.15 548.458 970.745 550.974 966.875 550.974C966.727 550.209 966.135 549.889 965.839 549.272C964.459 548.803 964.632 549.889 964.139 550.308C963.3 549.765 962.881 548.828 961.057 549.272C960.244 552.109 955.092 550.604 955.585 554.749L951.813 554.749C952.059 551.418 947.548 552.874 946.34 550.974C945.601 551.369 945.034 551.937 944.639 552.677C943.53 553.096 944.368 551.566 943.259 551.986C942.593 552.356 942.371 553.146 941.903 553.688C940.498 554.058 940.227 553.318 939.857 552.652C939.29 552.652 939.66 553.59 939.167 553.688C937.565 551.369 936.825 554.33 934.039 553.688C934.532 552.035 933.177 552.257 933.349 550.95C931.18 551.394 929.183 552.035 927.186 552.652C921.862 549.716 920.604 554.675 917.622 555.391C913.48 554.626 910.769 555.44 905.641 555.391C905.962 553.91 905.395 553.343 903.94 553.688C903.99 551.813 903.078 550.9 901.204 550.95C901.722 549.297 900.341 549.519 900.514 548.211C897.777 547.495 896.964 548.902 895.732 546.508C894.499 547.569 893.661 548.976 893.34 550.95C890.431 549.864 888.854 553.614 887.523 550.95C887.375 552.405 885.304 551.912 883.751 551.986C883.011 551.937 883.603 553.195 883.406 553.688C881.335 553.664 878.993 553.392 878.278 554.725C878.623 551.764 876.479 551.27 877.243 547.865C876.232 547.619 875.542 547.051 874.852 546.508C873.348 546.262 874.088 548.236 872.116 547.545C872.239 546.311 873.225 545.916 872.806 544.115C871.992 543.326 869.724 543.992 868.369 543.77C866.865 539.353 860.258 540.019 857.423 536.911C856.487 538.465 854.169 538.687 852.296 539.304C851.063 539.181 850.94 537.922 849.905 537.601C847.834 539.403 844.506 539.945 843.742 543.079C839.822 542.857 838.615 540.784 834.843 542.043L834.843 545.818L833.487 545.818C832.255 546.138 833.019 544.461 832.797 543.77C830.135 543.572 828.187 542.684 824.933 543.079C825.648 541.105 823.651 541.845 823.898 540.34C820.816 541.031 820.126 539.329 817.735 539.304L817.735 535.184C817.439 533.753 814.604 534.887 815.344 532.445C813.865 532.099 813.446 532.815 812.608 533.136L812.608 531.433C809.428 531.433 807.801 529.854 806.445 528.004C804.99 528.793 803.536 529.04 803.363 526.967C802.303 527.041 802.55 528.423 801.662 528.67C800.356 528.941 801.219 527.041 800.972 526.277C799.148 525.24 796.19 525.364 795.154 523.538C792.467 525.018 784.702 521.465 782.854 525.24C781.473 525.709 781.646 524.623 781.153 524.204C780.191 524.969 779.18 525.66 777.726 525.931C777.06 524.673 775.705 524.056 775.335 522.502C773.363 522.354 771.588 522.403 770.898 523.538C769.764 523.094 768.827 522.428 767.816 521.835C766.88 522.822 764.587 522.477 762.689 522.526C762.59 520.922 760.52 521.268 760.988 519.097C759.164 518.628 759.386 520.232 757.561 519.788L757.561 516.703C756.255 516.062 754.554 515.815 754.825 513.619C753.173 514.113 753.395 512.756 752.089 512.928L752.089 510.881C750.043 509.696 747.627 512.287 746.961 509.178C743.831 509.696 742.549 508.339 739.788 508.487C739.467 506.637 737.643 506.316 736.016 505.749C735.351 506.217 734.143 506.168 734.315 507.451C729.311 507.796 724.504 508.339 723.715 512.928L722.014 512.928C721.521 516.185 720.708 519.171 716.887 519.097C716.566 519.689 715.63 519.664 715.852 520.799C711.513 520.922 709.368 523.217 705.252 523.538L705.252 521.835C703.427 521.367 703.649 522.97 701.825 522.526C699.606 527.954 694.799 530.792 693.271 536.911C692.039 537.256 693.123 535.233 691.57 535.874C688.242 537.552 686.812 541.154 682.005 541.352C681.315 540.217 679.54 540.167 677.568 540.316C677.346 538.564 673.254 537.922 672.096 539.279C670.986 539.255 670.986 538.095 670.395 537.577C668.176 540.809 660.929 533.012 659.795 539.279C657.896 539.773 656.048 540.315 654.667 541.327C653.114 541.969 654.199 539.97 652.966 540.291C651.635 540.908 650.156 541.352 649.885 543.03C649.047 542.487 648.628 541.549 646.803 541.993C646.508 542.61 645.916 542.931 645.768 543.696C643.919 543.326 643.106 544.016 642.342 544.732C642.835 542.881 641.257 543.079 640.986 541.993C639.679 541.5 640.912 543.523 639.605 543.03C638.323 538.712 633.418 538.046 629.005 536.861L629.005 534.813C626.91 535.208 626.762 533.629 624.568 534.123C624.987 531.532 620.821 533.53 620.796 531.384C619.589 530.866 620.599 532.543 619.761 532.42C618.627 531.606 619.145 529.139 617.715 528.645C616.039 527.979 616.803 529.78 615.669 529.681C615.842 527.93 614.856 527.313 613.623 526.943C612.193 526.425 613.574 528.719 612.588 528.645C611.059 529.163 611.528 527.634 610.196 527.954C610.936 524.475 606.967 525.709 606.425 523.513C604.872 522.995 606.597 525.758 605.069 525.216C603.516 524.821 603.467 522.946 602.678 521.786C601.889 522.255 602.555 524.179 602.333 525.216C600.361 525.364 598.586 525.314 597.895 524.179C596.466 524.574 595.8 525.734 594.124 525.906C592.965 526.252 593.582 524.845 593.434 524.179C589.44 524.401 587.394 526.573 584.534 527.954C583.351 525.832 580.442 525.438 577.361 525.216C576.843 522.97 570.927 522.97 569.152 524.179C566.761 522.156 565.652 525.734 562.644 525.216C561.905 525.166 562.496 526.425 562.299 526.943C560.746 526.893 558.675 527.362 558.527 525.906C557.467 527.115 554.83 526.77 554.411 528.645C554.066 527.732 552.858 527.708 553.375 525.906C550.688 524.919 547.065 524.994 545.512 526.943C544.945 524.994 543.416 524.007 542.43 522.502C540.606 521.811 541.617 523.957 540.039 523.538C536.169 521.959 532.866 521.342 528.059 522.502C527.097 522.354 528.33 524.377 527.368 524.204C525.766 524.549 526.062 523.02 524.287 523.513C522.759 525.191 521.28 526.918 518.124 526.943C517.385 526.893 517.976 528.152 517.779 528.645C516.275 528.62 514.377 528.201 515.043 530.348C513.169 530.422 512.233 531.433 511.271 532.395C508.806 533.136 509.299 530.964 507.179 531.359C507.45 529.262 505.749 529.139 505.133 527.93C502.766 529.681 496.258 527.263 494.533 529.632C493.177 527.066 490.367 531.458 488.715 528.596C486.891 530.323 481.616 529.953 480.506 527.905C479.545 527.856 479.841 529.065 478.46 528.596C477.302 528.941 477.918 527.535 477.77 526.893C475.157 527.017 473.382 527.979 472.297 529.632C471.459 529.089 471.04 528.152 469.216 528.596C468.477 528.546 469.068 529.805 468.871 530.298C466.751 529.657 466.825 531.211 465.444 531.334C464.187 530.323 464.286 527.93 461.352 528.596C460.933 529.435 460.021 529.78 460.317 531.334L454.154 531.334C453.858 531.951 453.267 532.272 453.119 533.037C447.967 533.851 447.03 530.471 442.864 530.298C442.494 531.186 441.533 531.458 441.163 532.346C440.226 531.236 438.723 530.668 438.772 528.571C435.789 527.584 433.842 531.359 432.264 528.571C432.289 530.323 429.232 528.966 428.837 530.274C427.728 530.249 427.728 529.089 427.137 528.571C423.562 531.038 421.516 535.035 415.156 534.739C414.885 535.504 414.022 535.652 414.121 536.787C413.406 536.985 411.754 536.244 412.075 537.478C408.352 536.861 405.443 535.455 401.82 534.739C401.549 535.504 400.686 535.652 400.784 536.787L397.013 536.787C397.013 532.963 389.469 533.086 390.184 537.478C389.05 537.577 388.089 537.527 387.793 536.787C386.758 539.526 381.852 538.366 379.929 540.217C378.771 540.562 379.387 539.156 379.239 538.514C378.056 539.773 372.929 537.157 371.03 539.205C369.724 538.909 370.661 536.368 368.639 536.812L368.639 534.073C366.445 534.912 358.853 532.741 357.004 535.776C355.796 536.318 356.807 534.616 355.969 534.739C355.254 536.318 351.901 535.233 351.186 536.787C350.2 535.948 348.08 536.244 348.45 534.048C347.365 534.369 345.196 535.776 345.714 533.012L340.586 533.012C340.29 533.629 339.699 533.95 339.551 534.715C337.973 534.098 338.072 534.098 336.469 534.715C334.596 533.777 332.279 532.001 330.307 534.024C328.951 534.246 329.912 532.149 329.616 531.285C328.211 530.915 327.94 531.655 327.57 532.321C326.634 531.211 325.13 530.644 325.179 528.546C321.753 528.423 320.495 530.471 318.006 531.285C316.576 531.803 317.956 529.509 316.97 529.583C315.861 529.607 315.861 530.767 315.269 531.285C314.111 531.631 314.727 530.224 314.579 529.583C311.646 529.731 308.885 530.027 308.071 532.321C307.455 532.371 307.282 531.976 307.381 531.285C306.247 531.186 307.011 532.963 305.335 532.321C303.905 531.236 302.968 529.657 302.254 527.88C300.898 527.436 301.563 529.015 300.208 528.571L300.208 526.869C298.975 526.548 300.06 528.546 298.507 527.905C297.274 528.226 298.038 526.548 297.816 525.857C293.675 525.882 292.541 522.921 287.906 523.464C287.389 521.934 286.477 520.774 284.48 520.725C283.716 516.703 278.169 517.444 276.271 514.557C274.472 514.137 274.102 515.124 272.845 515.248C272.302 514.532 271.711 513.866 271.489 512.854C270.059 512.46 269.96 513.372 270.108 514.581L267.372 514.581C267.668 512.435 264.882 513.422 264.636 511.843C263.502 512.978 262.245 514.014 259.508 513.57L259.508 511.843C256.599 512.83 253.937 508.808 252.335 511.843C251.669 511.744 250.683 509.573 250.634 511.843C249.5 511.941 250.264 510.165 248.588 510.806C247.503 510.979 247.602 512.336 246.887 512.854C245.975 509.326 240.773 510.066 240.058 506.365C236.681 506.883 235.375 505.354 232.195 505.674C232.318 503.602 229.409 504.589 229.113 502.936C227.881 502.615 228.965 504.613 227.412 503.972C224.873 500.592 221.299 498.544 215.432 500.197C214.865 500.197 215.235 501.135 214.742 501.233C212.03 501.677 211.142 500.296 209.614 499.531C208.308 499.926 208.061 501.406 206.878 501.924C206.089 501.702 205.448 501.307 205.522 500.197L199.359 500.197L199.359 498.495C196.993 498.692 196.426 497.088 195.588 495.756C194.478 497.73 190.312 496.644 189.08 498.495C187.921 498.84 188.537 497.434 188.39 496.792C186.96 496.965 185.85 496.817 185.653 495.756C184.445 495.238 185.456 496.916 184.618 496.792C183.73 496.644 183.632 495.731 183.262 495.09C178.973 494.794 176.927 496.743 173.007 496.792C172.268 496.743 172.859 498.001 172.662 498.495C170.024 499.383 167.929 500.839 166.499 502.936L163.073 502.936C162.037 504.071 161.544 505.748 159.301 505.674C159.079 506.711 159.745 508.635 158.956 509.104C157.847 509.079 157.847 507.92 157.255 507.402C155.554 509.005 153.705 510.461 151.783 511.843C150.821 511.67 148.898 512.46 149.391 510.806C147.986 512.83 147.37 510.806 145.275 510.806C145.201 513.126 143.155 513.471 142.538 515.248C139.679 514.779 138.964 516.457 138.101 517.986L135.71 517.986C135.34 519.664 133.984 520.355 133.319 521.761C131.568 521.909 129.868 519.294 128.882 521.761C123.458 521.342 122.078 524.993 118.972 526.893C117.813 527.239 118.429 525.832 118.282 525.166L116.235 525.166C115.496 525.117 116.088 526.375 115.89 526.893C113.277 527.017 111.946 528.423 112.119 531.334C109.974 530.792 110.664 533.086 108.347 532.371C107.435 531.581 106.178 531.112 105.266 530.323C103.713 529.681 104.797 531.68 103.565 531.359C102.061 531.359 102.258 529.706 100.828 529.657C99.0043 529.755 98.6099 531.31 97.7471 532.395C96.5145 532.716 97.5991 530.718 96.0461 531.359C95.2573 532.05 94.0247 532.321 94.3452 534.098C93.7042 534.246 92.2744 533.629 92.6442 534.789C90.2283 532.741 88.8479 536.047 86.1364 535.825C85.2489 535.702 85.1504 534.764 84.7806 534.122C81.6746 533.481 78.8148 536.121 76.5717 534.122C75.413 535.578 72.5289 535.331 72.1345 537.552C68.067 535.233 65.5033 539.625 61.1893 539.254C60.2279 539.205 61.4851 541.376 60.4991 541.302C59.2666 541.623 60.3512 539.625 58.7982 540.266C57.1711 541.845 55.7413 543.597 54.7061 545.743C51.5013 545.842 50.6632 548.309 49.2335 550.185C47.4093 550.086 45.7083 550.061 45.8069 551.887C44.2045 551.788 41.8628 552.405 41.6903 550.851C41.3204 552.529 38.8306 552.084 38.2637 553.589C36.1929 553.047 31.8297 554.774 31.4353 552.553C30.745 553.787 28.6743 553.663 26.653 553.589C26.2585 553.639 26.2832 554.132 26.3079 554.626C22.1417 554.108 22.265 557.883 17.7539 557.019C16.7925 556.871 18.0249 558.894 17.0636 558.721L16.0283 558.721C14.5985 559.24 15.9789 556.945 14.9929 557.019C12.799 556.772 13.6371 559.536 10.9009 558.721C11.024 557.71 12.5278 558.08 11.9363 556.328C7.44971 556.994 1.77979 557.167 -4.13647 556.328C-4.33374 555.835 -3.74194 554.552 -4.48144 554.626C-4.82666 555.983 -5.83728 556.698 -6.18237 558.055C-8.30237 557.512 -7.73559 556.797 -9.60901 558.055C-11.2361 557.981 -9.1405 554.182 -12 555.317L-12 9.86938L1443.48 9.86963L1443.48 489.687L1443.63 489.687Z" fill="white"/>
<path fill-rule="evenodd" clip-rule="evenodd" d="M-4.45679 542.117L-4.45674 0.000116901L1342.61 0.000356735C1341.82 1.35735 1344.7 1.50542 1344.31 0.345816L1344.31 0.000356884L1379.88 0.000359994L1379.88 1.70281C1379.24 1.85082 1377.81 1.23406 1378.18 2.39367C1378.13 3.13384 1379.39 2.54174 1379.88 2.73913C1379.63 1.01202 1381.98 1.85082 1381.58 0.000360142L1451 0.000366211L1451 477.079C1448.76 477.794 1446.39 478.411 1443.83 478.781C1444.22 480.656 1443.21 481.125 1442.13 481.52C1440.18 480.138 1439.32 481.84 1436.65 481.52C1436.38 484.777 1434.04 485.986 1430.49 485.961C1429.97 487.935 1427.16 487.663 1424.67 487.663C1424.35 489.44 1421.39 488.7 1420.9 487.663C1420.7 488.255 1421.32 489.662 1420.56 489.711C1416.83 491.118 1412.4 491.808 1409.61 494.152C1409.04 492.203 1405.25 493.486 1403.1 493.116C1401.03 496.521 1394.2 495.164 1392.16 498.593L1382.59 498.593C1382.79 497.705 1382.44 497.36 1381.56 497.557C1378.8 500.962 1371.23 499.531 1370.96 505.428C1368.17 505.033 1369.06 508.315 1365.83 507.476C1365.63 507.969 1366.22 509.252 1365.48 509.178C1363.54 509.4 1362.23 510.264 1359.67 509.869C1359.52 509.228 1360.14 507.797 1358.98 508.167C1356.83 509.302 1351.93 511.67 1350.08 509.869C1349.14 511.349 1347.66 512.238 1346.65 513.644C1342.58 512.879 1342.66 516.259 1339.13 516.037L1339.13 518.085C1335.24 519.097 1332.99 521.737 1330.58 524.253C1329.91 524.13 1330.55 522.699 1329.2 523.217C1327.99 522.699 1329 524.377 1328.16 524.253C1322.94 523.143 1323.08 527.387 1318.6 526.992C1318.65 525.462 1316.63 526.005 1316.21 524.944L1314.16 524.944C1314.28 527.905 1309.43 528.423 1307.33 526.992C1304.94 531.088 1297.99 528.719 1294 528.719C1293.33 529.089 1293.11 529.879 1292.64 530.422C1288.28 531.483 1285.66 528.028 1283.08 530.422C1281.77 530.915 1283 528.892 1281.7 529.385C1279.99 533.136 1271.61 530.249 1268.01 532.124C1266.9 532.544 1267.74 531.014 1266.66 531.433C1265.77 533.062 1264.66 531.285 1263.23 531.433C1262.69 532.025 1261.83 532.297 1261.53 533.136C1259.41 533.777 1259.48 532.223 1258.1 532.099C1257.04 532.174 1257.29 533.555 1256.4 533.802C1254.43 534.295 1254.23 533.012 1252.63 533.111C1250.59 535.282 1246.27 535.184 1243.39 536.541C1242.89 534.888 1244.25 535.11 1244.08 533.802C1242.23 533.432 1241.42 534.123 1240.65 534.838C1241.07 532.938 1238.38 534.147 1237.22 533.802C1235.33 535.899 1231.11 535.677 1229.71 538.243C1227.59 537.602 1227.66 539.156 1226.28 539.279C1225.15 538.366 1223.79 537.651 1221.84 537.552C1221.65 538.366 1222.26 540.044 1221.5 540.291C1220.73 540.242 1221.35 538.835 1221.15 538.243C1218.88 538.366 1215.83 537.7 1214.99 539.279C1213.63 537.133 1210.92 537.848 1208.48 538.243C1208.28 538.835 1208.9 540.266 1208.14 540.291C1206.41 539.822 1206.34 540.982 1205.05 540.982C1204.71 540.069 1203.5 540.044 1204.02 538.243C1201.43 538.194 1198.42 538.588 1197.86 536.541C1197.09 537.256 1196.28 537.947 1194.43 537.577C1194.18 538.638 1195.61 537.996 1195.12 539.304C1192.85 539.304 1191.52 538.342 1189.99 537.577L1193.42 537.577C1192.78 536.022 1194.78 537.108 1194.45 535.874C1193.12 535.554 1193.59 537.059 1192.06 536.565C1191.87 535.726 1190.31 536.269 1190.71 534.863L1187.28 534.863C1187.08 535.356 1187.68 536.639 1186.94 536.565C1186.22 536.368 1184.69 536.985 1184.55 536.22C1184.42 535.406 1186.1 536.417 1185.58 535.184C1185.43 534.517 1184.03 535.159 1184.55 533.827C1182.45 534.69 1181.81 537.009 1178.38 536.565L1178.38 534.863C1176.21 535.43 1175.92 534.147 1174.61 533.827C1170.54 536.146 1162.68 534.665 1159.23 537.602C1158.41 537.75 1159.43 536.047 1158.19 536.565C1157.35 538.835 1156.32 536.516 1154.77 536.565C1153.78 536.713 1155.06 539.156 1154.08 539.304C1150.6 539.822 1146.71 539.921 1146.56 543.745L1144.86 543.745C1145.15 545.522 1143.94 545.793 1143.16 546.484C1142.93 544.781 1140.1 545.67 1138.37 545.448C1138.74 543.252 1136.62 543.548 1135.64 542.709C1134.92 543.72 1133.47 543.943 1131.54 543.745C1131.69 542.437 1130.51 542.511 1129.84 542.043C1128.51 542.758 1126.22 542.536 1125.41 543.745C1124.67 543.794 1125.26 542.536 1125.06 542.043C1123.95 542.536 1122.79 542.98 1121.98 543.745C1121.41 541.13 1118.31 541.031 1115.82 540.316C1114.86 540.242 1116.24 542.561 1114.78 542.018C1114.02 541.771 1114.66 540.094 1114.44 539.279C1112.17 540.192 1113.33 537.651 1112.05 537.552C1108.55 539.23 1104.5 539.674 1100.41 538.243L1100.41 536.541C1096.76 534.962 1090.16 538.095 1086.04 535.85C1085.25 536.417 1084.19 536.738 1082.61 536.541C1082.27 535.628 1081.06 535.603 1081.58 533.802C1080.89 534.937 1079.11 534.986 1077.14 534.838C1077.07 533.086 1075.22 533.111 1074.75 531.754C1075.49 531.458 1075.54 530.496 1075.44 529.361C1073.64 530.644 1071.79 531.877 1068.27 531.409C1068.71 530.052 1067.13 530.718 1067.58 529.361C1066.76 529.139 1065.09 529.78 1064.84 529.015L1064.84 524.895C1060.5 524.179 1057.3 524.007 1055.27 526.943C1054.31 524.525 1053.38 527.288 1051.5 526.943C1050.94 524.772 1052.24 524.475 1052.54 523.168C1050.17 522.921 1049.58 525.339 1048.1 523.168C1048.54 524.5 1047.29 524.179 1046.4 524.204C1046.15 522.625 1043.34 523.612 1043.66 521.465C1040.63 521.416 1039.23 519.763 1035.45 520.429C1034.27 522.798 1030.72 522.773 1027.59 523.168L1027.59 520.429C1026.16 520.849 1026.09 519.886 1025.2 519.738C1023.65 520.923 1023.25 523.266 1020.42 523.168C1020.27 522.526 1020.89 521.095 1019.73 521.465C1018.35 524.179 1014.11 524.056 1012.9 526.943C1011.52 526.474 1011.81 527.683 1010.85 527.634C1010.33 525.981 1011.72 526.203 1011.54 524.895C1009.08 522.872 1006.86 525.536 1005.73 526.943C1004.91 527.091 1005.92 525.388 1004.69 525.906C1004.62 528.102 1001.78 527.56 999.562 527.634C998.995 527.634 999.365 528.571 998.872 528.67L993.745 528.67C993.301 526.943 991.132 526.943 988.962 526.943C986.916 528.917 984.328 526.326 981.444 526.943C980.754 527.732 980.482 528.966 978.707 528.67C978.855 530.298 977.968 530.89 977.672 532.099C976.612 532.346 977.253 530.915 975.971 531.409C975.355 532.716 974.665 533.975 972.545 533.802C972.397 533.16 973.013 531.729 971.854 532.099C972.347 533.604 970.72 533.037 969.808 533.136C970.129 535.628 967.935 535.603 967.762 537.577C966.16 537.799 965.174 538.638 962.98 538.268C963.202 539.625 961.698 539.279 961.6 540.316L958.518 540.316C958.05 539.304 957.606 538.243 956.817 537.577C953.933 539.551 951.912 536.886 950.309 535.529L950.309 531.433L946.883 531.433C946.119 528.546 942.445 528.571 938.674 528.695C938.822 531.359 936.677 531.729 935.592 533.136C934.853 533.185 935.445 531.927 935.247 531.433C933.325 531.655 931.846 531.433 931.155 530.397C930.564 531.754 928.986 532.099 928.764 533.827C925.091 532.692 923.168 533.999 918.854 533.827C916.685 536.319 913.16 536.763 910.3 536.22C910.152 535.406 911.853 536.417 911.336 535.184C910.695 534.221 909.24 534.073 908.599 533.136C912.963 532.075 913.234 535.11 916.808 534.838C917.005 534.345 916.414 533.062 917.153 533.136C918.386 532.79 921.122 533.901 921.245 532.445C920.457 531.655 919.323 531.162 917.474 531.409C917.203 532.864 916.093 533.432 914.047 533.111C914.023 531.359 913.875 529.509 914.738 528.67C913.061 529.484 910.498 529.459 909.955 531.409C908.945 531.409 910.448 528.867 908.92 529.361C907.958 529.311 909.216 531.483 908.23 531.409L904.138 531.409C903.94 531.902 904.532 533.185 903.792 533.111C903.497 531.803 901.598 532.099 901.746 530.372L897.975 530.372C897.975 529.805 897.975 529.237 897.975 528.67C896.742 528.793 896.619 530.052 895.583 530.372C895.14 528.621 893.513 529.558 892.847 530.372C893.266 528.472 890.579 529.681 889.421 529.336C888.139 530.792 885.477 530.866 883.948 532.075C883.554 531.335 882.987 530.767 882.247 530.372C881.434 530.249 882.444 531.927 881.212 531.409C881.804 529.805 879.61 530.964 880.176 529.361C879.19 530.545 876.898 530.397 875.739 531.409C875.098 529.854 877.095 530.94 876.775 529.706C875.715 529.509 875.567 528.398 875.739 526.967C872.387 527.609 872.017 525.216 868.566 525.931C868.936 523.266 865.805 524.13 865.139 522.502C864.548 522.748 863.143 523.883 862.403 522.847C862.28 522.033 863.956 523.044 863.438 521.811C861.466 518.653 856.487 518.505 855.575 514.285C850.349 513.422 842.362 509.894 838.812 514.285C834.72 513.348 831.885 512.188 827.867 513.595C827.448 518.208 822.049 514.014 819.658 515.988C817.168 515.297 815.442 513.817 811.794 514.261C812.312 512.262 811.326 511.769 810.093 511.522C810.216 510.51 811.72 510.881 811.129 509.129C809.033 510.239 804.67 509.055 803.265 510.831C802.994 509.943 802.279 509.524 800.874 509.795C798.236 512.361 794.538 507.92 789.928 509.104C789.534 506.884 786.28 507.525 784.801 506.365C783.938 506.513 785.146 508.759 783.421 508.068C782.262 508.413 782.878 507.007 782.73 506.365C780.142 505.847 779.23 506.982 777.603 507.402C777.085 506.316 776.173 505.625 775.557 504.663C774.25 504.169 774.891 505.601 773.856 505.354C773.733 504.342 772.229 504.712 772.821 502.961L770.084 502.961L770.084 500.222C768.556 499.95 767.816 500.469 767.003 500.913C766.682 500.345 766.066 500.024 764.957 500.222C764.809 499.58 765.425 498.149 764.267 498.519C762.985 498.519 762.911 499.679 761.185 499.21C761.037 498.569 761.654 497.138 760.495 497.508C758.4 497.236 758.621 499.284 756.058 498.544L756.058 496.496C754.036 496.175 752.36 495.287 750.585 496.496C750.462 495.238 749.205 495.139 748.884 494.103C744.176 494.498 739.221 494.448 734.858 494.103C734.241 497.927 729.779 497.927 726.649 499.235C722.926 496.669 720.782 500.641 717.75 500.937C718.563 504.49 714.57 503.232 713.313 504.712L713.313 507.451C710.059 507.155 709.27 509.351 707.84 510.881L705.449 510.881C704.512 513.027 701.554 513.15 700.666 515.322C697.93 515.445 695.613 515.963 695.539 518.751C693.222 518.258 693.518 520.38 692.803 521.49C690.954 521.885 688.39 523.612 686.985 521.49C686.221 524.722 683.534 521.811 680.477 522.526L680.477 520.478C678.554 520.478 677.741 519.343 675.35 519.788C675.152 520.281 675.744 521.564 675.004 521.49L670.888 521.49C670.74 522.699 669.606 522.97 669.532 524.229C669.532 522.946 667.782 523.464 667.141 522.872C667.141 521.86 669.68 523.365 669.187 521.835L669.187 520.799C668.225 520.158 666.155 520.651 666.451 518.751C669.039 519.097 669.211 517.69 670.888 518.751C671.677 515.346 666.105 518.282 665.76 516.013C665.612 517.468 663.542 516.975 661.989 517.049C661.594 519.713 659.548 520.774 658.907 523.217C655.653 523.735 654.495 522.156 651.389 522.526C651.98 520.922 649.786 522.082 650.353 520.478C646.064 519.96 641.208 519.047 639.408 522.526C635.711 522.921 633.171 522.156 631.89 520.133C632.481 519.812 632.777 519.195 632.58 518.085C630.83 517.567 631.101 519.121 629.498 518.776C628.734 517.962 627.477 517.616 627.452 516.037L624.716 516.037C625.184 513.298 622.128 514.063 621.289 512.608C620.796 513.027 620.969 514.113 619.589 513.644C618.134 512.361 617.296 510.461 616.852 508.167L614.806 508.167C615.176 504.737 610.32 506.513 609.679 504.071C610.27 503.75 610.246 502.812 611.38 503.035C611.035 501.9 612.144 499.309 610.689 499.26C610.616 500.543 608.717 500.024 608.298 500.962C605.833 498.495 600.632 499.087 598.043 500.962C596.688 501.406 597.353 499.827 595.997 500.271C592.448 500.419 588.627 504.466 585.742 501.974C583.302 502.171 579.851 501.332 578.914 503.01C578.101 503.158 579.111 501.455 577.879 501.974C576.597 504.416 570.927 504.194 570.705 500.937C568.215 500.468 565.726 500 562.496 500.246L562.496 499.21C561.732 499.926 560.919 500.617 559.07 500.246C558.922 500.888 559.538 502.319 558.38 501.949C556.802 501.357 556.95 500.518 555.643 501.949C555.052 499.876 552.858 501.406 551.872 501.949C551.625 500.444 553.597 501.184 552.907 499.21C551.65 500.296 548.1 502.344 547.434 499.21L544.008 499.21C543.811 499.704 544.402 500.987 543.663 500.913C540.927 500.222 540.581 501.949 538.535 501.949L538.535 498.519C537.106 498.001 538.486 500.296 537.5 500.222C534.493 499.235 533.605 503.75 531.337 501.258C531.781 500.444 534.197 501.603 533.383 499.556C532.348 498.322 531.263 499.926 530.647 500.246C530.622 499.704 530.696 499.062 529.957 499.21C529.119 500.543 527.467 501.061 525.174 500.913C524.977 501.505 525.594 502.936 524.829 502.96C524.46 501.209 522.339 502.072 521.748 502.96C522.044 500.962 518.938 502.344 517.656 501.924C516.916 503.355 514.525 503.133 512.873 503.651C512.676 504.145 513.268 505.428 512.528 505.354L510.137 505.354C509.989 504.712 510.606 503.281 509.447 503.651C507.598 503.627 507.919 505.773 506.711 506.39C505.33 506.291 504.96 505.181 505.01 503.651L508.436 503.651C508.781 502.048 505.872 503.701 505.7 502.615C505.379 501.381 507.376 502.467 506.735 500.913C504.418 501.776 502.766 503.331 501.608 505.354C500.079 505.403 500.597 503.38 499.562 502.96L496.826 502.96C497.466 501.036 494.779 502.344 494.089 501.924C493.547 501.603 494.41 501.085 493.399 500.888C492.142 500.641 490.441 501.061 488.962 500.888C489.332 502.64 486.768 501.431 486.916 502.936C483.662 502.985 482.232 504.86 480.408 506.365C477.4 505.872 475.921 506.908 473.9 507.402C474.072 511.473 468.403 509.351 467.071 508.092C464.828 508.166 462.61 508.216 461.254 507.402C460.638 507.5 459.553 508.857 458.863 507.747C458.813 506.785 461.106 508.166 460.564 506.711C457.803 505.551 455.091 507.377 454.056 509.104L448.928 509.104C448.657 508.24 449.594 506.143 448.238 506.365C447.498 507.969 447.622 506.883 446.537 506.365C446.044 506.785 446.217 507.87 444.836 507.402C443.776 505.847 441.484 505.502 440.054 504.317C439.807 503.528 440.67 501.653 439.364 501.924C437.17 502.122 437.564 504.91 434.926 504.663C435.222 502.418 434.483 501.209 432.88 500.888C429.478 502.837 427.679 506.415 422.28 506.365C422.182 508.907 419.864 509.178 417.153 509.104L417.153 506.365L419.544 506.365C419.273 505.502 420.21 503.405 418.854 503.627C417.227 503.355 417.942 505.452 416.463 505.329C415.6 504.021 411.853 504.49 411.68 506.02L411.68 507.056C412.814 508.882 417.991 508.487 417.498 510.831C417.128 510.165 416.832 509.425 415.452 509.795C414.712 510.313 414.835 511.695 413.751 511.843C413.085 511.719 413.726 510.288 412.395 510.806C409.708 512.558 406.208 512.312 402.83 511.843C402.485 513.101 404.507 511.991 403.866 513.545C402.584 513.052 403.2 514.483 402.165 514.236C400.193 513.323 398.59 514.705 396.002 513.545C394.991 513.792 395.435 515.494 393.956 515.248C392.526 514.976 392.649 513.126 391.565 512.509C390.924 514.507 388.138 516.136 386.092 515.593C386.635 514.31 388.212 514.063 388.828 512.854C386.388 511.448 384.49 513.521 382.321 513.545L382.321 511.843C380.768 511.325 382.493 514.088 380.94 513.545C379.979 513.619 381.359 511.3 379.905 511.843C377.39 513.323 371.745 511.645 369.65 513.545C369.157 511.991 366.15 512.953 364.868 512.188C364.818 511.226 367.111 512.608 366.568 511.152C366.322 510.387 364.646 511.029 363.832 510.806C363.783 513.372 361.663 513.891 360.406 515.248C359.641 512.435 361.712 512.46 362.107 510.806C360.627 511.251 360.036 512.608 359.025 513.545C356.387 513.076 355.401 514.261 354.243 515.248C353.479 515.001 354.12 513.323 353.898 512.509C353.257 512.361 351.827 512.978 352.197 511.818C349.386 513.521 344.333 515.47 340.562 513.175C339.871 511.349 342.016 512.361 341.597 510.782C339.452 510.116 339.871 512.015 339.896 513.521C338.121 514.162 337.357 515.766 335.114 515.914C334.029 514.779 332.254 515.346 330.997 515.914L330.997 514.187C329.099 514.261 328.285 512.756 326.905 514.187C325.524 513.298 324.045 512.484 322.468 511.793C321.457 513.175 317.833 512.41 316.65 511.793C316.453 511.078 317.192 509.425 315.959 509.746C314.333 511.152 307.948 511.473 306.395 509.746C302.106 510.165 300.799 507.599 297.151 507.352C296.929 506.094 296.534 504.984 294.76 505.304L294.76 503.602C291.284 504.12 289.903 502.541 286.551 502.911L286.551 500.863C281.349 501.036 278.12 499.259 275.951 496.422C273.757 496.792 272.746 495.978 271.168 495.731C269.048 497.236 264.858 496.225 263.65 494.695C261.382 495.04 260.051 496.348 257.487 496.397L257.487 494.695C255.367 494.991 254.455 494.078 254.751 491.956C251.94 491.315 251.225 494.275 249.623 491.956C248.612 491.956 250.116 494.498 248.588 494.004C247.355 493.634 246.369 493.017 246.542 491.265L235.942 491.265C235.794 489.588 234.635 488.921 234.241 487.49C229.015 488.428 226.155 484.086 222.26 486.8C221.299 486.849 222.679 484.554 221.225 485.097C218.02 485.739 215.309 485.64 211.315 485.097C211.315 482.482 209.59 481.569 207.223 481.322C206.779 482.136 205.35 483.765 204.142 482.679C206.04 482.062 206.779 480.311 207.568 478.559C206.262 478.065 207.494 480.088 206.188 479.595C206.114 478.065 203.353 479.25 204.142 476.856C201.381 476.388 200.888 478.164 199.014 478.559C198.718 477.597 197.165 477.893 195.933 477.868C195.366 479.348 194.084 480.113 193.197 481.297C188.685 481.297 184.741 484.135 180.551 482.334C178.332 484.702 174.511 485.418 169.605 485.072C169.507 488.773 162.95 489.415 160.361 487.466C159.005 488.847 157.428 490.007 155.924 491.241C153.089 490.797 152.448 492.548 151.487 493.979C149.564 494.794 146.754 494.72 143.968 494.67C143.376 495.805 142.021 496.151 140.542 496.373C139.703 495.953 139.383 495.016 138.496 494.67C134.428 496.397 129.301 497.113 126.515 500.148L123.434 500.148C123.286 499.506 123.902 498.075 122.743 498.445C120.944 499.95 118.849 501.159 117.271 502.886C115.915 502.763 115.964 501.233 113.844 501.85C113.672 503.725 110.96 503.084 110.418 504.589C109.752 504.441 110.393 503.01 109.037 503.553C108.594 505.132 110.738 504.12 110.073 505.946C108.717 506.316 109.037 508.339 108.027 509.03L105.636 509.03C105.438 509.523 106.03 510.806 105.29 510.732C101.938 510.683 99.6451 511.695 98.1168 513.471L91.2885 513.471C90.327 516.16 86.0625 515.544 84.7806 517.912C82.4634 517.419 81.8964 518.677 79.9983 518.603C79.9243 520.454 78.6915 521.169 78.6177 523.044C77.1139 522.131 73.2191 523.439 71.0991 524.081C71.2716 525.832 70.2856 526.449 69.0531 526.819C68.8065 525.314 70.7786 526.054 70.0884 524.081C68.6339 523.883 68.7079 525.215 68.0424 525.783C66.1195 525.561 64.6405 525.783 63.9503 526.819C64.5419 525.215 62.3479 526.375 62.9149 524.771C58.9214 523.834 55.2238 524.771 52.3149 524.081C52.9312 525.832 51.4027 525.462 51.2795 526.474C51.1316 527.288 52.8325 526.276 52.3149 527.51C50.8358 527.263 51.2549 528.966 50.2689 529.213L47.8777 529.213C47.7297 528.571 48.3461 527.14 47.1875 527.51C47.9763 530.125 45.0181 528.99 43.4158 529.213C43.5636 531.877 39.9646 530.792 39.6442 532.988C37.3762 533.21 36.1683 532.371 36.2177 530.249C34.4674 530.866 34.8372 529.336 33.8265 529.213C33.6786 530.422 32.5446 530.668 32.446 531.951C29.2907 531.408 28.9948 533.728 25.6176 532.988C25.4696 532.346 26.0859 530.915 24.9274 531.285C24.385 532.001 23.7933 532.667 23.5469 533.678C20.3915 533.136 20.0958 535.479 16.7186 534.715C16.4474 533.851 17.384 531.779 16.0283 531.976C13.3167 531.976 14.771 536.195 11.5911 535.751C10.8514 532.395 14.5245 533.432 15.0176 531.31C13.218 532.371 9.29846 531.31 7.84412 532.667C8.28784 533.481 10.7036 532.321 9.89014 534.369C4.66407 536.442 2.17432 541.253 -4.48144 541.894L-4.45679 542.117ZM1268.06 1.03667L1266.36 1.03667C1265.84 2.09758 1268.61 2.09758 1268.06 1.03667ZM1324.15 5.47777L1324.15 3.42992L1323.11 3.42992C1323.55 4.78692 1321.98 4.12078 1322.42 5.47777L1324.15 5.47777ZM744.472 491.438L742.771 491.438C742.253 492.499 745.014 492.499 744.472 491.438ZM557.418 498.643L559.119 498.643C558.675 497.286 560.253 497.952 559.809 496.595L558.108 496.595C558.552 497.952 556.974 497.286 557.418 498.643ZM611.454 504.466C611.404 505.206 612.662 504.614 613.155 504.811C613.007 504.169 613.623 502.738 612.464 503.084C612.957 504.392 610.936 503.158 611.429 504.466L611.454 504.466ZM101.889 507.55C102.579 508.339 102.85 509.548 104.625 509.252C103.491 506.39 107.287 508.487 107.361 506.859C105.142 505.329 104.551 508.364 101.889 507.55ZM661.052 516.432C661.101 515.692 659.844 516.284 659.351 516.087C658.562 517.444 661.446 517.592 661.052 516.432ZM68.3875 523.291C69.4474 523.809 69.4474 521.046 68.3875 521.589L68.3875 523.291ZM974.295 530.816C974.344 530.076 973.087 530.668 972.594 530.471C971.805 531.828 974.689 531.976 974.295 530.816ZM951.394 534.912L954.13 534.912L954.13 533.21C952.478 533.037 951.369 533.407 951.394 534.912Z" fill="#6096BA"/>
</svg>
