<svg width="382" height="170" viewBox="0 0 382 170" fill="none" xmlns="http://www.w3.org/2000/svg">
<path d="M381.54 147.789C381.54 147.789 189.34 144.546 186.763 145.96C184.186 147.373 292.507 148.869 293.421 147.623C294.335 146.376 290.345 139.725 292.839 128.087C295.333 116.448 289.888 109.382 287.976 111.294C286.064 113.207 304.519 136.65 305.849 136.317C307.18 135.984 299.199 110.894 300.529 108.966C301.859 107.04 315.409 121.353 317.488 120.646C319.567 119.939 313.04 114.245 313.082 111.792C313.124 109.34 323.64 112.25 325.676 111.585C327.713 110.92 319.4 100.57 319.4 99.4057C319.4 98.2414 322.476 98.6989 328.295 105.765C334.114 112.831 347.124 151.778 327.006 150.365C306.888 148.952 302.233 133.905 299.989 116.448C297.744 98.99 294.225 88.2382 292.23 87.2965C290.235 86.354 294.946 103.48 297.218 105.086C299.491 106.694 318.001 99.7105 319.22 97.1058C320.439 94.5011 308.524 80.4241 306.917 77.0433C305.309 73.6626 301.652 77.0988 299.324 76.4338C296.996 75.7687 299.49 73.4407 299.324 71.3353C299.157 69.2292 298.326 70.2826 296.386 69.7833C294.446 69.2847 295 54.6392 293.629 48.238C292.257 41.8368 270.061 41.795 265.863 39.5095C261.665 37.2233 259.046 38.8862 260.875 41.2553C262.703 43.6244 282.863 47.1161 284.443 46.825C286.022 46.5339 275.548 46.1182 269.562 44.3313C263.577 42.5437 258.88 43.6244 265.655 47.1579C272.43 50.6914 281.242 50.3167 280.868 52.3536C280.494 54.3906 262.496 52.229 262.163 55.1803C261.83 58.1316 265.571 56.5522 271.391 59.6281C277.21 62.704 277.709 66.7361 284.36 71.225C291.01 75.7139 290.788 82.5309 292.673 84.415C294.557 86.2992 308.634 84.7753 303.979 75.5475C299.324 66.3197 297.495 50.9818 295.541 45.1217C293.587 39.2609 280.48 41.8519 273.636 39.6074C266.792 37.363 259.961 24.7962 257.217 21.471C254.474 18.1457 253.975 22.6764 253.393 27.7057C252.811 32.735 246.12 23.5908 242.835 18.769C239.551 13.9472 242.586 20.8059 242.628 26.1674C242.67 31.5289 239.22 24.2969 235.312 20.847C231.405 17.3971 236.06 23.0915 234.772 26.9571C233.484 30.8228 221.596 26.2092 223.923 29.3262C226.251 32.4439 237.473 29.4091 249.735 30.4488C261.997 31.4878 261.664 34.4391 261.124 36.7671C260.584 39.0951 260.001 36.3931 262.205 34.3562C264.407 32.3193 267.318 36.0603 267.858 36.5589C268.398 37.0575 272.431 10.4137 255.139 2.89068C237.848 -4.6324 219.268 12.4925 218.562 15.9424C217.855 19.3923 221.097 13.4486 222.843 13.4486C224.589 13.4486 219.31 19.3512 219.601 25.1702C219.892 30.9892 219.933 34.1069 219.185 33.774C218.437 33.4412 223.092 28.9523 224.796 32.1528C226.5 35.3534 225.78 38.6369 222.787 42.7382C219.794 46.8394 218.644 52.4783 220.016 51.0235C221.388 49.5688 205.219 52.7694 204.055 50.6078C202.891 48.4462 203.681 47.6147 209.293 47.4901C214.904 47.3654 224.09 39.8006 224.007 36.6411C223.924 33.4823 221.468 35.7274 217.606 39.0102C213.744 42.293 207.173 44.2059 206.176 44.6217C205.178 45.0374 208.753 45.1203 213.2 43.6238C217.648 42.1272 221.222 37.5965 221.472 36.0171C221.721 34.4377 218.465 36.9178 212.978 37.9705C207.491 39.0232 197.82 36.8897 193.747 39.1342C189.674 41.3786 176.04 75.4626 176.456 78.4556C176.872 81.4487 190.755 78.8714 192.833 80.035C194.911 81.1987 185.019 121.601 187.512 124.178C190.006 126.755 190.838 104.642 190.09 100.734C189.342 96.827 168.143 98.3236 167.81 94.9983C167.477 91.6731 172.299 77.042 176.678 76.931C181.056 76.8201 190.866 78.9816 193.36 77.2632C195.853 75.5454 197.405 68.1189 197.128 66.2895C196.851 64.4608 195.909 71.6654 202.891 65.569C209.875 59.4726 217.523 58.2952 221.721 55.8426C225.919 53.3899 222.635 42.2923 222.095 47.1552C221.555 52.018 229.951 84.6472 246.826 80.9898C263.702 77.3317 263.494 58.8904 262.746 58.3363C261.997 57.7823 263.355 60.0267 260.473 67.2868C257.591 74.5468 249.944 82.6384 241.907 85.3541C233.871 88.0697 236.088 91.7826 236.809 90.4525C237.529 89.1224 227.665 77.5392 224.339 64.1554C224.187 63.5396 220.89 68.2703 220.681 74.214C220.473 80.1576 235.479 102.479 234.273 104.848C233.068 107.217 234.897 95.1634 236.518 93.8744C238.139 92.586 242.794 92.9182 248.281 92.2532C253.768 91.5881 265.448 62.2013 267.111 62.3671C268.774 62.5335 267.983 99.1941 267.983 99.7763C267.983 100.358 253.019 95.2873 252.563 94.3312C252.105 93.3751 254.807 93.1258 255.181 94.5387C255.555 95.9517 254.1 120.309 254.599 127.126C255.097 133.943 263.369 133.112 264.616 134.4C265.864 135.688 257.799 136.644 256.968 137.85C256.136 139.055 268.509 140.552 269.729 139.222C270.948 137.892 254.474 107.881 252.811 103.558C251.148 99.2352 248.696 101.356 250.193 103.143C251.689 104.93 254.183 98.1962 252.479 96.2839C250.775 94.3716 238.305 96.1037 238.471 99.5954C238.638 103.087 246.396 104.417 246.341 107.742C246.285 111.068 241.353 135.841 240.743 136.284C240.134 136.727 235.312 137.06 235.312 135.813C235.312 134.566 244.54 103.142 246.285 103.724C248.031 104.306 249.86 133.651 253.85 138.806C257.841 143.96 265.323 144.126 267.65 142.963C269.977 141.799 211.536 142.796 209.956 142.381C208.377 141.965 210.372 140.635 209.956 130.16C209.541 119.686 202.641 90.9224 203.804 89.4259C204.968 87.9293 209.125 103.143 208.876 106.468C208.626 109.793 198.235 134.483 186.18 142.796C177.102 149.057 168.773 151.177 159.24 148.2C156.42 147.32 154.896 132.183 157.389 118.494C159.883 104.806 167.199 96.049 167.919 96.8243C168.64 97.5996 162.432 110.125 165.093 108.13C167.753 106.135 172.63 98.4318 172.907 100.537C173.184 102.643 162.377 123.593 162.377 133.79C162.377 143.987 185.682 134.69 181.4 138.972C177.119 143.253 168.515 144.541 169.138 144.957C169.762 145.373 177.659 144.417 175.539 145.58C173.42 146.744 164.69 148.158 158.996 147.368C155.754 146.918 152.487 147.678 148.664 147.535C139.3 147.184 121.242 153.414 120.537 155.588C119.638 158.362 119.562 164.659 120.087 164.809C120.612 164.959 170.088 164.509 170.762 163.534C171.437 162.559 171.512 156.038 170.238 154.613C168.963 153.188 89.5015 153.714 88.0023 152.889C86.503 152.064 85.6784 142.244 87.1776 141.345C88.6769 140.446 151.196 139.808 152.659 137.447C154.12 135.086 151.984 54.7995 151.422 53.3379C150.859 51.8763 28.0691 50.3016 24.4705 52.1009C20.872 53.9002 20.1974 136.098 24.1329 138.346C28.0684 140.596 94.274 137.996 95.9198 139.446C97.5657 140.895 95.8733 159.935 98.1972 162.934C100.521 165.933 97.3725 108.286 96.7726 107.311C96.1726 106.336 80.8806 107.911 78.856 108.885C76.832 109.86 81.4045 160.76 80.9552 164.058C80.5052 167.357 64.0886 159.036 65.0632 158.436C66.0378 157.836 114.239 156.786 115.814 157.611C117.388 158.436 118.662 165.632 117.186 167.281C115.709 168.93 58.4668 166.981 57.5668 166.981C56.6669 166.981 56.4422 162.483 57.7915 162.483C59.1408 162.483 64.5386 166.681 64.7632 167.581C64.9879 168.48 37.4017 169.268 32.9039 167.581C28.406 165.894 71.1356 155.662 74.1712 153.413C77.2074 151.164 46.172 150.939 42.3488 149.478C38.5256 148.016 70.348 144.417 70.9103 142.956C71.1938 142.218 35.4414 141.624 0 141.357" stroke="#6096BA" stroke-miterlimit="10"/>
</svg>
