<svg width="88" height="88" viewBox="0 0 88 88" fill="none" xmlns="http://www.w3.org/2000/svg">
<g clip-path="url(#clip0_740_328)">
<path d="M7.34386 80.6568L7.34325 80.6561C4.53146 77.8492 2.82713 74.851 1.81889 69.4889C0.803784 64.0902 0.5 56.3256 0.5 44C0.5 31.6748 0.811269 23.9126 1.83007 18.5152C2.84202 13.1543 4.54651 10.1553 7.34426 7.34284C10.1409 4.53651 13.1389 2.83214 18.5037 1.82263C23.9048 0.806278 31.6746 0.5 44 0.5C56.3252 0.5 64.0975 0.811266 69.4998 1.83009C74.8662 2.84213 77.8644 4.54667 80.6561 7.34325C83.4483 10.1403 85.1529 13.1389 86.1662 18.504C87.1862 23.9051 87.5 31.6749 87.5 44C87.5 56.3256 87.1962 64.0902 86.1811 69.4889C85.1729 74.851 83.4685 77.8492 80.6568 80.6561C77.8445 83.4635 74.8459 85.1679 69.485 86.1774C64.0876 87.1937 56.3254 87.5 44 87.5C31.6748 87.5 23.9025 87.1887 18.5002 86.1699C13.1338 85.1579 10.1356 83.4533 7.34386 80.6568Z" stroke="#EAEAEA"/>
<path d="M47.77 31.92C49.59 31.92 50.34 31.24 50.34 29.64C50.34 28.04 49.55 27.29 47.77 27.29C45.99 27.29 45.2 27.97 45.2 29.64C45.2 31.24 45.96 31.92 47.78 31.92H47.77ZM45.29 50.46L44.97 50.25L49.21 35.33H40.62L39.69 38.65L44.68 38.61L41.43 49.99C40.86 52.06 42.25 53.98 44.53 53.98C45.32 53.98 46.09 53.74 46.74 53.3L52.59 49.34L50.81 46.7L45.28 50.46H45.29ZM34.31 31.1H19.76V40.28C19.76 44.95 18.94 48.59 17.83 50.22H16.09V58.52H19.68V53.6H33.31V58.52H36.91V50.22H34.3V31.1H34.31ZM23.39 40.12V34.63H30.52V50.22H21.57C22.53 48.54 23.39 44.65 23.39 40.12ZM69.32 35.34H60.83C57.23 35.34 54.77 37.69 54.77 41.08C54.77 43.75 56.3 45.79 58.73 46.5L54.09 53.56H58.19L62.36 47.14H65.64V53.56H69.31V35.34H69.32ZM61.26 43.97C59.58 43.97 58.48 42.86 58.48 41.22C58.48 39.58 59.59 38.51 61.26 38.51H65.65V43.98H61.26V43.97Z" fill="#EAEAEA"/>
</g>
<defs>
<clipPath id="clip0_740_328">
<rect width="88" height="88" fill="white"/>
</clipPath>
</defs>
</svg>
