<svg width="376" height="181" viewBox="0 0 376 181" fill="none" xmlns="http://www.w3.org/2000/svg">
<path d="M58.4363 80C58.4363 81.4728 59.6302 82.6667 61.103 82.6667C62.5758 82.6667 63.7697 81.4728 63.7697 80C63.7697 78.5272 62.5758 77.3333 61.103 77.3333C59.6302 77.3333 58.4363 78.5272 58.4363 80ZM64.0212 122.963L64.5036 122.831L64.0212 122.963ZM85.4677 158.519L85.7576 158.111L85.4677 158.519ZM173.662 155L173.389 154.582L173.662 155ZM197.842 127.87L198.24 128.173L197.842 127.87ZM209.931 109.63L209.54 109.319L209.931 109.63ZM227.858 95.8333L227.589 95.4114L227.858 95.8333ZM261.486 88.3796L261.521 87.8808L261.486 88.3796ZM281.034 103.333L281.444 103.048L281.034 103.333ZM285.434 125.88L285.932 125.83L285.434 125.88ZM292.892 144.815L292.481 145.1L292.892 144.815ZM309.567 150.787L309.512 150.29L309.567 150.787ZM326.428 139.167L326.158 138.746L326.428 139.167ZM354.406 148.333L353.949 148.536L354.406 148.333ZM376.852 180.478C377.116 180.559 377.396 180.411 377.478 180.148C377.559 179.884 377.411 179.604 377.148 179.522L376.852 180.478ZM60.5935 82.6975C60.5917 82.9736 60.8141 83.1989 61.0902 83.2007C61.3664 83.2025 61.5917 82.9801 61.5935 82.704L60.5935 82.6975ZM61.5416 88.1073C61.5445 87.8311 61.3231 87.6049 61.0469 87.602C60.7708 87.599 60.5446 87.8205 60.5416 88.0966L61.5416 88.1073ZM60.501 93.5021C60.5003 93.7782 60.7237 94.0026 60.9998 94.0032C61.2759 94.0039 61.5003 93.7805 61.501 93.5044L60.501 93.5021ZM61.5395 98.895C61.5343 98.6189 61.3063 98.3993 61.0302 98.4045C60.7541 98.4097 60.5345 98.6377 60.5396 98.9138L61.5395 98.895ZM60.7278 104.329C60.7424 104.605 60.9778 104.816 61.2535 104.802C61.5293 104.787 61.741 104.552 61.7264 104.276L60.7278 104.329ZM62.1308 109.638C62.1033 109.363 61.8583 109.163 61.5835 109.19C61.3087 109.218 61.1083 109.463 61.1358 109.738L62.1308 109.638ZM61.8312 115.123C61.8749 115.396 62.1313 115.582 62.404 115.538C62.6767 115.494 62.8623 115.238 62.8186 114.965L61.8312 115.123ZM63.8472 120.231C63.7846 119.962 63.5159 119.795 63.2469 119.857C62.978 119.92 62.8106 120.189 62.8732 120.458L63.8472 120.231ZM64.2659 125.651C64.3444 125.916 64.6226 126.067 64.8874 125.988C65.1521 125.91 65.3032 125.632 65.2247 125.367L64.2659 125.651ZM66.8438 130.381C66.7522 130.12 66.4667 129.983 66.2062 130.075C65.9457 130.167 65.8088 130.452 65.9004 130.713L66.8438 130.381ZM67.8107 135.681C67.9177 135.936 68.2108 136.056 68.4654 135.949C68.72 135.842 68.8396 135.549 68.7327 135.294L67.8107 135.681ZM70.9347 140.068C70.81 139.822 70.5092 139.723 70.2628 139.848C70.0164 139.973 69.9178 140.274 70.0425 140.52L70.9347 140.068ZM72.643 145.178C72.7878 145.413 73.0958 145.486 73.3309 145.341C73.566 145.197 73.6392 144.889 73.4944 144.653L72.643 145.178ZM76.4538 148.982C76.2868 148.762 75.9731 148.719 75.7532 148.886C75.5333 149.053 75.4905 149.367 75.6576 149.587L76.4538 148.982ZM79.1214 153.661C79.312 153.861 79.6285 153.868 79.8283 153.678C80.0282 153.487 80.0357 153.171 79.8451 152.971L79.1214 153.661ZM83.6793 156.526C83.4653 156.351 83.1504 156.383 82.9758 156.597C82.8012 156.811 82.8331 157.126 83.0471 157.301L83.6793 156.526ZM87.646 160.603C87.8778 160.753 88.1873 160.687 88.3375 160.455C88.4876 160.223 88.4214 159.914 88.1896 159.764L87.646 160.603ZM93.2619 162.726C93.0171 162.598 92.7151 162.693 92.5872 162.938C92.4593 163.182 92.5541 163.485 92.7989 163.612L93.2619 162.726ZM98.2165 166.116C98.4725 166.22 98.764 166.096 98.8675 165.84C98.971 165.584 98.8474 165.293 98.5914 165.189L98.2165 166.116ZM104.135 167.127C103.87 167.048 103.592 167.199 103.513 167.463C103.434 167.728 103.585 168.006 103.85 168.085L104.135 167.127ZM109.636 169.53C109.907 169.585 110.171 169.411 110.226 169.14C110.282 168.869 110.107 168.605 109.837 168.55L109.636 169.53ZM115.642 169.506C115.368 169.471 115.118 169.664 115.083 169.938C115.048 170.212 115.242 170.463 115.516 170.498L115.642 169.506ZM121.441 171.062C121.716 171.081 121.954 170.872 121.972 170.596C121.99 170.321 121.782 170.083 121.506 170.065L121.441 171.062ZM127.4 170.307C127.124 170.301 126.896 170.521 126.891 170.797C126.886 171.073 127.105 171.301 127.381 171.306L127.4 170.307ZM133.304 171.262C133.58 171.249 133.793 171.015 133.78 170.739C133.766 170.463 133.532 170.25 133.256 170.264L133.304 171.262ZM139.032 169.695C138.758 169.735 138.57 169.99 138.611 170.263C138.652 170.536 138.907 170.724 139.18 170.684L139.032 169.695ZM144.966 169.516C145.234 169.448 145.395 169.176 145.327 168.908C145.259 168.64 144.987 168.478 144.72 168.547L144.966 169.516ZM150.273 166.85C150.013 166.942 149.877 167.228 149.97 167.488C150.062 167.749 150.348 167.884 150.608 167.792L150.273 166.85ZM156.074 165.583C156.325 165.47 156.438 165.174 156.324 164.922C156.211 164.67 155.915 164.558 155.663 164.671L156.074 165.583ZM160.888 162.103C160.644 162.232 160.551 162.535 160.68 162.779C160.81 163.023 161.113 163.116 161.356 162.986L160.888 162.103ZM166.478 160.099C166.715 159.958 166.793 159.651 166.652 159.413C166.511 159.176 166.204 159.098 165.967 159.239L166.478 160.099ZM170.934 156.169C170.702 156.318 170.634 156.627 170.782 156.86C170.931 157.092 171.24 157.161 171.473 157.012L170.934 156.169ZM176.445 153.628C176.663 153.459 176.703 153.145 176.534 152.926C176.365 152.708 176.051 152.668 175.833 152.837L176.445 153.628ZM180.356 148.855C180.159 149.049 180.156 149.366 180.35 149.562C180.544 149.759 180.86 149.762 181.057 149.568L180.356 148.855ZM185.237 145.089C185.417 144.88 185.395 144.564 185.186 144.383C184.977 144.202 184.662 144.225 184.481 144.434L185.237 145.089ZM188.325 139.745C188.155 139.962 188.193 140.277 188.41 140.447C188.628 140.617 188.942 140.579 189.112 140.361L188.325 139.745ZM192.801 135.502C192.966 135.28 192.92 134.967 192.698 134.802C192.476 134.638 192.163 134.684 191.998 134.906L192.801 135.502ZM195.616 130.008C195.451 130.23 195.498 130.543 195.719 130.707C195.941 130.872 196.254 130.825 196.419 130.604L195.616 130.008ZM199.855 125.934C200.011 125.707 199.954 125.396 199.727 125.239C199.499 125.082 199.188 125.14 199.031 125.367L199.855 125.934ZM201.985 120.789C201.84 121.024 201.913 121.332 202.148 121.477C202.383 121.622 202.691 121.549 202.836 121.314L201.985 120.789ZM205.697 116.651C205.844 116.416 205.772 116.108 205.538 115.962C205.303 115.816 204.995 115.887 204.849 116.121L205.697 116.651ZM207.882 111.529C207.722 111.753 207.774 112.066 207.999 112.226C208.224 112.386 208.536 112.334 208.696 112.109L207.882 111.529ZM212.16 107.832C212.351 107.632 212.343 107.315 212.143 107.125C211.943 106.934 211.626 106.942 211.436 107.142L212.16 107.832ZM215.709 103.291C215.492 103.462 215.454 103.776 215.625 103.993C215.795 104.21 216.11 104.248 216.327 104.077L215.709 103.291ZM220.922 100.804C221.153 100.652 221.217 100.342 221.065 100.112C220.913 99.881 220.603 99.817 220.372 99.9687L220.922 100.804ZM225.186 96.9203C224.951 97.0663 224.88 97.3747 225.026 97.6091C225.172 97.8435 225.48 97.9151 225.714 97.7691L225.186 96.9203ZM230.612 94.7821C230.854 94.6488 230.942 94.3448 230.809 94.1029C230.675 93.861 230.371 93.7729 230.13 93.9061L230.612 94.7821ZM235.467 91.3912C235.21 91.4931 235.085 91.7837 235.187 92.0404C235.288 92.2971 235.579 92.4226 235.836 92.3207L235.467 91.3912ZM241.326 90.5186C241.593 90.4482 241.752 90.1746 241.682 89.9076C241.612 89.6406 241.338 89.4813 241.071 89.5517L241.326 90.5186ZM246.844 88.3678C246.571 88.4086 246.383 88.6632 246.424 88.9363C246.465 89.2094 246.719 89.3976 246.992 89.3567L246.844 88.3678ZM252.755 88.7839C253.031 88.7696 253.243 88.5344 253.229 88.2586C253.214 87.9829 252.979 87.7709 252.703 87.7852L252.755 88.7839ZM258.585 87.7324C258.309 87.7236 258.078 87.9402 258.069 88.2162C258.061 88.4922 258.277 88.7231 258.553 88.7318L258.585 87.7324ZM264.552 89.3258C264.821 89.3869 265.089 89.2181 265.15 88.9488C265.211 88.6795 265.042 88.4117 264.773 88.3506L264.552 89.3258ZM270.81 90.9184C270.579 90.7665 270.269 90.8303 270.117 91.0609C269.965 91.2915 270.029 91.6016 270.26 91.7535L270.81 90.9184ZM274.924 95.9349C275.106 96.1426 275.422 96.1634 275.63 95.9814C275.838 95.7994 275.859 95.4835 275.677 95.2759L274.924 95.9349ZM279.611 100.41C279.453 100.184 279.141 100.13 278.915 100.289C278.689 100.447 278.634 100.759 278.793 100.985L279.611 100.41ZM282.01 106.068C282.125 106.319 282.422 106.429 282.673 106.315C282.924 106.2 283.034 105.903 282.919 105.652L282.01 106.068ZM284.646 111.315C284.595 111.044 284.333 110.866 284.062 110.917C283.791 110.969 283.612 111.231 283.664 111.502L284.646 111.315ZM284.363 117.214C284.384 117.49 284.624 117.696 284.899 117.676C285.175 117.655 285.381 117.415 285.361 117.14L284.363 117.214ZM285.708 122.951C285.691 122.675 285.453 122.466 285.178 122.483C284.902 122.5 284.693 122.737 284.71 123.013L285.708 122.951ZM285.277 128.514C285.322 128.787 285.579 128.971 285.852 128.926C286.124 128.881 286.308 128.624 286.264 128.352L285.277 128.514ZM287.449 133.282C287.364 133.019 287.082 132.875 286.82 132.959C286.557 133.044 286.412 133.326 286.497 133.589L287.449 133.282ZM288.467 138.421C288.59 138.668 288.89 138.77 289.137 138.648C289.385 138.525 289.486 138.226 289.364 137.978L288.467 138.421ZM291.884 142.403C291.736 142.17 291.426 142.102 291.194 142.251C290.961 142.399 290.893 142.709 291.042 142.941L291.884 142.403ZM294.057 146.929C294.257 147.119 294.574 147.11 294.763 146.91C294.953 146.709 294.945 146.393 294.744 146.203L294.057 146.929ZM298.455 148.651C298.204 148.537 297.907 148.647 297.792 148.898C297.677 149.15 297.788 149.446 298.039 149.561L298.455 148.651ZM302.558 150.984C302.829 151.037 303.092 150.86 303.145 150.589C303.197 150.318 303.02 150.055 302.749 150.003L302.558 150.984ZM307.254 150.42C306.978 150.421 306.756 150.647 306.757 150.923C306.759 151.199 306.984 151.421 307.26 151.42L307.254 150.42ZM312.262 150.684C312.523 150.593 312.661 150.309 312.571 150.048C312.48 149.787 312.195 149.649 311.934 149.739L312.262 150.684ZM316.306 147.273C316.087 147.441 316.046 147.755 316.214 147.974C316.382 148.193 316.696 148.234 316.915 148.066L316.306 147.273ZM320.847 144.583C321.047 144.392 321.054 144.075 320.863 143.876C320.672 143.676 320.355 143.669 320.156 143.86L320.847 144.583ZM324.018 140.322C323.805 140.498 323.774 140.813 323.95 141.026C324.125 141.239 324.44 141.27 324.653 141.094L324.018 140.322ZM328.645 138.499C328.894 138.379 328.998 138.08 328.879 137.831C328.759 137.582 328.46 137.478 328.211 137.597L328.645 138.499ZM332.647 136.078C332.377 136.138 332.207 136.405 332.268 136.674C332.328 136.944 332.595 137.114 332.864 137.053L332.647 136.078ZM337.327 136.449C337.602 136.431 337.811 136.193 337.793 135.917C337.775 135.642 337.537 135.433 337.262 135.451L337.327 136.449ZM341.876 135.331C341.6 135.331 341.376 135.555 341.376 135.832C341.377 136.108 341.601 136.331 341.877 136.331L341.876 135.331ZM347.745 137.728C347.958 137.905 348.273 137.875 348.449 137.663C348.626 137.451 348.597 137.135 348.384 136.959L347.745 137.728ZM353.176 144.21C353.063 143.958 352.767 143.845 352.515 143.958C352.263 144.071 352.15 144.367 352.264 144.619L353.176 144.21ZM354.618 150.945C354.663 151.218 354.92 151.402 355.193 151.357C355.465 151.312 355.649 151.054 355.604 150.782L354.618 150.945ZM355.938 156.116C355.938 155.84 355.714 155.616 355.438 155.616C355.161 155.617 354.938 155.841 354.938 156.117L355.938 156.116ZM355.069 161.53C355.103 161.804 355.353 161.998 355.627 161.964C355.901 161.929 356.095 161.679 356.061 161.405L355.069 161.53ZM357.62 166.409C357.493 166.164 357.191 166.068 356.946 166.195C356.701 166.323 356.605 166.624 356.732 166.869L357.62 166.409ZM360.037 171.355C360.231 171.552 360.547 171.555 360.744 171.361C360.941 171.168 360.944 170.851 360.75 170.654L360.037 171.355ZM364.892 174.019C364.662 173.867 364.352 173.93 364.199 174.161C364.047 174.391 364.11 174.701 364.341 174.853L364.892 174.019ZM369.151 177.535C369.4 177.652 369.698 177.546 369.816 177.296C369.934 177.046 369.827 176.748 369.578 176.63L369.151 177.535ZM374.57 178.67C374.309 178.578 374.024 178.714 373.932 178.975C373.84 179.235 373.976 179.521 374.236 179.613L374.57 178.67ZM60.603 80C60.603 80.9005 60.5994 81.7996 60.5935 82.6975L61.5935 82.704C61.5994 81.8045 61.603 80.9032 61.603 80H60.603ZM60.5416 88.0966C60.5224 89.9023 60.5051 91.7043 60.501 93.5021L61.501 93.5044C61.5051 91.7111 61.5224 89.9127 61.5416 88.1073L60.5416 88.0966ZM60.5396 98.9138C60.5736 100.721 60.6324 102.526 60.7278 104.329L61.7264 104.276C61.6317 102.487 61.5732 100.693 61.5395 98.895L60.5396 98.9138ZM61.1358 109.738C61.3157 111.534 61.5436 113.329 61.8312 115.123L62.8186 114.965C62.5345 113.192 62.309 111.417 62.1308 109.638L61.1358 109.738ZM62.8732 120.458C63.0775 121.337 63.299 122.216 63.5388 123.095L64.5036 122.831C64.2671 121.965 64.0488 121.098 63.8472 120.231L62.8732 120.458ZM63.5388 123.095C63.771 123.945 64.0131 124.798 64.2659 125.651L65.2247 125.367C64.974 124.521 64.7339 123.675 64.5036 122.831L63.5388 123.095ZM65.9004 130.713C66.4875 132.382 67.1223 134.043 67.8107 135.681L68.7327 135.294C68.0526 133.675 67.4249 132.034 66.8438 130.381L65.9004 130.713ZM70.0425 140.52C70.847 142.11 71.7118 143.666 72.643 145.178L73.4944 144.653C72.579 143.167 71.7277 141.635 70.9347 140.068L70.0425 140.52ZM75.6576 149.587C76.7364 151.007 77.8889 152.369 79.1214 153.661L79.8451 152.971C78.6399 151.707 77.5115 150.374 76.4538 148.982L75.6576 149.587ZM83.0471 157.301C83.7362 157.863 84.4462 158.405 85.1778 158.926L85.7576 158.111C85.0442 157.603 84.3517 157.075 83.6793 156.526L83.0471 157.301ZM85.1778 158.926C85.9989 159.51 86.8215 160.069 87.646 160.603L88.1896 159.764C87.3776 159.238 86.5671 158.687 85.7576 158.111L85.1778 158.926ZM92.7989 163.612C94.5911 164.549 96.3956 165.38 98.2165 166.116L98.5914 165.189C96.8002 164.465 95.0252 163.647 93.2619 162.726L92.7989 163.612ZM103.85 168.085C105.756 168.652 107.683 169.13 109.636 169.53L109.837 168.55C107.911 168.156 106.011 167.685 104.135 167.127L103.85 168.085ZM115.516 170.498C117.461 170.745 119.435 170.93 121.441 171.062L121.506 170.065C119.518 169.934 117.565 169.751 115.642 169.506L115.516 170.498ZM127.381 171.306C128.363 171.325 129.354 171.333 130.352 171.333V170.333C129.359 170.333 128.375 170.325 127.4 170.307L127.381 171.306ZM130.352 171.333C131.35 171.333 132.334 171.309 133.304 171.262L133.256 170.264C132.302 170.31 131.334 170.333 130.352 170.333V171.333ZM139.18 170.684C141.156 170.388 143.081 169.995 144.966 169.516L144.72 168.547C142.866 169.018 140.973 169.404 139.032 169.695L139.18 170.684ZM150.608 167.792C152.458 167.132 154.277 166.393 156.074 165.583L155.663 164.671C153.888 165.471 152.095 166.2 150.273 166.85L150.608 167.792ZM161.356 162.986C163.07 162.077 164.774 161.111 166.478 160.099L165.967 159.239C164.275 160.244 162.585 161.202 160.888 162.103L161.356 162.986ZM171.473 157.012C172.291 156.489 173.112 155.958 173.936 155.418L173.389 154.582C172.567 155.119 171.749 155.649 170.934 156.169L171.473 157.012ZM173.936 155.418C174.788 154.861 175.624 154.262 176.445 153.628L175.833 152.837C175.032 153.456 174.217 154.04 173.389 154.582L173.936 155.418ZM181.057 149.568C182.496 148.152 183.887 146.647 185.237 145.089L184.481 144.434C183.145 145.976 181.772 147.462 180.356 148.855L181.057 149.568ZM189.112 140.361C190.375 138.747 191.603 137.116 192.801 135.502L191.998 134.906C190.803 136.516 189.58 138.141 188.325 139.745L189.112 140.361ZM196.419 130.604C197.033 129.776 197.639 128.964 198.24 128.173L197.443 127.568C196.84 128.363 196.231 129.179 195.616 130.008L196.419 130.604ZM198.24 128.173C198.797 127.438 199.334 126.691 199.855 125.934L199.031 125.367C198.518 126.113 197.99 126.848 197.443 127.568L198.24 128.173ZM202.836 121.314C203.799 119.752 204.732 118.198 205.697 116.651L204.849 116.121C203.885 117.668 202.937 119.244 201.985 120.789L202.836 121.314ZM208.696 112.109C209.221 111.372 209.762 110.648 210.323 109.94L209.54 109.319C208.966 110.042 208.415 110.78 207.882 111.529L208.696 112.109ZM210.323 109.94C210.908 109.204 211.521 108.503 212.16 107.832L211.436 107.142C210.778 107.833 210.144 108.557 209.54 109.319L210.323 109.94ZM216.327 104.077C217.798 102.92 219.341 101.844 220.922 100.804L220.372 99.9687C218.777 101.018 217.21 102.111 215.709 103.291L216.327 104.077ZM225.714 97.7691C226.519 97.2682 227.324 96.7652 228.126 96.2552L227.589 95.4114C226.792 95.9187 225.99 96.4196 225.186 96.9203L225.714 97.7691ZM228.126 96.2552C228.946 95.7339 229.775 95.2432 230.612 94.7821L230.13 93.9061C229.274 94.3773 228.427 94.8787 227.589 95.4114L228.126 96.2552ZM235.836 92.3207C237.635 91.6066 239.467 91.0091 241.326 90.5186L241.071 89.5517C239.175 90.052 237.305 90.6618 235.467 91.3912L235.836 92.3207ZM246.992 89.3567C248.893 89.0723 250.816 88.8845 252.755 88.7839L252.703 87.7852C250.734 87.8874 248.779 88.0783 246.844 88.3678L246.992 89.3567ZM258.553 88.7318C259.517 88.7624 260.483 88.8117 261.452 88.8784L261.521 87.8808C260.54 87.8132 259.561 87.7633 258.585 87.7324L258.553 88.7318ZM261.452 88.8784C262.555 88.9544 263.585 89.1064 264.552 89.3258L264.773 88.3506C263.753 88.1193 262.672 87.9602 261.521 87.8808L261.452 88.8784ZM270.26 91.7535C271.992 92.8945 273.508 94.3186 274.924 95.9349L275.677 95.2759C274.22 93.6135 272.637 92.1223 270.81 90.9184L270.26 91.7535ZM278.793 100.985C279.399 101.848 280.003 102.727 280.623 103.619L281.444 103.048C280.828 102.161 280.219 101.276 279.611 100.41L278.793 100.985ZM280.623 103.619C281.159 104.389 281.617 105.209 282.01 106.068L282.919 105.652C282.504 104.744 282.017 103.872 281.444 103.048L280.623 103.619ZM283.664 111.502C284.016 113.359 284.22 115.285 284.363 117.214L285.361 117.14C285.216 115.192 285.008 113.225 284.646 111.315L283.664 111.502ZM284.71 123.013C284.771 124.008 284.842 124.985 284.937 125.929L285.932 125.83C285.839 124.903 285.769 123.94 285.708 122.951L284.71 123.013ZM284.937 125.929C285.026 126.818 285.139 127.678 285.277 128.514L286.264 128.352C286.129 127.537 286.019 126.698 285.932 125.83L284.937 125.929ZM286.497 133.589C287.034 135.256 287.691 136.85 288.467 138.421L289.364 137.978C288.608 136.447 287.97 134.899 287.449 133.282L286.497 133.589ZM291.042 142.941C291.497 143.654 291.977 144.372 292.481 145.1L293.303 144.53C292.805 143.811 292.332 143.104 291.884 142.403L291.042 142.941ZM292.481 145.1C292.944 145.768 293.474 146.377 294.057 146.929L294.744 146.203C294.208 145.695 293.724 145.139 293.303 144.53L292.481 145.1ZM298.039 149.561C299.468 150.214 301.003 150.681 302.558 150.984L302.749 150.003C301.261 149.713 299.802 149.267 298.455 148.651L298.039 149.561ZM307.26 151.42C308.068 151.415 308.86 151.369 309.623 151.284L309.512 150.29C308.785 150.371 308.029 150.415 307.254 150.42L307.26 151.42ZM309.623 151.284C310.549 151.181 311.426 150.974 312.262 150.684L311.934 149.739C311.165 150.006 310.361 150.196 309.512 150.29L309.623 151.284ZM316.915 148.066C318.292 147.008 319.585 145.791 320.847 144.583L320.156 143.86C318.892 145.07 317.635 146.252 316.306 147.273L316.915 148.066ZM324.653 141.094C325.321 140.545 326 140.036 326.698 139.587L326.158 138.746C325.418 139.221 324.708 139.754 324.018 140.322L324.653 141.094ZM326.698 139.587C327.342 139.174 327.99 138.813 328.645 138.499L328.211 137.597C327.521 137.93 326.836 138.31 326.158 138.746L326.698 139.587ZM332.864 137.053C334.32 136.728 335.807 136.548 337.327 136.449L337.262 135.451C335.706 135.552 334.166 135.738 332.647 136.078L332.864 137.053ZM341.877 136.331C342.638 136.33 343.395 136.333 344.169 136.333V135.333C343.404 135.333 342.633 135.33 341.876 135.331L341.877 136.331ZM344.169 136.333C345.517 136.333 346.693 136.854 347.745 137.728L348.384 136.959C347.195 135.971 345.8 135.333 344.169 135.333V136.333ZM352.264 144.619C352.581 145.327 352.877 146.024 353.156 146.685C353.435 147.345 353.699 147.973 353.949 148.536L354.863 148.13C354.617 147.578 354.358 146.96 354.077 146.296C353.798 145.634 353.498 144.929 353.176 144.21L352.264 144.619ZM353.949 148.536C354.252 149.218 354.468 150.038 354.618 150.945L355.604 150.782C355.446 149.826 355.212 148.916 354.863 148.13L353.949 148.536ZM354.938 156.117C354.938 156.586 354.935 157.044 354.932 157.486C354.928 157.926 354.925 158.351 354.925 158.75H355.925C355.925 158.356 355.928 157.935 355.932 157.493C355.935 157.052 355.938 156.59 355.938 156.116L354.938 156.117ZM354.925 158.75C354.925 159.427 354.925 160.386 355.069 161.53L356.061 161.405C355.925 160.328 355.925 159.424 355.925 158.75H354.925ZM356.732 166.869C357.483 168.317 358.544 169.836 360.037 171.355L360.75 170.654C359.326 169.205 358.325 167.767 357.62 166.409L356.732 166.869ZM364.341 174.853C365.731 175.773 367.324 176.672 369.151 177.535L369.578 176.63C367.791 175.786 366.239 174.91 364.892 174.019L364.341 174.853ZM374.236 179.613C375.072 179.908 375.943 180.197 376.852 180.478L377.148 179.522C376.251 179.245 375.392 178.961 374.57 178.67L374.236 179.613Z" fill="#465558"/>
<path d="M1 21.1961L31.5882 1H90.8039L121 21.1961V60.0196H61.3922H1V21.1961Z" fill="white"/>
<path d="M31.5882 1L1 21.1961M31.5882 1L61.3922 21.1961M31.5882 1H90.8039M1 21.1961H61.3922M1 21.1961V60.0196H61.3922M61.3922 21.1961V60.0196M61.3922 21.1961L90.8039 1M61.3922 21.1961H121M61.3922 60.0196H121V21.1961M90.8039 1L121 21.1961" stroke="#465558"/>
<path d="M31.5884 21V60.0196" stroke="#465558" stroke-dasharray="4 4"/>
<path d="M90.4116 21V60.0196" stroke="#465558" stroke-dasharray="4 4"/>
</svg>
