<svg width="40" height="41" viewBox="0 0 40 41" fill="none" xmlns="http://www.w3.org/2000/svg">
<circle cx="20" cy="20.458" r="20" fill="#EAEAEA"/>
<path d="M14.75 7.95801H25.25C29.25 7.95801 32.5 11.208 32.5 15.208V25.708C32.5 27.6308 31.7362 29.4749 30.3765 30.8345C29.0169 32.1942 27.1728 32.958 25.25 32.958H14.75C10.75 32.958 7.5 29.708 7.5 25.708V15.208C7.5 13.2852 8.26384 11.4411 9.62348 10.0815C10.9831 8.72185 12.8272 7.95801 14.75 7.95801ZM14.5 10.458C13.3065 10.458 12.1619 10.9321 11.318 11.776C10.4741 12.6199 10 13.7645 10 14.958V25.958C10 28.4455 12.0125 30.458 14.5 30.458H25.5C26.6935 30.458 27.8381 29.9839 28.682 29.14C29.5259 28.2961 30 27.1515 30 25.958V14.958C30 12.4705 27.9875 10.458 25.5 10.458H14.5ZM26.5625 12.333C26.9769 12.333 27.3743 12.4976 27.6674 12.7907C27.9604 13.0837 28.125 13.4811 28.125 13.8955C28.125 14.3099 27.9604 14.7073 27.6674 15.0004C27.3743 15.2934 26.9769 15.458 26.5625 15.458C26.1481 15.458 25.7507 15.2934 25.4576 15.0004C25.1646 14.7073 25 14.3099 25 13.8955C25 13.4811 25.1646 13.0837 25.4576 12.7907C25.7507 12.4976 26.1481 12.333 26.5625 12.333ZM20 14.208C21.6576 14.208 23.2473 14.8665 24.4194 16.0386C25.5915 17.2107 26.25 18.8004 26.25 20.458C26.25 22.1156 25.5915 23.7053 24.4194 24.8774C23.2473 26.0495 21.6576 26.708 20 26.708C18.3424 26.708 16.7527 26.0495 15.5806 24.8774C14.4085 23.7053 13.75 22.1156 13.75 20.458C13.75 18.8004 14.4085 17.2107 15.5806 16.0386C16.7527 14.8665 18.3424 14.208 20 14.208ZM20 16.708C19.0054 16.708 18.0516 17.1031 17.3483 17.8064C16.6451 18.5096 16.25 19.4634 16.25 20.458C16.25 21.4526 16.6451 22.4064 17.3483 23.1097C18.0516 23.8129 19.0054 24.208 20 24.208C20.9946 24.208 21.9484 23.8129 22.6517 23.1097C23.3549 22.4064 23.75 21.4526 23.75 20.458C23.75 19.4634 23.3549 18.5096 22.6517 17.8064C21.9484 17.1031 20.9946 16.708 20 16.708Z" fill="#465558"/>
</svg>
