<svg width="253" height="427" viewBox="0 0 253 427" fill="none" xmlns="http://www.w3.org/2000/svg">
<g style="mix-blend-mode:multiply" opacity="0.5" clip-path="url(#clip0_699_2)">
<path d="M44.64 331.2C43.38 331.79 42.52 332.5 41.44 332.85C39.77 333.38 38.43 332.97 37.22 331.81C36.15 330.78 35.53 329.46 35.02 328.1C34.27 326.1 33.85 324 33.41 321.92C33.1 320.42 32.78 318.92 32.44 317.42C31.68 314.09 30.03 311.24 27.65 308.8C26.64 307.76 25.56 306.78 24.52 305.77C23.42 304.7 22.33 303.61 21.22 302.55C18.3 299.75 16.42 296.36 15.45 292.46C14.75 289.65 14.08 286.82 13.51 283.98C12.7 279.92 11.18 276.14 9.17997 272.54C8.09997 270.6 7.04997 268.64 6.06997 266.66C4.26997 263.02 3.17997 259.18 3.15997 255.09C3.13997 250.45 2.42997 245.92 1.17997 241.46C0.55997 239.25 0.0899701 236.99 0.00997014 234.67C-0.0800299 232.03 0.42997 229.56 1.91997 227.37C2.49997 226.52 2.63997 225.8 2.29997 224.77C0.77997 220.18 0.30997 215.44 0.54997 210.62C0.68997 207.86 1.37997 205.24 2.44997 202.7C3.66997 199.79 5.69997 197.71 8.60997 196.53C10.59 195.73 12.61 195.04 14.59 194.27C15.77 193.81 16.93 193.28 18.26 192.72C17.69 191.65 16.99 190.77 17.06 189.61C17.14 188.4 17.48 187.27 17.91 186.15C18.59 184.39 19.58 182.79 20.58 181.2C21.45 179.83 22.32 178.46 23.23 177.12C25.46 173.82 26.93 170.2 27.67 166.3C28.47 162.1 29.53 157.99 31.13 154.01C32.53 150.53 32.82 146.94 32.03 143.21C31.45 140.46 31.25 137.64 30.88 134.85C30.72 133.67 30.56 132.48 30.44 131.3C30.37 130.62 30.32 129.94 30.34 129.26C30.35 128.58 31.04 128.19 31.61 128.48C31.69 128.52 31.78 128.54 31.83 128.6C33.11 130.12 34.4 129.6 35.82 128.74C37.29 127.84 38.99 127.51 40.69 127.26C42.21 127.04 43.71 126.7 45.17 126.24C47.27 125.58 49.03 124.46 50.3 122.62C51.06 121.52 52.13 120.6 51.95 119.02C51.89 118.53 52.44 118.03 53.02 118.23C53.76 118.49 54.13 118.2 54.49 117.65C54.82 117.15 55.16 116.65 55.55 116.21C56.14 115.54 56.5 114.81 56.54 113.91C56.55 113.58 56.66 113.24 56.77 112.92C57.03 112.15 57.58 111.82 58.35 112.01C59.18 112.21 60 112.43 60.81 112.7C61.34 112.87 61.83 112.89 62.26 112.55C66.14 109.49 70.79 108.78 75.49 108.39C78.48 108.14 81.16 107.26 83.59 105.56C84.01 105.27 84.45 105 84.87 104.7C88.68 101.95 92.91 100.27 97.55 99.54C101.73 98.88 105.61 97.38 109.2 95.12C109.85 94.71 110.5 94.29 111.18 93.95C112.11 93.48 112.9 92.95 113.31 91.9C113.69 90.94 114.49 90.24 115.26 89.55C115.68 89.17 115.84 88.78 115.66 88.2C114.88 85.74 114.86 83.15 114.51 80.62C114.4 79.79 114.45 78.9 114.62 78.08C114.78 77.33 114.62 76.72 114.23 76.15C113.7 75.37 113.15 74.62 112.55 73.89C111.52 72.63 110.44 71.43 109.42 70.16C106.67 66.73 104.49 62.99 103.38 58.7C102.78 56.38 102.51 54 102.5 51.61C102.48 48.03 102.51 44.45 102.89 40.87C103.32 36.79 103.1 32.68 103.12 28.58C103.12 27.04 103.2 25.52 103.43 23.99C104.02 20.03 105.4 16.4 107.65 13.11C108.76 11.49 109.92 9.90997 111.09 8.32997C112.43 6.51997 114.12 5.10997 116.15 4.08997C119.6 2.35997 123.22 1.10997 126.99 0.299974C129.1 -0.150026 131.25 0.0299743 133.37 0.299974C135.33 0.559974 137.27 0.479974 139.24 0.339974C142.38 0.119974 145.54 -0.0600257 148.68 0.469974C151.28 0.909974 153.59 1.97997 155.56 3.67997C162.91 10.01 167.61 17.75 168.15 27.68C168.24 29.38 168.5 31.08 168.79 32.75C169.49 36.74 169.46 40.74 168.98 44.74C168.82 46.11 168.79 47.41 169.13 48.78C169.64 50.88 169.26 53.03 169.07 55.15C168.96 56.42 168.81 57.69 168.68 58.96C168.65 59.21 168.68 59.48 168.64 59.73C168.5 60.57 168.52 61.49 168.15 62.23C167.11 64.31 167.14 66.72 166.03 68.76C165.37 69.97 164.5 71.03 163.41 71.88C162.46 72.62 162.1 73.55 161.95 74.72C161.62 77.26 161.43 79.81 161.39 82.37C161.38 82.97 161.34 83.57 161.57 84.14C162.44 86.3 162.66 88.6 162.94 90.89C163.02 91.51 163.17 92.03 163.55 92.53C164.43 93.71 165.09 94.99 165.23 96.49C165.28 97.05 165.59 97.4 165.99 97.76C168.17 99.73 170.6 101.28 173.46 102.08C174.69 102.43 175.92 102.78 177.16 103.09C180.25 103.86 183.15 105.07 185.74 106.96C187.91 108.54 190.31 109.63 192.9 110.28C196.56 111.21 200.02 112.61 203.36 114.37C204.49 114.96 205.68 115.45 206.87 115.92C210.67 117.43 213.84 119.85 216.69 122.72C218.15 124.19 219.25 125.93 220 127.85C220.83 130 221.64 132.16 222.32 134.35C223.15 137.04 224.04 139.71 225.12 142.31C226.48 145.59 227.28 148.98 227.06 152.53C226.82 156.36 227.54 159.99 228.87 163.55C229.44 165.06 229.83 166.64 230.25 168.21C230.62 169.6 230.91 170.94 232.12 171.99C233.1 172.84 233.35 174.21 233.64 175.46C233.89 176.54 234.11 177.64 234.18 178.74C234.42 182.31 234.93 185.88 234.75 189.47C234.66 191.22 235.02 192.85 235.58 194.48C236.27 196.5 236.91 198.53 237.55 200.56C238.51 203.65 238.66 206.77 237.82 209.9C236.78 213.78 236.11 217.73 235.42 221.68C235.09 223.55 234.56 225.34 233.59 226.97C233.14 227.73 232.86 228.49 232.85 229.38C232.85 229.8 232.78 230.24 232.65 230.64C231.51 234.04 231.66 237.54 231.72 241.04C231.76 243.26 231.83 245.48 231.75 247.7C231.59 252.25 230.52 256.64 229.43 261.03C228.49 264.84 227.52 268.64 226.68 272.47C225.6 277.4 225.13 282.42 225.06 287.46C224.95 294.85 223.73 302.05 221.8 309.16C220.59 313.6 219.4 318.05 218.71 322.62C218.3 325.32 218.02 328.03 217.84 330.76C217.75 332.12 217.56 333.47 217.33 334.82C217.23 335.4 217.03 336 216.72 336.49C216.11 337.47 214.91 337.91 214.52 339.2C214.16 340.38 212.87 340.86 211.81 341.42C211.26 341.72 211.18 342.19 211.29 342.72C211.63 344.3 211.98 345.89 212.36 347.46C213.14 350.72 213.47 354.02 213.42 357.36C213.34 362.48 213.22 367.6 213.16 372.73C213.13 375.38 213.16 378.02 213.2 380.67C213.27 384.44 213.98 388.13 214.53 391.84C215.24 396.67 215.49 401.49 215 406.38C214.62 410.12 214.57 413.88 214.74 417.64C214.85 420.05 215.59 422.33 216.02 424.68C216.12 425.25 216.56 425.52 217.14 425.52C217.82 425.52 218.51 425.54 219.19 425.54C229.52 425.54 239.86 425.54 250.19 425.55C250.95 425.55 251.72 425.59 252.48 425.7C252.65 425.72 252.9 426.07 252.9 426.26C252.9 426.45 252.63 426.78 252.45 426.8C251.69 426.89 250.92 426.92 250.15 426.92C240.41 426.92 230.68 426.92 220.94 426.92C167.74 426.91 114.54 426.89 61.34 426.88C58.45 426.88 55.56 426.73 52.67 426.85C49.77 426.97 46.86 426.87 43.96 426.87C40.97 426.87 37.98 426.87 34.99 426.87C32.09 426.87 29.18 426.87 26.28 426.87C23.38 426.87 20.47 426.87 17.57 426.85C16.73 426.85 15.86 427.03 15.06 426.63C14.92 426.56 14.73 426.36 14.75 426.26C14.79 426.04 14.92 425.71 15.08 425.66C15.47 425.53 15.91 425.49 16.33 425.49C18.89 425.48 21.45 425.49 24.02 425.49C24.62 425.49 25.22 425.5 25.81 425.49C27.33 425.45 27.37 425.4 27.71 424.02C27.99 422.86 28.28 421.7 28.61 420.56C29.03 419.08 29.48 417.61 29.96 416.16C31.45 411.6 32.35 406.92 32.93 402.17C33.47 397.77 33.95 393.36 34.57 388.97C35.29 383.8 36.65 378.78 38.31 373.84C39.55 370.12 40.71 366.37 41.55 362.53C42.65 357.51 43.08 352.42 43.23 347.29C43.38 342.26 43.5 337.22 44.63 332.28C44.68 332.05 44.63 331.79 44.63 331.24L44.64 331.2ZM143.11 208.09C143.17 208.39 143.34 208.6 143.66 208.65C143.63 209.01 143.77 209.21 144.16 209.15C143.94 209.75 144.39 210.1 144.66 210.51C146.43 213.2 147.39 216.16 147.8 219.35C148.11 221.82 148.17 224.28 148.16 226.76C148.16 229.16 148.34 231.54 148.97 233.86C150.13 238.15 152.18 241.95 155.48 244.98C157.74 247.06 160.09 249.05 162.43 251.04C164.38 252.7 166.24 254.46 167.96 256.37C170.39 259.07 172.2 262.14 173.29 265.62C173.62 266.68 174 267.72 174.3 268.79C175.29 272.25 177.16 275.16 179.79 277.58C181.42 279.08 183.06 280.58 184.71 282.07C188.01 285.04 191.36 287.96 194.61 290.98C197.82 293.96 200.53 297.36 202.71 301.17C203.09 301.84 203.45 302.52 203.75 303.22C204.86 305.85 203.36 306.86 201.3 306.98C200.88 307.01 200.44 306.98 200.03 306.86C199.13 306.61 198.2 306.39 197.36 305.99C193.93 304.39 190.74 302.39 188.21 299.54C184.69 295.57 180.98 291.8 177.1 288.2C172.89 284.29 170.24 279.54 169.14 273.91C168.65 271.4 168.19 268.88 167.65 266.38C167.09 263.8 166.63 261.19 165.8 258.67C164.88 255.86 163.52 253.37 161.05 251.57C159.6 250.52 158.27 249.31 156.92 248.12C155.77 247.1 154.62 246.07 153.57 244.95C149.95 241.1 147.81 236.51 147.16 231.27C146.86 228.82 146.86 226.33 146.74 223.86C146.68 222.67 146.68 221.47 146.6 220.28C146.45 218.04 145.84 215.92 145 213.85C143.95 211.24 141.99 209.33 140.01 207.44C139.74 207.18 139.41 207.18 139.07 207.31C137.77 207.78 136.65 208.56 135.47 209.25C132.81 210.8 130.02 211.6 126.9 210.94C125.66 210.67 124.36 210.64 123.08 210.55C122.58 210.52 122.06 210.6 121.56 210.7C120.7 210.87 120.25 211.67 120.63 212.44C121.05 213.28 121.54 214.09 122.09 214.84C123.83 217.2 125.09 219.8 126.06 222.55C126.77 224.56 127.49 226.57 128.22 228.57C129.33 231.62 130.65 234.57 132.11 237.48C134.46 242.14 137.24 246.54 139.77 251.09C142.75 256.46 145.86 261.76 148.98 267.06C149.45 267.86 150 268.65 150.63 269.33C152.49 271.34 154.15 273.51 155.75 275.72C157.91 278.7 160.28 281.5 162.95 284.03C164.25 285.26 165.49 286.56 166.78 287.81C170.64 291.56 173.51 295.94 175.39 300.99C176.13 302.99 176.98 304.95 177.85 306.9C179.18 309.91 181.14 312.47 183.53 314.72C185.98 317.02 188.72 318.89 191.7 320.42C193.67 321.43 195.66 322.42 197.7 323.31C201.05 324.77 203.92 326.84 206.36 329.54C207.56 330.87 208.82 332.15 210.08 333.43C211.11 334.46 212.24 335.37 213.56 336.02C214.82 336.63 215.51 336.36 215.89 335.06C216.08 334.41 216.23 333.73 216.3 333.06C216.49 331.19 216.66 329.32 216.79 327.45C216.95 325.23 217.28 323.04 217.66 320.86C218.4 316.57 219.58 312.38 220.69 308.17C222.11 302.8 223.23 297.38 223.54 291.81C223.73 288.4 223.83 284.99 224.07 281.58C224.22 279.46 224.52 277.34 224.84 275.24C225.63 270.09 227.01 265.06 228.31 260.03C230.05 253.29 231.08 246.5 230.31 239.52C230.15 238.09 230.21 236.63 230.46 235.18C230.7 233.8 230.82 232.4 231.04 230.72C229.47 232.23 228.11 233.52 226.77 234.83C225.24 236.32 223.79 237.88 222.4 239.51C221.35 240.73 220.79 242.12 220.49 243.63C220.26 244.8 220.12 246 220.1 247.18C220.02 250.68 220.02 254.18 219.98 257.68C219.95 260.5 219.93 263.31 219.43 266.1C218.6 270.79 216.97 275.15 214.24 279.06C213.3 280.4 212.2 281.59 210.81 282.47C210.03 282.96 209.23 283.08 208.4 282.55C207.59 282.03 207.29 281.23 207.36 280.35C207.44 279.42 207.65 278.5 208.09 277.65C208.68 276.51 209.2 275.34 209.85 274.24C211.36 271.71 212.17 268.96 212.79 266.1C213.67 262.01 214.15 257.86 214.8 253.73C215.67 248.23 217.77 243.25 221.25 238.87C222.9 236.79 224.77 234.92 226.67 233.08C227.83 231.95 228.99 230.81 230.08 229.61C232.38 227.08 233.78 224.13 234.28 220.72C234.79 217.26 235.42 213.82 236.32 210.44C237.25 206.96 237.14 203.51 236.04 200.1C235.38 198.07 234.68 196.06 234.04 194.02C233.68 192.89 233.33 191.76 233.36 190.53C233.46 186.18 233.26 181.83 232.67 177.51C232.54 176.58 232.3 175.67 232.07 174.76C231.96 174.35 231.77 173.96 231.57 173.59C231.5 173.47 231.32 173.38 231.17 173.33C230.99 173.27 230.88 173.38 230.87 173.61C230.8 174.8 230.8 176.01 230.19 177.09C229.8 177.78 229.2 178.12 228.52 178.01C227.81 177.9 227.54 177.37 227.39 176.77C226.92 174.92 227.13 173.11 228.39 171.7C229.27 170.72 229.38 169.79 229.06 168.67C228.57 166.95 228.13 165.2 227.5 163.53C226.12 159.88 225.45 156.14 225.68 152.25C225.87 148.94 225.18 145.8 223.9 142.77C222.8 140.17 221.94 137.49 221.07 134.82C220.41 132.79 219.72 130.78 218.97 128.78C218.06 126.33 216.56 124.28 214.63 122.53C212.01 120.17 209.18 118.15 205.84 116.91C204.88 116.55 203.94 116.14 203.03 115.66C199.55 113.8 195.92 112.35 192.09 111.38C189.58 110.75 187.26 109.67 185.18 108.14C182.52 106.19 179.53 105 176.36 104.19C175.37 103.94 174.37 103.69 173.39 103.41C170.9 102.69 168.6 101.62 166.6 99.94C166.34 99.72 166.06 99.52 165.78 99.32C165.19 98.91 164.97 98.94 164.59 99.66C162.89 102.87 160.3 105.14 157.2 106.92C156.16 107.52 155.08 108.02 153.89 108.24C153.39 108.33 153.17 108.66 153.18 109.14C153.2 109.91 153.24 110.68 153.28 111.44C153.5 115.44 153.66 119.45 153.97 123.45C154.37 128.66 154.03 133.86 153.65 139.05C153.28 144.07 152.77 149.08 152.76 154.12C152.76 158.3 152.9 162.48 153.21 166.65C153.53 170.99 153.88 175.33 154.5 179.64C155.66 187.74 156.99 195.82 158.28 203.91C158.44 204.9 158.12 206.14 158.97 206.8C159.77 207.42 160.95 207.06 161.96 207.16C162.72 207.24 163.5 207.19 164.26 207.13C165.61 207.01 166.71 206.41 167.42 205.22C167.86 204.49 168.26 203.74 168.67 202.99C170.38 199.88 172.9 198.2 176.56 198.28C178.09 198.31 179.63 198.18 181.15 197.95C182.92 197.69 184.43 196.93 185.02 195.05C185.31 194.12 185.97 193.71 186.83 193.43C188.24 192.96 188.37 192.78 188.25 191.52C188.18 190.76 188.01 190.01 187.86 189.25C187.47 187.31 186.65 185.52 185.88 183.72C184.71 181 184.23 178.14 184.29 175.23C184.34 172.59 184.75 169.96 185.26 167.36C185.67 165.27 186.18 163.18 186.4 161.07C186.71 158.02 186.94 154.94 186.92 151.88C186.9 147.7 186.59 143.52 186.44 139.34C186.41 138.41 186.53 137.47 186.61 136.53C186.68 135.75 186.96 135.04 187.44 134.42C187.89 133.84 188.76 133.85 189.18 134.49C189.41 134.84 189.64 135.23 189.72 135.63C189.91 136.55 190.11 137.48 190.13 138.41C190.24 143.53 190.34 148.66 190.35 153.78C190.35 158.7 189.39 163.41 187.26 167.91C185.81 170.96 185.28 174.24 185.66 177.64C185.89 179.69 186.47 181.64 187.22 183.56C187.81 185.07 188.34 186.6 188.95 188.1C189.11 188.48 188.99 189.07 189.58 189.31C190.01 188.27 190.1 187.26 190.1 186.23C190.13 183.26 190.99 180.52 192.38 177.92C193.1 176.56 193.84 175.21 194.57 173.87C196.71 169.96 198.41 165.88 199.57 161.57C200.1 159.6 200.81 157.67 201.51 155.74C202.06 154.21 202.84 152.78 203.85 151.49C204.32 150.88 204.84 150.31 205.52 149.92C206.06 149.61 206.65 149.46 207.21 149.83C207.69 150.15 207.71 150.69 207.68 151.21C207.62 152.42 207.25 153.57 206.79 154.67C205.87 156.88 204.94 159.08 203.93 161.24C202.12 165.11 200.58 169.08 199.37 173.18C198.47 176.2 197.5 179.21 196.54 182.21C195.44 185.65 193.9 188.87 191.69 191.75C191.51 191.99 191.21 192.26 191.7 192.59C194.77 190.69 197.36 188.24 199.61 185.42C201.43 183.15 202.99 180.7 204.55 178.25C205.51 176.74 206.51 175.24 207.72 173.92C208.71 172.84 209.79 171.89 211.11 171.23C211.65 170.96 212.19 170.74 212.81 170.71C214.01 170.64 214.79 171.32 214.81 172.51C214.83 173.98 214.16 175.16 213.14 176.12C212.46 176.76 211.71 177.35 210.91 177.83C207.16 180.08 204.32 183.2 202.01 186.87C201.1 188.31 200.13 189.73 199.09 191.07C197.19 193.51 194.61 194.68 191.55 194.82C190.45 194.87 189.33 194.87 188.23 194.8C187.2 194.74 186.42 194.86 186.06 196.04C185.69 197.25 184.7 197.98 183.61 198.53C182.53 199.08 181.39 199.41 180.17 199.43C178.8 199.46 177.44 199.5 176.07 199.54C173.58 199.63 171.67 200.75 170.32 202.83C169.86 203.54 169.42 204.29 169.06 205.06C167.91 207.53 165.84 208.57 163.28 208.54C161.17 208.52 159.05 208.09 156.96 208.74C154.86 208.41 152.89 208.96 150.96 209.69C148.59 210.6 146.3 210.55 144.1 209.2C144.04 208.92 143.87 208.76 143.59 208.71C143.41 208.52 143.23 208.34 143.04 208.15L142.97 208.04L143.11 208.08V208.09ZM42.53 137.05C42.58 136.65 42.42 136.46 42 136.51C42.17 136.14 42 135.84 41.76 135.6C40.15 134.08 38.52 132.57 36.89 131.06C36.71 130.89 36.47 130.77 36.25 130.64C35.97 130.48 35.42 130.61 35.33 130.82C35.18 131.15 35.41 131.28 35.6 131.43C37.76 133.1 39.92 134.77 42.08 136.43C42.26 136.61 42.43 136.8 42.61 136.98C42.65 137.01 42.69 137.03 42.72 137.06C42.66 137.06 42.6 137.06 42.53 137.05ZM56.49 150.25C56.33 150.28 56.3 150.16 56.43 150.15C56.77 150.11 56.3 150 56.54 150.25L57 150.8C57.16 150.97 57.32 151.15 57.49 151.32C57.66 151.49 57.82 151.66 57.99 151.83C58.94 152.81 59.98 153.71 60.8 154.79C61.91 156.24 63.28 156.76 65.04 156.51C65.63 156.42 66.24 156.46 66.82 156.34C69.24 155.87 71.67 155.39 74.08 154.85C76.17 154.38 78.15 153.58 79.98 152.47C80.7 152.03 81.4 151.53 82.03 150.96C82.94 150.15 82.96 149.75 82.33 148.75C81.37 147.23 80.19 145.89 78.9 144.63C76.52 142.31 74.12 140 71.8 137.62C66.19 131.88 60.19 126.56 54.46 120.96C54.34 120.84 54.22 120.71 54.08 120.62C53.9 120.51 53.72 120.2 53.48 120.57C53.45 121.15 53.91 121.47 54.23 121.84C58.25 126.49 62.32 131.08 66.97 135.12C71.09 138.71 75.17 142.33 78.73 146.49C79.06 146.88 79.42 147.25 79.72 147.66C80.06 148.14 79.96 148.65 79.6 149.07C78.99 149.79 78.22 150.33 77.39 150.79C75.82 151.67 74.19 152.41 72.44 152.84C69.96 153.45 67.45 153.94 64.98 154.58C63.72 154.91 62.61 154.69 61.56 154.03C60.7 153.48 59.89 152.85 59.07 152.25C58.72 152 58.4 151.72 57.92 151.9C57.99 151.51 57.79 151.37 57.43 151.38C57.4 151.09 57.25 150.9 56.95 150.86C56.8 150.66 56.65 150.46 56.5 150.25H56.49ZM204.6 181.08L204.48 181.13L204.53 181.01C204.73 180.85 204.93 180.69 205.13 180.53C206.87 179.04 208.68 177.67 210.61 176.44C211.18 176.08 211.71 175.65 212.21 175.19C212.85 174.61 213.29 173.9 213.45 173.03C213.51 172.67 213.51 172.32 213.2 172.12C213.02 172.01 212.7 172.01 212.49 172.08C211.09 172.55 209.96 173.43 208.96 174.49C207.51 176.04 206.33 177.8 205.25 179.63C205.07 179.94 205.03 180.26 205.18 180.59C204.77 180.49 204.66 180.76 204.6 181.08ZM199.46 188.19C199.55 188.08 199.65 187.97 199.72 187.85C199.73 187.83 199.67 187.76 199.65 187.71C199.61 187.9 199.57 188.09 199.53 188.27C199.11 188.14 198.95 188.33 198.95 188.73C197.14 189.63 195.95 191.25 194.02 192.76C195.39 192.66 196.07 192.16 196.67 191.62C197.59 190.79 198.67 190.05 198.9 188.68C199.23 188.68 199.37 188.46 199.46 188.19ZM37.52 232.2C37.58 232.53 37.72 232.76 38.12 232.68C38.02 233.4 38.44 233.64 39.05 233.7L39.11 233.87L39.04 233.75C38.71 233.42 38.37 233.08 38.04 232.75C37.84 232.59 37.65 232.43 37.45 232.27C37.44 231.85 37.37 231.46 36.96 231.22C36.89 231.03 36.82 230.85 36.75 230.66C36.73 230.72 36.68 230.82 36.7 230.84C36.8 230.95 36.92 231.05 37.03 231.15C37.09 231.55 36.97 232.03 37.51 232.2H37.52ZM107.08 64.29C107.14 63.83 107.35 63.31 106.62 63.18C106.73 62.66 106.62 62.18 106.45 61.68C106.09 60.63 105.75 59.58 105.45 58.51C104.86 56.36 104.49 54.19 104.65 51.95C104.72 50.99 104.91 50.09 105.44 49.29C106.08 48.33 107.14 48.14 108.11 48.76C108.85 49.23 109.31 49.96 109.86 50.61C110.5 51.37 110.78 52.45 111.81 52.88L112.01 53.29C112.06 53.23 112.15 53.15 112.14 53.1C112.1 52.89 111.96 52.84 111.76 52.94C111.98 52.32 111.67 51.78 111.48 51.22C110.57 48.45 110.18 45.6 110.08 42.68C109.97 39.48 110.82 36.62 112.48 33.95C113.2 32.79 113.95 31.65 114.64 30.47C115.97 28.18 117.16 25.8 117.69 23.19C118.15 20.92 118.15 18.72 117.22 16.44C115.93 13.28 115.15 9.94997 115.77 6.45997C115.79 6.36997 115.6 6.23997 115.46 6.06997C115.04 6.34997 114.58 6.58997 114.2 6.91997C113.69 7.35997 113.17 7.82997 112.75 8.35997C110.95 10.64 109.22 12.96 107.73 15.46C106.81 17.01 106.15 18.66 105.58 20.37C104.53 23.5 104.33 26.74 104.47 29.97C104.66 34.59 104.34 39.18 103.96 43.77C103.63 47.7 103.59 51.6 104.12 55.5C104.49 58.2 105.03 60.86 106.68 63.15C106.7 63.57 106.85 63.94 107.13 64.26C107.4 64.82 107.54 65.48 108.23 65.71C108.14 66.17 108.37 66.53 108.62 66.86C109.81 68.39 111 69.92 112.22 71.43C112.43 71.69 112.62 72.1 113.16 71.97C112.72 70.29 112.31 68.66 111.88 67.04C111.8 66.73 111.65 66.26 111.25 66.43C110.03 66.95 109.21 65.92 108.18 65.74C108.16 64.99 107.95 64.38 107.07 64.3L107.08 64.29ZM23.21 187.77C22.61 187.67 22.61 188.24 22.36 188.53C22.23 188.68 22.27 188.86 22.44 188.98C22.46 188.99 22.56 188.9 22.61 188.84C22.93 188.53 23.12 188.16 23.15 187.72C23.17 187.68 23.2 187.65 23.22 187.61C23.22 187.67 23.22 187.72 23.21 187.78V187.77ZM133.33 104.68C133.22 104.57 133.11 104.45 132.99 104.36C132.96 104.34 132.86 104.4 132.79 104.42C132.99 104.48 133.19 104.55 133.39 104.61C133.5 104.73 133.58 104.94 133.71 104.97C138.2 106.08 142.67 106.03 147.08 104.55C147.47 104.42 147.82 104.14 148.4 103.81C147.92 103.78 147.74 103.73 147.59 103.76C143.82 104.59 140 104.88 136.14 104.63C135.21 104.57 134.27 104.66 133.33 104.67V104.68ZM191.25 189.71C192.82 188.29 193.51 186.35 194.29 184.48C195.53 181.48 196.5 178.39 197.37 175.27C198.91 169.75 200.88 164.4 203.4 159.26C204.11 157.81 204.76 156.32 205.36 154.81C205.71 153.95 205.92 153.03 206.14 152.12C206.18 151.94 205.99 151.7 205.9 151.49C205.75 151.56 205.56 151.59 205.45 151.69C204.32 152.78 203.63 154.14 203 155.55C201.95 157.89 201.24 160.35 200.56 162.81C199.57 166.36 198.22 169.75 196.5 173C195.54 174.81 194.6 176.63 193.61 178.42C191.63 181.97 191.06 185.78 191.33 189.77C191.26 189.77 191.18 189.75 191.11 189.77C191.07 189.79 191.05 189.86 191.03 189.91C191.11 189.84 191.19 189.77 191.27 189.69L191.25 189.71ZM167.14 257.93L167.06 257.77L167.19 257.88C167.18 258.05 167.12 258.23 167.16 258.39C168.42 263.35 169.37 268.37 170.33 273.4C171.38 278.93 174 283.64 178.18 287.45C178.56 287.8 178.92 288.15 179.3 288.5C181.94 290.93 184.48 293.46 186.87 296.13C187.78 297.15 188.7 298.16 189.65 299.14C192.11 301.7 195.09 303.52 198.3 304.98C199.48 305.52 200.73 305.78 202.04 305.5C202.58 305.38 202.94 304.86 202.74 304.36C202.43 303.57 202.1 302.77 201.69 302.04C199.83 298.75 197.55 295.79 194.89 293.1C192.07 290.24 189.04 287.61 186.03 284.95C183.41 282.63 180.8 280.3 178.25 277.9C175.91 275.7 174.28 273.01 173.29 269.95C172.79 268.41 172.29 266.87 171.78 265.33C170.96 262.88 169.72 260.65 168.11 258.63C167.86 258.31 167.64 257.9 167.13 257.93H167.14ZM209.22 334.69L209.27 334.86L209.16 334.74C209.06 334.52 209 334.25 208.85 334.08C207.46 332.58 206.05 331.09 204.64 329.61C202.79 327.68 200.67 326.12 198.24 325C196.38 324.14 194.52 323.28 192.68 322.39C189.91 321.05 187.29 319.46 184.85 317.57C181.07 314.63 178.14 311.04 176.28 306.6C175.42 304.56 174.58 302.5 173.77 300.44C172.11 296.26 169.68 292.58 166.52 289.39C165.08 287.93 163.66 286.46 162.17 285.05C159.24 282.28 156.65 279.24 154.31 275.97C153.37 274.65 152.43 273.31 151.33 272.13C149.1 269.74 147.3 267.1 145.76 264.22C143.54 260.09 141.14 256.06 138.81 251.99C138 250.58 137.18 249.19 136.34 247.8C136.14 247.46 136 247.02 135.42 246.98C135.25 247.92 135.42 248.85 135.59 249.76C136.29 253.66 137.65 257.32 139.77 260.68C142.6 265.16 145.65 269.47 149.49 273.17C150.17 273.82 150.81 274.5 151.46 275.18C155.47 279.36 158.54 284.12 160.48 289.6C161.13 291.45 161.81 293.29 162.55 295.11C164.17 299.12 166.48 302.67 169.66 305.63C171.34 307.2 173.05 308.75 174.84 310.2C178.29 312.99 180.9 316.41 182.84 320.37C183.22 321.14 183.64 321.88 183.97 322.66C185.36 325.87 187.72 328.11 190.84 329.58C193.46 330.82 196.09 332.05 198.72 333.27C202.07 334.82 205.58 335.15 209.2 334.68L209.22 334.69ZM23.61 290.11L23.67 290.15C23.7 288.79 23.62 287.41 23.78 286.07C23.93 284.77 23.78 283.52 23.57 282.27C22.71 277.08 22.92 271.93 24.03 266.79C24.68 263.79 25.58 260.86 26.44 257.92C27.71 253.58 28.58 249.18 28.93 244.65C29.15 241.77 29.18 238.86 29.79 236.01C30.67 231.9 31.79 227.9 34.5 224.55C34.91 224.05 35.05 223.53 35.02 222.91C34.94 221.29 34.93 219.67 34.84 218.06C34.66 214.79 35.47 211.82 37.5 209.22C37.56 209.17 37.64 209.13 37.69 209.08C37.71 209.06 37.69 208.99 37.69 208.94C37.53 208.98 37.5 209.09 37.58 209.28C37.22 209.14 36.9 209.23 36.65 209.48C36 210.15 35.32 210.81 34.74 211.54C32.14 214.84 29.96 218.41 28.34 222.29C27.19 225.04 26.16 227.85 25.2 230.67C23 237.13 20.79 243.58 18.24 249.92C17.48 251.82 16.87 253.78 16.25 255.72C15.52 258.02 15.26 260.39 15.37 262.8C15.41 263.66 15.46 264.51 15.87 265.29C16.07 265.67 16.29 266.09 16.78 266.01C17.13 265.96 17.33 265.63 17.43 265.28C17.77 264.13 17.88 262.95 17.89 261.74C17.91 259.44 17.98 257.13 18.06 254.83C18.09 253.89 18.26 252.97 18.81 252.17C18.88 252.06 19.12 252 19.26 252.02C19.39 252.04 19.57 252.2 19.59 252.32C19.64 252.65 19.67 253.01 19.61 253.33C19.02 256.37 19.13 259.45 19.11 262.52C19.11 263.2 19.08 263.89 18.99 264.56C18.88 265.41 18.58 266.22 18.02 266.89C17.33 267.72 16.34 267.78 15.55 267.06C14.97 266.52 14.63 265.86 14.4 265.1C13.8 263.17 13.87 261.22 14.15 259.27C14.6 256.13 15.54 253.11 16.72 250.18C19.44 243.46 21.81 236.61 24.13 229.74C24.81 227.72 25.53 225.71 26.31 223.73C27.96 219.49 30.14 215.54 32.84 211.88C33.55 210.92 34.33 210.01 35.13 209.13C36.57 207.53 38.37 206.7 40.53 206.57C41.8 206.5 43.08 206.34 44.34 206.14C45.51 205.95 46.66 205.62 47.72 204.82C46.58 203.18 45.11 202.38 43.14 202.51C41.58 202.61 40.12 203.11 38.75 203.81C37.31 204.55 35.9 205.36 34.54 206.23C31.74 208.03 29.08 210.04 26.51 212.16C21.6 216.19 16.41 219.73 10.49 222.13C9.54997 222.51 8.65997 223.05 7.77997 223.57C6.52997 224.32 5.37997 225.21 4.39997 226.29C1.96997 228.97 0.93997 232.07 1.39997 235.71C1.70997 238.18 2.30997 240.57 2.90997 242.97C3.52997 245.45 4.10997 247.94 4.24997 250.52C4.34997 252.39 4.52997 254.27 4.57997 256.14C4.66997 259.72 5.73997 263.02 7.29997 266.19C8.31997 268.26 9.42997 270.28 10.53 272.3C12.34 275.61 13.79 279.05 14.57 282.76C15.16 285.6 15.83 288.42 16.47 291.24C17.42 295.43 19.37 299.05 22.52 302.01C24.08 303.47 25.59 304.98 27.16 306.42C30.73 309.69 33.11 313.61 34.05 318.41C34.57 321.08 35.03 323.78 35.84 326.39C36.25 327.71 36.72 328.98 37.51 330.1C38.76 331.89 40.27 332.23 42.17 331.13C43.84 330.16 45.11 328.82 45.7 326.91C46.26 325.11 46.4 323.23 46.72 321.39C46.94 320.09 46.4 319.28 45.3 318.7C44.02 318.03 42.76 317.3 41.48 316.62C39.46 315.53 37.95 313.95 36.92 311.92C36.49 311.09 36.05 310.25 35.74 309.37C34.01 304.52 31.63 300.01 28.86 295.68C27.29 293.23 25.94 290.67 24.94 287.93C24.83 287.63 24.78 287.25 24.37 287.1C23.95 287.8 24.17 288.57 24.09 289.31C24.06 289.66 24.01 289.98 23.62 290.11H23.61ZM153.3 25.26C153.28 25.19 153.27 25.12 153.23 25.06C153.21 25.03 153.15 25.02 153.11 25C153.19 25.06 153.28 25.13 153.36 25.19C153.25 26.09 153.78 26.83 154 27.64C154.31 28.73 154.39 29.83 154.27 30.93C154.1 32.51 152.98 33.15 151.55 32.43C150.34 31.82 149.17 31.09 148.05 30.32C143.36 27.11 138.27 24.78 132.83 23.17C128.51 21.89 124.13 20.76 119.93 19.09C119.86 19.06 119.77 19.09 119.69 19.09C119.37 19.44 119.42 19.88 119.39 20.3C119.2 23.14 118.52 25.86 117.2 28.39C116.37 29.98 115.46 31.52 114.57 33.07C113.98 34.11 113.33 35.11 112.78 36.17C111.73 38.17 111.22 40.29 111.31 42.57C111.43 45.84 111.97 49.01 113.22 52.04C113.42 52.51 113.62 52.98 113.76 53.47C113.98 54.28 113.42 54.99 112.55 55.04C111.92 55.07 111.36 54.9 110.97 54.37C110.31 53.48 109.68 52.57 109 51.69C108.44 50.97 108.03 49.73 107.03 49.91C105.77 50.13 106.21 51.58 105.89 52.49C105.81 52.72 105.83 53 105.85 53.25C106.19 56.58 106.93 59.81 108.38 62.84C108.71 63.52 109.19 64.14 109.65 64.74C109.92 65.1 110.35 65.21 110.8 65.08C111.35 64.93 111.89 64.47 112.48 64.95C112.97 65.36 113.01 66 113.19 66.56C113.32 66.96 113.35 67.4 113.44 67.81C114.12 70.82 115.22 73.67 116.59 76.44C117.68 78.65 119.25 80.38 121.41 81.58C121.93 81.87 122.42 82.21 122.95 82.49C128.63 85.5 134.57 86.31 140.75 84.41C144.5 83.26 148.16 81.84 151.71 80.17C152.64 79.74 153.56 79.29 154.43 78.76C157.85 76.71 160.27 73.83 161.49 70C161.77 69.11 162.09 68.22 162.34 67.32C162.65 66.19 163.15 65.32 164.39 64.93C165.71 64.51 166.41 63.42 166.82 62.15C166.98 61.67 167.11 61.17 167.17 60.66C167.48 57.87 167.78 55.07 168.06 52.27C168.13 51.59 168.09 50.91 168.08 50.22C168.08 49.52 167.86 48.88 167.54 48.26C167.38 47.94 167.1 47.73 166.73 47.73C166.33 47.73 166.13 47.99 166.05 48.35C165.89 49.1 165.76 49.86 165.58 50.6C165.38 51.43 165.2 52.27 164.9 53.06C164.73 53.52 164.4 53.95 164.06 54.31C163.55 54.85 162.66 54.57 162.4 53.88C162.13 53.13 162.22 52.37 162.26 51.6C162.55 46.39 162.36 41.2 161.89 36.01C161.74 34.32 161.3 32.66 160.99 30.98C160.87 30.33 160.66 29.73 160.13 29.2C160.01 30.14 159.94 31 159.77 31.83C159.58 32.79 159.09 33.36 158.6 33.31C157.91 33.24 157.6 32.71 157.34 32.16C156.83 31.08 156.38 29.97 155.82 28.92C155.12 27.59 154.64 26.09 153.27 25.21L153.3 25.26ZM81.34 245.66C80.81 245.93 80.72 246.35 80.65 246.78C80.52 247.54 80.4 248.29 80.26 249.05C79.33 254.09 77.95 259.02 76.67 263.97C74.56 272.1 73.4 280.36 73.41 288.77C73.41 294.15 73.57 299.52 73.79 304.9C73.94 308.4 73.92 311.9 73.98 315.4C74.12 323.34 73.84 331.27 73 339.17C72.18 346.98 70.87 354.72 69.59 362.46C68.34 370.03 66.99 377.59 65.66 385.15C64.47 391.87 63.34 398.6 61.53 405.19C60.44 409.14 59.45 413.11 58.78 417.15C58.37 419.59 57.9 422.02 57.49 424.46C57.38 425.12 57.65 425.43 58.3 425.46C58.98 425.49 59.67 425.49 60.35 425.49C81.96 425.5 103.57 425.51 125.17 425.52C127.99 425.52 127.76 425.71 127.81 422.89C127.92 416.65 127.61 410.43 127.16 404.21C126.97 401.57 126.82 398.93 126.54 396.3C126.07 391.89 125.5 387.49 125.01 383.08C124.37 377.3 124.11 371.49 124.31 365.7C124.5 360.07 124.58 354.44 124.97 348.81C125.54 340.78 124.89 332.78 123.89 324.8C123.5 321.67 123.18 318.53 123.12 315.37C123.02 309.99 123.09 304.62 123.57 299.25C123.94 295.09 124.28 290.92 124.51 286.74C124.87 280.15 124.38 273.6 123.43 267.09C122.66 261.84 122.34 256.57 122.57 251.27C122.63 249.91 122.63 248.54 122.64 247.17C122.64 246.76 122.67 246.32 122.3 246C122.22 246 122.12 245.98 122.05 246.02C118.61 247.73 114.96 248.33 111.14 248.34C109.19 248.34 107.22 248.53 105.32 249.11C104.18 249.45 104.13 249.46 104.08 250.68C103.94 254 103.81 257.33 103.68 260.66C103.52 264.5 102.98 268.3 102.27 272.08C101.33 277.12 99.93 282.04 98.71 287.01C97.31 292.75 96.33 298.55 96.52 304.48C96.62 307.55 96.88 310.61 97.11 313.68C97.24 315.47 97.47 317.24 97.64 319.03C97.91 322 98.29 324.97 98.4 327.95C98.57 332.56 98.6 337.17 98.61 341.78C98.61 344.68 98.57 347.59 98.33 350.48C97.71 357.71 96.65 364.88 95.58 372.05C95.14 375 94.76 377.97 94.79 380.97C94.82 384.56 94.73 388.14 94.49 391.72C94.33 394.11 94.03 396.47 93.56 398.82C92.67 403.34 91.49 407.8 91.01 412.39C90.79 414.43 90.52 416.47 90.87 418.51C91.03 419.41 91.5 420.13 92.46 420.3C93.38 420.46 93.86 419.8 94.27 419.14C94.9 418.11 95.19 416.94 95.39 415.76C95.92 412.56 96.45 409.36 96.97 406.17C97.05 405.66 97.08 405.14 97.46 404.75C97.56 404.65 97.76 404.57 97.9 404.59C98.04 404.61 98.24 404.74 98.27 404.86C98.35 405.18 98.42 405.53 98.37 405.85C97.98 408.29 97.57 410.73 97.15 413.17C96.9 414.6 96.68 416.03 96.36 417.45C96.09 418.62 95.65 419.74 94.83 420.65C93.46 422.17 91.41 422.04 90.26 420.33C90.03 419.99 89.89 419.57 89.74 419.17C89.27 417.94 89.26 416.65 89.39 415.38C89.87 410.88 90.49 406.41 91.56 402.01C92.6 397.77 93.27 393.48 93.36 389.11C93.41 386.98 93.37 384.84 93.4 382.71C93.42 381.34 93.36 379.97 93.52 378.62C94.16 373.37 94.78 368.12 95.58 362.89C96.41 357.4 97.02 351.89 97.27 346.35C97.63 338.58 97.44 330.82 96.8 323.06C96.65 321.19 96.44 319.32 96.27 317.45C95.97 314.14 95.56 310.83 95.4 307.51C95.12 302.04 95.26 296.58 96.46 291.2C97.18 287.95 97.92 284.71 98.79 281.5C101.37 271.97 102.82 262.3 102.66 252.42C102.65 251.59 102.91 250.71 102.32 249.9C101.16 250.1 99.99 250.3 98.82 250.49C96.42 250.88 94.01 250.82 91.78 249.84C90.43 249.25 89.08 248.86 87.66 248.58C85.31 248.12 82.96 247.63 81.34 245.68V245.66ZM150.77 425.53C157.17 425.53 163.58 425.54 169.98 425.53C170.66 425.53 171.34 425.51 172.02 425.46C172.39 425.43 172.65 425.17 172.66 424.79C172.75 421.72 172.97 418.63 172.6 415.58C172.16 412.03 171.52 408.5 170.96 404.97C170.28 400.67 169.72 396.36 169.75 391.99C169.77 389.09 169.86 386.2 170.04 383.3C170.47 376.49 171.05 369.69 171.61 362.89C172.11 356.94 172.42 350.98 172.79 345.02C172.88 343.49 172.79 341.94 172.94 340.41C173.48 335.19 172.83 330.02 172.31 324.85C172.24 324.12 171.92 323.58 171.34 323.13C169.99 322.09 168.67 321 167.31 319.97C163.01 316.72 159.7 312.67 157.27 307.86C155.61 304.58 154.17 301.21 152.91 297.77C150.89 292.26 147.96 287.29 144.24 282.77C142.99 281.25 141.75 279.73 140.53 278.2C137.56 274.46 135.5 270.29 134.67 265.56C134.36 263.8 134.1 262.03 133.84 260.26C133.26 256.23 131.99 252.47 129.55 249.16C128.39 247.58 126.88 246.27 125.94 244.52C125.85 244.36 125.49 244.24 125.29 244.28C124.29 244.46 123.87 245.05 123.9 246C123.95 247.53 124.09 249.08 123.93 250.6C123.45 255.31 123.9 259.97 124.41 264.64C124.79 268.11 125.32 271.58 125.58 275.06C126.17 282.92 125.59 290.75 124.97 298.58C124.52 304.2 124.24 309.8 124.45 315.45C124.64 320.66 125.29 325.82 125.82 330.99C126.24 335.07 126.42 339.16 126.34 343.25C126.24 348.2 126.03 353.14 125.79 358.09C125.57 362.69 125.6 367.31 125.62 371.92C125.64 376.44 125.93 380.95 126.53 385.44C127.03 389.16 127.32 392.9 127.8 396.62C128.11 399.08 128.19 401.55 128.37 404.02C128.8 410.15 129.3 416.27 129.19 422.42C129.18 423.19 129.19 423.96 129.21 424.72C129.23 425.22 129.53 425.48 130.02 425.5C130.79 425.53 131.56 425.54 132.32 425.54C138.47 425.54 144.61 425.54 150.76 425.54L150.77 425.53ZM71.75 229.29C69.71 229.2 67.92 229.09 66.15 228.83C64.89 228.64 63.59 228.7 62.31 228.77C60.51 228.86 60.29 229.14 60.2 230.89C60.13 232.17 60.13 233.46 59.93 234.72C59.58 236.93 59.52 239.15 59.59 241.36C59.78 247.78 59.29 254.15 58.64 260.52C58 266.83 56.68 272.98 54.69 279C53.86 281.51 53.09 284.05 52.15 286.52C50.07 292.02 49.88 297.69 50.54 303.43C50.99 307.37 50.76 311.25 49.94 315.13C49.48 317.31 48.48 319.32 48.03 321.49C47.59 323.66 47.53 325.9 46.94 328.05C46.92 328.13 46.9 328.21 46.87 328.3C45.63 333.37 44.65 338.47 44.66 343.72C44.66 347.14 44.39 350.54 44.13 353.95C43.98 355.99 43.68 358.02 43.34 360.04C42.67 364.09 41.53 368.02 40.29 371.93C39.1 375.67 37.84 379.39 36.98 383.22C35.68 388.98 35.15 394.84 34.45 400.68C33.79 406.2 32.82 411.65 31.11 416.94C30.56 418.64 30.03 420.36 29.52 422.07C29.28 422.89 29.1 423.72 28.92 424.56C28.81 425.06 29.07 425.42 29.55 425.45C30.23 425.49 30.91 425.5 31.6 425.5C38.69 425.5 45.78 425.54 52.86 425.5C56.2 425.48 55.85 426.07 56.49 422.43C57.6 416.13 58.78 409.85 60.54 403.68C61.17 401.47 61.69 399.22 62.11 396.96C63.55 389.16 64.94 381.35 66.31 373.54C67.97 364.13 69.61 354.73 70.94 345.26C71.9 338.41 72.45 331.52 72.68 324.62C72.87 318.73 72.75 312.85 72.5 306.96C72.21 299.97 72.24 292.96 72.21 285.96C72.19 282.12 72.59 278.3 73.16 274.49C73.87 269.76 75.01 265.12 76.22 260.5C77.62 255.14 79.03 249.77 79.69 244.25C79.82 243.15 79.81 243.12 78.76 242.88C78.1 242.73 77.42 242.6 76.75 242.51C75.09 242.3 73.92 241.39 73.12 239.97C72.83 239.45 72.56 238.91 72.37 238.35C72.18 237.78 71.86 237.51 71.27 237.5C70.5 237.48 69.74 237.41 69.01 237.11C67.84 236.62 67.44 235.83 67.89 234.67C68.36 233.45 69.16 232.46 70.04 231.51C70.61 230.9 71.35 230.43 71.72 229.31L71.75 229.29ZM181.61 333.9C181.36 334.92 181.54 335.94 181.66 336.93C182.37 342.46 182.36 347.98 181.66 353.51C181.39 355.62 181.24 357.75 181.06 359.88C180.52 366.49 181.23 372.98 182.71 379.42C183.74 383.91 184.52 388.45 184.52 393.08C184.52 396.49 184.52 399.91 184.44 403.32C184.36 406.82 184.4 410.31 185.01 413.77C185.35 415.7 185.61 417.64 185.88 419.58C186.06 420.84 186.12 422.13 186.38 423.38C186.83 425.53 186.88 425.54 189.05 425.54C196.9 425.54 204.75 425.54 212.6 425.54C213.03 425.54 213.45 425.54 213.88 425.52C214.55 425.48 214.77 425.19 214.65 424.53C214.56 424.03 214.45 423.53 214.32 423.03C213.12 418.25 213.15 413.43 213.58 408.55C214.1 402.59 214.12 396.63 213.09 390.69C212.2 385.56 211.6 380.4 211.76 375.18C211.86 372.03 211.76 368.86 211.99 365.72C212.53 358.18 212.18 350.73 210.14 343.41C209.88 342.49 209.67 342.26 208.68 342.48C206.15 343.03 203.59 342.96 201.03 342.91C196.77 342.84 192.78 341.79 189.11 339.57C186.98 338.28 185.07 336.73 183.27 335.01C182.8 334.56 182.47 333.87 181.61 333.89V333.9ZM110.95 95.83C110.23 95.81 109.72 96.32 109.14 96.66C105.88 98.6 102.4 99.93 98.66 100.6C97.74 100.77 96.82 100.98 95.9 101.16C92.86 101.77 90.02 102.89 87.42 104.6C86.49 105.21 85.54 105.77 84.64 106.43C81.72 108.56 78.43 109.52 74.85 109.76C73.24 109.87 71.62 110.11 70.05 110.45C68.39 110.82 66.73 111.25 65.24 112.14C64.51 112.58 63.37 112.91 63.31 113.68C63.24 114.64 64.54 114.63 65.22 115.06C65.43 115.2 65.67 115.3 65.91 115.4C74.42 119.14 82.92 122.89 91.44 126.62C94.41 127.92 97.41 129.13 100.39 130.41C101.41 130.85 102.41 131.31 103.27 132.05C104.18 132.83 104.62 133.79 104.51 134.98C104.48 135.32 104.42 135.66 104.33 135.98C104.15 136.58 104.42 136.95 104.88 137.26C105.17 137.45 105.44 137.65 105.72 137.84C107.03 138.69 107.42 139.92 107.13 141.4C106.9 142.57 106.67 143.74 106.37 144.9C104.73 151.25 103.15 157.63 101.38 163.95C99.16 171.84 97.77 179.9 96.11 187.91C95.97 188.59 96.14 189.03 96.72 189.42C98.03 190.31 98.87 191.39 97.98 193.08C97.81 193.41 98.09 193.65 98.41 193.86C100.09 194.94 100.24 195.43 99.55 197.18C99.11 198.3 98.39 199.26 97.68 200.28C97.96 200.41 98.19 200.52 98.41 200.62C98.64 200.72 98.9 200.79 99.11 200.92C99.81 201.36 100 201.88 99.72 202.66C99.52 203.22 99.26 203.75 99.01 204.34C99.34 204.43 99.58 204.5 99.82 204.55C101.43 204.91 101.86 205.49 101.49 207.02C101.31 207.76 100.96 208.45 100.69 209.17C100.58 209.46 100.92 209.74 101.3 209.74C101.8 209.74 102.09 209.5 102.21 209.04C102.58 207.64 102.92 206.23 103.31 204.84C104.51 200.54 105.09 196.16 105.2 191.71C105.35 185.46 106.16 179.3 108.07 173.33C109.47 168.95 110.99 164.6 112.5 160.25C115.92 150.43 117.95 140.38 117.9 129.93C117.87 123.32 118.92 116.86 120.86 110.53C121.43 108.67 121.93 106.79 122.51 104.77C116.79 104.11 113.15 100.89 110.92 95.84L110.95 95.83ZM69.14 197.79C68.03 197.79 66.92 197.79 65.81 197.79C65.3 197.79 64.78 197.79 64.28 197.69C63.27 197.51 62.59 196.98 62.44 195.86C62.34 195.11 62.23 194.31 61.91 193.64C61.36 192.5 61.28 191.37 61.47 190.16C61.63 189.15 61.71 188.13 61.85 187.11C62.36 183.28 61.12 180.06 58.42 177.36C58.13 177.07 57.74 176.85 57.37 176.65C57.1 176.5 56.83 176.68 56.77 176.92C56.64 177.41 56.57 177.92 56.55 178.42C56.47 180.04 56.41 181.65 56.14 183.26C55.7 185.96 55.13 188.62 54.47 191.27C53.74 194.16 53.1 197.08 52.36 199.97C51.85 201.99 50.95 203.82 49.41 205.27C48.73 205.91 48.01 206.53 47.21 207.01C46.2 207.62 45.59 208.47 45.26 209.57C44.91 210.71 44.45 211.83 44.22 212.99C43.59 216.19 43.48 219.43 43.61 222.68C43.69 224.59 44.44 226.33 45.32 228C45.88 229.06 46.76 229.62 48 229.65C51.51 229.72 55 229.65 58.34 228.38C60.29 227.64 62.31 227.41 64.38 227.53C66 227.62 67.62 227.71 69.23 227.86C70 227.93 70.75 228.02 71.52 227.92C74.65 227.51 77.77 227.07 80.91 226.75C82.99 226.54 84.6 225.62 86 224.12C89.15 220.75 92.35 217.43 95.53 214.1C96.65 212.92 97.65 211.64 98.53 210.28C99.22 209.21 99.87 208.1 100.17 206.83C100.23 206.58 100.28 206.29 100 206.16C99.79 206.06 99.5 206.03 99.27 206.07C98.11 206.32 97.36 207.14 96.64 208C95.98 208.78 95.43 209.71 94.63 210.31C92.9 211.59 91.36 213.01 90.24 214.86C89.93 215.37 89.44 215.73 88.89 216.01C88.23 216.34 87.73 216.31 87.26 215.84C86.83 215.41 86.8 214.76 87.28 214.23C87.68 213.79 88.12 213.38 88.6 213.03C89.49 212.37 90.39 211.71 91.35 211.15C93.48 209.92 95.09 208.19 96.37 206.14C97.09 204.99 97.67 203.75 98.29 202.54C98.33 202.46 98.18 202.26 98.09 202.14C98.05 202.09 97.92 202.08 97.85 202.11C97.54 202.23 97.19 202.31 96.93 202.5C94.21 204.56 91.43 206.57 89.51 209.48C89.28 209.84 89.01 210.17 88.74 210.5C88.3 211.03 87.76 211.44 87.14 211.75C86.16 212.25 85.52 212.24 85.03 211.72C84.57 211.23 84.75 210.53 85.62 209.77C86.33 209.16 87.12 208.64 87.84 208.04C88.76 207.29 89.72 206.56 90.56 205.71C92.43 203.84 94.23 201.9 96.07 199.99C96.97 199.06 97.76 198.06 98.26 196.86C98.39 196.56 98.42 196.2 98.46 195.87C98.5 195.57 98.07 195.26 97.77 195.32C97.23 195.42 96.86 195.77 96.5 196.13C95.71 196.91 95 197.78 94.14 198.47C91.75 200.39 89.32 202.28 86.86 204.11C86.12 204.66 85.24 205.06 84.38 205.41C83.84 205.63 83.22 205.66 82.63 205.71C82.28 205.74 81.95 205.57 81.78 205.26C81.6 204.93 81.72 204.57 81.95 204.32C82.24 204.01 82.56 203.73 82.91 203.49C84.67 202.29 86.42 201.08 88.42 200.28C91.35 199.1 93.57 196.97 95.49 194.53C96.01 193.87 96.4 193.09 96.79 192.34C97.06 191.83 96.88 191.36 96.47 190.96C95.79 190.29 95.03 190.14 94.13 190.47C91.96 191.28 89.96 192.41 88.03 193.69C85.95 195.07 83.76 196.24 81.3 196.7C77.28 197.45 73.23 198.09 69.11 197.81L69.14 197.79ZM93.71 249.05C94.23 249.12 94.72 249.21 95.22 249.24C97.72 249.41 100.16 249.08 102.56 248.42C105.95 247.49 109.38 247 112.92 247.01C115.85 247.01 118.66 246.28 121.27 244.87C121.95 244.5 122.63 244.15 123.29 243.76C125.33 242.57 127.54 242.03 129.89 242.05C130.66 242.05 131.42 242.01 132.19 241.92C132.43 241.89 132.66 241.61 132.56 241.36C132.32 240.72 132.06 240.09 131.72 239.5C129.54 235.62 127.84 231.53 126.39 227.33C125.86 225.8 125.26 224.29 124.73 222.76C123.87 220.24 122.68 217.89 121.12 215.73C120.57 214.97 119.88 214.22 119.64 213.35C119.21 211.78 118.1 211.47 116.77 211.36C115.92 211.28 115.07 211.2 114.21 211.19C109.86 211.16 105.5 211.17 101.15 211.13C100.12 211.12 99.43 211.48 98.76 212.29C94.97 216.92 90.62 221.03 86.54 225.4C84.99 227.06 83.06 228.11 80.71 228.27C79.52 228.35 78.34 228.53 77.15 228.65C75.77 228.79 74.41 229.1 73.37 230.06C72.18 231.16 71.08 232.36 70.03 233.58C69.56 234.13 68.85 234.84 69.38 235.59C69.81 236.22 70.71 236.33 71.49 236.25C72.16 236.18 72.87 236.07 73.46 235.79C77.63 233.78 82.07 232.52 86.41 231.01C87.29 230.7 88.2 230.45 89.11 230.21C89.6 230.08 90.12 229.96 90.55 230.4C90.84 230.71 90.39 231.18 89.46 231.49C86.63 232.44 83.78 233.32 80.97 234.33C78.8 235.11 76.69 236.03 74.56 236.9C74.04 237.11 73.64 237.48 73.77 238.05C74.07 239.35 74.73 240.5 76.05 240.93C77.93 241.54 79.87 241.83 81.85 241.38C85.34 240.6 88.84 239.81 92.33 239.02C93 238.87 93.66 238.73 94.33 238.6C94.69 238.53 94.99 238.66 95.18 239C95.36 239.33 95.09 239.75 94.55 239.91C93.81 240.12 93.07 240.3 92.32 240.47C88.99 241.22 85.66 241.96 82.34 242.72C81.7 242.87 81.55 243.31 81.84 243.86C82.61 245.29 83.74 246.27 85.32 246.66C86.64 246.99 87.97 247.32 89.31 247.57C90.49 247.79 91.67 247.7 92.85 247.36C94.82 246.81 96.82 246.36 98.81 245.88C99.05 245.82 99.34 245.74 99.55 245.82C99.74 245.89 99.9 246.15 99.99 246.36C100.04 246.47 99.94 246.73 99.83 246.8C99.55 246.97 99.23 247.11 98.91 247.2C97.59 247.55 96.26 247.86 94.94 248.2C94.46 248.32 93.92 248.39 93.7 249.05H93.71ZM47.3 318.32C47.76 318.12 47.83 317.77 47.93 317.46C48.64 315.26 49.19 313.02 49.32 310.71C49.49 307.38 49.43 304.05 49.04 300.73C48.65 297.38 48.89 294.09 49.61 290.81C50.46 286.97 51.89 283.3 53.13 279.58C54.61 275.12 55.82 270.6 56.59 265.96C57.1 262.92 57.41 259.88 57.67 256.82C58.03 252.57 58.47 248.33 58.39 244.05C58.31 240.21 58.22 236.37 58.89 232.55C59.01 231.89 59.07 231.19 58.76 230.47C56.87 231.21 54.97 231.95 53.08 232.69C52.23 233.02 51.66 233.62 51.37 234.48C51.18 235.05 50.96 235.61 50.86 236.2C50.47 238.55 50.05 240.91 49.77 243.28C49.47 245.82 49.33 248.38 49.07 250.92C48.79 253.65 48.76 256.36 49.07 259.09C49.35 261.63 49.53 264.19 49.7 266.74C49.98 270.85 49.51 274.92 49.03 278.99C48.56 282.97 47.93 286.93 47.71 290.94C47.56 293.67 47.42 296.4 47.14 299.11C46.95 300.97 46.58 302.82 46.22 304.66C46.09 305.31 45.81 305.97 45.47 306.55C44.95 307.44 43.73 307.52 43.08 306.71C42.72 306.25 42.38 305.71 42.25 305.15C41.97 304 41.69 302.83 41.68 301.62C41.65 299.56 41.99 297.54 42.38 295.53C43.05 292 44.2 288.61 45.34 285.21C46.1 282.95 46.82 280.67 47.47 278.37C48.15 275.97 48.41 273.51 48.1 271.02C47.59 266.95 46.84 262.94 45.78 258.97C44.7 254.93 43.79 250.85 42.88 246.78C42.34 244.38 41.95 241.94 41.49 239.52C41.06 241.97 40.8 244.41 40.76 246.84C40.68 253.59 40.69 260.33 40.67 267.08C40.66 271.02 40.27 274.92 39.56 278.79C39.17 280.9 38.47 282.91 37.53 284.84C37.16 285.61 36.74 286.36 36.09 286.94C35.4 287.56 34.44 287.57 33.79 286.89C33.38 286.47 33.04 285.96 32.78 285.43C32.28 284.43 31.97 283.36 31.9 282.24C31.74 279.85 31.74 277.47 32.17 275.1C32.67 272.32 33.44 269.62 34.2 266.91C35.94 260.74 37.28 254.5 37.63 248.07C37.73 246.28 37.94 244.5 38.07 242.71C38.18 241.16 38.61 239.69 39.11 238.24C39.35 237.53 39.63 236.83 39.93 236.05C35.79 234.41 34.96 230.93 34.8 227.09C34.66 227.11 34.54 227.09 34.5 227.14C34.28 227.39 34.04 227.64 33.89 227.93C32.7 230.12 31.96 232.48 31.4 234.9C30.82 237.4 30.57 239.95 30.43 242.51C30.16 247.64 29.43 252.69 27.93 257.62C27.26 259.82 26.58 262.03 26.02 264.26C24.67 269.58 23.84 274.93 24.63 280.47C25.22 284.57 26.25 288.49 28.31 292.11C29.11 293.52 29.92 294.93 30.79 296.3C33.12 299.99 35.09 303.86 36.59 307.97C37.05 309.25 37.67 310.48 38.31 311.68C39.08 313.14 40.18 314.34 41.63 315.16C43.55 316.26 45.5 317.31 47.35 318.33L47.3 318.32ZM3.91997 224.59C4.11997 224.5 4.36997 224.44 4.54997 224.29C6.70997 222.43 9.23997 221.19 11.83 220.07C15.13 218.64 18.23 216.84 21.09 214.67C23.27 213.02 25.4 211.32 27.56 209.65C30.4 207.46 33.27 205.32 36.4 203.55C38.27 202.49 40.22 201.7 42.34 201.28C43.86 200.98 45.22 201.26 46.52 201.96C47.11 202.28 47.62 202.76 48.16 203.17C48.84 203.68 49.15 203.65 49.61 202.99C50.88 201.19 50.88 200.86 49.51 198.96C46.72 195.09 43.97 191.17 41.08 187.37C39.07 184.74 37.73 181.95 37.2 178.62C36.18 172.14 35.02 165.68 34.36 159.15C34.14 156.97 33.97 154.75 33.17 152.45C31.43 156.67 30.01 160.76 29.27 165.06C28.41 170.09 26.59 174.73 23.64 178.93C22.46 180.6 21.43 182.38 20.36 184.12C19.69 185.21 19.15 186.37 18.76 187.6C18.45 188.59 18.28 189.6 18.59 190.61C18.65 190.82 18.88 191.04 19.09 191.14C19.46 191.31 19.78 191.08 19.92 190.78C20.21 190.17 20.4 189.5 20.69 188.89C21.26 187.65 21.82 186.4 22.89 185.47C23.22 185.18 23.62 185.03 24.07 185.17C24.54 185.32 24.7 185.72 24.75 186.16C24.88 187.12 24.68 188.02 24.21 188.87C23.32 190.47 22.08 191.74 20.6 192.79C18.98 193.93 17.17 194.68 15.33 195.37C13.1 196.21 10.86 197.03 8.65997 197.96C6.44997 198.89 4.87997 200.55 3.86997 202.72C2.99997 204.59 2.45997 206.55 2.08997 208.57C1.17997 213.56 2.02997 218.42 3.14997 223.26C3.26997 223.76 3.40997 224.25 3.90997 224.6L3.91997 224.59ZM32.01 130.4C31.64 132.25 32.13 133.74 32.32 135.25C32.91 139.9 33.56 144.54 34.21 149.18C34.74 152.89 35.45 156.59 35.83 160.31C36.5 166.94 37.68 173.47 38.83 180.02C39.15 181.86 39.87 183.41 40.94 184.88C43.9 188.95 46.84 193.04 49.8 197.11C50.19 197.65 50.48 198.29 51.21 198.67C51.38 198.27 51.61 197.9 51.7 197.5C53.14 190.67 55.3 183.97 55.39 176.9C55.39 176.57 55.48 176.22 55.59 175.9C55.82 175.24 56.61 174.88 57.25 175.1C58.07 175.39 58.78 175.84 59.39 176.46C61.76 178.86 63.2 181.68 63.19 185.13C63.19 186.58 63.15 188.03 62.83 189.46C62.63 190.38 62.4 191.38 62.78 192.24C63.26 193.35 63.68 194.43 63.75 195.65C63.77 196.01 64.05 196.3 64.42 196.32C66.19 196.4 67.96 196.63 69.73 196.29C69.73 195.94 69.77 195.68 69.73 195.45C68.19 188.29 66.65 181.12 65.08 173.96C64.08 169.38 63.01 164.82 61.99 160.24C61.5 158.02 60.51 156.16 58.82 154.55C54.05 150.03 49.39 145.39 44.71 140.78C40.87 137 36.57 133.79 32.01 130.41V130.4ZM93.59 187.95C94.04 187.7 94.2 187.31 94.29 186.89C94.51 185.89 94.74 184.89 94.93 183.89C95.91 178.6 96.32 173.25 96.95 167.92C97.35 164.54 97.77 161.15 98.29 157.79C99.12 152.39 100.47 147.11 101.77 141.81C102.28 139.74 102.65 137.64 103.1 135.56C103.42 134.08 102.8 133.07 101.52 132.43C100.53 131.93 99.52 131.48 98.5 131.05C85.95 125.71 73.38 120.41 61.06 114.55C60.75 114.4 60.44 114.26 60.12 114.13C59.22 113.78 58.72 113.95 58.18 114.77C57.8 115.35 57.58 115.98 57.52 116.68C57.46 117.44 57.39 118.21 57.25 118.97C56.72 121.92 56.98 121.44 58.67 123.17C58.79 123.29 58.91 123.41 59.04 123.53C63.41 127.73 67.78 131.91 72.14 136.13C74.41 138.33 76.64 140.56 78.87 142.79C79.78 143.69 80.71 144.58 81.54 145.54C83 147.22 84.12 149.06 84.67 151.3C86.13 157.25 87.75 163.17 89.32 169.1C90.56 173.8 91.64 178.53 92.51 183.31C92.79 184.86 92.77 186.51 93.58 187.96L93.59 187.95ZM163.59 51.81H164C164.23 50.64 164.45 49.48 164.68 48.32C164.85 47.45 165.16 46.45 166.1 46.41C167.6 46.33 167.67 45.45 167.71 44.37C167.73 43.86 167.76 43.35 167.85 42.84C168.26 40.46 168.16 38.09 167.89 35.71C167.49 32.24 166.91 28.8 166.6 25.31C166.33 22.24 165.5 19.28 164.06 16.52C163.03 14.55 161.91 12.64 160.59 10.85C158.65 8.22997 156.5 5.81997 153.79 3.95997C151.63 2.47997 149.27 1.54997 146.63 1.54997C143.9 1.54997 141.17 1.57997 138.45 1.66997C136.31 1.73997 134.17 1.81997 132.07 1.47997C130.16 1.16997 128.32 1.31997 126.49 1.71997C123.82 2.30997 121.26 3.23997 118.74 4.28997C117.99 4.59997 117.53 5.07997 117.31 5.92997C116.78 7.96997 116.79 9.98997 117.28 12C118.44 16.71 118.44 17.09 123.38 18.94C125.21 19.62 127.11 20.15 129 20.66C136.55 22.67 143.74 25.48 150.13 30.09C150.75 30.54 151.44 30.9 152.12 31.23C152.44 31.39 152.82 31.27 152.91 30.86C153 30.45 153.07 30.02 153.04 29.62C152.88 27.7 152.15 25.97 151.03 24.43C150.23 23.33 149.31 22.32 148.44 21.26C148.06 20.8 147.66 20.36 147.34 19.86C147.15 19.56 147.22 19.2 147.53 18.96C147.73 18.81 147.95 18.71 148.23 18.81C149.13 19.13 149.89 19.68 150.62 20.27C153.26 22.38 155.34 24.94 156.84 27.97C157.22 28.73 157.56 29.52 157.94 30.28C158.04 30.48 158.17 30.82 158.47 30.6C158.64 30.47 158.78 30.18 158.78 29.96C158.78 29.37 158.66 28.78 158.63 28.18C158.59 27.33 158.56 26.48 158.57 25.63C158.57 25.26 158.85 24.98 159.18 24.89C159.53 24.8 159.86 25 160.04 25.3C160.42 25.96 160.81 26.63 161.12 27.32C162.8 31.04 163.27 35.03 163.48 39.03C163.66 42.43 163.58 45.85 163.61 49.26C163.61 50.11 163.61 50.95 163.61 51.8L163.59 51.81ZM129.36 105.19C129.71 106.16 129.96 106.79 130.17 107.44C131.78 112.24 132.8 117.15 132.82 122.24C132.82 125.49 132.49 128.72 131.99 131.92C131.17 137.06 130.24 142.18 129.45 147.32C128.84 151.29 128.61 155.29 128.95 159.32C129.08 160.85 129.18 162.39 129.1 163.92C128.82 169.12 128.25 174.3 126.8 179.33C125.86 182.61 124.88 185.88 123.92 189.15C123.24 191.46 122.91 193.8 122.97 196.22C123.07 200.01 124.19 203.62 124.76 207.32C124.86 207.99 125.26 208.2 126.09 208.24C127.03 208.29 127.96 208.31 128.9 208.39C131.36 208.61 133.03 207.31 133.35 204.89C133.43 204.3 133.42 203.7 133.43 203.1C133.53 199.5 134.04 195.97 135.2 192.54C135.72 191.01 136.2 189.46 136.7 187.92C138.99 180.94 139.78 173.77 139.3 166.45C138.98 161.51 138.69 156.57 138.38 151.63C138.3 150.27 138.19 148.91 138.12 147.54C137.92 143.53 137.82 139.51 138.12 135.51C138.5 130.32 139.04 125.14 139.54 119.96C139.96 115.61 140.72 111.34 142.78 107.4C142.83 107.31 142.68 107.12 142.58 106.85C141.19 107.11 139.76 107.22 138.32 106.97C136.81 106.7 135.27 106.75 133.76 106.37C132.38 106.03 131.1 105.27 129.35 105.18L129.36 105.19ZM202.95 341.65C204.1 341.58 205.64 341.54 207.17 341.39C208.8 341.23 210.35 340.75 211.77 339.94C212.28 339.65 212.76 339.27 213.19 338.87C213.74 338.35 213.66 337.79 213.06 337.39C212.11 336.77 211.06 336.42 209.94 336.36C208.75 336.3 207.55 336.26 206.36 336.27C204.11 336.29 201.92 335.92 199.84 335.12C195.93 333.62 192.15 331.83 188.51 329.77C186.38 328.57 184.73 326.86 183.58 324.69C183.02 323.64 182.46 322.58 181.96 321.5C179.97 317.25 177.14 313.68 173.48 310.74C171.88 309.46 170.37 308.08 168.87 306.68C165.57 303.61 163.1 299.95 161.43 295.77C160.73 294.03 160.07 292.27 159.44 290.5C157.93 286.19 155.79 282.22 152.83 278.74C151.12 276.73 149.28 274.82 147.43 272.92C143.65 269.04 140.58 264.64 137.87 259.98C135.92 256.62 134.74 252.99 134.24 249.13C134.02 247.44 133.63 245.78 133.3 244.11C133.23 243.75 133 243.45 132.62 243.45C131 243.47 129.38 243.51 127.77 243.57C127.42 243.58 127.29 243.99 127.46 244.35C127.96 245.36 128.75 246.15 129.48 246.98C131.53 249.33 133 251.99 133.96 254.96C134.7 257.24 135.13 259.59 135.39 261.96C136.04 267.97 138.14 273.37 142.06 278.02C143.05 279.2 144.01 280.4 144.99 281.58C148.89 286.29 152.01 291.44 154.11 297.2C154.78 299.04 155.52 300.86 156.29 302.67C157.7 305.97 159.3 309.17 161.37 312.12C163.41 315.02 165.99 317.37 168.8 319.47C172.91 322.55 176.74 325.93 180.16 329.78C181.8 331.63 183.51 333.43 185.32 335.11C188.63 338.18 192.45 340.35 196.95 341.21C198.81 341.57 200.69 341.47 202.95 341.66V341.65ZM174.04 325.73C173.67 326.23 173.86 326.75 173.89 327.23C174.01 328.93 174.23 330.63 174.27 332.33C174.4 337.11 174.35 341.88 173.97 346.65C173.63 350.9 173.47 355.16 173.2 359.42C173.05 361.72 172.84 364.01 172.66 366.31C172.18 372.43 171.57 378.54 171.26 384.67C170.89 392.18 171.12 399.66 172.64 407.09C173.55 411.51 174.17 416 173.97 420.56C173.92 421.67 173.96 422.78 173.96 423.89C173.96 425.45 174.02 425.54 175.46 425.55C178.36 425.57 181.26 425.55 184.17 425.55C184.59 425.55 185.03 425.56 185.46 425.17C184.64 422.01 184.58 418.68 183.97 415.42C183.27 411.72 183.01 407.99 183.07 404.22C183.14 400.21 183.14 396.2 183.12 392.19C183.12 390.57 183.08 388.94 182.83 387.34C182.38 384.39 181.82 381.46 181.2 378.54C180.41 374.78 179.8 370.99 179.57 367.16C179.33 363.15 179.84 359.16 180.24 355.17C180.67 350.84 181.23 346.52 180.9 342.16C180.65 338.93 180.28 335.71 179.98 332.49C179.91 331.77 179.64 331.19 179.14 330.68C177.65 329.15 176.18 327.61 174.69 326.09C174.53 325.92 174.26 325.87 174.04 325.76V325.73ZM108.02 209.77C108.02 209.77 108.02 209.78 108.02 209.79C108.96 209.79 109.9 209.8 110.84 209.79C112.46 209.76 112.45 209.76 112.76 207.98C112.86 207.39 113.04 206.82 113.19 206.25C114.01 203.29 114.83 200.33 115.66 197.38C116.73 193.6 117.63 189.78 117.95 185.86C118.3 181.61 118.64 177.36 118.87 173.1C119.13 168.39 120 163.8 121.32 159.28C122.7 154.53 124.37 149.87 125.43 145.03C126.29 141.11 127.11 137.19 127.25 133.16C127.39 129.05 127.02 124.98 126.46 120.91C125.94 117.1 125.56 113.29 125.67 109.44C125.72 107.63 125.88 105.86 126.85 104.27C126.98 104.05 127.02 103.83 126.81 103.6C126.27 103.01 125.61 103.04 124.92 103.17C124.44 103.26 124.27 103.61 124.14 104.05C123.33 106.83 122.46 109.6 121.68 112.39C120.58 116.34 119.76 120.35 119.49 124.45C119.27 127.86 119.19 131.27 119.04 134.68C118.98 136.04 118.98 137.42 118.83 138.77C118.24 144.21 117.14 149.54 115.61 154.8C114.18 159.72 112.39 164.51 110.7 169.34C108.14 176.64 106.66 184.11 106.53 191.88C106.46 196.14 105.93 200.39 104.74 204.51C104.34 205.9 104.02 207.32 103.68 208.73C103.53 209.39 103.77 209.74 104.41 209.75C105.6 209.78 106.8 209.75 107.99 209.75L108.02 209.77ZM117.08 80.09C117.35 82.18 117.37 84.03 117.75 85.86C118.12 87.65 119.08 88.97 120.61 89.91C121.48 90.45 122.36 90.98 123.22 91.53C124.29 92.21 124.95 93.16 125.16 94.41C125.32 95.42 125.49 96.43 125.62 97.45C126.1 101.1 126.91 102.01 130.46 102.66C135.1 103.5 139.77 103.83 144.46 103.04C146.06 102.77 147.63 102.4 149.21 102.02C150.2 101.78 150.87 101.24 150.93 100.1C150.98 99.17 151.17 98.24 151.21 97.3C151.36 93.95 152.69 91.22 155.36 89.14C156.37 88.35 157.32 87.49 158.28 86.65C159.43 85.64 160.04 84.39 160.02 82.82C160 81.11 160.12 79.41 160.35 77.72C160.44 77.1 160.61 76.42 160.29 75.8C159.84 75.8 159.65 76.12 159.43 76.37C157.36 78.73 154.76 80.33 151.92 81.59C148.88 82.94 145.75 84.09 142.63 85.24C139.62 86.35 136.56 86.88 133.35 86.71C129.37 86.5 125.59 85.62 122.14 83.57C121.33 83.09 120.51 82.63 119.74 82.1C118.9 81.53 118.11 80.89 117.08 80.11V80.09ZM123.79 209.16C123.15 205.72 122.59 202.53 121.95 199.35C121.29 196.09 121.53 192.9 122.42 189.73C123.04 187.51 123.67 185.3 124.37 183.1C126.88 175.13 128.12 167 127.66 158.63C127.49 155.56 127.43 152.47 127.83 149.42C128.28 145.96 128.93 142.52 129.52 139.07C130.42 133.86 131.29 128.64 131.44 123.34C131.61 117.62 130.49 112.15 128.54 106.81C128.43 106.5 128.2 106.22 127.99 105.97C127.94 105.91 127.66 105.95 127.58 106.03C127.19 106.42 127.17 106.96 127.14 107.46C126.93 111.05 126.98 114.63 127.38 118.2C127.77 121.68 128.25 125.14 128.55 128.62C128.71 130.4 128.69 132.21 128.54 133.99C128.18 138.25 127.4 142.44 126.39 146.59C125.38 150.74 124.03 154.78 122.78 158.86C121.32 163.61 120.45 168.47 120.09 173.42C119.84 176.82 119.7 180.24 119.46 183.64C119.24 186.79 118.89 189.93 118.09 192.99C116.95 197.36 115.71 201.71 114.56 206.08C113.48 210.17 113.08 209.61 117.52 210.16C118.19 210.24 118.96 210.51 119.53 210.12C120.8 209.26 122.23 209.19 123.79 209.15V209.16ZM143.98 109C143.26 109.25 143.18 109.69 143.02 110.08C141.9 112.96 141.29 115.96 140.98 119.02C140.7 121.73 140.36 124.44 140.18 127.16C139.89 131.33 139.29 135.47 139.36 139.66C139.44 144.43 139.43 149.21 139.87 153.97C140.19 157.45 140.28 160.95 140.47 164.44C140.49 164.86 140.5 165.29 140.58 165.71C141.36 170.15 142.27 174.57 142.9 179.03C143.33 182.06 143.63 185.12 143.69 188.2C143.78 192.4 143.37 196.54 142.8 200.69C142.59 202.22 142.45 203.74 142.99 205.24C143.47 206.55 144.35 207.39 145.74 207.62C146.5 207.74 147.26 207.82 148.03 207.88C148.44 207.92 148.66 207.65 148.64 207.26C148.51 205.03 148.81 202.85 149.16 200.65C149.64 197.53 149.77 194.4 149.35 191.23C148.83 187.24 147.89 183.36 146.89 179.48C145.84 175.44 144.73 171.41 144.15 167.27C143.44 162.28 143.1 157.27 143.11 152.23C143.11 149.16 143.11 146.09 143.08 143.02C143.05 139.95 143.11 136.87 142.88 133.81C142.6 130.06 142.64 126.31 142.62 122.56C142.6 119.82 143.01 117.13 143.39 114.42C143.63 112.66 144.12 110.92 143.99 108.99L143.98 109ZM150.37 208.29C151.36 208.32 152.1 207.84 152.93 207.67C153.55 207.54 153.7 207.11 153.74 206.55C153.95 203.46 153.6 200.42 153.06 197.39C151.85 190.5 151.08 183.56 150.31 176.61C149.88 172.71 149.56 168.8 149.06 164.92C148.25 158.65 147.96 152.35 147.8 146.04C147.7 142.12 147.84 138.2 148.03 134.28C148.42 126.44 148.52 118.59 147.62 110.76C147.48 109.49 147.26 108.23 147.06 106.97C147 106.61 146.77 106.3 146.41 106.28C146.1 106.26 145.74 106.36 145.46 106.51C145.13 106.69 145.14 107.07 145.17 107.42C145.34 109.22 145.31 111.02 144.96 112.78C144.07 117.16 143.89 121.58 143.98 126.02C144.17 136.43 144.36 146.84 144.56 157.24C144.65 162.11 145.22 166.94 146.27 171.69C147.06 175.27 148.05 178.8 148.95 182.35C149.72 185.41 150.4 188.49 150.7 191.64C151.08 195.66 150.8 199.65 150.03 203.61C149.71 205.22 149.65 206.8 150.37 208.3V208.29ZM68.86 185.38C69.18 186.86 69.48 188.18 69.76 189.51C70.14 191.26 70.46 193.01 70.9 194.75C71.32 196.43 71.49 196.55 73.17 196.45C75.72 196.3 78.25 195.95 80.75 195.45C82.61 195.08 84.33 194.38 85.96 193.42C87.86 192.3 89.77 191.17 91.68 190.06C92.19 189.77 92.38 189.38 92.26 188.8C91.79 186.46 91.33 184.13 90.9 181.79C90.7 180.7 90.59 179.6 90.04 178.45C88.13 180.22 86.03 181.61 83.63 182.53C81.32 183.42 78.95 184.07 76.55 184.64C74.07 185.24 71.52 185.06 68.88 185.39L68.86 185.38ZM151.21 103.63C150.32 104.24 149.72 104.73 149.06 105.08C148.33 105.47 148.16 105.98 148.31 106.76C149.28 111.81 149.4 116.93 149.62 122.04C149.82 126.65 149.38 131.25 149.23 135.86C148.91 145.77 149.23 155.65 150.35 165.51C151.02 171.44 151.66 177.37 152.35 183.3C152.7 186.35 153.07 189.4 153.55 192.43C154.28 197.06 155.26 201.66 154.97 206.4C154.97 206.48 154.94 206.59 154.97 206.65C155.1 206.85 155.23 207.12 155.42 207.19C155.81 207.34 156.24 207.42 156.66 207.44C157.04 207.46 157.27 207.2 157.3 206.81C157.31 206.64 157.31 206.47 157.29 206.3C156.39 200.49 155.47 194.68 154.57 188.87C153.88 184.4 153.11 179.95 152.7 175.45C152.5 173.24 152.32 171.03 152.1 168.83C151.66 164.33 151.37 159.82 151.37 155.3C151.37 152.32 151.62 149.34 151.76 146.35C151.81 145.24 151.86 144.13 151.96 143.03C152.36 138.53 152.81 134.03 152.82 129.5C152.83 125.74 152.68 122 152.37 118.25C152.05 114.26 151.86 110.25 151.59 106.25C151.54 105.49 151.37 104.74 151.2 103.64L151.21 103.63ZM83.47 151.9C83.02 152.06 82.84 152.08 82.71 152.18C80.19 154.18 77.29 155.42 74.2 156.14C70.88 156.91 67.56 157.71 64.14 157.92C63.29 157.97 63.04 158.25 63.2 159.03C63.68 161.37 64.16 163.71 64.71 166.03C65.06 167.5 65.44 167.75 67.08 167.78C70.74 167.85 74.14 166.78 77.47 165.4C80.29 164.23 82.57 162.36 84.55 160.05C85.12 159.39 85.32 158.77 85.1 157.96C84.57 155.99 84.04 154.02 83.47 151.91V151.9ZM141.5 205.54C141.35 202.61 141.55 200 141.89 197.37C142.32 194.08 142.72 190.77 142.43 187.44C142.13 184.05 141.76 180.66 141.38 177.28C141.29 176.45 141.03 175.64 140.71 174.23C140.44 177.14 140.15 179.41 139.69 181.66C139.01 185.01 138.01 188.26 136.91 191.48C135.58 195.37 134.68 199.34 134.81 203.49C134.87 205.45 134.31 207.19 132.89 208.6C132.71 208.78 132.71 208.89 133.04 209.03C133.73 208.66 134.51 208.32 135.21 207.86C137.08 206.64 139.04 205.69 141.5 205.54ZM45.47 230.58C45.38 230.38 45.34 230.22 45.25 230.09C45.1 229.88 44.91 229.71 44.76 229.5C43.2 227.28 42.26 224.78 42.23 222.1C42.19 217.75 42.31 213.39 44.01 209.26C44.33 208.47 44.03 208.1 43.25 208.18C39.91 208.5 37.77 210.32 36.68 213.45C36.54 213.85 36.48 214.28 36.39 214.69C35.62 218.28 36.22 221.83 36.73 225.37C36.96 226.98 37.43 228.54 38.1 230.02C38.45 230.79 38.87 231.56 39.39 232.22C40.34 233.43 41.42 233.62 42.79 232.9C43.86 232.33 44.72 231.51 45.46 230.59L45.47 230.58ZM66.5 152.71C64.05 150.35 61.78 148.16 59.51 145.97C55.95 142.53 52.46 139.02 48.83 135.65C46.58 133.56 44.14 131.68 41.81 129.68C40.8 128.81 39.74 128.56 38.5 129.07C38.19 129.2 37.88 129.33 37.6 129.44C37.62 129.99 38.01 130.22 38.31 130.51C40.1 132.22 41.99 133.84 43.67 135.65C47.5 139.79 51.55 143.7 55.67 147.55C57.48 149.24 59.42 150.77 61.34 152.34C62.89 153.61 64.57 153.68 66.5 152.71ZM39.47 244.25C39.17 249.04 38.39 253.83 37.53 258.61C36.86 262.31 35.83 265.91 34.79 269.52C34.04 272.15 33.45 274.8 33.1 277.52C32.83 279.58 32.97 281.61 33.47 283.61C33.66 284.35 33.89 285.1 34.44 285.67C34.69 285.93 35.05 286.05 35.33 285.74C35.66 285.36 35.97 284.94 36.21 284.5C37.05 282.91 37.64 281.22 38.05 279.47C39.07 275.13 39.37 270.7 39.44 266.27C39.56 258.93 39.47 251.59 39.47 244.26V244.25ZM47.58 260.21C47.66 259.67 47.73 259.42 47.72 259.17C47.5 254.22 47.72 249.29 48.32 244.39C48.66 241.61 49.15 238.84 49.59 236.07C49.92 233.96 50.77 232.17 52.82 231.18C52.87 231.16 52.87 231.03 52.93 230.82C52.07 230.82 51.23 230.91 50.42 230.8C48.31 230.53 46.65 231.22 45.22 232.78C44.55 233.52 43.6 234.01 42.75 234.58C42.25 234.91 42.15 235.32 42.26 235.89C42.75 238.57 43.2 241.25 43.66 243.93C44.46 248.63 45.64 253.25 46.8 257.87C46.98 258.58 47.26 259.26 47.58 260.21ZM218.51 246.06C218.32 246.42 218.1 246.78 217.94 247.16C216.86 249.86 216.17 252.66 215.82 255.55C215.33 259.61 214.65 263.63 213.78 267.62C213.27 269.96 212.58 272.21 211.31 274.28C210.6 275.44 210.02 276.68 209.43 277.9C209.06 278.66 208.73 279.45 208.68 280.32C208.66 280.76 208.76 281.16 209.2 281.39C209.54 281.56 209.89 281.47 210.17 281.3C211.28 280.63 212.14 279.7 212.91 278.66C215 275.81 216.42 272.65 217.38 269.26C218.12 266.63 218.4 263.94 218.58 261.21C218.91 256.19 218.69 251.18 218.51 246.07V246.06ZM50.5 124.82C53.31 127.24 55.88 129.85 58.41 132.49C63.07 137.35 67.75 142.21 72.42 147.06C73.31 147.98 74.22 148.88 75.13 149.78C75.47 150.11 75.86 150.17 76.28 149.9C76.78 149.58 77.3 149.29 77.79 148.94C78.47 148.45 78.49 148.16 77.89 147.5C75.13 144.48 72.29 141.53 69.18 138.84C64.79 135.04 60.51 131.13 56.74 126.69C55.42 125.14 54.03 123.65 52.53 121.98C51.73 122.91 50.97 123.68 50.48 124.82H50.5ZM87.36 167.41C85.89 168.98 84.35 170.16 82.56 170.99C78.13 173.05 73.58 174.67 68.63 174.85C67.21 174.9 66.85 175.51 67.34 176.82C67.65 177.66 68.19 178.31 69.05 178.6C69.61 178.79 70.19 178.94 70.78 179C76.53 179.62 81.67 177.96 85.89 174.15C89.37 171.01 88.78 172.31 87.66 167.9C87.64 167.82 87.57 167.75 87.36 167.4V167.41ZM67.75 173.68C72.47 173.48 78.75 171.69 82.87 169.32C83.61 168.9 84.33 168.43 84.98 167.89C86.5 166.65 87.27 165.15 86.37 163.17C86.27 162.94 86.25 162.67 86.17 162.43C85.77 161.09 85.5 160.99 84.6 161.93C83.29 163.29 81.89 164.56 80.24 165.47C76.38 167.6 72.22 168.87 67.82 169.12C65.27 169.27 65.41 169.15 65.86 171.55C65.91 171.8 66.02 172.04 66.05 172.29C66.21 173.72 66.79 173.67 67.74 173.67L67.75 173.68ZM70 152.03C71.19 151.91 72.25 151.6 73.29 151.22C73.91 150.99 73.97 150.59 73.5 150.05C73.39 149.92 73.27 149.8 73.15 149.68C67.06 143.35 60.98 137.02 54.86 130.71C53.44 129.24 51.92 127.87 50.39 126.5C49.45 125.66 49.13 125.7 48.21 126.52C47.39 127.26 47.38 127.46 48.19 128.37C50.52 130.99 53.1 133.34 55.69 135.7C59.6 139.26 63.42 142.92 66.95 146.86C68.31 148.38 69.65 149.93 70 152.03ZM123.81 101.92C124.77 101.96 125.31 101.59 125.17 101.15C124.49 99.12 124.26 97.01 123.97 94.91C123.83 93.86 123.24 93.03 122.3 92.47C120.92 91.64 119.51 90.85 118.28 89.78C118.02 89.55 117.72 89.58 117.35 89.7C116.12 90.1 115.47 91.09 114.75 92.04C114.11 92.88 114.07 93.77 114.58 94.66C116.16 97.46 118.23 99.77 121.18 101.19C122.11 101.64 123.11 101.82 123.82 101.92H123.81ZM88.52 173.65C82.55 179.2 75.89 181.75 67.85 179.82C67.62 181.03 68.21 182.04 68.37 183.11C68.45 183.66 69 183.92 69.53 183.94C70.46 183.99 71.41 184.06 72.33 183.95C74.95 183.64 77.55 183.21 80.06 182.4C82.33 181.67 84.59 180.9 86.58 179.54C89.44 177.58 89.69 176.4 88.52 173.65ZM160.67 86.05C159.28 87.68 157.73 88.85 156.26 90.12C155.62 90.68 155.02 91.28 154.43 91.9C153.65 92.72 153.15 93.72 152.92 94.81C152.5 96.81 152.27 98.84 152.24 100.88C152.24 101.4 152.64 101.63 153.08 101.32C155.97 99.32 158.51 96.97 160.29 93.87C161.69 91.43 161.79 88.93 160.65 86.04L160.67 86.05ZM42.6 128.5C43.01 128.9 43.29 129.21 43.62 129.47C49.28 133.91 54.33 139 59.41 144.06C61.47 146.11 63.57 148.1 65.68 150.1C66.23 150.62 66.87 151.05 67.5 151.5C67.61 151.58 67.84 151.57 67.97 151.5C68.22 151.37 68.3 151.08 68.2 150.84C67.64 149.57 66.72 148.55 65.81 147.54C62.71 144.12 59.39 140.92 56.02 137.78C52.65 134.64 49.12 131.66 46.21 128.05C45.98 127.76 45.7 127.6 45.34 127.64C44.43 127.74 43.55 127.95 42.61 128.5H42.6ZM98.05 170.23C98.13 170.23 98.21 170.22 98.29 170.21C98.48 169.65 98.7 169.09 98.85 168.52C100.9 160.78 102.95 153.04 104.97 145.3C105.33 143.9 105.5 142.45 105.83 141.04C106.09 139.91 105.52 139.27 104.68 138.73C104.27 138.47 103.84 138.64 103.72 139.14C101.75 147.51 99.58 155.84 98.61 164.41C98.39 166.35 98.23 168.29 98.05 170.23ZM162.65 93.74C162.46 94.04 162.3 94.24 162.18 94.46C160.54 97.77 157.91 100.16 154.95 102.23C154.46 102.57 153.96 102.89 153.46 103.22C153 103.53 152.75 103.95 152.78 104.51C152.81 105.1 152.83 105.7 152.93 106.29C152.99 106.64 153.3 106.86 153.69 106.82C154.11 106.78 154.57 106.76 154.94 106.59C158.4 104.96 161.33 102.73 163.26 99.32C164.36 97.38 164.17 95.64 162.65 93.75V93.74ZM46.57 286.47C46.02 286.84 45.94 287.47 45.77 288.01C44.8 291.01 43.91 294.03 43.37 297.14C43.04 299.08 42.97 301.04 43.13 303C43.2 303.85 43.32 304.7 43.88 305.4C44.04 305.6 44.34 305.67 44.5 305.39C44.71 305.03 44.93 304.64 45.02 304.24C45.28 302.99 45.55 301.73 45.67 300.47C46.03 296.49 46.34 292.5 46.63 288.51C46.68 287.84 46.87 287.16 46.57 286.48V286.47ZM187.87 162.18C188.72 159.75 189.02 157.31 189.09 154.87C189.27 148.99 188.93 143.12 188.7 137.25C188.69 136.91 188.82 136.43 188.3 136.25C187.59 136.74 187.69 137.49 187.69 138.13C187.71 140.68 187.7 143.24 187.88 145.79C188.21 150.55 188.37 155.31 187.79 160.06C187.71 160.72 187.58 161.41 187.87 162.19V162.18ZM121.43 102.82C117.88 101.19 115.4 98.72 113.54 95.59C113.45 95.45 113.34 95.32 113.23 95.19C113.11 95.04 112.95 95.03 112.8 95.19C112.69 95.31 112.53 95.47 112.54 95.6C112.56 95.92 112.59 96.28 112.73 96.56C114.33 99.75 116.86 101.87 120.21 103.03C120.52 103.14 120.87 103.2 121.42 102.83L121.43 102.82ZM163.15 70.28C164.34 69.11 165.14 68.05 165.43 66.67C165.48 66.42 165.25 66.2 164.95 66.27C164.71 66.33 164.4 66.39 164.27 66.56C163.49 67.58 163.14 68.73 163.15 70.28ZM228.83 176.44C229.7 175.12 229.73 174 229.49 172.55C228.43 173.81 228.45 174.94 228.83 176.44ZM55.88 119.2C55.84 119.01 55.94 118.71 55.6 118.73C55.47 118.73 55.33 118.9 55.23 119.02C55.07 119.22 55.05 119.45 55.21 119.67C55.25 119.73 55.32 119.79 55.39 119.82C55.58 119.91 55.72 119.85 55.77 119.67C55.81 119.52 55.84 119.36 55.88 119.19V119.2Z" fill="#6096BA"/>
<path d="M122.11 342.32C122.17 344.04 121.79 345.14 120.92 346.05C119.33 347.73 116.7 347.59 115.36 345.69C114.23 344.09 114.1 342.36 114.98 340.61C115.69 339.22 116.79 338.36 118.43 338.39C119.95 338.42 121.32 339.45 121.86 341.02C122.05 341.58 122.09 342.18 122.11 342.31V342.32ZM118.42 339.76C117.61 339.74 116.93 340.05 116.45 340.73C115.58 341.96 115.57 343.3 116.22 344.59C117.13 346.38 119.27 346.43 120.31 344.71C120.61 344.21 120.82 343.62 120.9 343.05C121.12 341.42 119.86 339.81 118.42 339.77V339.76Z" fill="#6096BA"/>
<path d="M117.37 294.33C115.18 294.37 113.7 292.9 113.69 290.65C113.69 288.43 115.29 286.67 117.44 286.57C119.55 286.47 121.21 288 121.31 290.15C121.41 292.38 119.62 294.28 117.37 294.32V294.33ZM120 290.26C120 288.93 118.81 287.79 117.52 287.87C116.14 287.95 114.98 289.16 114.92 290.57C114.87 291.88 116.01 293.12 117.27 293.12C118.68 293.12 120.01 291.74 120 290.26Z" fill="#6096BA"/>
<path d="M23.61 290.11C23.79 292.52 23.5 294.91 23.37 297.31C23.1 295.04 23.2 292.78 23.35 290.51C23.35 290.38 23.56 290.27 23.67 290.15L23.61 290.11Z" fill="#6096BA"/>
<path d="M43.06 161.91C43.01 160.59 43.12 159.33 43.74 158.16C44.82 156.13 46.85 155.71 48.65 157.16C51.48 159.43 52.69 165.55 50.94 168.69C49.9 170.56 47.89 170.97 46.18 169.68C45.34 169.05 44.76 168.21 44.3 167.29C43.45 165.59 42.96 163.8 43.05 161.91H43.06ZM50.4 164.68C50.37 162.91 50.01 161.42 49.25 160.03C48.84 159.27 48.35 158.59 47.66 158.06C46.68 157.31 45.73 157.47 45.08 158.53C44.86 158.88 44.71 159.29 44.59 159.7C43.76 162.71 44.54 165.4 46.24 167.9C46.33 168.04 46.46 168.16 46.58 168.28C48 169.7 49.33 169.39 50.06 167.46C50.4 166.56 50.39 165.63 50.39 164.69L50.4 164.68Z" fill="#6096BA"/>
</g>
<defs>
<clipPath id="clip0_699_2">
<rect width="252.9" height="426.93" fill="white"/>
</clipPath>
</defs>
</svg>
