<svg width="90" height="140" viewBox="0 0 90 140" fill="none" xmlns="http://www.w3.org/2000/svg">
<path d="M38.8737 0V70.4218" stroke="#CCCCCC" stroke-miterlimit="10"/>
<path d="M38.8737 69.4187C35.9032 61.6346 28.8035 66.1682 38.8737 69.4187Z" stroke="#CCCCCC" stroke-miterlimit="10"/>
<path d="M38.9281 69.6053C40.7789 64.5196 43.5161 62.1634 44.0527 64.854C44.3482 66.3315 41.5021 68.6255 38.9281 69.6053Z" stroke="#CCCCCC" stroke-miterlimit="10"/>
<path d="M11.7365 89.7973L21.7328 86.9603L29.8693 84.6512L38.2417 69.8964L73.1126 60L44.3621 93.6746L41.9608 100.924L58.785 114.844L54.8959 128.579L39.5595 108.174L21.4635 100.173L16.6 94.9853L6.70149 104.363L11.7365 89.7973Z" fill="white"/>
<path d="M21.4635 100.173L16.6 94.9853M21.4635 100.173L29.8693 84.6512M21.4635 100.173L39.5595 108.174M11.7365 89.7973L21.7328 86.9603L29.8693 84.6512M11.7365 89.7973L6.70149 104.363L16.6 94.9853M11.7365 89.7973L16.6 94.9853M29.8693 84.6512L38.2417 69.8964M38.2417 69.8964L44.3621 93.6746M38.2417 69.8964L73.1126 60L44.3621 93.6746M44.3621 93.6746L41.9608 100.924M39.5595 108.174L54.8959 128.579L58.785 114.844L41.9608 100.924M39.5595 108.174L41.9608 100.924" stroke="#465558" stroke-dasharray="7 7"/>
</svg>
