<svg width="275" height="276" viewBox="0 0 275 276" fill="none" xmlns="http://www.w3.org/2000/svg">
<path d="M127.73 1L137.21 137.31L88.05 140.73L81.01 39.43L127.73 1Z" fill="#D7D7D7" stroke="#465558" stroke-dasharray="10 10"/>
<path d="M81.01 39.43L134.17 88.74L137.42 137.91L88.05 140.73L81.01 39.43Z" fill="white" stroke="#465558" stroke-dasharray="10 10"/>
<path d="M273.73 128.43L137.42 137.91L134 88.75L235.3 81.7L273.73 128.43Z" fill="#D7D7D7" stroke="#465558" stroke-dasharray="10 10"/>
<path d="M235.3 81.7L186.73 135.09L137.19 138.54L133.73 88.76L235.3 81.7Z" fill="white" stroke="#465558" stroke-dasharray="10 10"/>
<path d="M147.04 274.72L137.56 138.41L186.72 134.99L193.76 236.29L147.04 274.72Z" fill="#D7D7D7" stroke="#465558" stroke-dasharray="10 10"/>
<path d="M193.76 236.29L140.73 186.43L137.42 137.91L186.8 134.48L193.76 236.29Z" fill="white" stroke="#465558" stroke-dasharray="10 10"/>
<path d="M1 146.75L137.31 137.27L140.73 186.43L39.43 193.47L1 146.75Z" fill="#D7D7D7" stroke="#465558" stroke-dasharray="10 10"/>
<path d="M39.43 193.47L88.04 140.63L137.31 137.2L140.99 186.34L39.43 193.47Z" fill="white" stroke="#465558" stroke-dasharray="10 10"/>
<path d="M148.28 135.77C148.72 142.12 143.93 147.63 137.58 148.07C131.23 148.51 125.72 143.72 125.28 137.37C124.84 131.02 129.63 125.51 135.98 125.07C142.33 124.63 147.84 129.42 148.28 135.77Z" fill="#D7D7D7"/>
<path d="M142.55 136.56C142.55 139.71 140 142.26 136.85 142.26C133.7 142.26 131.15 139.71 131.15 136.56C131.15 133.41 133.7 130.86 136.85 130.86C140 130.86 142.55 133.41 142.55 136.56Z" fill="#AFAFAF"/>
</svg>
