<svg width="75" height="76" viewBox="0 0 75 76" fill="none" xmlns="http://www.w3.org/2000/svg">
<path d="M15.7778 24.5797L61.8742 24.8983L49.2054 11.7998H61.8742V24.8983V47.7274H15.7778V24.5797Z" fill="white"/>
<path d="M61.8742 24.8983L15.7778 24.5797V47.7274H61.8742V24.8983ZM61.8742 24.8983V11.7998C61.8742 11.7998 54.1528 11.7998 49.2054 11.7998L61.8742 24.8983Z" stroke="#465558"/>
<path d="M38.5593 1L15.7128 24.474L61.8743 24.9111L38.5593 1Z" fill="white"/>
<path d="M15.7128 24.474L15.3545 24.1253C15.2149 24.2687 15.1743 24.4816 15.2513 24.6663C15.3282 24.8511 15.508 24.9721 15.7081 24.974L15.7128 24.474ZM38.5593 1L38.9173 0.650937L38.559 0.283457L38.201 0.651269L38.5593 1ZM61.8743 24.9111L61.8696 25.4111C62.0715 25.413 62.2548 25.2933 62.3341 25.1075C62.4135 24.9218 62.3733 24.7066 62.2323 24.5621L61.8743 24.9111ZM16.0711 24.8228L38.9176 1.34873L38.201 0.651269L15.3545 24.1253L16.0711 24.8228ZM38.2013 1.34906L61.5164 25.2602L62.2323 24.5621L38.9173 0.650937L38.2013 1.34906ZM15.7081 24.974L61.8696 25.4111L61.8791 24.4111L15.7176 23.9741L15.7081 24.974Z" fill="#465558"/>
<path d="M38.2378 24.6201L15.8758 47.6676" stroke="#465558" stroke-dasharray="4 4"/>
<path d="M38.7927 24.6201L61.6133 47.5933" stroke="#465558" stroke-dasharray="4 4"/>
<path d="M38.5569 1.30595L38.5568 21.583L38.5568 28.0466L38.5568 47.8269" stroke="#465558" stroke-dasharray="4 4"/>
<path d="M-9.15527e-05 69.968C-9.15527e-05 72.397 1.32127 73.7161 3.7545 73.7161C6.01048 73.7161 7.21904 72.574 7.21904 70.4667H6.30054C6.30054 72.027 5.41426 72.8796 3.7545 72.8796C1.91749 72.8796 0.918414 71.8501 0.918414 69.968V68.3594C0.918414 66.4613 1.91749 65.4478 3.7545 65.4478C5.41426 65.4478 6.30054 66.2843 6.30054 67.8608H7.21904C7.21904 65.7374 6.01048 64.6114 3.7545 64.6114C1.32127 64.6114 -9.15527e-05 65.9143 -9.15527e-05 68.3594V69.968Z" fill="#EAEAEA"/>
<path d="M9.82324 64.7401V73.5874H14.0451C15.8338 73.5874 16.7845 72.7509 16.7845 71.1906C16.7845 70.0324 16.2689 69.2924 15.2859 69.0029C15.9466 68.6651 16.3011 68.0055 16.3011 67.0564C16.3011 65.5444 15.4148 64.7401 13.7551 64.7401H9.82324ZM10.7417 69.4854H14.0451C15.2215 69.4854 15.866 70.0645 15.866 71.1262C15.866 72.1879 15.2215 72.7509 14.0451 72.7509H10.7417V69.4854ZM13.739 65.5765C14.8025 65.5765 15.3826 66.1235 15.3826 67.1208C15.3826 68.1342 14.8025 68.6811 13.739 68.6811H10.7417V65.5765H13.739Z" fill="#EAEAEA"/>
<path d="M19.3726 65.5444H22.5471V72.7831H19.3726V73.5874H26.5112V72.7831H23.4817V64.7401H19.3726V65.5444ZM22.7566 62.681C23.2239 62.681 23.4978 62.4237 23.4978 61.925C23.4978 61.4424 23.2239 61.1689 22.7566 61.1689C22.2732 61.1689 21.9992 61.4424 21.9992 61.925C21.9992 62.4237 22.2732 62.681 22.7566 62.681Z" fill="#EAEAEA"/>
<path d="M29.0026 73.5874H29.9211V72.2844L35.271 66.9599V73.5874H36.1895V64.7401H35.271V65.7213L29.9211 71.0458V64.7401H29.0026V73.5874ZM30.2434 61.4746C30.2434 62.9867 31.0652 63.8071 32.596 63.8071C34.143 63.8071 34.9648 62.9867 34.9648 61.4746H34.1752C34.1752 62.5363 33.6273 63.1154 32.596 63.1154C31.5808 63.1154 31.0169 62.5363 31.0169 61.4746H30.2434Z" fill="#EAEAEA"/>
<path d="M48.5848 76.0003V73.5874H55.256V76.0003H56.1101V72.767H55.0788V64.7401H51.8076L48.762 67.7642V72.767H47.7307V76.0003H48.5848ZM49.6483 72.767V68.1342L52.2266 65.5444H54.1442V72.767H49.6483Z" fill="#EAEAEA"/>
<path d="M58.0214 65.5444H61.1959V72.7831H58.0214V73.5874H65.1599V72.7831H62.1305V64.7401H58.0214V65.5444ZM61.4053 62.681C61.8727 62.681 62.1466 62.4237 62.1466 61.925C62.1466 61.4424 61.8727 61.1689 61.4053 61.1689C60.9219 61.1689 60.648 61.4424 60.648 61.925C60.648 62.4237 60.9219 62.681 61.4053 62.681Z" fill="#EAEAEA"/>
<path d="M67.4902 73.5874H68.4087V67.4747L71.0675 70.1128H71.4382L74.0809 67.4747V73.5874H74.9994V64.7401H74.0809V66.2361L71.2448 69.0511L68.4087 66.2361V64.7401H67.4902V73.5874Z" fill="#EAEAEA"/>
</svg>
