<svg width="96" height="97" viewBox="0 0 96 97" fill="none" xmlns="http://www.w3.org/2000/svg">
<path d="M19.9905 30.8761L78.3945 31.2798L62.3431 14.684H78.3945V31.2798V60.2042H19.9905V30.8761Z" fill="white"/>
<path d="M78.3945 31.2798L19.9905 30.8761V60.2042H78.3945V31.2798ZM78.3945 31.2798V14.684C78.3945 14.684 68.6116 14.684 62.3431 14.684L78.3945 31.2798Z" stroke="#465558"/>
<path d="M48.8547 1L19.9082 30.7416L78.3948 31.2953L48.8547 1Z" fill="white"/>
<path d="M19.9082 30.7416L19.5499 30.3929C19.4103 30.5363 19.3697 30.7491 19.4467 30.9339C19.5236 31.1186 19.7033 31.2397 19.9035 31.2416L19.9082 30.7416ZM48.8547 1L49.2126 0.650937L48.8543 0.283457L48.4963 0.651269L48.8547 1ZM78.3948 31.2953L78.39 31.7953C78.592 31.7972 78.7752 31.6775 78.8546 31.4918C78.9339 31.3061 78.8937 31.0909 78.7528 30.9463L78.3948 31.2953ZM20.2665 31.0903L49.213 1.34873L48.4963 0.651269L19.5499 30.3929L20.2665 31.0903ZM48.4967 1.34906L78.0368 31.6444L78.7528 30.9463L49.2126 0.650937L48.4967 1.34906ZM19.9035 31.2416L78.39 31.7953L78.3995 30.7954L19.9129 30.2416L19.9035 31.2416Z" fill="#465558"/>
<path d="M48.4473 30.9269L20.1146 60.128" stroke="#465558" stroke-dasharray="4 4"/>
<path d="M49.1504 30.9269L78.0641 60.0339" stroke="#465558" stroke-dasharray="4 4"/>
<path d="M48.8515 1.38752L48.8515 27.0785L48.8515 35.2678L48.8515 60.3295" stroke="#465558" stroke-dasharray="4 4"/>
<path d="M-0.00012207 88.382C-0.00012207 91.4595 1.67404 93.1308 4.75694 93.1308C7.61526 93.1308 9.14651 91.6837 9.14651 89.0138H7.98276C7.98276 90.9908 6.85985 92.071 4.75694 92.071C2.42945 92.071 1.16362 90.7666 1.16362 88.382V86.3439C1.16362 83.9389 2.42945 82.6549 4.75694 82.6549C6.85985 82.6549 7.98276 83.7147 7.98276 85.7121H9.14651C9.14651 83.0218 7.61526 81.5951 4.75694 81.5951C1.67404 81.5951 -0.00012207 83.246 -0.00012207 86.3439V88.382Z" fill="#465558"/>
<path d="M12.446 81.7582V92.9677H17.7952C20.0614 92.9677 21.266 91.9079 21.266 89.931C21.266 88.4635 20.6127 87.526 19.3672 87.1591C20.2043 86.7311 20.6535 85.8955 20.6535 84.693C20.6535 82.7772 19.5306 81.7582 17.4277 81.7582H12.446ZM13.6098 87.7706H17.7952C19.2856 87.7706 20.1022 88.5043 20.1022 89.8494C20.1022 91.1946 19.2856 91.9079 17.7952 91.9079H13.6098V87.7706ZM17.4073 82.818C18.7547 82.818 19.4897 83.5109 19.4897 84.7746C19.4897 86.0586 18.7547 86.7515 17.4073 86.7515H13.6098V82.818H17.4073Z" fill="#465558"/>
<path d="M24.5451 82.7772H28.5671V91.9487H24.5451V92.9677H33.5896V91.9487H29.7513V81.7582H24.5451V82.7772ZM28.8326 79.1494C29.4246 79.1494 29.7717 78.8233 29.7717 78.1915C29.7717 77.5801 29.4246 77.2336 28.8326 77.2336C28.2201 77.2336 27.873 77.5801 27.873 78.1915C27.873 78.8233 28.2201 79.1494 28.8326 79.1494Z" fill="#465558"/>
<path d="M36.7462 92.9677H37.91V91.3169L44.6883 84.5708V92.9677H45.852V81.7582H44.6883V83.0014L37.91 89.7475V81.7582H36.7462V92.9677ZM38.3183 77.6208C38.3183 79.5366 39.3595 80.5761 41.2991 80.5761C43.2591 80.5761 44.3004 79.5366 44.3004 77.6208H43.2999C43.2999 78.966 42.6058 79.6997 41.2991 79.6997C40.0129 79.6997 39.2983 78.966 39.2983 77.6208H38.3183Z" fill="#465558"/>
<path d="M61.5568 96.0249V92.9677H70.0093V96.0249H71.0914V91.9283H69.7847V81.7582H65.6402L61.7814 85.5898V91.9283H60.4748V96.0249H61.5568ZM62.9043 91.9283V86.0586L66.171 82.7772H68.6006V91.9283H62.9043Z" fill="#465558"/>
<path d="M73.513 82.7772H77.5351V91.9487H73.513V92.9677H82.5575V91.9487H78.7192V81.7582H73.513V82.7772ZM77.8005 79.1494C78.3925 79.1494 78.7396 78.8233 78.7396 78.1915C78.7396 77.5801 78.3925 77.2336 77.8005 77.2336C77.188 77.2336 76.8409 77.5801 76.8409 78.1915C76.8409 78.8233 77.188 79.1494 77.8005 79.1494Z" fill="#465558"/>
<path d="M85.51 92.9677H86.6737V85.2229L90.0424 88.5654H90.512L93.8604 85.2229V92.9677H95.0241V81.7582H93.8604V83.6536L90.267 87.2203L86.6737 83.6536V81.7582H85.51V92.9677Z" fill="#465558"/>
</svg>
