<svg width="91" height="199" viewBox="0 0 91 199" fill="none" xmlns="http://www.w3.org/2000/svg">
<mask id="path-1-inside-1_690_655" fill="white">
<path d="M12.46 194.93C11.09 198.24 7.30001 199.8 3.99002 198.43C0.690015 197.06 -0.879985 193.26 0.490015 189.96L77.7 4.07003C79.08 0.770032 82.87 -0.799968 86.17 0.570032C89.48 1.94003 91.04 5.74002 89.67 9.04002L12.46 194.93Z"/>
</mask>
<path d="M12.46 194.93C11.09 198.24 7.30001 199.8 3.99002 198.43C0.690015 197.06 -0.879985 193.26 0.490015 189.96L77.7 4.07003C79.08 0.770032 82.87 -0.799968 86.17 0.570032C89.48 1.94003 91.04 5.74002 89.67 9.04002L12.46 194.93Z" fill="#EAEAEA" stroke="#465558" stroke-width="2" stroke-dasharray="10 10" mask="url(#path-1-inside-1_690_655)"/>
</svg>
