<svg width="156" height="249" viewBox="0 0 156 249" fill="none" xmlns="http://www.w3.org/2000/svg">
<path d="M77.5267 0V141.993" stroke="#CCCCCC" stroke-miterlimit="10"/>
<path d="M78.2116 141.689C75.241 133.905 68.1413 138.439 78.2116 141.689Z" stroke="#CCCCCC" stroke-miterlimit="10"/>
<path d="M78.266 141.876C80.1167 136.79 82.854 134.434 83.3905 137.124C83.686 138.602 80.8399 140.896 78.266 141.876Z" stroke="#CCCCCC" stroke-miterlimit="10"/>
<path d="M51.2939 127.479L65.7396 135.819L77.4977 142.608L103.763 135.906L154.155 165L83.4074 169.224L72.4204 174.483L75.3388 209.189L55.2632 219.911L61.4335 179.742L50.3167 150.119L50.8053 138.799L28.9841 137.803L51.2939 127.479Z" fill="white"/>
<path d="M50.3167 150.119L50.8053 138.799M50.3167 150.119L77.4977 142.608M50.3167 150.119L61.4335 179.742M51.2939 127.479L65.7396 135.819L77.4977 142.608M51.2939 127.479L28.9841 137.803L50.8053 138.799M51.2939 127.479L50.8053 138.799M77.4977 142.608L103.763 135.906M103.763 135.906L83.4074 169.224M103.763 135.906L154.155 165L83.4074 169.224M83.4074 169.224L72.4204 174.483M61.4335 179.742L55.2632 219.911L75.3388 209.189L72.4204 174.483M61.4335 179.742L72.4204 174.483" stroke="#465558" stroke-dasharray="7 7"/>
</svg>
