<svg width="70" height="70" viewBox="0 0 70 70" fill="none" xmlns="http://www.w3.org/2000/svg">
<g style="mix-blend-mode:difference">
<path d="M49.5106 52.962C48.5373 52.2139 47.4134 51.3139 46.1388 50.2619C44.8874 49.2099 43.5665 48.0761 42.1761 46.8605L27.6462 46.8605C26.4644 48.0761 25.3173 49.1982 24.2049 50.2268C23.0926 51.2554 22.1309 52.1438 21.3198 52.8918C20.9722 53.1724 20.5667 53.3126 20.1032 53.3126C19.6165 53.3126 19.1878 53.1139 18.817 52.7165C18.4463 52.3425 18.2609 51.9217 18.2609 51.4541C18.2609 50.8931 18.4694 50.4372 18.8866 50.0866C19.7903 49.2918 20.8447 48.3333 22.0498 47.2112C23.2548 46.0891 24.483 44.8618 25.7344 43.5293C27.0089 42.1968 28.2603 40.7941 29.4885 39.3214C30.7167 37.8486 31.7943 36.3642 32.7213 34.868C32.9762 34.5407 33.2311 34.307 33.486 34.1667C33.7641 34.0498 34.0306 33.9914 34.2855 33.9914C34.5636 33.9914 34.8301 34.0498 35.085 34.1667C35.3631 34.307 35.5716 34.4823 35.7107 34.6927C36.823 36.1655 38.086 37.6382 39.4996 39.111C40.9363 40.6071 42.3847 42.0214 43.8446 43.3539C45.3277 44.7098 46.7529 45.9605 48.1202 47.106C49.5106 48.2515 50.7156 49.2216 51.7353 50.0164C52.2451 50.3905 52.5 50.8697 52.5 51.4541C52.5 51.9451 52.303 52.3775 51.9091 52.7516C51.5383 53.1256 51.1212 53.3126 50.6577 53.3126C50.2869 53.3126 49.9045 53.1957 49.5106 52.962ZM49.5106 35.7096C48.5373 34.9615 47.4134 34.0615 46.1388 33.0095C44.8874 31.9809 43.5665 30.8471 42.1761 29.6082L27.6462 29.6082C26.4644 30.8471 25.3173 31.9693 24.2049 32.9745C23.0926 34.0031 22.1309 34.8914 21.3198 35.6395C20.9722 35.92 20.5667 36.0603 20.1032 36.0603C19.6165 36.0603 19.1878 35.8616 18.817 35.4641C18.4463 35.0901 18.2609 34.6693 18.2609 34.2018C18.2609 33.9446 18.3072 33.6992 18.3999 33.4654C18.5158 33.2316 18.678 33.0212 18.8866 32.8342C19.7903 32.0394 20.8447 31.0809 22.0498 29.9588C23.2548 28.8367 24.483 27.6094 25.7344 26.2769C27.0089 24.9444 28.2603 23.5418 29.4885 22.069C30.7167 20.5963 31.7943 19.1118 32.7213 17.6157C32.9762 17.2884 33.2311 17.0546 33.486 16.9143C33.7641 16.7975 34.0306 16.739 34.2855 16.739C34.5636 16.739 34.8301 16.8091 35.085 16.9494C35.3631 17.0897 35.5716 17.265 35.7107 17.4754C36.823 18.9482 38.086 20.4209 39.4996 21.8937C40.9363 23.3898 42.3847 24.8041 43.8446 26.1366C45.3277 27.4925 46.7529 28.7315 48.1202 29.8536C49.5106 30.9991 50.7156 31.9693 51.7353 32.7641C51.9902 32.9511 52.1756 33.1732 52.2914 33.4303C52.4305 33.6875 52.5 33.9446 52.5 34.2018C52.5 34.7161 52.303 35.1486 51.9091 35.4992C51.5383 35.8732 51.1212 36.0603 50.6577 36.0603C50.2869 36.0603 49.9045 35.9434 49.5106 35.7096Z" fill="#4B4B4B"/>
<circle cx="35" cy="35" r="34.5" stroke="#4B4B4B"/>
</g>
</svg>
