<svg width="319" height="122" viewBox="0 0 319 122" fill="none" xmlns="http://www.w3.org/2000/svg">
<path d="M288.683 86.2813C288.63 86.2744 288.548 86.2089 288.443 86.0919L288.427 86.1017C288.418 86.0864 288.41 86.0683 288.4 86.0432C287.581 85.0865 285.576 81.4964 284.941 79.7431C284.119 77.4746 284.938 76.9343 285.208 76.8229C285.732 76.607 286.374 76.9691 286.698 77.6682C287.097 78.5232 287.952 81.7749 288.519 83.9279C288.754 84.8205 288.975 85.663 289.024 85.7953C289.076 85.9026 289.07 86.0376 289.003 86.1365C288.94 86.2298 288.836 86.2841 288.725 86.2841C288.711 86.2841 288.697 86.2841 288.683 86.2813ZM285.465 77.444C285.32 77.5039 285.029 78.0121 285.572 79.5148C286.102 80.9811 287.065 82.7024 287.832 83.9627C287.303 81.9504 286.453 78.7349 286.088 77.9523C285.921 77.593 285.673 77.4328 285.524 77.4328C285.502 77.4328 285.481 77.437 285.463 77.444H285.465Z" fill="#FF4A4A"/>
<path d="M305.724 71.6912C305.692 71.648 305.684 71.5422 305.696 71.3876L305.678 71.382C305.684 71.3667 305.691 71.3472 305.702 71.3221C305.83 70.0688 307.044 66.1403 307.876 64.4706C308.951 62.3107 309.907 62.5307 310.175 62.6505C310.693 62.8817 310.872 63.5961 310.591 64.3119C310.247 65.1892 308.484 68.0496 307.318 69.9421C306.832 70.7303 306.374 71.4739 306.313 71.6021C306.271 71.7135 306.17 71.8026 306.051 71.8221C306.033 71.8249 306.014 71.8263 305.996 71.8263C305.89 71.8263 305.789 71.7761 305.725 71.6898L305.724 71.6912ZM308.476 64.77C307.781 66.1668 307.199 68.051 306.816 69.4756C307.906 67.707 309.65 64.8717 309.964 64.0668C310.132 63.642 310.033 63.3231 309.9 63.2632C309.884 63.2563 309.86 63.2507 309.832 63.2507C309.62 63.2507 309.104 63.5097 308.476 64.7686V64.77Z" fill="#FF4A4A"/>
<path d="M293.369 64.9551C293.323 64.9273 293.276 64.8326 293.227 64.685H293.207C293.207 64.6682 293.206 64.6487 293.207 64.6209C292.851 63.4135 292.483 59.3179 292.618 57.4574C292.794 55.051 293.771 54.8867 294.054 54.9006C294.621 54.9173 295.058 55.5106 295.069 56.2807C295.085 57.2235 294.539 60.5392 294.178 62.7325C294.028 63.6447 293.886 64.5081 293.877 64.6487C293.88 64.7685 293.82 64.8883 293.718 64.9509C293.664 64.9844 293.603 65.0025 293.542 65.0025C293.48 65.0025 293.42 64.9858 293.368 64.9537L293.369 64.9551ZM293.288 57.5076C293.175 59.0617 293.351 61.0266 293.537 62.4902C293.874 60.4403 294.412 57.1552 294.398 56.2918C294.391 55.8351 294.178 55.5774 294.035 55.5732C294.035 55.5732 294.033 55.5732 294.032 55.5732C293.872 55.5732 293.404 55.9242 293.288 57.5076Z" fill="#FF4A4A"/>
<path d="M307.98 93.3262C307.721 93.1159 307.921 92.8374 308.018 92.7023C308.136 92.5366 308.389 92.1467 308.739 91.6063C312.452 85.8703 316.512 80.098 318.459 80.7177C318.834 80.8375 318.945 81.0937 318.98 81.2357C319.161 81.9961 318.1 83.1074 316.331 84.8467C315.927 85.2436 315.544 85.6196 315.242 85.9427C314.124 87.1375 312.762 88.6332 311.562 89.9547C308.949 92.8263 308.414 93.4139 308.155 93.4139C308.089 93.4139 308.041 93.3749 307.98 93.3262ZM310.559 90.0578C310.726 89.874 310.896 89.6874 311.065 89.5021C312.268 88.1792 313.631 86.6808 314.752 85.4831C315.064 85.1503 315.451 84.7701 315.861 84.3677C316.709 83.5335 318.473 81.7983 318.328 81.3931C318.328 81.3931 318.313 81.3764 318.254 81.3569C318.207 81.3416 318.153 81.3332 318.094 81.3332C317.257 81.3332 315.259 83.0085 310.559 90.0578Z" fill="#FF4A4A"/>
<path d="M301.085 107.145C300.986 107.011 301.002 106.825 301.12 106.708C301.907 105.933 308.8 99.2378 311.737 99.2378C311.78 99.2378 311.824 99.2378 311.865 99.242C312.279 99.2712 312.602 99.4369 312.828 99.7336C312.986 99.9424 313.039 100.185 312.982 100.437C312.784 101.303 311.305 102.118 309.393 103.092C309.168 103.208 308.956 103.315 308.765 103.416C305.578 105.092 301.511 107.245 301.511 107.245C301.461 107.272 301.408 107.284 301.354 107.284C301.25 107.284 301.148 107.235 301.082 107.146L301.085 107.145ZM303.408 105.482C304.852 104.719 306.777 103.702 308.456 102.82C308.648 102.718 308.863 102.609 309.091 102.492C310.248 101.902 312.187 100.916 312.33 100.286C312.343 100.229 312.335 100.189 312.296 100.14C312.188 99.9995 312.038 99.9271 311.819 99.9118C311.789 99.9104 311.757 99.909 311.725 99.909C309.974 99.909 306.036 103.109 303.408 105.484V105.482Z" fill="#FF4A4A"/>
<path d="M296.88 89.4033C297.041 89.4033 297.183 89.2864 297.211 89.122C297.219 89.0705 298.067 83.9625 299.849 79.5382C300.622 77.6193 301.665 76.806 302.259 77.0121C302.786 77.1959 303.269 78.466 302.446 81.2066L300.619 88.1806C300.571 88.3603 300.679 88.5441 300.858 88.5901C301.036 88.6374 301.22 88.5302 301.268 88.3505L303.091 81.389C304.05 78.193 303.405 76.7029 302.479 76.3785C301.568 76.0596 300.211 76.8366 299.225 79.2876C297.416 83.7829 296.557 88.9605 296.548 89.012C296.518 89.1945 296.643 89.3671 296.825 89.3978C296.843 89.4006 296.862 89.402 296.88 89.402V89.4033Z" fill="#FF4A4A"/>
<path d="M291.195 92.1413H291.205C291.39 92.1357 291.536 91.9812 291.531 91.796C291.515 91.2528 291.492 90.6568 291.467 90.0162C291.307 85.8691 291.063 79.6038 292.447 75.0556C293.174 72.666 294.592 71.4544 296.345 71.7315C298.143 72.017 299.633 73.8288 299.597 75.6865C299.592 75.8717 299.74 76.0249 299.925 76.0291C300.09 76.0263 300.264 75.8856 300.268 75.7004C300.311 73.4876 298.598 71.4098 296.451 71.0687C294.367 70.7386 292.629 72.1549 291.806 74.8607C290.389 79.5161 290.634 85.851 290.797 90.0427C290.822 90.6805 290.844 91.2751 290.861 91.8155C290.866 91.9979 291.015 92.1413 291.197 92.1413H291.195Z" fill="#FF4A4A"/>
<path d="M288.95 113.224C288.967 113.224 288.984 113.224 289.002 113.219C289.186 113.192 289.311 113.02 289.283 112.836C289.003 110.994 288.634 108.932 288.244 106.747C287.354 101.763 286.435 96.6086 286.328 92.9224C286.289 91.5632 286.604 90.58 287.264 90.0007C288.131 89.239 289.342 89.4214 289.353 89.4242C289.535 89.452 289.708 89.3295 289.737 89.1471C289.766 88.9646 289.644 88.792 289.461 88.7627C289.4 88.7516 287.938 88.5218 286.827 89.491C286.005 90.2082 285.611 91.3696 285.657 92.9419C285.764 96.6782 286.689 101.857 287.583 106.865C287.973 109.046 288.339 111.104 288.619 112.938C288.644 113.104 288.787 113.224 288.95 113.224Z" fill="#FF4A4A"/>
<path d="M291.004 113.299C291.155 113.299 291.291 113.197 291.33 113.046C292.34 109.032 295.459 98.3956 297.733 97.3804C297.923 97.2968 298.084 97.2968 298.243 97.3804C299.372 97.9764 298.547 100.214 297.884 102.013C297.549 102.92 297.233 103.778 297.164 104.405C297.148 104.541 297.102 104.955 297.426 105.105C297.82 105.29 298.23 104.863 298.971 104.087C299.381 103.658 300.234 102.759 300.502 102.792C300.771 103.055 300.546 103.388 299.533 104.584C299.18 104.999 298.782 105.47 298.338 106.044C296.13 108.897 293.557 112.579 293.53 112.615C293.425 112.767 293.461 112.976 293.614 113.082C293.766 113.189 293.975 113.151 294.082 112.998C294.107 112.962 296.672 109.293 298.87 106.453C299.304 105.89 299.698 105.427 300.046 105.016C301.06 103.82 301.731 103.03 300.94 102.289C300.318 101.706 299.388 102.679 298.488 103.622C298.294 103.824 298.059 104.072 297.868 104.249C297.973 103.715 298.237 102.998 298.515 102.245C299.268 100.2 300.207 97.6561 298.556 96.7857C298.215 96.6061 297.836 96.6005 297.46 96.7676C294.475 98.0989 291.059 111.373 290.678 112.881C290.634 113.061 290.743 113.243 290.922 113.288C290.95 113.295 290.976 113.298 291.004 113.298V113.299Z" fill="#FF4A4A"/>
<path d="M298.399 102.136C298.498 102.136 298.597 102.093 298.662 102.008C299.19 101.339 300.353 100.261 301.585 99.1207C304.528 96.394 306.452 94.528 306.394 93.4724C306.369 93.0323 306.232 92.7065 305.989 92.5073C305.798 92.3514 305.582 92.2984 305.383 92.2873C305.504 92.1341 305.64 91.967 305.787 91.7874C306.658 90.7178 307.853 89.2542 308.265 87.8923C308.608 86.7601 308.939 83.592 307.718 82.4751C307.388 82.1729 306.8 81.893 305.869 82.2676C303.157 83.3594 300.744 88.2028 300.642 88.4075C300.56 88.5733 300.628 88.7752 300.796 88.8574C300.961 88.9381 301.163 88.8713 301.245 88.7042C301.269 88.6554 303.646 83.8858 306.119 82.8901C306.614 82.691 306.988 82.716 307.264 82.9695C308.133 83.7646 307.99 86.483 307.622 87.6973C307.249 88.9325 306.103 90.3377 305.266 91.3626C304.957 91.7414 304.689 92.0701 304.518 92.3207C304.39 92.5073 304.372 92.6758 304.462 92.822C304.599 93.0435 304.848 93.0087 305.029 92.9822C305.203 92.9585 305.44 92.9237 305.562 93.0254C305.678 93.1201 305.714 93.3415 305.724 93.51C305.77 94.3302 302.978 96.9177 301.13 98.6291C299.878 99.7892 298.697 100.884 298.136 101.593C298.022 101.737 298.045 101.949 298.191 102.065C298.253 102.113 298.327 102.137 298.399 102.137V102.136Z" fill="#FF4A4A"/>
<path d="M200.121 106.791C200.266 106.791 200.4 106.697 200.443 106.55L206.619 85.4471C206.641 85.3733 206.636 85.2939 206.606 85.2229L204.952 81.3L208.06 75.1921C208.085 75.142 208.098 75.0862 208.097 75.0305L207.865 66.5998L208.2 67.9075L208.814 76.593L207.138 80.5494C207.105 80.6287 207.104 80.7165 207.133 80.7959L208.218 83.7468C208.255 83.8498 208.34 83.9264 208.446 83.9556L217.928 86.4971C218.033 86.525 218.145 86.4999 218.23 86.4303L220.293 84.7132L220.68 87.0305C220.702 87.16 220.797 87.2658 220.924 87.2993L223.476 87.983L220.138 98.2729C220.081 98.4497 220.177 98.6391 220.354 98.6962C220.531 98.7533 220.719 98.6572 220.777 98.4803L224.224 87.8535C224.252 87.7658 224.244 87.6711 224.199 87.5903C224.154 87.5095 224.081 87.4497 223.992 87.426L221.307 86.706L220.858 84.0239C220.839 83.9055 220.757 83.8066 220.644 83.7635C220.532 83.7217 220.406 83.7426 220.312 83.8206L217.934 85.8008L208.787 83.3485L207.808 80.6859L209.464 76.7782C209.485 76.7295 209.493 76.6766 209.491 76.6237L208.868 67.8281C208.868 67.8086 208.864 67.7877 208.858 67.7682L207.773 63.5305C207.73 63.3648 207.572 63.259 207.402 63.2813C207.232 63.3049 207.108 63.4526 207.112 63.6225L207.424 74.9623L204.284 81.1329C204.239 81.2206 204.235 81.325 204.274 81.4156L205.944 85.3733L199.801 106.362C199.749 106.541 199.851 106.727 200.029 106.779C200.061 106.789 200.092 106.793 200.124 106.793L200.121 106.791Z" fill="#FF4A4A"/>
<path d="M259.21 111.271C259.345 111.271 259.473 111.189 259.523 111.055C259.576 110.918 264.79 97.1462 269.682 83.2774C279.645 55.0357 278.592 53.9147 278.195 53.4941C276.758 51.9637 275.594 51.6712 274.932 51.6629C275.243 50.5781 275.85 48.0352 275.147 46.786C274.927 46.3947 274.604 46.1496 274.185 46.0549C272.339 45.6385 262.012 45.25 259.136 45.1483C259.944 44.2181 261.395 42.3423 261.278 40.9901C261.24 40.5458 261.043 40.1893 260.692 39.9331C258.923 38.6394 240.147 32.4953 239.349 32.2349C239.324 32.2265 239.297 32.2209 239.271 32.2196C235.497 31.9215 231.248 31.1473 230.966 30.4148C230.796 29.9747 231.499 28.5125 232.013 27.4458C232.911 25.5783 233.437 24.4016 232.971 23.7819C232.768 23.5117 232.422 23.4156 231.942 23.4964C231.003 23.6565 228.725 23.1176 226.312 22.5466C222.102 21.5509 217.749 20.5218 216.44 21.9436C214.482 24.0701 189.987 103.51 188.946 106.89C188.891 107.067 188.99 107.255 189.167 107.309C189.345 107.365 189.532 107.265 189.586 107.088C196.668 84.1074 215.384 24.0938 216.933 22.3976C217.976 21.2654 222.511 22.3377 226.156 23.1998C228.744 23.8111 230.978 24.3389 232.052 24.1579C232.272 24.1203 232.401 24.1439 232.432 24.1843C232.677 24.5102 231.881 26.1646 231.406 27.1533C230.57 28.8899 230.081 29.9914 230.336 30.6543C230.897 32.1109 237.189 32.7251 239.175 32.8838C245.915 35.0869 258.948 39.4903 260.292 40.4734C260.484 40.6141 260.585 40.7965 260.605 41.0458C260.711 42.2796 258.872 44.4799 258.155 45.2235C258.063 45.3196 258.035 45.4603 258.085 45.5828C258.135 45.7054 258.252 45.7875 258.386 45.7917C258.521 45.7959 271.993 46.2457 274.033 46.708C274.265 46.761 274.432 46.8891 274.558 47.1133C275.176 48.2107 274.463 50.9777 274.137 51.9511C274.095 52.0751 274.13 52.213 274.225 52.3021C274.32 52.3926 274.459 52.4191 274.582 52.3689C274.588 52.3661 275.822 51.9498 277.702 53.9509C278.995 55.8003 266.851 89.8115 258.891 110.814C258.826 110.989 258.912 111.182 259.086 111.248C259.125 111.263 259.166 111.268 259.205 111.268L259.21 111.271Z" fill="#FF4A4A"/>
<path d="M221.62 119.112C228.792 119.112 233.904 118.94 236.103 118.506C249.933 115.772 300.765 111.697 303.233 113.598C303.379 113.711 303.591 113.685 303.703 113.537C303.816 113.391 303.79 113.179 303.642 113.066C300.796 110.873 248.697 115.332 235.972 117.847C230.09 119.01 201.45 118.223 171.129 117.39C133.264 116.35 90.3476 115.171 80.3919 117.436C80.2123 117.477 80.0981 117.658 80.1399 117.839C80.1803 118.02 80.3613 118.133 80.5423 118.091C90.4144 115.845 133.287 117.021 171.112 118.062C191.097 118.61 209.365 119.113 221.623 119.113L221.62 119.112Z" fill="#FF4A4A"/>
<path d="M127.202 66.1389V57.7291C127.202 57.3099 127.544 56.9688 127.963 56.9688H132.085C132.504 56.9688 132.845 57.3099 132.845 57.7291V66.1389C132.845 66.5581 132.504 66.8993 132.085 66.8993H127.963C127.544 66.8993 127.202 66.5581 127.202 66.1389ZM127.963 57.6414C127.914 57.6414 127.874 57.6818 127.874 57.7305V66.1403C127.874 66.1891 127.914 66.2295 127.963 66.2295H132.085C132.134 66.2295 132.174 66.1891 132.174 66.1403V57.7305C132.174 57.6818 132.134 57.6414 132.085 57.6414H127.963Z" fill="#FF4A4A"/>
<path d="M269.92 91.6289C270.025 91.6289 270.125 91.5802 270.191 91.4938L274.712 85.4068C275.04 85.0949 279.248 81.1162 281.152 80.782C282.404 80.5662 285.038 86.0906 286.508 90.0859C286.572 90.26 286.764 90.3477 286.938 90.285C287.112 90.221 287.201 90.0274 287.137 89.8547C286.515 88.16 283.288 79.7292 281.035 80.1219C278.864 80.5021 274.414 84.7606 274.226 84.9417C274.212 84.9542 274.201 84.9681 274.19 84.9835L269.812 90.8783L267.073 89.6709C266.903 89.5971 266.705 89.6737 266.63 89.8436C266.555 90.0135 266.633 90.2112 266.801 90.2864L269.785 91.601C269.829 91.6205 269.875 91.6289 269.92 91.6289Z" fill="#FF4A4A"/>
<path d="M140.271 45.3029C140.279 45.3029 140.289 45.3029 140.297 45.3029C140.482 45.289 140.62 45.1275 140.606 44.9423C140.286 40.8355 137.368 4.7786 133.441 3.34981C130.352 2.22599 115.133 -1.47551 110.867 0.642614C110.281 0.933665 109.908 1.32916 109.756 1.82074C108.73 5.14068 101.862 5.10725 97.3161 5.0794C96.9498 5.07801 96.6003 5.07522 96.2689 5.07522C95.8483 5.07522 95.4667 5.25905 95.1339 5.62112C91.8168 9.23628 93.7678 32.3741 93.8527 33.3573C93.868 33.5425 94.0338 33.6804 94.2162 33.6637C94.4014 33.647 94.5379 33.4854 94.5226 33.3002C94.5017 33.0621 92.5103 9.47441 95.6297 6.0751C95.833 5.85368 96.0419 5.74645 96.2703 5.74645C96.6003 5.74645 96.9484 5.74924 97.3133 5.75063C102.056 5.77709 109.226 5.81469 110.398 2.01988C110.494 1.70794 110.746 1.45449 111.167 1.2456C115.072 -0.694272 129.807 2.74264 133.213 3.98204C135.88 4.95268 138.695 29.0417 139.938 44.9952C139.952 45.1706 140.099 45.3043 140.272 45.3043L140.271 45.3029Z" fill="#FF4A4A"/>
<path d="M66.0427 117.699C66.0748 117.699 66.1068 117.695 66.1388 117.685C66.3171 117.633 66.4173 117.445 66.363 117.268C59.9362 95.865 43.4396 39.6949 44.2724 36.8429C44.7222 35.3055 50.5669 34.9406 55.7222 34.6203C61.9764 34.2304 67.8823 33.8628 69.0326 31.7446C69.9322 30.0958 76.8381 30.1431 86.2144 31.863C86.394 31.895 86.5723 31.7767 86.6057 31.5928C86.6391 31.4104 86.5193 31.2349 86.3355 31.2015C82.5463 30.5052 70.0548 28.4679 68.4435 31.4229C67.4715 33.2138 61.2076 33.6051 55.6819 33.9491C49.5266 34.3321 44.2111 34.6635 43.629 36.6535C42.5706 40.2812 64.7755 114.311 65.721 117.46C65.7642 117.605 65.8979 117.699 66.0427 117.699Z" fill="#FF4A4A"/>
<path d="M125.3 113.667C125.325 113.667 125.35 113.664 125.375 113.658C125.556 113.618 125.669 113.438 125.629 113.257C125.594 113.104 122.108 97.7272 118.344 82.5647C110.664 51.6325 109.355 51.6924 108.728 51.7244C108.72 51.7244 108.713 51.7244 108.705 51.7244C107.163 51.7244 103.258 44.3883 100.92 39.9947C99.4272 37.1886 98.2477 34.973 97.6503 34.3644C97.0181 33.7252 94.0212 32.9036 92.2916 32.4719C92.1106 32.4273 91.9295 32.536 91.885 32.7156C91.8404 32.8953 91.949 33.0777 92.1287 33.1222C95.4124 33.9439 96.8983 34.558 97.1712 34.8351C97.7004 35.3741 98.9176 37.6607 100.327 40.3094C103.97 47.1526 106.904 52.3943 108.716 52.3943H108.724C110.787 53.6058 119.563 89.5012 124.974 113.404C125.009 113.56 125.148 113.665 125.302 113.665L125.3 113.667Z" fill="#FF4A4A"/>
<path d="M9.52449 106.595C9.52449 106.595 9.53703 106.595 9.54399 106.595C9.7292 106.585 9.87125 106.426 9.86011 106.241C9.81972 105.532 5.89541 35.3766 6.58195 29.5207C7.0624 25.4265 8.83655 25.2413 12.7261 24.8333C14.1952 24.6787 15.8608 24.5046 17.8396 24.0869C21.8392 23.2402 22.8516 21.2167 23.8306 19.2588C24.6814 17.557 25.485 15.95 28.3342 15.159C31.5288 14.2733 41.3479 17.8105 42.4133 18.2004L46.3515 23.5591L48.634 28.6894C48.6938 28.8245 48.8331 28.9038 48.9821 28.8857C49.1283 28.8676 49.2467 28.7548 49.2718 28.6086L50.9457 18.77C52.3048 18.795 58.1119 18.944 59.8833 19.6821C63.0779 21.0134 60.4793 30.5401 59.2093 34.0996C59.1466 34.2737 59.2385 34.4658 59.4126 34.5285C59.5881 34.5912 59.7788 34.4993 59.8415 34.3252C60.0365 33.7779 64.5749 20.909 60.1423 19.0624C58.0214 18.1781 50.9665 18.0959 50.6671 18.0932C50.6671 18.0932 50.6657 18.0932 50.6643 18.0932C50.5014 18.0932 50.3608 18.2115 50.3329 18.3731L48.7955 27.4012L46.9503 23.2513C46.9406 23.229 46.928 23.2081 46.9141 23.1886L42.8937 17.7199C42.8547 17.667 42.8018 17.6266 42.7405 17.6044C42.2921 17.4373 31.7265 13.5171 28.1532 14.51C25.0184 15.3804 24.1091 17.1977 23.2304 18.9552C22.2806 20.8533 21.3838 22.6469 17.7004 23.4268C15.7563 23.8376 14.1103 24.0103 12.6564 24.1621C8.79199 24.5673 6.45801 24.811 5.9149 29.4386C5.22139 35.3529 9.02734 103.381 9.18888 106.275C9.19863 106.453 9.34624 106.592 9.5231 106.592L9.52449 106.595Z" fill="#FF4A4A"/>
<path d="M15.4388 62.8513V52.2106C15.4388 51.7914 15.78 51.4502 16.1992 51.4502H20.707C21.1261 51.4502 21.4673 51.7914 21.4673 52.2106V62.8513C21.4673 63.2705 21.1261 63.6117 20.707 63.6117H16.1992C15.78 63.6117 15.4388 63.2705 15.4388 62.8513ZM16.1992 52.1214C16.1504 52.1214 16.11 52.1618 16.11 52.2106V62.8513C16.11 62.9001 16.1504 62.9404 16.1992 62.9404H20.707C20.7557 62.9404 20.7961 62.9001 20.7961 62.8513V52.2106C20.7961 52.1618 20.7557 52.1214 20.707 52.1214H16.1992Z" fill="#FF4A4A"/>
<path d="M30.0582 62.8513V52.2106C30.0582 51.7914 30.3994 51.4502 30.8186 51.4502H35.3264C35.7455 51.4502 36.0867 51.7914 36.0867 52.2106V62.8513C36.0867 63.2705 35.7455 63.6117 35.3264 63.6117H30.8186C30.3994 63.6117 30.0582 63.2705 30.0582 62.8513ZM30.8186 52.1214C30.7698 52.1214 30.7294 52.1618 30.7294 52.2106V62.8513C30.7294 62.9001 30.7698 62.9404 30.8186 62.9404H35.3264C35.3751 62.9404 35.4155 62.9001 35.4155 62.8513V52.2106C35.4155 52.1618 35.3751 52.1214 35.3264 52.1214H30.8186Z" fill="#FF4A4A"/>
<path d="M15.4388 85.4163V74.7755C15.4388 74.3563 15.78 74.0151 16.1992 74.0151H20.707C21.1261 74.0151 21.4673 74.3563 21.4673 74.7755V85.4163C21.4673 85.8354 21.1261 86.1766 20.707 86.1766H16.1992C15.78 86.1766 15.4388 85.8354 15.4388 85.4163ZM16.1992 74.6864C16.1504 74.6864 16.11 74.7268 16.11 74.7755V85.4163C16.11 85.465 16.1504 85.5054 16.1992 85.5054H20.707C20.7557 85.5054 20.7961 85.465 20.7961 85.4163V74.7755C20.7961 74.7268 20.7557 74.6864 20.707 74.6864H16.1992Z" fill="#FF4A4A"/>
<path d="M30.0582 85.4163V74.7755C30.0582 74.3563 30.3994 74.0151 30.8186 74.0151H35.3264C35.7455 74.0151 36.0867 74.3563 36.0867 74.7755V85.4163C36.0867 85.8354 35.7455 86.1766 35.3264 86.1766H30.8186C30.3994 86.1766 30.0582 85.8354 30.0582 85.4163ZM30.8186 74.6864C30.7698 74.6864 30.7294 74.7268 30.7294 74.7755V85.4163C30.7294 85.465 30.7698 85.5054 30.8186 85.5054H35.3264C35.3751 85.5054 35.4155 85.465 35.4155 85.4163V74.7755C35.4155 74.7268 35.3751 74.6864 35.3264 74.6864H30.8186Z" fill="#FF4A4A"/>
<path d="M15.4388 40.6741V30.0333C15.4388 29.6141 15.78 29.2729 16.1992 29.2729H20.707C21.1261 29.2729 21.4673 29.6141 21.4673 30.0333V40.6741C21.4673 41.0932 21.1261 41.4344 20.707 41.4344H16.1992C15.78 41.4344 15.4388 41.0932 15.4388 40.6741ZM16.1992 29.9456C16.1504 29.9456 16.11 29.986 16.11 30.0347V40.6755C16.11 40.7242 16.1504 40.7646 16.1992 40.7646H20.707C20.7557 40.7646 20.7961 40.7242 20.7961 40.6755V30.0347C20.7961 29.986 20.7557 29.9456 20.707 29.9456H16.1992Z" fill="#FF4A4A"/>
<path d="M30.0582 40.6741V30.0333C30.0582 29.6141 30.3994 29.2729 30.8186 29.2729H35.3264C35.7455 29.2729 36.0867 29.6141 36.0867 30.0333V40.6741C36.0867 41.0932 35.7455 41.4344 35.3264 41.4344H30.8186C30.3994 41.4344 30.0582 41.0932 30.0582 40.6741ZM30.8186 29.9456C30.7698 29.9456 30.7294 29.986 30.7294 30.0347V40.6755C30.7294 40.7242 30.7698 40.7646 30.8186 40.7646H35.3264C35.3751 40.7646 35.4155 40.7242 35.4155 40.6755V30.0347C35.4155 29.986 35.3751 29.9456 35.3264 29.9456H30.8186Z" fill="#FF4A4A"/>
<path d="M95.8943 62.9764L92.7498 51.9248C92.7247 51.8399 92.7359 51.748 92.779 51.67C92.8222 51.592 92.8946 51.5349 92.981 51.5098L98.1335 50.0434C98.3118 49.9919 98.497 50.0964 98.5485 50.2746L101.693 61.3262C101.718 61.4125 101.707 61.5031 101.664 61.581C101.621 61.659 101.548 61.7161 101.462 61.7412L96.3093 63.2076C96.2786 63.2159 96.248 63.2201 96.2173 63.2201C96.0711 63.2201 95.936 63.124 95.8943 62.9764ZM97.9957 50.7815L93.4879 52.0641L96.4485 62.4695L100.956 61.1869L97.9957 50.7815Z" fill="#FF4A4A"/>
<path d="M89.2767 42.4036C89.3073 42.4036 89.3379 42.3994 89.3686 42.391L94.5225 40.9246C94.6089 40.8996 94.6813 40.8425 94.7245 40.7645C94.7676 40.6865 94.7788 40.5946 94.7537 40.5096L92.5325 32.707C92.4824 32.5287 92.2986 32.4257 92.1175 32.4758C91.9393 32.5273 91.8362 32.7125 91.8864 32.8908L94.0156 40.3704L89.5078 41.653L86.5987 31.4411C86.5486 31.2629 86.3634 31.1584 86.1837 31.2099C86.0055 31.2615 85.9024 31.4467 85.9526 31.6249L88.9536 42.1599C88.9954 42.3075 89.1304 42.4036 89.2767 42.4036Z" fill="#FF4A4A"/>
<path d="M82.3597 66.827L79.2152 55.7754C79.1901 55.6891 79.2013 55.5986 79.2445 55.5206C79.2876 55.4426 79.36 55.3855 79.4464 55.3604L84.6004 53.894C84.7786 53.8425 84.9638 53.9469 85.0153 54.1252L88.1598 65.1768C88.1849 65.2631 88.1737 65.355 88.1306 65.4316C88.0874 65.5096 88.015 65.5667 87.9286 65.5904L82.7761 67.0568C82.7454 67.0651 82.7148 67.0693 82.6841 67.0693C82.5379 67.0693 82.4028 66.9732 82.3611 66.8256L82.3597 66.827ZM84.4597 54.6335L79.9519 55.9161L82.9125 66.3215L87.4203 65.0389L84.4597 54.6335Z" fill="#FF4A4A"/>
<path d="M67.5467 71.0423L64.4022 59.9907C64.3772 59.9044 64.3883 59.8125 64.4315 59.7359C64.4746 59.6579 64.5471 59.6008 64.6334 59.5757L69.786 58.1094C69.9656 58.0592 70.1494 58.1623 70.201 58.3405L73.3454 69.3921C73.3705 69.4784 73.3594 69.569 73.3162 69.647C73.273 69.7249 73.2006 69.782 73.1143 69.8071L67.9617 71.2735C67.9311 71.2818 67.9004 71.286 67.8698 71.286C67.7236 71.286 67.5885 71.1899 67.5467 71.0423ZM69.6467 58.8474L65.1389 60.13L68.0996 70.5354L72.6074 69.2528L69.6467 58.8474Z" fill="#FF4A4A"/>
<path d="M103.286 85.9863C103.208 85.9431 103.151 85.8707 103.127 85.7843L99.9829 74.7327C99.9314 74.5545 100.036 74.3693 100.214 74.3177L105.367 72.8514C105.452 72.8277 105.543 72.8388 105.621 72.8806C105.699 72.9238 105.757 72.9962 105.78 73.0825L108.925 84.1341C108.976 84.3124 108.872 84.4976 108.694 84.5491L103.541 86.0155C103.51 86.0239 103.48 86.028 103.449 86.028C103.392 86.028 103.336 86.0141 103.286 85.9863ZM105.227 73.5908L100.721 74.8734L103.682 85.2788L108.188 83.9962L105.227 73.5908Z" fill="#FF4A4A"/>
<path d="M88.9536 89.636L85.8091 78.5858C85.7841 78.4994 85.7952 78.4075 85.8384 78.3309C85.8815 78.2529 85.954 78.1959 86.0403 78.1722L91.1929 76.7058C91.3711 76.6557 91.5563 76.7587 91.6079 76.937L94.7523 87.9885C94.7774 88.0735 94.7663 88.1654 94.7231 88.2434C94.6799 88.3214 94.6075 88.3785 94.5212 88.4021L89.3672 89.8685C89.3366 89.8769 89.3059 89.8811 89.2753 89.8811C89.1291 89.8811 88.994 89.785 88.9522 89.6374L88.9536 89.636ZM91.0536 77.4411L86.5458 78.7236L89.5064 89.1291L94.0143 87.8465L91.0536 77.4411Z" fill="#FF4A4A"/>
<path d="M74.7784 93.8515L71.634 82.7999C71.6089 82.7149 71.62 82.623 71.6632 82.545C71.7064 82.4671 71.7788 82.41 71.8651 82.3863L77.0177 80.9199C77.1973 80.8698 77.3812 80.9728 77.4327 81.1511L80.5772 92.2026C80.6022 92.2876 80.5911 92.3795 80.5479 92.4575C80.5047 92.5355 80.4323 92.5926 80.346 92.6163L75.1934 94.0826C75.1628 94.091 75.1321 94.0952 75.1015 94.0952C74.9553 94.0952 74.8202 93.9991 74.7784 93.8515ZM76.8798 81.6566L72.372 82.9392L75.3327 93.3446L79.8405 92.062L76.8798 81.6566Z" fill="#FF4A4A"/>
<path d="M76.1501 46.6913L73.0057 35.6397C72.9541 35.4614 73.0586 35.2762 73.2368 35.2247L78.3894 33.7583C78.569 33.7081 78.7529 33.8112 78.8044 33.9894L81.9489 45.041C81.9739 45.1274 81.9628 45.2179 81.9196 45.2959C81.8764 45.3739 81.804 45.431 81.7177 45.456L76.5651 46.9224C76.5345 46.9308 76.5038 46.935 76.4732 46.935C76.327 46.935 76.1919 46.8389 76.1501 46.6913ZM78.2501 34.4963L73.7437 35.7789L76.7044 46.1843L81.2122 44.9018L78.2515 34.4963H78.2501Z" fill="#FF4A4A"/>
<path d="M62.1365 51.1071C62.0585 51.0639 62.0014 50.9915 61.9777 50.9052L58.8333 39.8536C58.7818 39.6753 58.8862 39.4901 59.0644 39.4386L64.217 37.9722C64.302 37.9485 64.3939 37.9597 64.4719 38.0015C64.5499 38.0446 64.607 38.117 64.6306 38.2034L67.7751 49.255C67.8266 49.4332 67.7222 49.6184 67.5439 49.6699L62.3913 51.1363C62.3621 51.1447 62.3301 51.1489 62.2994 51.1489C62.2423 51.1489 62.1866 51.135 62.1365 51.1057V51.1071ZM64.0764 38.7117L59.5686 39.9942L62.5292 50.3997L67.037 49.1171L64.0764 38.7117Z" fill="#FF4A4A"/>
<path d="M124.963 23.4007V14.9908C124.963 14.5717 125.304 14.2305 125.723 14.2305H129.846C130.265 14.2305 130.606 14.5717 130.606 14.9908V23.4007C130.606 23.8198 130.265 24.161 129.846 24.161H125.723C125.304 24.161 124.963 23.8198 124.963 23.4007ZM125.723 14.9017C125.675 14.9017 125.634 14.9421 125.634 14.9908V23.4007C125.634 23.4494 125.675 23.4898 125.723 23.4898H129.846C129.894 23.4898 129.935 23.4494 129.935 23.4007V14.9908C129.935 14.9421 129.894 14.9017 129.846 14.9017H125.723Z" fill="#FF4A4A"/>
<path d="M111.072 23.4007V14.9908C111.072 14.5717 111.413 14.2305 111.832 14.2305H115.954C116.374 14.2305 116.715 14.5717 116.715 14.9908V23.4007C116.715 23.8198 116.374 24.161 115.954 24.161H111.832C111.413 24.161 111.072 23.8198 111.072 23.4007ZM111.832 14.9017C111.784 14.9017 111.743 14.9421 111.743 14.9908V23.4007C111.743 23.4494 111.784 23.4898 111.832 23.4898H115.954C116.003 23.4898 116.044 23.4494 116.044 23.4007V14.9908C116.044 14.9421 116.003 14.9017 115.954 14.9017H111.832Z" fill="#FF4A4A"/>
<path d="M111.072 46.6521V38.2423C111.072 37.8231 111.413 37.4819 111.832 37.4819H115.954C116.374 37.4819 116.715 37.8231 116.715 38.2423V46.6521C116.715 47.0713 116.374 47.4125 115.954 47.4125H111.832C111.413 47.4125 111.072 47.0713 111.072 46.6521ZM111.832 38.1546C111.784 38.1546 111.743 38.1949 111.743 38.2437V46.6535C111.743 46.7023 111.784 46.7427 111.832 46.7427H115.954C116.003 46.7427 116.044 46.7023 116.044 46.6535V38.2437C116.044 38.1949 116.003 38.1546 115.954 38.1546H111.832Z" fill="#FF4A4A"/>
<path d="M113.857 66.902H116.78C117.25 66.902 117.633 66.519 117.633 66.0497V57.8237C117.633 57.3544 117.251 56.9714 116.78 56.9714H112.841C112.371 56.9714 111.988 57.3544 111.988 57.8237V61.1395C111.988 61.3247 112.139 61.4751 112.324 61.4751C112.509 61.4751 112.66 61.3247 112.66 61.1395V57.8237C112.66 57.722 112.739 57.6427 112.841 57.6427H116.78C116.882 57.6427 116.961 57.722 116.961 57.8237V66.0497C116.961 66.1472 116.878 66.2308 116.78 66.2308H113.857C113.672 66.2308 113.522 66.3812 113.522 66.5664C113.522 66.7516 113.672 66.902 113.857 66.902Z" fill="#FF4A4A"/>
<path d="M126.137 46.6521V38.2423C126.137 37.8231 126.478 37.4819 126.897 37.4819H131.02C131.439 37.4819 131.78 37.8231 131.78 38.2423V46.6521C131.78 47.0713 131.439 47.4125 131.02 47.4125H126.897C126.478 47.4125 126.137 47.0713 126.137 46.6521ZM126.897 38.1546C126.849 38.1546 126.808 38.1949 126.808 38.2437V46.6535C126.808 46.7023 126.849 46.7427 126.897 46.7427H131.02C131.068 46.7427 131.109 46.7023 131.109 46.6535V38.2437C131.109 38.1949 131.068 38.1546 131.02 38.1546H126.897Z" fill="#FF4A4A"/>
<path d="M266.972 68.4326L263.026 67.2447C262.625 67.1236 262.396 66.6988 262.517 66.2978L264.942 58.2444C265 58.0495 265.131 57.8893 265.31 57.7946C265.489 57.6985 265.694 57.6777 265.889 57.7361L269.836 58.924C270.237 59.0452 270.465 59.4699 270.344 59.871L267.919 67.9243C267.861 68.1193 267.73 68.278 267.552 68.3741C267.439 68.434 267.316 68.4647 267.192 68.4647C267.119 68.4647 267.045 68.4535 266.972 68.4326ZM265.584 58.438L263.159 66.49C263.146 66.5373 263.172 66.5874 263.219 66.6014L267.166 67.7892C267.212 67.8046 267.262 67.7767 267.277 67.7294L269.702 59.676C269.716 59.6287 269.689 59.5799 269.642 59.566L265.695 58.3781C265.695 58.3781 265.683 58.3753 265.677 58.3753C265.64 58.3753 265.595 58.4032 265.585 58.438H265.584Z" fill="#FF4A4A"/>
<path d="M259.752 87.6824L255.805 86.4945C255.404 86.3733 255.176 85.9486 255.297 85.5475L257.721 77.4942C257.78 77.2992 257.911 77.1405 258.089 77.0444C258.269 76.9483 258.473 76.9274 258.668 76.9859L262.616 78.1738C263.017 78.2949 263.246 78.7197 263.125 79.1207L260.7 87.1727C260.642 87.3676 260.511 87.5278 260.331 87.6239C260.218 87.6838 260.096 87.7144 259.973 87.7144C259.899 87.7144 259.826 87.7033 259.753 87.6824H259.752ZM258.363 77.6878L255.939 85.7397C255.925 85.7871 255.951 85.8372 255.999 85.8511L259.945 87.039C259.986 87.0501 260.044 87.0195 260.055 86.9791L262.48 78.9258C262.494 78.8784 262.467 78.8283 262.42 78.8144L258.473 77.6265C258.465 77.6237 258.457 77.6223 258.448 77.6223C258.411 77.6223 258.375 77.6474 258.363 77.6864V77.6878Z" fill="#FF4A4A"/>
<path d="M252.425 62.3608L248.479 61.173C248.284 61.1145 248.124 60.9836 248.029 60.8053C247.933 60.6257 247.912 60.421 247.971 60.226L250.395 52.1727C250.454 51.9777 250.584 51.8189 250.763 51.7229C250.941 51.6268 251.147 51.6059 251.342 51.6644L255.289 52.8522C255.484 52.9107 255.644 53.0416 255.74 53.2199C255.836 53.3981 255.857 53.6042 255.798 53.7992L253.374 61.8526C253.275 62.1812 252.973 62.3943 252.645 62.3943C252.573 62.3943 252.499 62.3831 252.427 62.3622L252.425 62.3608ZM251.037 52.3662L248.613 60.4196C248.599 60.4669 248.625 60.5157 248.672 60.531L252.619 61.7189C252.666 61.7328 252.716 61.7063 252.73 61.659L255.155 53.607C255.167 53.5666 255.135 53.5082 255.095 53.4956L251.148 52.3077C251.148 52.3077 251.136 52.305 251.13 52.305C251.093 52.305 251.048 52.3328 251.038 52.3676L251.037 52.3662Z" fill="#FF4A4A"/>
<path d="M246.298 82.7187L242.351 81.5308C242.158 81.4723 241.998 81.3414 241.902 81.1618C241.806 80.9835 241.785 80.7774 241.843 80.5838L244.268 72.5305C244.326 72.3355 244.457 72.1768 244.637 72.0793C244.816 71.9832 245.021 71.9623 245.216 72.0208L249.163 73.2087C249.358 73.2672 249.518 73.3981 249.614 73.5763C249.71 73.756 249.731 73.9607 249.672 74.1557L247.248 82.2076C247.189 82.4026 247.058 82.5627 246.88 82.6588C246.767 82.7187 246.645 82.7507 246.521 82.7507C246.447 82.7507 246.373 82.7396 246.301 82.7173L246.298 82.7187ZM244.91 72.7241L242.485 80.776C242.473 80.8164 242.505 80.8749 242.545 80.8874L246.492 82.0753C246.531 82.0865 246.59 82.0558 246.602 82.0154L249.026 73.9635C249.04 73.9161 249.014 73.866 248.966 73.8521L245.02 72.6642C245.02 72.6642 245.007 72.6614 245.002 72.6614C244.964 72.6614 244.919 72.6893 244.91 72.7241Z" fill="#FF4A4A"/>
<path d="M237.812 56.7143L233.865 55.5264C233.67 55.4679 233.511 55.337 233.415 55.1588C233.319 54.9791 233.298 54.7744 233.357 54.5795L235.781 46.5261C235.902 46.1251 236.324 45.8967 236.728 46.0178L240.675 47.2057C240.87 47.2642 241.028 47.3951 241.125 47.5734C241.221 47.753 241.242 47.9577 241.183 48.1527L238.759 56.2046C238.7 56.3996 238.569 56.5597 238.391 56.6558C238.278 56.7157 238.156 56.7463 238.032 56.7463C237.958 56.7463 237.884 56.7352 237.812 56.7143ZM236.423 46.7197L233.999 54.773C233.985 54.8204 234.011 54.8691 234.059 54.8844L238.005 56.0723C238.046 56.0849 238.104 56.0528 238.117 56.0124L240.541 47.9591C240.555 47.9118 240.529 47.863 240.481 47.8491L236.535 46.6612C236.535 46.6612 236.522 46.6584 236.516 46.6584C236.479 46.6584 236.434 46.6863 236.425 46.7211L236.423 46.7197Z" fill="#FF4A4A"/>
<path d="M232.037 75.9026L228.09 74.7147C227.895 74.6562 227.736 74.5253 227.639 74.3471C227.543 74.1674 227.522 73.9627 227.58 73.7678L230.005 65.7158C230.063 65.5208 230.194 65.3607 230.374 65.2646C230.553 65.1685 230.758 65.1476 230.953 65.2061L234.9 66.394C235.095 66.4525 235.253 66.5834 235.351 66.7616C235.447 66.9413 235.468 67.146 235.409 67.341L232.985 75.3929C232.926 75.5879 232.795 75.748 232.617 75.8441C232.504 75.904 232.382 75.9346 232.258 75.9346C232.184 75.9346 232.11 75.9235 232.038 75.9026H232.037ZM230.647 65.908L228.222 73.9613C228.208 74.0087 228.235 74.0588 228.282 74.0727L232.229 75.2606C232.269 75.2731 232.328 75.2411 232.34 75.2007L234.765 67.1474C234.779 67.1 234.752 67.0499 234.705 67.036L230.758 65.8481C230.758 65.8481 230.746 65.8453 230.74 65.8453C230.702 65.8453 230.658 65.8732 230.648 65.908H230.647Z" fill="#FF4A4A"/>
<path d="M223.592 50.7231L219.645 49.5352C219.244 49.414 219.016 48.9893 219.137 48.5882L221.561 40.5349C221.62 40.3399 221.751 40.1798 221.929 40.0837C222.107 39.9876 222.312 39.9667 222.508 40.0252L226.455 41.2131C226.856 41.3342 227.084 41.759 226.963 42.16L224.539 50.2134C224.48 50.4083 224.349 50.5671 224.171 50.6632C224.058 50.7231 223.936 50.7537 223.812 50.7537C223.738 50.7537 223.664 50.7426 223.592 50.7217V50.7231ZM222.202 40.7285L219.778 48.7804C219.764 48.8278 219.79 48.8779 219.837 48.8918L223.784 50.0797C223.822 50.0936 223.883 50.0602 223.895 50.0198L226.32 41.9679C226.334 41.9205 226.307 41.8704 226.26 41.8565L222.313 40.6686C222.313 40.6686 222.301 40.6658 222.295 40.6658C222.258 40.6658 222.213 40.6937 222.203 40.7285H222.202Z" fill="#FF4A4A"/>
<path d="M267.308 114.871C267.435 114.871 267.556 114.799 267.613 114.678C267.691 114.509 267.619 114.31 267.45 114.232C265.874 113.499 228.74 96.3218 219.705 98.1823C215.133 99.1237 211.052 101.048 206.732 103.084C202.54 105.06 198.206 107.102 193.228 108.286C193.047 108.329 192.935 108.51 192.979 108.689C193.022 108.87 193.203 108.982 193.382 108.939C198.429 107.74 202.795 105.681 207.017 103.691C211.301 101.674 215.346 99.7657 219.84 98.841C228.654 97.0181 266.783 114.664 267.167 114.842C267.213 114.863 267.261 114.873 267.308 114.873V114.871Z" fill="#FF4A4A"/>
<path d="M69.3139 119.475C69.4309 119.475 69.5451 119.414 69.6063 119.305C69.6982 119.144 69.6411 118.939 69.4796 118.847C68.2987 118.176 40.4553 102.46 32.019 106.758C27.3649 109.127 19.8296 107.812 13.1814 106.652C7.98149 105.745 3.49179 104.963 1.13414 106.042C0.965632 106.12 0.891825 106.319 0.968417 106.488C1.0464 106.656 1.24415 106.731 1.41405 106.653C3.58231 105.659 8.18899 106.463 13.0658 107.314C19.8171 108.492 27.4694 109.826 32.3239 107.355C40.4413 103.224 68.8627 119.268 69.1496 119.43C69.2025 119.46 69.2596 119.474 69.3153 119.474L69.3139 119.475Z" fill="#FF4A4A"/>
<path d="M207.76 118.836C207.775 118.836 207.789 118.836 207.804 118.833C207.988 118.808 208.117 118.64 208.092 118.456C208.071 118.3 207.563 114.623 205.594 113.501C204.863 113.085 204.034 113.068 203.135 113.452C201.766 114.037 200.628 113.171 198.741 111.737C196.113 109.738 192.143 106.719 184.402 105.523C176.322 104.274 172.204 97.4876 169.197 92.5327C167.263 89.3465 165.857 87.0278 164.034 87.0278C164 87.0278 163.967 87.0278 163.935 87.0306C159.42 87.2381 156.083 91.9297 155.943 92.1289C155.837 92.2807 155.873 92.4896 156.025 92.5954C156.178 92.7026 156.386 92.665 156.493 92.5132C156.525 92.4673 159.783 87.8926 163.965 87.6991C165.428 87.6406 166.845 89.9481 168.625 92.8809C171.7 97.9485 175.912 104.889 184.301 106.186C191.874 107.355 195.764 110.313 198.337 112.27C200.274 113.742 201.674 114.806 203.401 114.068C204.108 113.767 204.717 113.771 205.263 114.082C206.943 115.038 207.424 118.506 207.428 118.541C207.45 118.709 207.595 118.832 207.761 118.832L207.76 118.836Z" fill="#FF4A4A"/>
<path d="M258.415 105.517C258.564 105.517 258.699 105.418 258.739 105.267L259.535 102.252C259.578 102.089 259.493 101.919 259.335 101.855L256.575 100.735L254.57 98.2368L253.577 91.0036C253.556 90.8533 253.439 90.7363 253.289 90.7168C250.034 90.2851 246.443 89.6918 245.992 89.4342C245.696 89.0679 244.425 87.0153 243.624 85.6965C243.528 85.5377 243.322 85.4876 243.163 85.5837C243.005 85.6798 242.954 85.8859 243.05 86.0446C243.261 86.3928 245.121 89.4537 245.5 89.8924C245.866 90.3171 249.693 90.9117 252.946 91.3476L253.917 98.4192C253.925 98.4791 253.949 98.5362 253.988 98.5835L256.106 101.222C256.142 101.267 256.188 101.302 256.241 101.323L258.809 102.364L258.089 105.094C258.042 105.274 258.149 105.457 258.329 105.505C258.358 105.512 258.386 105.516 258.415 105.516V105.517Z" fill="#FF4A4A"/>
<path d="M251.275 98.7116H254.251C254.329 98.7116 254.404 98.6852 254.466 98.635L256.475 96.9723C256.528 96.9291 256.566 96.8706 256.584 96.8052L257.575 93.3L260.823 93.9713C261.002 94.0089 261.182 93.8919 261.22 93.7108C261.257 93.5298 261.14 93.3516 260.959 93.314L257.405 92.5801C257.233 92.5466 257.063 92.6483 257.014 92.8182L255.965 96.5239L254.129 98.0432H251.399L246.681 93.949C246.61 93.8877 246.518 93.8585 246.425 93.8682L241.825 94.364C241.641 94.3835 241.508 94.5492 241.527 94.7344C241.547 94.9182 241.714 95.0519 241.896 95.0324L246.351 94.552L251.052 98.6337C251.114 98.6866 251.192 98.7158 251.272 98.7158L251.275 98.7116Z" fill="#FF4A4A"/>
<path d="M104.454 110.551C104.56 110.551 104.663 110.503 104.729 110.409L107.256 106.823C107.322 106.731 107.336 106.613 107.295 106.509C107.255 106.404 107.164 106.326 107.054 106.303L100.703 104.918L100.352 100.973C100.344 100.876 100.293 100.788 100.214 100.731L96.8718 98.3189C96.8551 98.3063 96.837 98.2966 96.8189 98.2882L90.5314 95.3025C90.3629 95.2231 90.1637 95.2942 90.0843 95.4613C90.005 95.6284 90.076 95.8289 90.2431 95.9083L96.5028 98.8801L99.696 101.185L100.055 105.223C100.068 105.37 100.175 105.489 100.318 105.521L106.417 106.85L104.18 110.022C104.073 110.174 104.109 110.383 104.261 110.49C104.319 110.532 104.388 110.551 104.453 110.551H104.454Z" fill="#FF4A4A"/>
<path d="M43.7195 87.2786C43.6332 87.2159 43.5816 87.1142 43.5816 87.007V84.9195C43.5816 84.8206 43.6248 84.7273 43.7 84.6633L45.5647 83.0855C45.69 82.9796 45.8738 82.9796 45.9992 83.0855L47.8638 84.6633C47.9404 84.7287 47.9836 84.8248 47.9822 84.9251C47.9822 85.0254 47.9349 85.1201 47.8555 85.1827L45.9908 86.67C45.9588 86.6951 45.9226 86.7146 45.8836 86.7271L44.0189 87.3273C43.9855 87.3384 43.9507 87.344 43.9159 87.344C43.8462 87.344 43.7766 87.3217 43.7181 87.28L43.7195 87.2786ZM47.1174 84.9126L45.7819 83.7832L44.2529 85.0769V86.5475L45.6204 86.1074L47.1174 84.914V84.9126Z" fill="#FF4A4A"/>
<path d="M45.7819 83.6786C45.9337 83.6786 46.0702 83.5755 46.1078 83.4223L47.9739 75.7283C47.992 75.6517 47.9836 75.5709 47.9488 75.4999L46.1914 71.9585C46.9573 71.2107 49.567 68.601 49.8399 67.551C49.8873 67.3713 49.7787 67.1875 49.599 67.1416C49.4222 67.0942 49.2369 67.2014 49.1896 67.3825C48.9974 68.1205 46.8542 70.3905 45.5494 71.648C45.4435 71.7496 45.4157 71.9084 45.4811 72.0393L47.2929 75.6907L45.4547 83.2649C45.4101 83.4446 45.5215 83.627 45.7012 83.6702C45.7276 83.6772 45.7541 83.6799 45.7805 83.6799L45.7819 83.6786Z" fill="#FF4A4A"/>
<path d="M47.6466 85.2551C47.6884 85.2551 47.7316 85.2467 47.7719 85.23L51.3634 83.7775C51.4902 83.726 51.5737 83.6035 51.5737 83.467V78.0178L54.9006 80.3699C55.0524 80.4771 55.2613 80.4409 55.3685 80.2891C55.4757 80.1373 55.4395 79.9284 55.2877 79.8212L51.4317 77.0959C51.33 77.0235 51.1949 77.0137 51.0835 77.0722C50.9721 77.1293 50.9025 77.2449 50.9025 77.3702V83.2414L47.5213 84.6089C47.3486 84.6786 47.2664 84.8735 47.3361 85.0462C47.389 85.1771 47.5143 85.2565 47.6466 85.2565V85.2551Z" fill="#FF4A4A"/>
<path d="M55.0942 101.338C55.1847 101.338 55.2752 101.302 55.342 101.229C55.4674 101.093 55.4576 100.88 55.3211 100.754L49.8497 95.7439V90.2544C49.8497 90.1346 49.7856 90.0246 49.6826 89.9647L44.0843 86.7172C43.9771 86.6545 43.8434 86.6573 43.7376 86.7228L37.2746 90.7668C37.1479 90.8462 37.088 91.0008 37.1298 91.1442L38.1631 94.7385L25.9431 95.5573C25.7579 95.5699 25.6186 95.73 25.6312 95.9138C25.6437 96.0991 25.8052 96.2481 25.9877 96.2258L38.6226 95.3791C38.7243 95.3721 38.8162 95.3206 38.8747 95.237C38.9332 95.1535 38.9499 95.049 38.9234 94.9516L37.8442 91.1999L43.92 87.3982L49.1757 90.4465V95.8902C49.1757 95.9849 49.2146 96.074 49.2843 96.138L54.8644 101.249C54.9284 101.307 55.0106 101.337 55.0914 101.337L55.0942 101.338Z" fill="#FF4A4A"/>
<path d="M63.3829 119.497C63.4525 119.497 63.5221 119.475 63.5834 119.43C63.7324 119.319 63.763 119.109 63.653 118.961C62.3064 117.153 60.6228 115.2 58.9934 113.31C56.4687 110.38 53.8562 107.35 52.3814 104.74C51.6392 103.06 51.5403 101.821 52.1043 101.083C52.9398 99.987 55.0245 100.289 55.0454 100.292C55.2293 100.317 55.3992 100.193 55.4284 100.011C55.4562 99.8282 55.3309 99.657 55.1471 99.6277C55.0454 99.6124 52.6516 99.2615 51.5723 100.672C50.8468 101.621 50.9178 103.09 51.7826 105.041C53.3047 107.738 55.9381 110.793 58.4851 113.749C60.1061 115.63 61.7828 117.574 63.1141 119.362C63.1795 119.451 63.2812 119.497 63.3843 119.497H63.3829Z" fill="#FF4A4A"/>
<path d="M3.36786 121.117C3.40685 121.117 3.44584 121.11 3.48483 121.096C8.2447 119.336 22.4282 119.531 37.4431 119.737C54.0678 119.965 71.2593 120.202 80.5396 118.089C80.7206 118.049 80.8334 117.868 80.7916 117.687C80.7498 117.506 80.5702 117.393 80.3892 117.435C71.1869 119.529 53.2657 119.282 37.4515 119.066C22.3725 118.857 8.12772 118.662 3.25088 120.465C3.0768 120.529 2.98768 120.723 3.05313 120.897C3.10326 121.032 3.23138 121.116 3.36786 121.116V121.117Z" fill="#FF4A4A"/>
<path d="M274.925 105.308C274.944 105.308 274.963 105.308 274.981 105.304C275.164 105.273 275.288 105.101 275.257 104.917L274.452 100.107L279.541 97.2744C279.634 97.2229 279.696 97.131 279.71 97.0251C279.724 96.9193 279.688 96.8148 279.612 96.7396L277.28 94.4767L280.404 87.1656C280.476 86.9957 280.398 86.798 280.227 86.7255C280.057 86.6531 279.859 86.7325 279.787 86.9024L276.573 94.4252C276.519 94.5533 276.548 94.7009 276.648 94.7984L278.821 96.9081L273.92 99.6362C273.796 99.7059 273.729 99.8451 273.752 99.9844L274.595 105.027C274.623 105.191 274.765 105.307 274.925 105.307V105.308Z" fill="#FF4A4A"/>
<path d="M236.592 113.142C236.686 113.142 236.781 113.101 236.848 113.023C236.968 112.883 236.951 112.671 236.81 112.55L229.345 106.198C229.23 106.101 229.063 106.091 228.939 106.176L226.3 107.964L217.902 104.865C217.728 104.801 217.534 104.891 217.471 105.065C217.407 105.239 217.496 105.432 217.671 105.495L226.231 108.653C226.331 108.691 226.445 108.677 226.536 108.616L229.107 106.874L236.377 113.059C236.441 113.114 236.518 113.14 236.594 113.14L236.592 113.142Z" fill="#FF4A4A"/>
<path d="M87.6334 109.27C87.6807 109.27 87.7281 109.26 87.7727 109.24C87.9412 109.163 88.0164 108.964 87.9384 108.795L85.7074 103.9L93.0172 100.49L100.733 98.7896C100.791 98.7771 100.842 98.7506 100.885 98.713L108.1 92.2709C108.238 92.147 108.251 91.9353 108.127 91.7974C108.003 91.6582 107.79 91.6484 107.653 91.771L100.504 98.1546L92.8375 99.8452C92.8138 99.8508 92.7902 99.8577 92.7679 99.8689L85.1226 103.435C84.9555 103.513 84.883 103.711 84.9596 103.878L87.3284 109.075C87.3841 109.198 87.5067 109.272 87.6334 109.272V109.27Z" fill="#FF4A4A"/>
<path d="M95.1715 103.723C95.223 103.723 95.2732 103.712 95.3191 103.689L100.059 101.355L108.684 103.239C108.865 103.275 109.043 103.164 109.083 102.983C109.122 102.801 109.008 102.623 108.827 102.583L100.089 100.675C100.015 100.658 99.9369 100.668 99.8687 100.701L95.1617 103.019L90.5189 101.038C90.3476 100.965 90.1512 101.044 90.0788 101.215C90.0064 101.387 90.0844 101.583 90.2557 101.655L95.0392 103.696C95.081 103.714 95.1269 103.722 95.1715 103.722V103.723Z" fill="#FF4A4A"/>
<path d="M207.24 50.0322C207.396 50.0322 207.535 49.9236 207.569 49.7649C207.619 49.5253 208.762 43.8464 205.923 40.2618C204.569 38.5531 202.54 37.6215 199.889 37.4934C199.695 35.6607 198.273 26.1828 189.549 24.8139C189.223 23.4143 187.332 16.3344 181.983 13.6662C179.042 12.1998 175.587 12.3544 171.712 14.1257C170.852 12.5549 166.556 5.2995 160.439 4.85944C156.833 4.59903 153.32 6.78261 149.988 11.3461C148.932 9.92568 145.075 5.16721 141.105 5.5251C138.934 5.72146 137.122 7.40927 135.718 10.5412C135.643 10.7097 135.718 10.9088 135.887 10.9854C136.057 11.0606 136.254 10.9854 136.331 10.8169C137.627 7.92314 139.253 6.36762 141.163 6.19494C145.328 5.81476 149.668 12.048 149.711 12.112C149.772 12.2026 149.875 12.2569 149.985 12.2569C150.102 12.2569 150.198 12.2053 150.261 12.1148C153.529 7.4984 156.94 5.28001 160.388 5.52928C166.725 5.98326 171.221 14.6298 171.265 14.7176C171.347 14.8791 171.544 14.9446 171.708 14.868C175.504 13.0632 178.861 12.8613 181.682 14.2678C187.215 17.0265 188.925 25.0993 188.94 25.1801C188.969 25.3194 189.082 25.4252 189.223 25.4447C198.51 26.7287 199.238 37.7245 199.244 37.836C199.254 38.01 199.396 38.1479 199.57 38.1521C202.16 38.2189 204.119 39.0684 205.394 40.6782C208.039 44.019 206.92 49.5713 206.909 49.627C206.871 49.808 206.987 49.9863 207.169 50.0239C207.193 50.0295 207.215 50.0308 207.237 50.0308L207.24 50.0322Z" fill="#FF4A4A"/>
<path d="M191.505 49.6953C191.667 49.6953 191.809 49.5783 191.837 49.4126C191.873 49.1842 192.707 43.7962 189.918 40.8091C188.623 39.4207 186.763 38.7899 184.389 38.9375C184.34 37.8193 183.989 34.4227 181.598 31.9941C179.944 30.3132 177.659 29.4609 174.809 29.4609C174.624 29.4609 174.461 29.6072 174.461 29.7966C174.461 29.9818 174.612 30.1322 174.797 30.1322H174.808C177.469 30.1322 179.592 30.9162 181.115 32.4606C183.755 35.1385 183.725 39.2508 183.723 39.2926C183.722 39.3873 183.761 39.4792 183.831 39.5433C183.9 39.6073 183.994 39.6408 184.09 39.631C186.417 39.4179 188.213 39.9666 189.423 41.2631C191.988 44.0079 191.179 49.251 191.171 49.3039C191.142 49.4878 191.266 49.659 191.45 49.6883C191.468 49.6911 191.486 49.6925 191.504 49.6925L191.505 49.6953Z" fill="#FF4A4A"/>
<path d="M179.416 92.0312C183.115 92.0312 185.271 89.771 185.886 89.0162C188.155 90.1693 190.232 90.3852 192.066 89.6582C195.267 88.3882 196.527 84.7271 196.58 84.5725C196.638 84.397 196.545 84.2062 196.368 84.1477C196.191 84.0907 196.002 84.1826 195.943 84.3594C195.932 84.3942 194.725 87.8855 191.814 89.0371C190.107 89.7125 188.134 89.4619 185.95 88.2935C185.798 88.2113 185.609 88.2587 185.513 88.4021C185.343 88.6542 181.263 94.51 172.747 89.0984C172.647 89.0343 172.521 89.0288 172.416 89.0817C172.31 89.1346 172.24 89.2404 172.233 89.3588C172.233 89.3672 172.151 90.3434 171.375 90.7639C170.575 91.1984 169.261 90.9366 167.575 90.0078C167.413 89.9186 167.209 89.9771 167.12 90.1401C167.03 90.303 167.089 90.5063 167.252 90.5954C169.181 91.6566 170.678 91.91 171.704 91.3488C172.372 90.9826 172.67 90.3615 172.803 89.9186C175.386 91.4769 177.59 92.0298 179.419 92.0298L179.416 92.0312Z" fill="#FF4A4A"/>
<path d="M173.797 83.1859C173.91 83.1859 174.021 83.1831 174.134 83.1761C176.954 82.9979 179.023 80.6458 179.632 79.8701C182.233 81.2641 184.463 81.5607 186.261 80.753C188.872 79.5777 189.57 76.5251 189.597 76.3956C189.636 76.2146 189.522 76.0363 189.343 75.9959C189.162 75.9569 188.983 76.0711 188.943 76.2508C188.936 76.2786 188.284 79.1097 185.982 80.1417C184.329 80.8839 182.217 80.5469 179.703 79.1432C179.553 79.0596 179.363 79.1028 179.264 79.2434C179.242 79.2741 177.074 82.3197 174.09 82.5063C172.403 82.6107 170.757 81.7905 169.19 80.0637C169.066 79.9258 168.853 79.9161 168.717 80.0414C168.579 80.1653 168.569 80.3784 168.693 80.5149C170.303 82.289 172.019 83.1859 173.798 83.1859H173.797Z" fill="#FF4A4A"/>
</svg>
