<svg width="159" height="22" viewBox="0 0 159 22" fill="none" xmlns="http://www.w3.org/2000/svg">
<g clip-path="url(#clip0_703_274)">
<path d="M10.0064 21.7006C8.21776 21.7006 6.60639 21.3516 5.17228 20.6537C3.73817 19.9406 2.61021 18.9544 1.78842 17.695C0.982736 16.4205 0.579895 14.9791 0.579895 13.3708C0.579895 11.7625 0.982736 10.3287 1.78842 9.06936C2.61021 7.79486 3.73817 6.80863 5.17228 6.11069C6.60639 5.39757 8.21776 5.04102 10.0064 5.04102C11.65 5.04102 13.1163 5.31412 14.4054 5.86034C15.6945 6.40656 16.758 7.19554 17.5959 8.22728L13.9945 11.2542C12.9471 10.0101 11.7144 9.38799 10.2964 9.38799C9.104 9.38799 8.14524 9.75213 7.42013 10.4804C6.69502 11.1935 6.33246 12.157 6.33246 13.3708C6.33246 14.5846 6.69502 15.5557 7.42013 16.284C8.14524 16.9971 9.104 17.3536 10.2964 17.3536C11.7144 17.3536 12.9471 16.7316 13.9945 15.4874L17.5959 18.5144C16.758 19.5461 15.6945 20.3351 14.4054 20.8813C13.1163 21.4275 11.65 21.7006 10.0064 21.7006ZM34.7401 12.9839C35.6908 13.3025 36.4159 13.7805 36.9154 14.4177C37.4149 15.0398 37.6647 15.806 37.6647 16.7164C37.6647 18.1426 37.0604 19.273 35.8519 20.1075C34.6595 20.9268 32.9676 21.3365 30.7761 21.3365H21.7364V5.40516H30.3169C32.4116 5.40516 34.0311 5.7693 35.1751 6.49759C36.3353 7.22588 36.9154 8.25004 36.9154 9.57006C36.9154 10.3287 36.722 10.9963 36.3353 11.5729C35.9647 12.1494 35.4329 12.6198 34.7401 12.9839ZM27.3439 11.5273H29.7609C30.6955 11.5273 31.1628 11.1404 31.1628 10.3666C31.1628 9.56247 30.6955 9.1604 29.7609 9.1604H27.3439V11.5273ZM30.5102 17.5812C31.4448 17.5812 31.9121 17.1564 31.9121 16.3067C31.9121 15.4874 31.4448 15.0777 30.5102 15.0777H27.3439V17.5812H30.5102ZM50.7208 21.7006C48.8999 21.7006 47.2644 21.3441 45.8142 20.6309C44.3639 19.9178 43.2279 18.9316 42.4061 17.6723C41.5843 16.3978 41.1734 14.9639 41.1734 13.3708C41.1734 11.7777 41.5843 10.3515 42.4061 9.09212C43.2279 7.81762 44.3639 6.82381 45.8142 6.11069C47.2644 5.39757 48.8999 5.04102 50.7208 5.04102C52.5416 5.04102 54.1771 5.39757 55.6274 6.11069C57.0776 6.82381 58.2136 7.81762 59.0354 9.09212C59.8572 10.3515 60.2681 11.7777 60.2681 13.3708C60.2681 14.9639 59.8572 16.3978 59.0354 17.6723C58.2136 18.9316 57.0776 19.9178 55.6274 20.6309C54.1771 21.3441 52.5416 21.7006 50.7208 21.7006ZM50.7208 17.3536C51.4298 17.3536 52.0662 17.1943 52.6302 16.8757C53.2103 16.5419 53.6696 16.0791 54.0079 15.4874C54.3463 14.8805 54.5155 14.175 54.5155 13.3708C54.5155 12.5667 54.3463 11.8687 54.0079 11.277C53.6696 10.6701 53.2103 10.2073 52.6302 9.88869C52.0662 9.55489 51.4298 9.38799 50.7208 9.38799C50.0118 9.38799 49.3672 9.55489 48.7871 9.88869C48.2231 10.2073 47.772 10.6701 47.4336 11.277C47.0952 11.8687 46.926 12.5667 46.926 13.3708C46.926 14.175 47.0952 14.8805 47.4336 15.4874C47.772 16.0791 48.2231 16.5419 48.7871 16.8757C49.3672 17.1943 50.0118 17.3536 50.7208 17.3536Z" fill="#EAEAEA"/>
<path d="M81.3209 21.5642C80.4024 21.5642 79.637 21.2911 79.0247 20.7449C78.4285 20.1835 78.1304 19.4704 78.1304 18.6055C78.1304 17.7407 78.4285 17.0428 79.0247 16.5117C79.637 15.9655 80.4024 15.6924 81.3209 15.6924C82.2394 15.6924 82.9967 15.9655 83.5929 16.5117C84.2052 17.0428 84.5114 17.7407 84.5114 18.6055C84.5114 19.4704 84.2052 20.1835 83.5929 20.7449C82.9967 21.2911 82.2394 21.5642 81.3209 21.5642Z" fill="#FFF336"/>
<path d="M63.9036 22V6.33554H69.1847V22H63.9036ZM69.0281 5.23903C68.4612 5.23903 67.9838 5.06 67.5959 4.70196C67.208 4.34391 67.0141 3.86652 67.0141 3.26978C67.0141 2.67304 67.208 2.19565 67.5959 1.8376C67.9838 1.46464 68.4612 1.27816 69.0281 1.27816C69.595 1.27816 70.0724 1.46464 70.4603 1.8376C70.8481 2.19565 71.0421 2.67304 71.0421 3.26978C71.0421 3.86652 70.8481 4.34391 70.4603 4.70196C70.0724 5.06 69.595 5.23903 69.0281 5.23903ZM64.0602 5.23903C63.4933 5.23903 63.0159 5.06 62.628 4.70196C62.2401 4.34391 62.0462 3.86652 62.0462 3.26978C62.0462 2.67304 62.2401 2.19565 62.628 1.8376C63.0159 1.46464 63.4933 1.27816 64.0602 1.27816C64.6271 1.27816 65.1045 1.46464 65.4924 1.8376C65.8803 2.19565 66.0742 2.67304 66.0742 3.26978C66.0742 3.86652 65.8803 4.34391 65.4924 4.70196C65.1045 5.06 64.6271 5.23903 64.0602 5.23903Z" fill="#EAEAEA"/>
<path d="M101.253 22.358C99.9997 22.358 98.836 22.1641 97.7619 21.7762C96.7027 21.3734 95.7777 20.8065 94.987 20.0755C94.2113 19.3445 93.6071 18.4792 93.1744 17.4797C92.7418 16.4801 92.5255 15.3762 92.5255 14.1678C92.5255 12.9594 92.7418 11.8554 93.1744 10.8559C93.6071 9.85631 94.2113 8.99104 94.987 8.26003C95.7777 7.52902 96.7027 6.96958 97.7619 6.5817C98.836 6.1789 99.9997 5.97749 101.253 5.97749C102.789 5.97749 104.147 6.24603 105.326 6.7831C106.519 7.32016 107.504 8.09593 108.279 9.11039L104.945 12.0866C104.483 11.5048 103.968 11.0573 103.401 10.744C102.849 10.4158 102.223 10.2517 101.521 10.2517C100.969 10.2517 100.47 10.3412 100.022 10.5202C99.5745 10.6992 99.1866 10.9603 98.8584 11.3034C98.5451 11.6465 98.299 12.0643 98.1199 12.5566C97.9409 13.034 97.8514 13.571 97.8514 14.1678C97.8514 14.7645 97.9409 15.309 98.1199 15.8013C98.299 16.2787 98.5451 16.689 98.8584 17.0321C99.1866 17.3753 99.5745 17.6363 100.022 17.8154C100.47 17.9944 100.969 18.0839 101.521 18.0839C102.223 18.0839 102.849 17.9272 103.401 17.614C103.968 17.2857 104.483 16.8307 104.945 16.2489L108.279 19.2252C107.504 20.2247 106.519 21.0005 105.326 21.5524C104.147 22.0895 102.789 22.358 101.253 22.358ZM113.161 22V6.33554H118.442V22H113.161ZM127.743 22V10.4307H123.155V6.33554H137.611V10.4307H133.024V22H127.743ZM145.93 22V15.13L147.139 18.2853L140.023 6.33554H145.595L150.406 14.5034H147.161L152.017 6.33554H157.119L150.048 18.2853L151.212 15.13V22H145.93Z" fill="#EAEAEA"/>
</g>
<defs>
<clipPath id="clip0_703_274">
<rect width="158.176" height="21.998" fill="white"/>
</clipPath>
</defs>
</svg>
