<svg width="40" height="41" viewBox="0 0 40 41" fill="none" xmlns="http://www.w3.org/2000/svg">
<circle cx="20" cy="20.458" r="20" fill="#EAEAEA"/>
<path d="M19.5 8.45801C12.6 8.45801 7 14.058 7 20.958C7 27.858 12.6 33.458 19.5 33.458C26.4 33.458 32 27.858 32 20.958C32 14.058 26.4 8.45801 19.5 8.45801ZM25.3 16.958C25.1125 18.933 24.3 23.733 23.8875 25.9455C23.7125 26.883 23.3625 27.1955 23.0375 27.233C22.3125 27.2955 21.7625 26.758 21.0625 26.2955C19.9625 25.5705 19.3375 25.1205 18.275 24.4205C17.0375 23.608 17.8375 23.158 18.55 22.433C18.7375 22.2455 21.9375 19.333 22 19.0705C22.0087 19.0307 22.0075 18.9895 21.9966 18.9503C21.9857 18.9111 21.9654 18.8751 21.9375 18.8455C21.8625 18.783 21.7625 18.808 21.675 18.8205C21.5625 18.8455 19.8125 20.008 16.4 22.308C15.9 22.6455 15.45 22.8205 15.05 22.808C14.6 22.7955 13.75 22.558 13.1125 22.3455C12.325 22.0955 11.7125 21.958 11.7625 21.5205C11.7875 21.2955 12.1 21.0705 12.6875 20.833C16.3375 19.2455 18.7625 18.1955 19.975 17.6955C23.45 16.2455 24.1625 15.9955 24.6375 15.9955C24.7375 15.9955 24.975 16.0205 25.125 16.1455C25.25 16.2455 25.2875 16.383 25.3 16.483C25.2875 16.558 25.3125 16.783 25.3 16.958Z" fill="#465558"/>
</svg>
