<svg width="40" height="40" viewBox="0 0 40 40" fill="none" xmlns="http://www.w3.org/2000/svg">
<circle cx="20" cy="20" r="20" fill="#EAEAEA"/>
<path d="M25.2044 12.4467C24.3689 11.4929 23.9085 10.268 23.9089 9H20.1322V24.1556C20.1031 24.9757 19.7568 25.7525 19.1664 26.3225C18.5759 26.8924 17.7873 27.211 16.9667 27.2111C15.2311 27.2111 13.7889 25.7933 13.7889 24.0333C13.7889 21.9311 15.8178 20.3544 17.9078 21.0022V17.14C13.6911 16.5778 9.99998 19.8533 9.99998 24.0333C9.99998 28.1033 13.3733 31 16.9544 31C20.7922 31 23.9089 27.8833 23.9089 24.0333V16.3456C25.4403 17.4454 27.279 18.0355 29.1644 18.0322V14.2556C29.1644 14.2556 26.8667 14.3656 25.2044 12.4467Z" fill="#465558"/>
</svg>
