<svg width="1440" height="566" viewBox="0 0 1440 566" fill="none" xmlns="http://www.w3.org/2000/svg">
<path fill-rule="evenodd" clip-rule="evenodd" d="M-4.62924 76.3137H-1.20269C-0.463152 76.3631 -1.0549 75.1047 -0.857686 74.5866C2.39627 74.7593 2.56895 71.8726 6.66105 72.8842C7.42524 72.8348 6.80885 71.4284 7.00606 70.8363C9.12606 70.3182 10.6792 69.2572 11.4434 67.4067C13.736 67.4067 16.4721 67.8755 16.5707 65.7043H20.6629C22.4871 61.9293 30.0056 63.8785 31.9531 60.2269C33.3828 62.3734 36.0946 60.523 37.4257 59.536C38.4364 60.597 40.803 60.3256 40.8523 58.4998H44.9443C45.8564 56.4272 49.8007 57.4388 50.417 55.0702L57.2452 55.0702C57.3192 53.5405 60.0802 54.7248 59.2913 52.3315C60.9676 51.9614 62.8165 51.7394 62.7179 49.5928C65.2816 50.5057 66.3663 47.0021 67.5002 49.5928C68.3877 49.2227 68.7327 48.3098 69.5462 47.8904C73.022 48.976 77.1141 46.2866 78.7904 43.4492C80.2448 43.5479 81.7239 43.6219 81.8718 42.4129C82.8332 42.5856 84.7561 41.7961 84.263 43.4492C85.89 41.0806 86.95 44.3128 90.0807 43.4492C90.3765 42.8324 90.9681 42.5117 91.116 41.7468C94.5918 41.8948 97.4021 41.426 98.2896 39.0081H101.716C102.332 37.2316 104.773 37.281 104.452 34.5669C107.558 34.715 107.534 31.7048 110.615 31.8282C110.615 29.7803 113.179 30.2985 113.351 28.3987C119.391 27.9299 124.543 26.5975 129.079 24.6237C130.459 24.1549 130.287 25.2405 130.78 25.6599C132.284 23.9575 134.083 22.5758 137.608 22.9212C138.126 24.1796 142.662 24.7224 143.081 22.9212C148.923 23.5381 154.544 19.1709 159.499 22.2304C160.633 21.885 161.914 20.1825 162.58 22.2304C162.999 21.1695 165.02 21.7123 164.971 20.1825C170.468 20.9967 169.803 15.6674 174.536 15.7414V17.7892C177.469 15.8154 179.293 19.0476 181.709 16.753C181.068 18.3074 183.065 17.2218 182.745 18.4801C185.111 18.2087 188.636 17.7646 190.953 15.7414C191.496 16.901 193.912 16.2102 193.345 18.4801C195.218 18.7515 195.341 17.2711 197.437 17.7892C197.708 16.4569 198.521 15.6674 198.472 14.0143L207.371 14.0143C206.73 15.5687 208.727 14.4831 208.407 15.7167C210.206 14.0143 214.816 17.6412 215.58 14.0143C216.911 16.901 219.795 12.0651 221.053 15.0505C222.63 13.6442 225.909 13.9649 226.18 11.2756C230.469 12.0404 230.79 8.80825 235.079 9.57312C234.586 10.8561 236.016 10.2393 235.769 11.2756C239.097 11.7197 241.415 9.57312 243.978 11.2756C244.89 10.8314 246.074 10.6341 245.679 8.88227C247.454 9.17835 247.725 7.96937 248.415 7.17983C249.574 6.83441 248.958 8.24078 249.106 8.88227C250.979 9.27704 251.448 8.26544 251.842 7.17983C257.832 8.78358 261.308 2.96074 265.523 6.14357C266.312 5.23066 267.594 4.81122 267.915 3.40486C270.035 3.23214 273.215 4.14504 273.042 1.70241L278.169 1.70241C278.909 1.75176 278.317 0.493461 278.515 0L286.378 6.89653e-07C285.737 2.12188 288.055 1.30767 287.414 3.42955C293.231 2.73871 296.855 4.04638 301.785 2.73871C302.451 3.23217 303.659 3.15812 303.486 4.44112C305.877 3.97233 306.716 5.10729 308.614 5.13197C307.899 7.45123 310.191 6.76042 309.649 8.90698C311.325 9.40044 313.692 9.17835 314.431 10.6094C315.171 10.6587 314.579 9.40044 314.777 8.90698C318.03 8.51221 319.978 9.40044 322.64 9.59782C323.306 9.22772 323.528 8.43818 324.021 7.89537C324.785 9.07968 325.845 9.94324 327.102 10.6341C328.162 10.19 329.888 8.56155 330.529 10.6341C331.096 9.84455 331.589 8.95631 332.92 8.93164C334.078 8.58622 333.462 9.99259 333.61 10.6341L336.346 10.6341C336.1 11.695 337.53 11.0535 337.037 12.3365H339.773V14.0389C341.671 14.2117 341.991 12.8546 344.21 13.3481V15.0505C345.886 14.9272 347.834 16.8023 348.992 15.0505C350.151 14.7051 349.535 16.1115 349.683 16.753C350.348 16.6543 351.334 14.4831 351.384 16.753C352.024 15.1246 355.451 16.2595 356.511 15.0505C356.733 16.5309 359.617 15.3713 360.948 15.7414C360.357 17.3451 362.551 16.1855 361.984 17.7893C363.832 18.1594 364.646 17.4685 365.41 16.753C364.695 18.7268 366.692 17.9866 366.445 19.4917C367.579 19.6151 366.815 17.8139 368.491 18.4554C369.551 20.9474 374.876 19.1216 376.355 21.1942C377.686 19.2203 381.606 19.8371 381.828 16.753C383.479 17.3698 385.131 18.0113 386.955 18.4801C386.216 20.602 388.508 21.7123 386.955 22.5758C389.346 22.9706 393.093 22.5758 395.164 20.1826C396.002 20.4786 396.421 21.2188 396.52 22.2304C402.19 24.3276 405.493 18.8009 409.856 21.1942C411.36 21.4409 410.62 19.4424 412.593 20.1579C413.653 20.9228 414.565 21.8357 415.329 22.8966C416.561 22.7732 416.685 21.5149 417.72 21.1942C417.35 22.6005 418.903 22.0824 419.1 22.8966C422.773 21.811 428.862 23.7108 433.472 23.9329C435.913 21.2435 438.23 18.4308 443.382 18.4554C445.576 16.3336 447.153 13.5702 450.21 12.2872C451.172 12.4352 449.939 10.412 450.9 10.5847C452.108 14.6064 459.528 12.4352 459.454 17.7646C459.997 17.7893 460.638 17.7153 460.49 18.4555C462.141 17.9126 461.574 17.9126 463.226 18.4555C466.85 17.5425 468.255 15.0259 472.125 15.0259C472.273 15.7908 472.865 16.1115 473.161 16.7283C474.541 17.1971 474.368 16.1115 474.861 15.6921C475.7 16.2349 476.119 17.1725 477.943 16.7283C478.756 13.8909 483.908 15.396 483.415 11.2509H487.187C486.941 14.5818 491.452 13.1261 492.66 15.0259C493.399 14.6311 493.966 14.0636 494.361 13.3235C495.47 12.904 494.632 14.4337 495.741 14.0143C496.407 13.6442 496.629 12.8547 497.097 12.3118C498.502 11.9418 498.773 12.6819 499.143 13.3481C499.71 13.3481 499.34 12.4105 499.833 12.3118C501.435 14.6311 502.175 11.6704 504.961 12.3119C504.468 13.9649 505.823 13.7429 505.651 15.0506C507.82 14.6064 509.817 13.9649 511.814 13.3481C517.138 16.2842 518.396 11.3249 521.378 10.6094C525.52 11.3743 528.231 10.5601 533.359 10.6094C533.038 12.0898 533.605 12.6573 535.06 12.3119C535.01 14.187 535.922 15.0999 537.796 15.0506C537.278 16.7037 538.659 16.4816 538.486 17.7893C541.223 18.5048 542.036 17.0984 543.268 19.4917C544.501 18.4308 545.339 17.0244 545.66 15.0506C548.569 16.1362 550.146 12.3859 551.477 15.0506C551.625 13.5949 553.696 14.0883 555.249 14.0143C555.989 14.0636 555.397 12.8053 555.594 12.3119C557.665 12.3365 560.007 12.6079 560.722 11.2756C560.377 14.2364 562.521 14.7298 561.757 18.1347C562.768 18.3814 563.458 18.9489 564.148 19.4917C565.652 19.7385 564.912 17.7646 566.884 18.4555C566.761 19.6891 565.775 20.0839 566.194 21.885C567.008 22.6745 569.276 22.0084 570.631 22.2304C572.135 26.6469 578.742 25.9807 581.577 29.0895C582.513 27.5351 584.831 27.3131 586.704 26.6963C587.937 26.8196 588.06 28.078 589.095 28.3987C591.166 26.5976 594.494 26.0548 595.258 22.9213C599.178 23.1433 600.385 25.2159 604.157 23.9575V20.1826H605.513C606.745 19.8618 605.981 21.5396 606.203 22.2304C608.865 22.4278 610.813 23.3161 614.067 22.9213C613.352 24.8951 615.349 24.1549 615.102 25.66C618.184 24.9691 618.874 26.6716 621.265 26.6963V30.8167C621.561 32.2477 624.396 31.1127 623.656 33.5554C625.135 33.9008 625.554 33.1853 626.392 32.8645V34.567C629.572 34.567 631.199 36.146 632.555 37.9965C634.01 37.207 635.464 36.9602 635.637 39.0328C636.697 38.9588 636.45 37.5771 637.338 37.3303C638.644 37.0589 637.781 38.9588 638.028 39.7236C639.852 40.7599 642.81 40.6365 643.846 42.4623C646.533 40.982 654.298 44.5349 656.147 40.7599C657.527 40.2911 657.354 41.3767 657.847 41.7962C658.809 41.0313 659.82 40.3405 661.274 40.0691C661.94 41.3274 663.295 41.9442 663.665 43.4986C665.637 43.6466 667.412 43.5973 668.102 42.4623C669.236 42.9065 670.173 43.5726 671.184 44.1648C672.12 43.1779 674.413 43.5233 676.311 43.4739C676.41 45.0777 678.48 44.7323 678.012 46.9035C679.836 47.3723 679.614 45.7685 681.439 46.2127V49.2968C682.745 49.9383 684.446 50.185 684.175 52.3809C685.827 51.8875 685.605 53.2445 686.911 53.0718V55.1196C688.957 56.3039 691.373 53.7133 692.039 56.8221C695.169 56.3039 696.451 57.661 699.212 57.5129C699.533 59.3634 701.357 59.6842 702.984 60.2516C703.649 59.7828 704.857 59.8322 704.685 58.5492C709.689 58.2038 714.496 57.661 715.285 53.0718H716.986C717.479 49.8149 718.292 46.8295 722.113 46.9035C722.434 46.3113 723.37 46.336 723.148 45.2011C727.487 45.0777 729.632 42.7831 733.749 42.4623V44.1648C735.573 44.6336 735.351 43.0298 737.175 43.474C739.394 38.0459 744.201 35.2085 745.729 29.0896C746.961 28.7441 745.877 30.7673 747.43 30.1258C750.758 28.4481 752.188 24.8458 756.995 24.6484C757.685 25.7834 759.46 25.8327 761.432 25.6847C761.654 27.4365 765.746 28.0779 766.904 26.7209C768.014 26.7456 768.014 27.9052 768.605 28.4234C770.824 25.1912 778.071 32.9879 779.205 26.7209C781.103 26.2275 782.952 25.6847 784.333 24.6731C785.886 24.0316 784.801 26.0301 786.034 25.7094C787.365 25.0925 788.844 24.6484 789.115 22.9707C789.953 23.5135 790.372 24.451 792.197 24.0069C792.492 23.3901 793.084 23.0693 793.232 22.3045C795.081 22.6746 795.894 21.9837 796.658 21.2682C796.165 23.1187 797.743 22.9213 798.014 24.0069C799.321 24.5004 798.088 22.4772 799.395 22.9707C800.677 27.2884 805.582 27.9546 809.995 29.1389V31.1868C812.09 30.792 812.238 32.3711 814.432 31.8776C814.013 34.4683 818.179 32.4698 818.204 34.6163C819.411 35.1345 818.401 33.4567 819.239 33.5801C820.373 34.3943 819.855 36.8616 821.285 37.3551C822.961 38.0212 822.197 36.2201 823.331 36.3188C823.158 38.0706 824.144 38.6874 825.377 39.0575C826.807 39.5756 825.426 37.281 826.412 37.3551C827.941 36.8369 827.472 38.3666 828.804 38.0459C828.064 41.5248 832.033 40.2911 832.575 42.487C834.128 43.0052 832.403 40.2418 833.931 40.7846C835.484 41.1794 835.533 43.0545 836.322 44.2142C837.111 43.7454 836.445 41.8209 836.667 40.7846C838.639 40.6366 840.414 40.6859 841.105 41.8209C842.534 41.4261 843.2 40.2665 844.876 40.0938C846.035 39.7483 845.418 41.1547 845.566 41.8209C849.56 41.5988 851.606 39.4276 854.465 38.0459C855.649 40.1678 858.558 40.5625 861.639 40.7846C862.157 43.0299 868.073 43.0299 869.848 41.8209C872.239 43.8441 873.348 40.2665 876.356 40.7846C877.095 40.834 876.504 39.5756 876.701 39.0575C878.254 39.1068 880.325 38.6381 880.473 40.0938C881.533 38.8848 884.17 39.2302 884.589 37.3551C884.934 38.268 886.142 38.2926 885.625 40.0938C888.312 41.0807 891.935 41.0066 893.488 39.0575C894.055 41.0066 895.584 41.9936 896.57 43.4986C898.394 44.1895 897.383 42.0429 898.961 42.4624C902.831 44.0414 906.134 44.6583 910.941 43.4986C911.903 43.6467 910.67 41.6235 911.632 41.7962C913.234 41.4508 912.938 42.9805 914.713 42.4871C916.241 40.8093 917.72 39.0821 920.876 39.0575C921.615 39.1068 921.024 37.8485 921.221 37.3551C922.725 37.3797 924.623 37.7992 923.957 35.6526C925.831 35.5786 926.767 34.567 927.729 33.6047C930.194 32.8646 929.701 35.0358 931.821 34.641C931.55 36.7382 933.251 36.8616 933.867 38.0706C936.234 36.3188 942.742 38.7367 944.467 36.3681C945.823 38.9341 948.633 34.5423 950.285 37.4044C952.109 35.6773 957.384 36.0474 958.494 38.0952C959.455 38.1446 959.159 36.9356 960.54 37.4044C961.698 37.059 961.082 38.4653 961.23 39.1068C963.843 38.9835 965.618 38.0212 966.703 36.3681C967.541 36.9109 967.96 37.8485 969.784 37.4044C970.523 37.4537 969.932 36.1954 970.129 35.702C972.249 36.3435 972.175 34.789 973.556 34.6657C974.813 35.6773 974.714 38.0706 977.648 37.4044C978.067 36.5655 978.979 36.2201 978.683 34.6657H984.846C985.142 34.0488 985.733 33.7281 985.881 32.9633C991.033 32.1491 991.97 35.5293 996.136 35.702C996.506 34.8137 997.467 34.5423 997.837 33.6541C998.774 34.7644 1000.28 35.3319 1000.23 37.4291C1003.21 38.416 1005.16 34.641 1006.74 37.4291C1006.71 35.6773 1009.77 37.0343 1010.16 35.7266C1011.27 35.7513 1011.27 36.911 1011.86 37.4291C1015.44 34.9618 1017.48 30.9647 1023.84 31.2608C1024.12 30.496 1024.98 30.3479 1024.88 29.213C1025.59 29.0156 1027.25 29.7558 1026.93 28.5221C1030.65 29.1389 1033.56 30.5453 1037.18 31.2608C1037.45 30.496 1038.31 30.3479 1038.22 29.213H1041.99C1041.99 33.0373 1049.53 32.9139 1048.82 28.5221C1049.95 28.4234 1050.91 28.4728 1051.21 29.213C1052.24 26.4742 1057.15 27.6339 1059.07 25.7834C1060.23 25.438 1059.61 26.8443 1059.76 27.4858C1060.94 26.2275 1066.07 28.8429 1067.97 26.795C1069.28 27.0911 1068.34 29.6324 1070.36 29.1883V31.927C1072.55 31.0881 1080.15 33.2593 1082 30.2246C1083.2 29.6818 1082.19 31.3842 1083.03 31.2608C1083.75 29.6818 1087.1 30.7674 1087.81 29.213C1088.8 30.0518 1090.92 29.7558 1090.55 31.9517C1091.63 31.6309 1093.8 30.2246 1093.29 32.9879H1098.41C1098.71 32.3711 1099.3 32.0504 1099.45 31.2855C1101.03 31.9023 1100.93 31.9023 1102.53 31.2855C1104.4 32.2231 1106.72 33.9995 1108.69 31.9763C1110.05 31.7543 1109.09 33.8515 1109.38 34.715C1110.79 35.0851 1111.06 34.345 1111.43 33.6788C1112.37 34.7891 1113.87 35.3565 1113.82 37.4538C1117.25 37.5771 1118.5 35.5293 1120.99 34.715C1122.42 34.1969 1121.04 36.4915 1122.03 36.4175C1123.14 36.3928 1123.14 35.2332 1123.73 34.715C1124.89 34.3696 1124.27 35.776 1124.42 36.4175C1127.35 36.2695 1130.12 35.9734 1130.93 33.6788C1131.55 33.6294 1131.72 34.0242 1131.62 34.715C1132.75 34.8137 1131.99 33.0373 1133.67 33.6788C1135.09 34.7644 1136.03 36.3435 1136.75 38.1199C1138.1 38.564 1137.44 36.985 1138.79 37.4291V39.1315C1140.03 39.4523 1138.94 37.4537 1140.49 38.0952C1141.73 37.7745 1140.96 39.4523 1141.18 40.1431C1145.33 40.1184 1146.46 43.0792 1151.09 42.5364C1151.61 44.0661 1152.52 45.2258 1154.52 45.2751C1155.28 49.2968 1160.83 48.5566 1162.73 51.4434C1164.53 51.8628 1164.9 50.8759 1166.16 50.7525C1166.7 51.4681 1167.29 52.1342 1167.51 53.1458C1168.94 53.5406 1169.04 52.6277 1168.89 51.4187H1171.63C1171.33 53.5653 1174.12 52.5783 1174.36 54.1574C1175.5 53.0225 1176.76 51.9862 1179.49 52.4303V54.1574C1182.4 53.1705 1185.06 57.1922 1186.67 54.1574C1187.33 54.2561 1188.32 56.4273 1188.37 54.1574C1189.5 54.0587 1188.74 55.8352 1190.41 55.1937C1191.5 55.021 1191.4 53.664 1192.11 53.1458C1193.03 56.6741 1198.23 55.9339 1198.94 59.6348C1202.32 59.1167 1203.63 60.6464 1206.81 60.3257C1206.68 62.3982 1209.59 61.4113 1209.89 63.0644C1211.12 63.3852 1210.03 61.3866 1211.59 62.0281C1214.13 65.4083 1217.7 67.4562 1223.57 65.8031C1224.14 65.8031 1223.77 64.8655 1224.26 64.7669C1226.97 64.3227 1227.86 65.7044 1229.39 66.4693C1230.69 66.0745 1230.94 64.5941 1232.12 64.076C1232.91 64.2981 1233.55 64.6928 1233.48 65.8031H1239.64V67.5056C1242.01 67.3082 1242.57 68.9119 1243.41 70.2443C1244.52 68.2704 1248.69 69.356 1249.92 67.5056C1251.08 67.1601 1250.46 68.5665 1250.61 69.208C1252.04 69.0353 1253.15 69.1833 1253.35 70.2443C1254.55 70.7624 1253.54 69.0846 1254.38 69.208C1255.27 69.356 1255.37 70.2689 1255.74 70.9104C1260.03 71.2065 1262.07 69.2573 1265.99 69.208C1266.73 69.2573 1266.14 67.999 1266.34 67.5056C1268.98 66.6173 1271.07 65.1616 1272.5 63.0644H1275.93C1276.96 61.9294 1277.46 60.2517 1279.7 60.3257C1279.92 59.2894 1279.26 57.3649 1280.04 56.8961C1281.15 56.9208 1281.15 58.0805 1281.74 58.5986C1283.45 56.9948 1285.29 55.5391 1287.22 54.1574C1288.18 54.3301 1290.1 53.5406 1289.61 55.1937C1291.01 53.1705 1291.63 55.1937 1293.73 55.1937C1293.8 52.8744 1295.85 52.529 1296.46 50.7525C1299.32 51.2213 1300.04 49.5436 1300.9 48.0138H1303.29C1303.66 46.3361 1305.02 45.6452 1305.68 44.2389C1307.43 44.0908 1309.13 46.7062 1310.12 44.2389C1315.54 44.6583 1316.92 41.0067 1320.03 39.1069C1321.19 38.7614 1320.57 40.1678 1320.72 40.834H1322.76C1323.5 40.8833 1322.91 39.625 1323.11 39.1069C1325.72 38.9835 1327.05 37.5771 1326.88 34.6657C1329.03 35.2085 1328.34 32.9139 1330.65 33.6294C1331.57 34.419 1332.82 34.8878 1333.73 35.6773C1335.29 36.3188 1334.2 34.3203 1335.44 34.641C1336.94 34.641 1336.74 36.2941 1338.17 36.3435C1340 36.2448 1340.39 34.6904 1341.25 33.6048C1342.49 33.284 1341.4 35.2825 1342.95 34.641C1343.74 33.9502 1344.98 33.6788 1344.65 31.9023C1345.3 31.7543 1346.73 32.3711 1346.36 31.2115C1348.77 33.2594 1350.15 29.9532 1352.86 30.1752C1353.75 30.2986 1353.85 31.2362 1354.22 31.8777C1357.33 32.5192 1360.19 29.8792 1362.43 31.8777C1363.59 30.422 1366.47 30.6687 1366.87 28.4481C1370.93 30.7674 1373.5 26.3756 1377.81 26.7457C1378.77 26.795 1377.51 24.6238 1378.5 24.6978C1379.73 24.3771 1378.65 26.3756 1380.2 25.7341C1381.83 24.155 1383.26 22.4032 1384.29 20.2567C1387.5 20.158 1388.34 17.6906 1389.77 15.8155C1391.59 15.9142 1393.29 15.9389 1393.19 14.1131C1394.8 14.2118 1397.14 13.5949 1397.31 15.1494C1397.68 13.4716 1400.17 13.9157 1400.74 12.4106C1402.81 12.9535 1407.17 11.2263 1407.56 13.4469C1408.25 12.2133 1410.33 12.3366 1412.35 12.4106C1412.74 12.3613 1412.72 11.8678 1412.69 11.3744C1416.86 11.8925 1416.73 8.11753 1421.25 8.98109C1422.21 9.12913 1420.98 7.10593 1421.94 7.27864L1422.97 7.27864C1424.4 6.76051 1423.02 9.05511 1424.01 8.98109C1426.2 9.22782 1425.36 6.46443 1428.1 7.27864C1427.98 8.29024 1426.47 7.92015 1427.06 9.67193C1431.55 9.00576 1437.22 8.83305 1443.14 9.67194C1443.33 10.1654 1442.74 11.4484 1443.48 11.3744C1443.83 10.0174 1444.84 9.30185 1445.18 7.94483C1447.3 8.48764 1446.74 9.20315 1448.61 7.94483C1450.24 8.01885 1448.14 11.8185 1451 10.6835V556.131L-4.48138 556.131L-4.48134 76.3137H-4.62924Z" fill="white"/>
<path fill-rule="evenodd" clip-rule="evenodd" d="M1443.46 23.8836V566L96.3913 566C97.1801 564.643 94.2959 564.495 94.6904 565.654V566H59.1187V564.297C59.7596 564.149 61.1894 564.766 60.8196 563.607C60.8689 562.866 59.6117 563.458 59.1187 563.261C59.3652 564.988 57.0233 564.149 57.4177 566H-12L-12 88.9216C-9.7567 88.2061 -7.39025 87.5893 -4.82652 87.2192C-5.22094 85.344 -4.21023 84.8753 -3.12558 84.4805C-1.17814 85.8622 -0.315265 84.1597 2.34707 84.4805C2.61823 81.2237 4.96009 80.0147 8.50987 80.0393C9.02754 78.0655 11.8377 78.3369 14.3275 78.3369C14.648 76.5605 17.6061 77.3007 18.0991 78.3369C18.2963 77.7448 17.68 76.3384 18.4442 76.2891C22.1666 74.8827 26.6038 74.1918 29.3894 71.8479C29.9564 73.7971 33.7527 72.5141 35.8973 72.8842C37.968 69.4793 44.7964 70.8363 46.8425 67.4067H56.4072C56.2099 68.295 56.555 68.6404 57.4425 68.443C60.2034 65.0381 67.7713 66.4692 68.0425 60.5723C70.828 60.9671 69.9406 57.6856 73.1699 58.5245C73.3672 58.031 72.7756 56.748 73.5151 56.822C75.4625 56.6 76.769 55.7364 79.3328 56.1312C79.4807 56.7727 78.8643 58.2037 80.0229 57.8336C82.1676 56.6986 87.0733 54.3301 88.9221 56.1312C89.8589 54.6508 91.3378 53.7626 92.3485 52.3562C96.416 53.1211 96.3421 49.7409 99.8673 49.9629V47.9151C103.762 46.9035 106.005 44.2634 108.421 41.7468C109.087 41.8702 108.446 43.3012 109.802 42.7831C111.01 43.3012 109.999 41.6234 110.837 41.7468C116.063 42.8571 115.915 38.6133 120.402 39.0081C120.352 40.5378 122.374 39.995 122.793 41.056H124.839C124.716 38.0952 129.572 37.577 131.667 39.0081C134.058 34.9124 141.01 37.281 145.004 37.281C145.669 36.9109 145.891 36.1213 146.359 35.5785C150.723 34.5176 153.336 37.9718 155.924 35.5785C157.231 35.0851 155.998 37.1083 157.305 36.6148C159.005 32.8645 167.387 35.7512 170.986 33.8761C172.095 33.4566 171.257 34.9864 172.342 34.5669C173.229 32.9385 174.339 34.715 175.768 34.5669C176.311 33.9748 177.173 33.7034 177.469 32.8645C179.589 32.223 179.515 33.7774 180.896 33.9007C181.956 33.8267 181.709 32.445 182.597 32.1983C184.569 31.7048 184.766 32.9878 186.368 32.8891C188.414 30.7179 192.728 30.8166 195.612 29.4596C196.106 31.1127 194.75 30.8906 194.922 32.1983C196.771 32.5684 197.585 31.8776 198.349 31.162C197.93 33.0619 200.617 31.8529 201.775 32.1983C203.673 30.1011 207.889 30.3232 209.294 27.7572C211.414 28.3987 211.34 26.8442 212.72 26.7209C213.854 27.6338 215.21 28.3493 217.158 28.448C217.355 27.6338 216.739 25.956 217.503 25.7093C218.267 25.7587 217.651 27.165 217.848 27.7572C220.116 27.6338 223.173 28.3 224.011 26.7209C225.367 28.8674 228.078 28.152 230.519 27.7572C230.716 27.165 230.1 25.734 230.864 25.7093C232.589 26.1781 232.663 25.0185 233.945 25.0185C234.29 25.9314 235.498 25.9561 234.98 27.7572C237.569 27.8065 240.576 27.4117 241.143 29.4596C241.907 28.7441 242.721 28.0532 244.57 28.4233C244.816 27.3624 243.387 28.0039 243.88 26.6962C246.148 26.6962 247.479 27.6585 249.007 28.4233H245.581C246.221 29.9777 244.225 28.8921 244.545 30.1258C245.876 30.4465 245.408 28.9415 246.936 29.4349C247.134 30.2738 248.687 29.731 248.292 31.1374H251.719C251.916 30.6439 251.324 29.3609 252.064 29.4349C252.779 29.6323 254.307 29.0155 254.455 29.7804C254.578 30.5946 252.902 29.583 253.42 30.8166C253.568 31.4828 254.973 30.8413 254.455 32.1736C256.55 31.3101 257.191 28.9908 260.618 29.4349V31.1374C262.787 30.5699 263.083 31.8529 264.389 32.1736C268.457 29.8544 276.321 31.3348 279.772 28.3987C280.585 28.2506 279.575 29.9531 280.807 29.4349C281.645 27.165 282.681 29.4843 284.234 29.4349C285.22 29.2869 283.938 26.8443 284.924 26.6962C288.4 26.1781 292.295 26.0794 292.442 22.2551H294.143C293.848 20.4786 295.055 20.2072 295.844 19.5164C296.066 21.2188 298.901 20.3306 300.627 20.5526C300.257 22.7485 302.377 22.4525 303.363 23.2913C304.078 22.2797 305.532 22.0577 307.455 22.2551C307.307 23.5627 308.49 23.4887 309.156 23.9575C310.487 23.242 312.78 23.4641 313.593 22.2551C314.333 22.2057 313.741 23.4641 313.938 23.9575C315.048 23.4641 316.206 23.0199 317.02 22.2551C317.587 24.8704 320.693 24.9691 323.183 25.6846C324.144 25.7586 322.763 23.4394 324.218 23.9822C324.982 24.2289 324.341 25.9067 324.563 26.7209C326.831 25.808 325.672 28.3493 326.954 28.448C330.455 26.7703 334.497 26.3262 338.59 27.7572V29.4596C342.238 31.0387 348.844 27.9052 352.961 30.1505C353.75 29.583 354.81 29.2622 356.388 29.4596C356.733 30.3725 357.941 30.3972 357.423 32.1983C358.113 31.0634 359.888 31.014 361.86 31.1621C361.934 32.9138 363.783 32.8892 364.251 34.2462C363.512 34.5423 363.463 35.5045 363.561 36.6395C365.361 35.3565 367.21 34.1228 370.735 34.5916C370.291 35.9486 371.869 35.2825 371.425 36.6395C372.238 36.8615 373.915 36.22 374.161 36.9849V41.1053C378.5 41.8208 381.704 41.9935 383.726 39.0574C384.687 41.4754 385.624 38.712 387.498 39.0574C388.065 41.2287 386.758 41.5248 386.462 42.8324C388.829 43.0792 389.42 40.6612 390.899 42.8324C390.456 41.5001 391.713 41.8208 392.6 41.7961C392.847 43.3752 395.657 42.3883 395.337 44.5348C398.369 44.5842 399.774 46.2373 403.545 45.5711C404.729 43.2025 408.278 43.2272 411.409 42.8324V45.5711C412.839 45.1517 412.913 46.114 413.8 46.262C415.353 45.0777 415.748 42.7337 418.583 42.8324C418.731 43.4739 418.114 44.9049 419.273 44.5348C420.653 41.8208 424.893 41.9442 426.101 39.0574C427.482 39.5262 427.186 38.3172 428.147 38.3666C428.665 40.0197 427.285 39.7976 427.457 41.1053C429.922 43.1285 432.141 40.4638 433.275 39.0574C434.088 38.9094 433.078 40.6119 434.31 40.0937C434.384 37.8978 437.219 38.4406 439.438 38.3666C440.005 38.3666 439.635 37.429 440.128 37.3303H445.255C445.699 39.0574 447.868 39.0574 450.038 39.0574C452.084 37.0836 454.672 39.6743 457.556 39.0574C458.247 38.2679 458.518 37.0342 460.293 37.3303C460.145 35.7019 461.032 35.1097 461.328 33.9008C462.388 33.654 461.747 35.0851 463.029 34.5916C463.645 33.2839 464.335 32.0256 466.455 32.1983C466.603 32.8398 465.987 34.2709 467.146 33.9008C466.653 32.3957 468.28 32.9632 469.192 32.8645C468.871 30.3725 471.065 30.3972 471.238 28.4233C472.84 28.2013 473.826 27.3624 476.02 27.7325C475.798 26.3755 477.302 26.7209 477.4 25.6846H480.482C480.95 26.6962 481.394 27.7572 482.183 28.4234C485.067 26.4495 487.088 29.1142 488.691 30.4712V34.567H492.117C492.881 37.4537 496.555 37.429 500.326 37.3057C500.178 34.641 502.323 34.2709 503.408 32.8645C504.147 32.8152 503.555 34.0735 503.753 34.567C505.675 34.3449 507.154 34.567 507.845 35.6032C508.436 34.2462 510.014 33.9008 510.236 32.1737C513.909 33.3086 515.832 32.001 520.146 32.1737C522.315 29.6817 525.84 29.2376 528.7 29.7804C528.848 30.5946 527.147 29.583 527.664 30.8166C528.305 31.7789 529.76 31.9269 530.401 32.8645C526.037 33.9255 525.766 30.8907 522.192 31.1621C521.995 31.6555 522.586 32.9385 521.847 32.8645C520.614 33.2099 517.878 32.0996 517.755 33.5554C518.543 34.3449 519.677 34.8383 521.526 34.5916C521.797 33.1359 522.907 32.5684 524.953 32.8892C524.977 34.641 525.125 36.4914 524.262 37.3303C525.939 36.5161 528.502 36.5408 529.045 34.5916C530.056 34.5916 528.552 37.1329 530.08 36.6395C531.042 36.6888 529.784 34.5176 530.77 34.5916H534.862C535.06 34.0982 534.468 32.8152 535.208 32.8892C535.503 34.1968 537.402 33.9008 537.254 35.6279H541.025C541.025 36.1954 541.025 36.7628 541.025 37.3303C542.258 37.207 542.381 35.9486 543.417 35.6279C543.86 37.3797 545.487 36.4421 546.153 35.6279C545.734 37.5277 548.421 36.3188 549.579 36.6642C550.861 35.2085 553.523 35.1345 555.052 33.9255C555.446 34.6657 556.013 35.2331 556.753 35.6279C557.566 35.7513 556.556 34.0735 557.788 34.5916C557.196 36.1954 559.391 35.0357 558.824 36.6395C559.81 35.4552 562.102 35.6032 563.261 34.5916C563.902 36.146 561.905 35.0604 562.225 36.2941C563.285 36.4915 563.433 37.6017 563.261 39.0328C566.613 38.3913 566.983 40.7846 570.434 40.069C570.064 42.7337 573.195 41.8702 573.861 43.4986C574.452 43.2519 575.857 42.1169 576.597 43.1532C576.72 43.9674 575.044 42.9558 575.562 44.1894C577.534 47.3476 582.513 47.4956 583.425 51.7147C588.651 52.5783 596.638 56.1065 600.188 51.7147C604.28 52.6523 607.115 53.8119 611.133 52.4056C611.552 47.7917 616.951 51.9861 619.342 50.0123C621.832 50.7031 623.558 52.1835 627.206 51.7394C626.688 53.7379 627.674 54.2314 628.907 54.4781C628.784 55.4897 627.28 55.1196 627.871 56.8714C629.967 55.7611 634.33 56.9454 635.735 55.169C636.006 56.0572 636.721 56.4767 638.126 56.2052C640.764 53.6393 644.462 58.0804 649.072 56.8961C649.466 59.1167 652.72 58.4752 654.199 59.6348C655.062 59.4868 653.854 57.2415 655.579 57.9324C656.738 57.5869 656.122 58.9933 656.27 59.6348C658.858 60.1529 659.77 59.018 661.397 58.5985C661.915 59.6842 662.827 60.375 663.443 61.3372C664.75 61.8307 664.109 60.3996 665.144 60.6464C665.267 61.658 666.771 61.2879 666.18 63.0397H668.916V65.7784C670.444 66.0498 671.184 65.5316 671.997 65.0875C672.318 65.655 672.934 65.9758 674.043 65.7784C674.191 66.4199 673.575 67.8509 674.733 67.4808C676.015 67.4808 676.089 66.3212 677.815 66.79C677.963 67.4315 677.346 68.8625 678.505 68.4924C680.6 68.7638 680.379 66.716 682.942 67.4562V69.504C684.964 69.8248 686.64 70.713 688.415 69.504C688.538 70.7624 689.795 70.861 690.116 71.8973C694.824 71.5025 699.779 71.5519 704.142 71.8973C704.759 68.073 709.221 68.073 712.351 66.7653C716.074 69.3313 718.218 65.359 721.25 65.0629C720.437 61.51 724.43 62.7683 725.687 61.2879V58.5492C728.941 58.8453 729.73 56.6494 731.16 55.1196H733.551C734.488 52.9731 737.446 52.8497 738.334 50.6785C741.07 50.5551 743.387 50.037 743.461 47.2489C745.778 47.7424 745.482 45.6205 746.197 44.5102C748.046 44.1154 750.61 42.3883 752.015 44.5102C752.779 41.278 755.466 44.1895 758.523 43.474V45.5218C760.446 45.5218 761.259 46.6568 763.65 46.2127C763.848 45.7192 763.256 44.4362 763.996 44.5102H768.112C768.26 43.3012 769.394 43.0298 769.468 41.7715C769.468 43.0545 771.218 42.5364 771.859 43.1285C771.859 44.1401 769.32 42.6351 769.813 44.1648V45.2011C770.775 45.8426 772.845 45.3491 772.549 47.2489C769.961 46.9035 769.789 48.3099 768.112 47.2489C767.323 50.6538 772.895 47.7177 773.24 49.9876C773.388 48.5319 775.458 49.0254 777.011 48.9514C777.406 46.2867 779.452 45.2257 780.093 42.7831C783.347 42.265 784.505 43.8441 787.611 43.474C787.02 45.0777 789.214 43.9181 788.647 45.5218C792.936 46.04 797.792 46.9529 799.592 43.474C803.29 43.0792 805.829 43.8441 807.11 45.8672C806.519 46.188 806.223 46.8048 806.42 47.9151C808.17 48.4332 807.899 46.8789 809.502 47.2243C810.266 48.0385 811.523 48.3839 811.548 49.963H814.284C813.816 52.7017 816.872 51.9368 817.711 53.3925C818.204 52.9731 818.031 51.8875 819.411 52.3563C820.866 53.6393 821.704 55.5391 822.148 57.8337H824.194C823.824 61.2632 828.68 59.4868 829.321 61.9294C828.73 62.2501 828.754 63.1877 827.62 62.9657C827.965 64.1006 826.856 66.6913 828.311 66.7406C828.384 65.4576 830.283 65.9758 830.702 65.0382C833.167 67.5055 838.368 66.9134 840.957 65.0382C842.312 64.5941 841.647 66.1732 843.003 65.7291C846.552 65.581 850.373 61.5346 853.258 64.0266C855.698 63.8292 859.149 64.6681 860.086 62.9904C860.899 62.8423 859.889 64.5448 861.121 64.0266C862.403 61.584 868.073 61.806 868.295 65.0629C870.785 65.5317 873.274 66.0005 876.504 65.7537V66.79C877.268 66.0745 878.081 65.3836 879.93 65.7537C880.078 65.1122 879.462 63.6812 880.62 64.0513C882.198 64.6434 882.05 65.4823 883.357 64.0513C883.948 66.1238 886.142 64.5941 887.128 64.0513C887.375 65.5563 885.403 64.8161 886.093 66.79C887.35 65.7044 890.9 63.6565 891.566 66.79H894.992C895.189 66.2965 894.598 65.0135 895.337 65.0875C898.073 65.7784 898.419 64.0513 900.465 64.0513V67.4808C901.894 67.999 900.514 65.7044 901.5 65.7784C904.507 66.7653 905.395 62.2501 907.663 64.7421C907.219 65.5563 904.803 64.3967 905.617 66.4446C906.652 67.6782 907.737 66.0745 908.353 65.7537C908.378 66.2965 908.304 66.938 909.043 66.79C909.881 65.4576 911.533 64.9395 913.826 65.0875C914.023 64.4954 913.407 63.0644 914.171 63.0397C914.54 64.7915 916.66 63.9279 917.252 63.0397C916.956 65.0382 920.062 63.6565 921.344 64.076C922.084 62.6449 924.475 62.867 926.127 62.3488C926.324 61.8554 925.732 60.5724 926.472 60.6464H928.863C929.011 61.2879 928.394 62.7189 929.553 62.3488C931.402 62.3735 931.081 60.227 932.289 59.6101C933.67 59.7088 934.04 60.8191 933.99 62.3488H930.564C930.219 63.9526 933.128 62.2995 933.3 63.3851C933.621 64.6188 931.624 63.5332 932.265 65.0876C934.582 64.224 936.234 62.6696 937.392 60.6464C938.921 60.597 938.403 62.6202 939.438 63.0397H942.174C941.534 64.9642 944.221 63.6565 944.911 64.076C945.453 64.3967 944.59 64.9149 945.601 65.1123C946.858 65.359 948.559 64.9395 950.038 65.1123C949.668 63.3605 952.232 64.5694 952.084 63.0644C955.338 63.015 956.768 61.1399 958.592 59.6348C961.6 60.1283 963.079 59.092 965.1 58.5986C964.928 54.5275 970.597 56.6494 971.929 57.9077C974.172 57.8337 976.39 57.7844 977.746 58.5986C978.362 58.4999 979.447 57.1429 980.137 58.2531C980.187 59.2154 977.894 57.8337 978.436 59.2894C981.197 60.449 983.909 58.6232 984.944 56.8961H990.072C990.343 57.7597 989.406 59.8569 990.762 59.6348C991.502 58.0311 991.378 59.1167 992.463 59.6348C992.956 59.2154 992.783 58.1298 994.164 58.5986C995.224 60.153 997.516 60.4984 998.946 61.6827C999.193 62.4722 998.33 64.3474 999.636 64.076C1001.83 63.8786 1001.44 61.0905 1004.07 61.3373C1003.78 63.5825 1004.52 64.7915 1006.12 65.1123C1009.52 63.1631 1011.32 59.5855 1016.72 59.6348C1016.82 57.0935 1019.14 56.8221 1021.85 56.8961V59.6348H1019.46C1019.73 60.4984 1018.79 62.5956 1020.15 62.3735C1021.77 62.6449 1021.06 60.5477 1022.54 60.6711C1023.4 61.9788 1027.15 61.51 1027.32 59.9803V58.944C1026.19 57.1182 1021.01 57.513 1021.5 55.169C1021.87 55.8352 1022.17 56.5754 1023.55 56.2053C1024.29 55.6872 1024.16 54.3055 1025.25 54.1574C1025.91 54.2808 1025.27 55.7118 1026.6 55.1937C1029.29 53.4419 1032.79 53.6886 1036.17 54.1574C1036.51 52.8991 1034.49 54.0094 1035.13 52.455C1036.42 52.9484 1035.8 51.5174 1036.84 51.7641C1038.81 52.677 1040.41 51.2953 1043 52.455C1044.01 52.2082 1043.56 50.5058 1045.04 50.7525C1046.47 51.0239 1046.35 52.8744 1047.44 53.4912C1048.08 51.4927 1050.86 49.8643 1052.91 50.4071C1052.37 51.6901 1050.79 51.9368 1050.17 53.1458C1052.61 54.5522 1054.51 52.4796 1056.68 52.455V54.1574C1058.23 54.6756 1056.51 51.9122 1058.06 52.455C1059.02 52.381 1057.64 54.7002 1059.1 54.1574C1061.61 52.677 1067.25 54.3548 1069.35 52.455C1069.84 54.0094 1072.85 53.0471 1074.13 53.812C1074.18 54.7742 1071.89 53.3926 1072.43 54.8483C1072.68 55.6131 1074.35 54.9716 1075.17 55.1937C1075.22 52.6277 1077.34 52.1095 1078.59 50.7525C1079.36 53.5653 1077.29 53.5406 1076.89 55.1937C1078.37 54.7496 1078.96 53.3925 1079.97 52.455C1082.61 52.9238 1083.6 51.7394 1084.76 50.7525C1085.52 50.9993 1084.88 52.677 1085.1 53.4912C1085.74 53.6393 1087.17 53.0224 1086.8 54.1821C1089.61 52.4796 1094.67 50.5305 1098.44 52.8251C1099.13 54.6509 1096.98 53.6393 1097.4 55.2183C1099.55 55.8845 1099.13 53.9847 1099.1 52.4796C1100.88 51.8381 1101.64 50.2344 1103.89 50.0863C1104.97 51.2213 1106.75 50.6538 1108 50.0863V51.8135C1109.9 51.7395 1110.71 53.2445 1112.1 51.8135C1113.48 52.7017 1114.95 53.5159 1116.53 54.2068C1117.54 52.8251 1121.17 53.59 1122.35 54.2068C1122.55 54.9223 1121.81 56.5754 1123.04 56.2546C1124.67 54.8482 1131.05 54.5275 1132.6 56.2546C1136.89 55.8352 1138.2 58.4012 1141.85 58.6479C1142.07 59.9062 1142.47 61.0165 1144.24 60.6958V62.3982C1147.72 61.8801 1149.1 63.4592 1152.45 63.0891V65.1369C1157.65 64.9642 1160.88 66.7407 1163.05 69.5781C1165.24 69.208 1166.25 70.0222 1167.83 70.2689C1169.95 68.7639 1174.14 69.7755 1175.35 71.3052C1177.62 70.9598 1178.95 69.6521 1181.51 69.6028V71.3052C1183.63 71.0091 1184.55 71.922 1184.25 74.0439C1187.06 74.6854 1187.77 71.7246 1189.38 74.0439C1190.39 74.0439 1188.88 71.5026 1190.41 71.996C1191.64 72.3661 1192.63 72.983 1192.46 74.7347H1203.06C1203.21 76.4125 1204.36 77.0787 1204.76 78.5097C1209.99 77.5722 1212.84 81.9146 1216.74 79.2006C1217.7 79.1512 1216.32 81.4458 1217.78 80.903C1220.98 80.2615 1223.69 80.3602 1227.68 80.903C1227.68 83.5184 1229.41 84.4313 1231.78 84.678C1232.22 83.8638 1233.65 82.2354 1234.86 83.321C1232.96 83.9378 1232.22 85.6896 1231.43 87.4414C1232.74 87.9348 1231.51 85.9116 1232.81 86.4051C1232.89 87.9348 1235.65 86.7505 1234.86 89.1438C1237.62 89.6126 1238.11 87.8361 1239.99 87.4414C1240.28 88.4036 1241.83 88.1076 1243.07 88.1322C1243.63 86.6519 1244.92 85.887 1245.8 84.7027C1250.31 84.7027 1254.26 81.8652 1258.45 83.6664C1260.67 81.2978 1264.49 80.5823 1269.39 80.9277C1269.49 77.2267 1276.05 76.5852 1278.64 78.5344C1279.99 77.1527 1281.57 75.9931 1283.08 74.7594C1285.91 75.2035 1286.55 73.4517 1287.51 72.0207C1289.44 71.2065 1292.25 71.2805 1295.03 71.3299C1295.62 70.1949 1296.98 69.8495 1298.46 69.6275C1299.3 70.0469 1299.62 70.9844 1300.5 71.3299C1304.57 69.6028 1309.7 68.8872 1312.49 65.8524H1315.57C1315.71 66.4939 1315.1 67.925 1316.26 67.5549C1318.06 66.0498 1320.15 64.8408 1321.73 63.1137C1323.08 63.2371 1323.04 64.7669 1325.16 64.15C1325.33 62.2749 1328.04 62.9164 1328.58 61.4113C1329.25 61.5594 1328.61 62.9904 1329.96 62.4476C1330.41 60.8685 1328.26 61.8801 1328.93 60.0543C1330.28 59.6842 1329.96 57.661 1330.97 56.9702H1333.36C1333.56 56.4767 1332.97 55.1937 1333.71 55.2677C1337.06 55.3171 1339.35 54.3055 1340.88 52.529H1347.71C1348.67 49.8396 1352.94 50.4565 1354.22 48.0879C1356.54 48.5813 1357.1 47.323 1359 47.397C1359.08 45.5465 1360.31 44.831 1360.38 42.9559C1361.89 43.8688 1365.78 42.5611 1367.9 41.9196C1367.73 40.1678 1368.71 39.551 1369.95 39.1809C1370.19 40.6859 1368.22 39.9457 1368.91 41.9196C1370.37 42.117 1370.29 40.7846 1370.96 40.2171C1372.88 40.4392 1374.36 40.2171 1375.05 39.1809C1374.46 40.7846 1376.65 39.625 1376.09 41.2288C1380.08 42.1663 1383.78 41.2287 1386.69 41.9196C1386.07 40.1678 1387.6 40.5379 1387.72 39.5263C1387.87 38.7121 1386.17 39.7237 1386.69 38.49C1388.16 38.7368 1387.75 37.0343 1388.73 36.7876H1391.12C1391.27 37.4291 1390.65 38.8601 1391.81 38.49C1391.02 35.8747 1393.98 37.0097 1395.58 36.7876C1395.44 34.1229 1399.04 35.2085 1399.36 33.0126C1401.62 32.7906 1402.83 33.6294 1402.78 35.7513C1404.53 35.1345 1404.16 36.6642 1405.17 36.7876C1405.32 35.5786 1406.46 35.3319 1406.55 34.0489C1409.71 34.5917 1410.01 32.2724 1413.38 33.0126C1413.53 33.6541 1412.91 35.0852 1414.07 34.7151C1414.62 33.9996 1415.21 33.3334 1415.45 32.3218C1418.61 32.8646 1418.9 30.5207 1422.28 31.2855C1422.55 32.1491 1421.62 34.2216 1422.97 34.0242C1425.68 34.0242 1424.23 29.8051 1427.41 30.2493C1428.15 33.6048 1424.48 32.5685 1423.98 34.6904C1425.78 33.6295 1429.7 34.6904 1431.16 33.3334C1430.71 32.5192 1428.3 33.6788 1429.11 31.6309C1434.34 29.5584 1436.83 24.7472 1443.48 24.1057L1443.46 23.8836ZM170.937 564.964H172.637C173.155 563.903 170.394 563.903 170.937 564.964ZM114.855 560.522V562.57H115.89C115.447 561.213 117.024 561.879 116.581 560.522H114.855ZM694.528 74.562H696.229C696.747 73.5011 693.986 73.5011 694.528 74.562ZM881.582 67.3575H879.881C880.325 68.7145 878.747 68.0483 879.191 69.4053H880.892C880.448 68.0483 882.026 68.7145 881.582 67.3575ZM827.546 61.5346C827.596 60.7944 826.338 61.3866 825.845 61.1892C825.993 61.8307 825.377 63.2618 826.536 62.9163C826.043 61.6087 828.064 62.8423 827.571 61.5346H827.546ZM1337.11 58.4505C1336.42 57.661 1336.15 56.452 1334.38 56.7481C1335.51 59.6102 1331.71 57.513 1331.64 59.1414C1333.86 60.6711 1334.45 57.6363 1337.11 58.4505ZM777.948 49.5682C777.899 50.3084 779.156 49.7162 779.649 49.9136C780.438 48.5566 777.554 48.4086 777.948 49.5682ZM1370.61 42.7091C1369.55 42.191 1369.55 44.9544 1370.61 44.4116V42.7091ZM464.705 35.1838C464.656 35.924 465.913 35.3318 466.406 35.5292C467.195 34.1722 464.311 34.0241 464.705 35.1838ZM487.606 31.088H484.87V32.7905C486.522 32.9632 487.631 32.5931 487.606 31.088Z" fill="#609F90"/>
</svg>
