<svg width="88" height="88" viewBox="0 0 88 88" fill="none" xmlns="http://www.w3.org/2000/svg">
<g clip-path="url(#clip0_740_325)">
<path fill-rule="evenodd" clip-rule="evenodd" d="M81 6.99C88 13.99 88 24.7 88 43.99C88 63.28 88 73.99 81 80.99C74 87.99 63.27 87.99 44 87.99C24.73 87.99 14 87.99 7.01 80.99C0 73.99 0 63.27 0 43.99C0 24.71 0 13.99 7 7C13.99 0 24.7 0 43.99 0C63.28 0 73.99 0 80.99 6.99H81ZM8.04 8.04C4.84 11.23 3.18 15.32 2.33 21.1C1.47 26.93 1.47 34.31 1.47 43.99C1.47 53.67 1.47 61.04 2.33 66.88C3.18 72.67 4.84 76.76 8.05 79.96C11.24 83.16 15.33 84.83 21.11 85.68C26.94 86.54 34.32 86.54 44 86.54C53.68 86.54 61.05 86.54 66.89 85.68C72.68 84.83 76.77 83.17 79.97 79.96C83.17 76.76 84.84 72.67 85.69 66.89C86.55 61.06 86.55 53.68 86.55 43.99C86.55 34.3 86.55 26.93 85.69 21.09C84.84 15.31 83.18 11.22 79.97 8.02C76.77 4.83 72.68 3.17 66.9 2.32C61.07 1.47 53.69 1.46 44 1.46C34.31 1.46 26.94 1.46 21.11 2.32C15.33 3.17 11.25 4.83 8.06 8.03L8.04 8.04Z" fill="#EAEAEA"/>
<path d="M58.95 46.5303V24.2103C57.01 26.4903 55.61 29.3203 55.3 32.5003L54.1 42.6403C55.61 43.5003 56.78 44.9203 57.21 46.5703H58.96V46.5303H58.95ZM58.95 58.6003V49.5603H57.24C56.7 51.6403 55.1 53.2503 53.05 53.9203L51.65 54.2303C51.96 55.6403 52.19 57.0603 52.19 58.5903H58.95V58.6003ZM48.81 61.6603H45.47V68.1103C47.1 66.2203 48.27 64.0603 48.81 61.6603ZM49.24 58.6003C49.24 57.3003 49.01 56.0803 48.7 54.9103C46.87 55.1503 45.48 56.7603 45.48 58.6003H49.25H49.24ZM47.18 52.1903C45.9 49.7903 44.69 47.2803 43.96 44.6803C43.22 47.3103 42.02 49.7903 40.74 52.1903C42.02 52.5003 43.11 53.3703 43.96 54.3503C44.81 53.3703 45.9 52.5003 47.18 52.1903ZM42.45 61.6603H39.11C39.65 64.0603 40.82 66.2203 42.45 68.1103V61.6603ZM42.45 58.6003C42.45 56.7503 41.05 55.1003 39.23 54.9103C38.92 56.0903 38.69 57.3103 38.69 58.6003H42.46H42.45ZM35.81 58.6003C35.81 57.0703 36.04 55.6503 36.35 54.2403L34.95 53.9303C32.89 53.2603 31.3 51.6503 30.76 49.5703H29.05V58.6103H35.81V58.6003ZM30.72 46.5303C31.15 44.8803 32.35 43.4603 33.83 42.6003L32.63 32.4603C32.2 29.3203 30.92 26.4903 28.98 24.1703V46.4903H30.73V46.5303H30.72ZM42.14 71.8003C39.03 69.4003 36.74 65.8303 36 61.6603H25.98V17.8403C31.38 20.5503 35.22 26.5703 35.69 32.7703L37.2 45.0703L36.46 44.9503C34.83 44.9503 33.43 46.4803 33.43 48.0203C33.43 49.4303 34.52 50.6503 35.92 50.9703L37.75 51.4003C40.78 45.6203 42.49 39.9603 42.49 34.3803C42.49 29.3503 41.83 24.3603 41.75 19.2503C41.75 16.9703 42.6 14.8903 44 13.2803C45.4 14.9303 46.25 16.9703 46.25 19.2503C46.25 24.3603 45.51 29.3903 45.51 34.3803C45.51 39.9203 47.22 45.6203 50.25 51.4003L52.08 50.9703C53.48 50.6603 54.57 49.4403 54.57 48.0203C54.57 46.4903 53.17 44.9503 51.54 44.9503L50.8 45.0703L52.31 32.7703C53.05 26.5603 56.62 20.5503 62.02 17.8403V61.6603H52C51.26 65.7903 49.09 69.5203 45.86 71.8003C45.12 72.3503 44.46 73.0203 44.03 73.8803C43.53 72.9803 42.86 72.3503 42.13 71.8003H42.14Z" fill="#EAEAEA"/>
</g>
<defs>
<clipPath id="clip0_740_325">
<rect width="88" height="88" fill="white"/>
</clipPath>
</defs>
</svg>
