<svg width="184" height="211" viewBox="0 0 184 211" fill="none" xmlns="http://www.w3.org/2000/svg">
<g style="mix-blend-mode:multiply" opacity="0.5" clip-path="url(#clip0_699_8)">
<path d="M76.775 41.2602C77.0438 40.6553 77.055 40.0616 77.0662 39.4735C77.111 37.3733 77.7381 35.4299 78.6733 33.576C79.6308 31.6718 80.9915 30.182 83.0297 29.4315C83.5168 29.2523 83.6792 28.9443 83.7688 28.4906C83.9872 27.3705 84.3232 26.2951 84.8439 25.2758C85.4039 24.1837 86.1038 23.254 87.2853 22.7891C87.7445 22.6099 87.9853 22.3355 87.9405 21.8146C87.9013 21.3273 88.0189 20.9073 88.3156 20.4592C88.6964 19.8824 88.562 19.4287 88.0189 19.0759C86.647 18.1854 85.7958 16.886 85.1071 15.4578C84.6312 14.4777 84.3008 13.4472 84.088 12.3887C83.7968 10.9269 83.9088 9.48191 84.424 8.07613C85.0287 6.41273 86.1318 5.19739 87.7389 4.4805C88.2932 4.23407 88.5732 3.92043 88.6292 3.28755C88.7076 2.48106 88.954 1.70256 89.5811 1.10329C91.0986 -0.341687 93.456 -0.380892 95.0126 1.04728C95.6902 1.66896 95.9926 2.46985 95.9982 3.37156C95.9982 3.87562 96.2109 4.17806 96.6645 4.36288C99.2515 5.43821 100.355 7.53847 100.719 10.1764C100.819 10.8989 100.668 11.5822 100.556 12.2654C100.259 14.0521 99.5874 15.6931 98.5515 17.1772C98.0196 17.9389 97.3924 18.6054 96.5861 19.0871C96.2893 19.2663 96.1157 19.4959 96.1941 19.888C96.2557 20.2016 96.2333 20.532 96.2557 20.8569C96.3117 21.6466 96.5637 22.3131 97.2861 22.7611C97.6948 23.0131 98.0252 23.394 98.406 23.6964C100.215 25.1134 101.099 27.0344 101.458 29.2467C101.508 29.5659 101.547 29.8908 101.547 30.2156C101.547 30.7141 101.766 30.9493 102.23 31.1621C102.992 31.5094 103.412 32.2599 103.815 32.96C105.013 35.049 105.786 37.2837 106.049 39.6808C106.133 40.4257 106.217 41.1537 106.497 41.921C106.744 41.753 106.912 41.6242 107.091 41.5178C108.11 40.9017 109.342 40.9521 110.271 41.6466C110.68 41.9546 110.949 42.3523 110.966 42.8732C110.977 43.2484 110.932 43.6292 110.932 44.0045C110.932 44.1613 110.938 44.4189 111.022 44.4526C111.744 44.783 111.654 45.7015 112.22 46.0935C112.746 46.4576 113.351 46.7208 113.945 46.9729C115.266 47.5329 116.666 47.6505 118.083 47.6057C120.311 47.5329 122.495 47.1689 124.606 46.4464C126.807 45.6959 128.979 44.8726 131.163 44.0773C133.145 43.3548 135.133 42.6771 137.216 42.2683C141.287 41.473 144.955 42.3523 148.214 44.8838C151.725 47.6113 153.158 52.3159 151.797 56.3708C151.249 58.0118 150.241 59.328 148.947 60.4425C148.622 60.7225 148.27 60.9802 147.928 61.2434C147.676 61.4394 147.648 61.6746 147.766 61.9603C147.894 62.2571 148.001 62.5651 148.118 62.8676C157.369 86.1888 166.625 109.504 175.881 132.826C177.258 136.292 178.653 139.754 180.002 143.232C180.209 143.758 180.472 143.988 181.032 144.055C182.225 144.201 183.16 144.794 183.726 145.892C184.011 146.452 184.079 147.007 183.843 147.611C183.507 148.474 183.11 149.297 182.595 150.065C180.198 153.649 177.169 156.5 173.193 158.281C170.029 159.698 166.81 160.947 163.472 161.882C163.058 162 162.644 162.123 162.156 162.263C162.072 162.935 162.19 163.445 162.772 163.926C164.004 164.951 163.847 166.071 163.125 167.247C162.812 167.768 162.33 168.127 161.837 168.463C160.617 169.292 159.278 169.857 157.895 170.339C155.118 171.308 152.234 171.7 149.328 172.014C146.187 172.355 143.056 172.098 139.932 171.924C136.421 171.728 132.933 171.336 129.478 170.675C128.251 170.44 127.059 170.109 125.9 169.65C125.244 169.393 124.606 169.096 124.046 168.659C122.932 167.785 122.613 166.519 123.755 165.13C123.996 164.839 124.276 164.615 124.382 164.223C124.6 163.428 124.544 163.282 123.755 163.092C120.378 162.274 117.187 160.924 113.995 159.603C111.122 158.415 108.491 156.83 106.329 154.545C104.98 153.117 103.955 151.47 102.975 149.779C102.169 148.39 102.449 147.091 103.059 145.769C103.317 145.209 103.731 144.727 104.308 144.548C105.092 144.301 105.372 143.702 105.657 143.053C106.648 140.773 107.64 138.488 108.636 136.208C111.626 129.37 114.689 122.565 117.584 115.688C120.143 109.611 122.534 103.467 124.97 97.3342C129.226 86.6313 133.459 75.9228 137.703 65.2143C138 64.4582 138.308 63.7077 138.61 62.9572C138.89 62.2739 138.907 62.2459 138.207 61.8315C137.306 61.2938 136.572 60.5825 135.956 59.7536C133.66 56.6732 135.251 52.4391 139.014 51.6214C140.1 51.3862 141.057 51.7278 141.875 52.4055C142.692 53.0832 142.508 54.0353 141.517 54.4274C141.164 54.5674 140.789 54.6458 140.441 54.7914C140.016 54.9706 139.926 55.5307 140.24 55.8835C140.833 56.55 141.595 56.7628 142.446 56.606C143.448 56.4268 144.255 55.9003 144.809 55.0378C145.711 53.6265 145.363 52.0023 143.958 51.067C143.084 50.4845 142.099 50.2156 141.052 50.1484C139.523 50.0532 138.034 50.2605 136.561 50.6693C135.307 51.0165 134.108 51.5038 132.916 52.0247C130.99 52.876 129.063 53.7441 127.115 54.545C125.866 55.0546 124.589 55.5139 123.296 55.8891C119.886 56.8693 116.554 56.4716 113.295 55.1666C111.934 54.6234 110.658 53.9177 109.459 53.0776C109.079 52.8088 108.731 52.6967 108.272 52.96C107.572 53.3632 106.923 53.2064 106.368 52.6239C106.195 52.4391 105.988 52.4559 105.792 52.5903C105.573 52.7472 105.366 52.9264 105.148 53.0776C104.834 53.296 104.504 53.4808 104.201 53.7049C103.697 54.0801 103.02 53.9625 102.533 54.2705C102.023 54.5954 102.146 55.3571 101.726 55.8107C101.301 56.2644 100.847 56.6172 100.22 56.6676C99.8954 56.6956 99.5707 56.7012 99.2459 56.7068C98.8819 56.7124 98.6635 56.8581 98.5403 57.2333C98.3444 57.8494 98.1148 58.4598 97.8348 59.0423C97.6668 59.4008 97.6164 59.7536 97.622 60.1401C97.6444 65.0126 97.6612 69.8796 97.6836 74.7522C97.6836 74.9706 97.7004 75.1835 97.7004 75.4019C97.762 82.9796 97.8348 90.5517 97.874 98.1295C97.9244 107.981 97.9468 117.827 97.986 127.679C97.9972 131.196 97.9636 134.713 98.042 138.23C98.3388 151.65 98.1876 165.074 98.3052 178.494C98.3444 182.985 98.3332 187.477 98.3612 191.969C98.3668 193.106 98.4339 194.243 98.4899 195.374C98.5123 195.822 98.6467 195.973 99.0555 195.996C100.461 196.069 101.866 196.175 103.272 196.186C109.874 196.231 116.47 196.164 123.066 195.817C124.304 195.749 125.552 195.867 126.773 196.125C128.638 196.522 129.87 197.592 130.267 199.513C130.312 199.715 130.368 199.916 130.407 200.073C130.822 200.297 131.208 200.241 131.583 200.235C133.75 200.202 135.906 200.314 138.067 200.476C139.316 200.571 140.531 200.807 141.724 201.154C143.476 201.664 144.636 202.75 145.067 204.554C145.117 204.766 145.207 204.968 145.246 205.175C145.319 205.556 145.559 205.691 145.918 205.752C146.287 205.814 146.657 205.92 147.015 206.038C147.749 206.273 148.376 206.699 148.919 207.236C149.39 207.707 149.714 208.261 149.854 208.916C150.095 210.025 149.641 210.698 148.51 210.877C148.034 210.95 147.542 210.961 147.055 210.961C139.478 210.882 131.908 210.782 124.332 210.714C119.029 210.664 113.726 210.636 108.423 210.636C104.963 210.636 101.502 210.675 98.0364 210.742C95.0742 210.804 92.1065 211.045 89.1276 210.776C87.5821 210.636 85.9974 210.675 84.4296 210.67C76.747 210.647 69.0589 210.557 61.382 210.703C53.8058 210.843 46.2297 210.782 38.6591 210.955C38.116 210.966 37.5784 210.955 37.0353 210.944C36.7105 210.933 36.3857 210.916 36.0666 210.86C34.9691 210.653 34.5491 209.93 34.8347 208.844C35.0027 208.194 35.3218 207.645 35.8034 207.186C36.3969 206.615 37.0577 206.099 37.8808 205.987C38.9839 205.836 39.4991 205.304 39.7343 204.19C40.0422 202.705 41.1117 201.776 42.534 201.283C43.7155 200.88 44.925 200.599 46.1737 200.51C48.2791 200.364 50.3789 200.157 52.4899 200.23C52.8707 200.241 53.2459 200.23 53.6266 200.219C54.2538 200.191 54.265 200.191 54.4162 199.474C54.7745 197.777 55.7713 196.696 57.4511 196.242C58.8734 195.856 60.3293 195.749 61.7907 195.811C67.0879 196.052 72.385 196.214 77.6878 196.175C80.0675 196.158 82.4473 196.181 84.8215 196.018C85.1463 195.996 85.4711 195.996 85.7903 195.962C86.031 195.94 86.1822 195.783 86.1934 195.536C86.2158 195.105 86.2326 194.674 86.2326 194.237C86.255 187.309 86.2158 180.381 86.3166 173.453C86.5238 158.734 86.535 144.016 86.591 129.292C86.6022 127.074 86.6078 124.856 86.6246 122.632C86.7198 106.833 86.8206 91.0278 86.9157 75.2283C86.9437 70.6301 86.9549 66.0264 86.9941 61.4282C86.9997 60.7057 86.9045 60.056 86.451 59.4512C85.9638 58.8015 85.6447 58.051 85.4991 57.2333C85.4319 56.8749 85.1687 56.6956 84.7935 56.6956C84.6871 56.6956 84.5752 56.6844 84.4688 56.69C83.0745 56.774 82.1898 56.0908 81.809 54.8026C81.669 54.3265 81.445 54.0969 80.9971 53.9121C80.6051 53.7553 80.2803 53.4416 79.9332 53.1784C79.3732 52.7528 78.8245 52.3159 78.3317 51.9295C77.8725 51.8903 77.8669 52.2319 77.7157 52.4279C77.167 53.1504 76.719 53.3744 75.9127 52.9936C75.2408 52.6799 74.8096 52.8704 74.2944 53.2232C72.6314 54.3658 70.8283 55.1947 68.8909 55.7659C66.0632 56.5948 63.2522 56.6172 60.4245 55.7827C58.1343 55.105 55.956 54.1585 53.7722 53.212C52.2828 52.5679 50.8213 51.8566 49.315 51.2686C47.3384 50.4957 45.2946 50.014 43.1444 50.1204C42.0972 50.1708 41.1173 50.4229 40.2102 50.9437C38.1664 52.1031 38.5136 54.7018 39.8462 55.7659C40.3222 56.1468 40.8374 56.4324 41.4253 56.5668C42.2652 56.7516 43.0324 56.5948 43.6819 55.9843C44.1747 55.5251 44.0907 54.9594 43.4691 54.713C43.1668 54.5954 42.8532 54.5114 42.5396 54.4218C41.4197 54.1137 41.5429 52.848 42.1532 52.3663C42.9484 51.739 43.8499 51.3694 44.8634 51.5654C48.4863 52.2655 50.4013 56.2364 48.2567 59.4624C47.6856 60.3249 46.98 61.0698 46.0953 61.6354C45.7817 61.8315 45.3954 61.9435 45.1714 62.3243C47.0528 67.0345 48.9455 71.7447 50.8101 76.466C54.2874 85.2647 57.7367 94.0746 61.2252 102.873C62.7426 106.693 64.2657 110.513 65.8896 114.282C70.0164 123.865 74.2105 133.419 78.3541 142.991C78.6677 143.719 79.054 144.262 79.8212 144.581C80.4875 144.862 80.9019 145.461 81.1427 146.155C81.2658 146.514 81.3778 146.872 81.5178 147.225C81.6914 147.651 81.6858 148.076 81.5178 148.491C81.2994 149.04 81.0923 149.605 80.8179 150.126C78.9924 153.559 76.3999 156.253 72.9842 158.13C72.5082 158.393 72.0434 158.667 71.5507 158.886C68.0902 160.415 64.6017 161.888 60.9396 162.879C60.7828 162.924 60.626 162.957 60.4748 163.013C60.1781 163.125 59.7077 163.081 59.6349 163.405C59.5229 163.921 59.5229 164.492 60.0157 164.89C60.2677 165.091 60.5084 165.298 60.6652 165.601C61.2084 166.671 61.0124 167.735 60.0941 168.53C59.5117 169.034 58.8118 169.336 58.1119 169.622C56.5552 170.266 54.9145 170.641 53.2571 170.882C49.4606 171.442 45.6529 171.93 41.8061 171.991C40.9941 172.002 40.1878 172.142 39.3759 172.142C35.1427 172.142 30.9486 171.795 26.8722 170.552C25.3155 170.076 23.8148 169.465 22.4318 168.597C21.7878 168.194 21.1775 167.746 20.7855 167.063C20.0632 165.825 20.1752 164.856 21.2335 163.865C21.5582 163.562 21.8998 163.338 21.911 162.834C21.9222 162.476 21.883 162.196 21.4742 162.1C21.1047 162.011 20.7407 161.904 20.3823 161.798C16.9554 160.79 13.6237 159.535 10.3816 158.018C6.47874 156.186 3.567 153.302 1.2376 149.745C0.789639 149.062 0.481666 148.317 0.156894 147.572C-0.0838852 147.012 -0.0222906 146.525 0.207289 146.015C0.705646 144.884 1.59597 144.15 2.79426 144.049C3.63979 143.977 3.86937 143.523 4.11575 142.896C6.00279 138.118 7.90662 133.347 9.79926 128.575C18.4113 106.867 27.029 85.1527 35.6354 63.4389C35.8706 62.8396 36.2458 62.2179 36.2346 61.613C36.2234 60.9241 35.3946 60.7057 34.9187 60.2913C31.8277 57.6253 31.0214 53.4584 32.2365 49.9356C32.998 47.7233 34.2803 45.8975 36.1954 44.5254C39.4039 42.2291 42.9316 41.4618 46.8064 42.2179C48.6711 42.5819 50.4685 43.1588 52.2492 43.8085C54.3322 44.5702 56.404 45.3599 58.4926 46.0991C60.9004 46.9561 63.381 47.4657 65.94 47.5553C67.8102 47.6169 69.6021 47.2977 71.2595 46.3904C71.7355 46.1272 72.2282 45.8807 72.273 45.2366C72.3122 44.6822 73.1577 44.7046 73.1073 44.1389C73.0738 43.7133 72.9338 43.2932 72.9898 42.8564C73.0738 42.2179 73.4321 41.753 73.9697 41.445C74.5968 41.0865 75.28 40.9353 76.0023 41.0305C76.2599 41.0641 76.5063 41.1313 76.7862 41.193L76.775 41.2602ZM73.5441 46.3176L73.6113 46.3456L73.4993 46.3344V46.2448L73.5385 46.3176H73.5441ZM37.2705 49.9412C37.2201 49.9244 37.1473 49.8796 37.1193 49.8964C36.1058 50.4901 35.7138 51.403 35.6802 52.5959C35.865 52.4839 35.9882 52.4503 36.0442 52.3719C36.5481 51.599 36.9009 50.7533 37.2425 49.902L37.2649 49.8236V49.9412H37.2705ZM143.275 106.474C143.23 104.772 143.157 103.153 143.146 101.529C143.112 97.8494 143.112 94.1698 143.096 90.4957C143.056 82.5988 143.023 74.7018 142.972 66.7993C142.967 65.7183 142.883 64.6374 142.832 63.5565C142.816 63.1868 142.653 62.946 142.256 62.918C141.612 62.8732 140.962 62.8564 140.335 62.6492C139.977 62.5259 139.691 62.666 139.546 63.0132C139.142 63.9597 138.739 64.9006 138.364 65.8583C134.573 75.4019 130.749 84.9343 127.008 94.4946C124.097 101.944 121.14 109.37 118.032 116.741C116.184 121.126 114.236 125.461 112.332 129.824C110.367 134.332 108.395 138.841 106.43 143.349C106.195 143.887 106.234 144.055 106.721 144.229C107.987 144.671 108.877 145.433 109.09 146.827C109.14 147.147 109.392 147.247 109.667 147.309C111.201 147.634 112.73 147.976 114.264 148.267C118.687 149.101 123.167 149.353 127.647 149.465C132.401 149.588 137.166 149.566 141.925 149.6C143.695 149.611 143.644 149.712 143.616 147.948C143.577 145.461 143.482 142.974 143.46 140.487C143.426 136.27 143.437 132.047 143.409 127.83C143.37 120.689 143.314 113.548 143.269 106.486L143.275 106.474ZM40.7982 106.172C40.8038 114.231 40.6694 122.291 40.563 130.35C40.4902 136.136 40.479 141.927 40.4398 147.718C40.4398 148.099 40.4342 148.474 40.451 148.855C40.4734 149.432 40.5854 149.549 41.0893 149.583C41.4141 149.6 41.7389 149.6 42.0637 149.594C47.6856 149.566 53.3075 149.622 58.9294 149.342C62.5523 149.163 66.1528 148.86 69.7252 148.261C71.1643 148.02 72.581 147.69 74.0145 147.399C74.5128 147.298 74.8656 147.152 74.9664 146.508C75.112 145.612 75.8119 145.035 76.5399 144.531C76.9262 144.268 77.6598 144.38 77.7046 143.82C77.7381 143.389 77.3854 142.924 77.195 142.476C77.0046 142.028 76.8086 141.58 76.6182 141.137C72.6986 132.12 68.7453 123.114 64.8705 114.075C63.1458 110.053 61.5388 105.976 59.9261 101.904C54.9873 89.4428 50.071 76.9757 45.1378 64.5086C44.9194 63.9597 44.6506 63.4221 44.3986 62.89C44.2979 62.6716 44.0851 62.5539 43.8667 62.6156C43.1836 62.8116 42.4892 62.8732 41.7837 62.918C41.2685 62.9516 41.1677 63.0804 41.1341 63.6461C41.1173 63.9149 41.1229 64.1893 41.1173 64.4582C40.9941 72.1367 41.0893 79.8208 40.899 87.505C40.7422 93.7217 40.815 99.9497 40.787 106.166L40.7982 106.172ZM4.51891 144.161C5.89639 145.41 5.99159 145.444 6.31636 146.519C6.48434 147.085 6.74192 147.326 7.29067 147.399C9.37929 147.684 11.4567 148.037 13.5453 148.278C15.3148 148.48 17.101 148.564 18.8761 148.698C20.9759 148.86 23.0757 149.056 25.1755 149.18C26.7938 149.275 28.4232 149.224 30.0415 149.342C32.9588 149.56 35.8762 149.482 38.7991 149.516C39.4095 149.521 39.5327 149.387 39.5551 148.737C39.6167 146.9 39.6951 145.063 39.7119 143.221C39.7566 137.592 39.7622 131.969 39.8126 126.34C39.8966 116.332 40.0142 106.323 40.087 96.3148C40.1486 87.5498 40.1654 78.7847 40.2158 70.0196C40.2214 68.6139 40.3054 67.2081 40.339 65.8023C40.3558 65.0462 40.3558 64.2902 40.3502 63.5285C40.3502 63.17 40.1878 62.9292 39.807 62.834C39.2807 62.7052 38.7375 62.6043 38.256 62.3803C36.9569 61.7867 37.1025 62.1675 36.6657 63.1252C36.6209 63.226 36.5929 63.3324 36.5537 63.4277C27.5609 86.088 18.5737 108.748 9.58087 131.409C7.90662 135.632 6.22677 139.849 4.51891 144.15V144.161ZM146.875 62.0443C145.895 62.3411 145.078 62.61 144.244 62.834C143.857 62.9348 143.706 63.1588 143.7 63.5173C143.695 64.1669 143.689 64.8166 143.7 65.4663C143.796 75.8556 143.896 86.2392 143.986 96.6285C144.014 99.6024 144.008 102.582 144.036 105.556C144.12 114.321 144.227 123.086 144.305 131.846C144.339 135.906 144.328 139.961 144.35 144.021C144.356 145.534 144.378 147.051 144.412 148.564C144.428 149.454 144.496 149.51 145.313 149.527C145.531 149.527 145.744 149.521 145.963 149.527C150.022 149.583 154.071 149.353 158.125 149.224C158.83 149.202 159.53 149.196 160.23 149.14C162.655 148.956 165.074 148.72 167.498 148.564C170.466 148.373 173.406 147.919 176.346 147.499C177.107 147.393 177.605 147.085 177.79 146.278C177.964 145.5 178.546 144.99 179.162 144.525C179.403 144.346 179.476 144.105 179.358 143.814C179.235 143.512 179.123 143.209 179.005 142.907C168.618 116.729 158.237 90.5517 147.85 64.3742C147.553 63.6237 147.234 62.8844 146.881 62.0443H146.875ZM90.0179 62.4139C89.7491 62.974 89.8723 63.5789 89.8723 64.1557C89.8723 72.9768 89.8891 81.7979 89.9115 90.6189C89.9619 110.916 90.0291 131.213 90.0627 151.51C90.0907 165.422 90.0795 179.328 90.0851 193.24C90.0851 193.996 90.1131 194.752 90.1411 195.514C90.1523 195.828 90.3538 196.007 90.6562 196.013C91.4122 196.024 92.1681 196.007 92.924 196.024C94.6599 196.069 94.5815 196.108 94.5983 194.523C94.6039 193.979 94.6319 193.442 94.6319 192.899C94.6711 150.143 94.7047 107.382 94.7383 64.6262C94.7383 64.0325 94.7439 63.4333 94.7271 62.8396C94.7215 62.6324 94.6375 62.4307 94.5871 62.2235C93.7864 62.3299 93.0472 62.4811 92.2969 62.5091C91.5521 62.5427 90.7962 62.4531 90.0123 62.4139H90.0179ZM93.148 205.511C94.6431 205.511 96.8661 205.416 99.0779 205.534C102.158 205.702 105.243 205.791 108.323 205.791C115.412 205.791 122.501 205.752 129.59 205.752C133.756 205.752 137.922 205.786 142.088 205.797C142.681 205.797 143.275 205.747 143.868 205.685C144.244 205.646 144.417 205.354 144.328 204.979C144.008 203.629 143.308 202.621 141.937 202.14C140.335 201.58 138.683 201.339 137.009 201.255C132.199 201.008 127.383 201.227 122.568 201.193C119.483 201.171 116.403 201.227 113.317 201.232C108.071 201.244 102.818 201.272 97.5716 201.232C95.623 201.221 93.7024 201.54 91.7481 201.501C90.7178 201.479 89.7155 201.255 88.6908 201.255C83.2817 201.255 77.8669 201.232 72.4578 201.221C67.3734 201.216 62.2835 201.266 57.1991 201.193C54.1698 201.148 51.1405 201.115 48.1111 201.238C47.036 201.283 45.9497 201.389 44.8914 201.574C44.0459 201.72 43.2116 201.988 42.4052 202.28C41.6773 202.549 41.1061 203.069 40.7758 203.786C39.9582 205.584 40.1318 205.747 41.9517 205.78C43.9507 205.819 45.9553 205.836 47.9543 205.831C52.6635 205.814 57.3671 205.758 62.0763 205.763C68.7341 205.775 75.3863 205.903 82.0386 205.679C85.4991 205.562 88.9596 205.399 93.148 205.506V205.511ZM42.9708 163.489V163.478C45.4066 163.478 47.8423 163.523 50.2725 163.461C51.9468 163.417 53.6098 163.226 55.2841 163.097C55.4297 163.086 55.4969 163.013 55.4465 162.89C55.4073 162.801 55.3401 162.694 55.2561 162.655C55.1105 162.588 54.9481 162.565 54.7913 162.526C53.3747 162.151 51.9356 161.96 50.4797 161.804C48.5311 161.596 46.5993 161.563 44.6562 161.815C42.9932 162.028 41.3245 162.179 39.6615 162.375C38.4576 162.515 37.2873 162.302 36.1226 162.084C35.6466 161.994 35.1874 161.809 34.7955 161.501C34.1907 161.025 33.9836 160.325 34.2859 159.625C34.4371 159.283 34.6667 158.975 34.8515 158.645C35.0475 158.292 34.9971 157.984 34.6667 157.816C34.2355 157.597 33.7932 157.39 33.334 157.228C32.6733 156.987 31.9957 156.808 31.3294 156.573C30.8702 156.41 30.4055 156.265 30.0247 155.94C29.5655 155.553 29.6103 154.892 30.1311 154.573C30.5511 154.315 31.0158 154.181 31.4918 154.063C32.8637 153.739 34.2635 153.593 35.6634 153.515C39.0623 153.324 42.4668 153.117 45.8769 153.162C47.3888 153.179 48.9063 153.145 50.4181 153.072C51.4932 153.022 52.5739 152.893 53.6434 152.742C54.1138 152.674 54.573 152.473 55.0209 152.288C55.3513 152.154 55.4297 151.717 55.1945 151.476C54.4498 150.72 53.621 150.21 52.4731 150.322C51.3476 150.434 50.2053 150.462 49.0742 150.468C45.7201 150.479 42.3716 150.412 39.0175 150.333C32.5837 150.182 26.1554 150.16 19.7328 149.622C15.1524 149.241 10.5832 148.821 6.05318 148.054C4.61411 147.813 3.16383 147.639 1.71916 147.443C1.31039 147.387 1.07521 147.662 1.2208 148.009C1.34959 148.306 1.47838 148.608 1.65196 148.877C3.69579 152.131 6.19877 154.92 9.65367 156.746C11.1375 157.53 12.6606 158.219 14.2173 158.846C21.3063 161.708 28.6864 163.204 36.3129 163.467C38.5304 163.545 40.7478 163.478 42.9652 163.478L42.9708 163.489ZM140.917 163.478C144.216 163.512 147.508 163.585 150.806 163.293C154.423 162.974 157.99 162.408 161.512 161.546C165.779 160.499 169.884 158.998 173.82 157.049C177.477 155.24 180.142 152.383 182.298 148.995C182.471 148.72 182.6 148.424 182.735 148.127C182.824 147.942 182.97 147.723 182.768 147.55C182.667 147.46 182.466 147.438 182.32 147.455C180.075 147.768 177.824 148.076 175.584 148.418C173.075 148.799 170.567 149.191 168.019 149.314C166.457 149.387 164.895 149.561 163.332 149.667C160.801 149.841 158.265 150.053 155.728 150.143C152.648 150.255 149.563 150.221 146.483 150.311C142.373 150.423 138.263 150.535 134.153 150.473C133.341 150.462 132.524 150.485 131.723 150.356C130.654 150.182 129.819 150.563 129.052 151.229C128.52 151.689 128.61 152.193 129.287 152.45C129.64 152.585 130.004 152.714 130.379 152.753C131.561 152.887 132.742 153.044 133.929 153.078C138.577 153.218 143.236 153.145 147.878 153.487C149.065 153.576 150.246 153.683 151.422 153.845C152.223 153.957 153.024 154.114 153.757 154.495C154.485 154.876 154.547 155.592 153.875 156.018C153.561 156.22 153.203 156.371 152.85 156.5C152.346 156.69 151.82 156.825 151.31 157.009C150.7 157.228 150.089 157.441 149.496 157.709C148.942 157.962 148.886 158.214 149.194 158.718C149.306 158.902 149.451 159.07 149.552 159.261C150.145 160.353 149.86 161.255 148.723 161.787C148.186 162.039 147.603 162.162 147.01 162.257C145.218 162.548 143.448 162.358 141.685 162.072C138.403 161.535 135.122 161.473 131.835 161.972C130.878 162.117 129.931 162.364 128.985 162.582C128.851 162.616 128.671 162.722 128.632 162.84C128.554 163.064 128.795 163.097 128.929 163.109C130.491 163.237 132.053 163.417 133.616 163.456C136.046 163.512 138.482 163.473 140.917 163.473V163.478ZM30.8086 155.2C31.027 155.632 31.3014 155.682 31.5534 155.766C32.2757 155.996 33.0036 156.203 33.7092 156.472C34.2635 156.685 34.8123 156.931 35.3106 157.245C35.9882 157.676 36.0946 158.23 35.697 158.914C35.5066 159.238 35.2658 159.535 35.0811 159.866C34.8851 160.219 35.0027 160.639 35.3554 160.851C35.6298 161.014 35.9266 161.16 36.2346 161.249C36.9625 161.456 37.7128 161.552 38.4744 161.58C40.1094 161.641 41.7053 161.311 43.3123 161.12C46.1737 160.773 49.0238 160.767 51.8852 161.12C53.6098 161.333 55.2841 161.753 56.936 162.28C57.8935 162.588 58.8118 162.604 59.7973 162.358C63.9633 161.316 67.9222 159.731 71.7691 157.866C75.3752 156.119 78.1301 153.414 80.0339 149.874C80.3139 149.353 80.6107 148.832 80.7171 148.239C80.7843 147.852 80.6275 147.589 80.2355 147.589C78.886 147.595 77.531 147.617 76.1815 147.656C75.9743 147.656 75.7671 147.763 75.5599 147.819C71.8027 148.888 67.9558 149.454 64.0809 149.852C61.4996 150.115 58.9014 150.227 56.3088 150.266C56.0736 150.266 55.7825 150.154 55.6145 150.434C55.6145 150.759 55.8776 150.91 56.0064 151.145C56.4096 151.902 56.2696 152.484 55.5641 152.943C55.1553 153.212 54.6962 153.369 54.2146 153.47C53.2627 153.677 52.294 153.772 51.3196 153.834C48.4023 154.013 45.485 154.069 42.562 154.069C39.8014 154.069 37.0465 154.192 34.3027 154.478C33.1324 154.601 31.9285 154.64 30.8086 155.2ZM128.615 150.3C126.073 150.165 123.749 150.165 121.431 149.969C117.008 149.594 112.629 148.978 108.345 147.774C108.088 147.701 107.819 147.651 107.556 147.639C106.475 147.6 105.394 147.578 104.313 147.555C104.101 147.555 103.882 147.561 103.664 147.583C103.334 147.611 103.16 147.83 103.255 148.121C103.39 148.53 103.507 148.956 103.709 149.331C104.537 150.921 105.517 152.406 106.721 153.739C108.687 155.906 111.1 157.441 113.743 158.594C116.319 159.715 118.923 160.784 121.61 161.619C122.54 161.904 123.486 162.134 124.421 162.403C125.228 162.632 126.017 162.61 126.812 162.336C127.221 162.196 127.641 162.078 128.055 161.966C130.514 161.277 133.011 160.879 135.57 160.863C138.067 160.84 140.537 160.991 142.995 161.434C144.12 161.636 145.263 161.636 146.394 161.507C147.032 161.434 147.67 161.272 148.275 161.059C148.981 160.812 149.154 160.275 148.802 159.636C148.645 159.35 148.426 159.104 148.264 158.824C147.956 158.281 148.018 157.749 148.505 157.385C148.886 157.099 149.322 156.853 149.77 156.685C150.728 156.321 151.713 156.024 152.682 155.688C152.917 155.609 153.192 155.536 153.164 155.111C152.716 154.993 152.256 154.842 151.781 154.752C149.759 154.366 147.698 154.276 145.649 154.17C143.437 154.058 141.214 154.047 138.997 154.058C136.611 154.069 134.237 153.89 131.863 153.755C131.113 153.716 130.362 153.559 129.618 153.425C129.136 153.335 128.688 153.139 128.296 152.837C127.77 152.428 127.624 151.846 127.932 151.252C128.078 150.972 128.296 150.731 128.61 150.294L128.615 150.3ZM93.1872 210.003C96.4237 209.969 100.427 209.897 104.425 209.902C114.919 209.919 125.407 209.964 135.9 210.009C137.849 210.014 139.798 210.02 141.741 210.132C143.527 210.233 145.307 210.227 147.094 210.221C147.575 210.221 148.062 210.126 148.533 210.025C148.998 209.93 149.143 209.645 149.042 209.197C148.762 207.953 147.883 207.253 146.763 206.883C145.795 206.559 144.776 206.396 143.728 206.564C143.303 206.631 142.872 206.671 142.441 206.671C140.223 206.693 138.006 206.715 135.788 206.699C132.759 206.676 129.73 206.581 126.706 206.592C118.379 206.626 110.053 206.878 101.732 206.463C98.6019 206.307 95.4662 206.379 92.3305 206.379C89.2507 206.379 86.171 206.335 83.0913 206.452C81.417 206.519 79.7428 206.654 78.0685 206.654C71.7971 206.654 65.52 206.615 59.2486 206.592C58.3302 206.592 57.4119 206.575 56.4936 206.587C52.7083 206.626 48.9231 206.682 45.1378 206.704C43.8387 206.715 42.534 206.743 41.2517 206.587C40.255 206.463 39.3143 206.564 38.3624 206.732C37.5448 206.883 36.8505 207.304 36.2794 207.914C35.9042 208.317 35.6298 208.776 35.6074 209.353C35.5962 209.65 35.7082 209.88 36.005 209.975C36.6265 210.182 37.2761 210.238 37.9256 210.221C40.4678 210.154 43.0044 210.042 45.5465 210.025C55.8217 209.958 66.0968 209.902 76.3719 209.885C81.725 209.874 87.0781 209.953 93.1928 209.997L93.1872 210.003ZM111.436 46.6928C110.809 47.4937 110.786 47.6393 111.212 48.233C111.862 49.1291 112.69 49.7956 113.737 50.1876C115.451 50.8317 117.215 50.9325 119.012 50.6973C121.913 50.3221 124.74 49.6108 127.535 48.7483C130.687 47.7794 133.828 46.8048 137.132 46.452C139.305 46.2224 141.438 46.2672 143.555 46.8832C144.988 47.3033 146.243 48.0146 147.363 48.9723C148.158 49.65 148.74 50.4901 149.059 51.4982C149.227 52.0303 149.266 52.5623 149.087 53.0888C148.891 53.6657 148.236 53.8337 147.777 53.4472C147.396 53.128 147.15 52.708 146.931 52.2711C146.651 51.6886 146.338 51.1118 146.091 50.5181C145.173 48.3058 143.432 47.3537 141.136 47.2361C141.08 47.2361 141.029 47.2249 140.973 47.2249C139.187 47.1689 137.412 47.1913 135.637 47.4937C133.873 47.7962 132.149 48.2218 130.441 48.7315C127.697 49.5548 124.97 50.4229 122.159 50.9997C120.138 51.4142 118.111 51.6998 116.044 51.5262C113.855 51.347 111.934 50.6133 110.574 48.7763C110.451 48.6083 110.294 48.4626 110.143 48.3058C109.767 48.6027 109.829 49.0059 109.734 49.3475C109.566 49.9748 109.454 50.6133 109.314 51.2406C109.179 51.8342 109.202 51.9127 109.762 52.3047C111.318 53.4024 112.993 54.2537 114.807 54.853C117.663 55.7939 120.524 55.9563 123.408 55.021C124.432 54.685 125.468 54.3546 126.46 53.9345C128.705 52.9936 130.928 52.0135 133.151 51.0277C135.144 50.1428 137.216 49.5492 139.383 49.3251C140.968 49.1627 142.519 49.3755 143.952 50.1148C145.369 50.8485 146.153 51.9743 146.063 53.6433C145.963 55.5979 144.445 57.2165 142.474 57.4069C141.472 57.5021 140.525 57.3789 139.753 56.6452C138.801 55.7435 138.974 54.5898 140.145 54.0129C140.29 53.9401 140.441 53.8897 140.598 53.8337C140.884 53.7273 141.27 53.7889 141.388 53.3912C141.461 53.1392 141.147 52.8312 140.66 52.6295C139.921 52.3215 139.187 52.3607 138.454 52.6575C135.811 53.7329 134.881 56.746 136.511 59.1039C138.28 61.669 140.873 62.3635 143.779 62.0331C146.019 61.7755 147.833 60.5601 149.322 58.9135C151.181 56.8581 151.859 54.3994 151.366 51.6886C150.851 48.8435 149.362 46.5864 146.937 44.9734C145.851 44.2509 144.697 43.6629 143.437 43.3044C141.757 42.8228 140.072 42.6267 138.314 42.9124C136.275 43.2484 134.31 43.8085 132.378 44.5142C130.603 45.1638 128.828 45.8247 127.059 46.4912C124.259 47.5441 121.392 48.2778 118.385 48.3954C116.414 48.4738 114.499 48.261 112.718 47.3425C112.287 47.1185 111.856 46.8944 111.43 46.676L111.436 46.6928ZM74.0873 48.2218C73.9305 48.2722 73.8633 48.2722 73.8353 48.3058C73.6953 48.4682 73.5497 48.6307 73.4265 48.7987C72.189 50.4901 70.4308 51.2406 68.4318 51.487C66.8135 51.6886 65.1952 51.5934 63.5826 51.3302C60.5868 50.8373 57.6807 50.0084 54.7913 49.1067C52.5179 48.3954 50.2389 47.7233 47.8703 47.4153C45.7201 47.1353 43.5755 47.0513 41.4141 47.4769C40.0254 47.7513 39.0567 48.5074 38.3904 49.6948C37.9648 50.4453 37.5952 51.2294 37.2089 52.0023C36.9681 52.4895 36.7385 52.9824 36.3353 53.3576C36.0946 53.5817 35.8034 53.7721 35.4562 53.6377C35.1315 53.5144 34.9467 53.2512 34.9019 52.8984C34.8067 52.1815 34.9019 51.5038 35.2098 50.8429C35.6634 49.8852 36.3633 49.1515 37.1921 48.5242C39.1127 47.0681 41.3245 46.4576 43.6931 46.3232C45.5409 46.2224 47.3608 46.48 49.175 46.788C51.2581 47.1409 53.2739 47.7626 55.2897 48.3842C58.4422 49.3587 61.6115 50.2437 64.8929 50.6749C66.6903 50.9101 68.443 50.8149 70.1676 50.2157C71.3435 49.8068 72.2114 49.0339 72.9282 48.0482C73.1913 47.6897 73.1242 47.3425 72.9114 46.9953C72.7882 46.788 72.6202 46.6648 72.385 46.7768C72.0434 46.9392 71.7187 47.1353 71.3827 47.3145C69.714 48.2162 67.8942 48.4906 66.0464 48.4346C63.3866 48.3506 60.7828 47.897 58.2686 46.9673C56.04 46.1384 53.8058 45.3151 51.5716 44.5142C49.6902 43.8365 47.7808 43.2652 45.7929 42.9572C41.8733 42.3523 38.48 43.5284 35.6466 46.1496C33.2108 48.401 32.1301 51.2854 32.6341 54.6514C33.026 57.2949 34.5211 59.1935 36.6825 60.6441C39.0455 62.2291 41.5541 62.5707 44.2531 61.6242C45.6977 61.1202 46.8008 60.2129 47.6072 58.9415C49.1134 56.5612 48.0047 53.4808 45.3338 52.5903C44.4042 52.2823 43.5251 52.3719 42.7356 53.0104C42.5172 53.1896 42.534 53.5761 42.7916 53.6713C43.1444 53.8001 43.5251 53.8729 43.8611 54.0297C44.981 54.5562 45.1882 55.6259 44.3539 56.5332C43.9787 56.9421 43.5139 57.2109 42.9764 57.3453C41.1677 57.7878 39.1519 56.8693 38.312 55.2115C37.4385 53.492 37.8976 51.5934 39.4711 50.4677C40.143 49.986 40.899 49.7228 41.6941 49.5268C43.4299 49.0955 45.1322 49.3363 46.8344 49.6948C48.6431 50.0812 50.3397 50.7925 52.014 51.5542C54.6234 52.7416 57.2215 53.9401 59.9597 54.8194C61.4044 55.2843 62.8658 55.6763 64.4001 55.6595C67.6814 55.6203 70.666 54.6178 73.4041 52.848C73.8913 52.5343 74.6024 52.3663 74.7424 51.767C74.8432 51.347 74.5408 50.8429 74.4512 50.3725C74.3168 49.6836 74.2105 48.9947 74.0817 48.2218H74.0873ZM91.9889 200.588C94.7663 200.515 97.3588 200.448 99.957 200.381C104.011 200.28 108.071 200.247 112.125 200.403C114.936 200.515 117.752 200.594 120.563 200.42C122.562 200.297 124.561 200.275 126.566 200.347C127.266 200.375 127.971 200.325 128.666 200.252C129.349 200.179 129.539 199.765 129.287 199.087C128.851 197.911 127.96 197.267 126.779 197.015C125.776 196.802 124.763 196.651 123.721 196.662C122.153 196.673 120.586 196.869 119.029 196.892C113.189 196.981 107.343 196.981 101.502 196.981C96.7429 196.981 91.9833 196.836 87.2237 196.909C81.0587 197.004 74.888 197.037 68.7229 196.97C67.1551 196.953 65.5928 196.931 64.0249 196.774C62.6307 196.634 61.214 196.673 59.8085 196.724C59.0582 196.752 58.3022 196.903 57.5799 197.105C56.4096 197.43 55.5865 198.158 55.3121 199.401C55.2169 199.838 55.4073 200.191 55.8329 200.224C56.6392 200.291 57.4511 200.325 58.2574 200.336C59.8813 200.353 61.5052 200.269 63.1234 200.37C66.2591 200.566 69.3949 200.515 72.5306 200.392C76.3719 200.241 80.2131 200.297 84.0544 200.347C86.759 200.381 89.4635 200.504 91.9833 200.583L91.9889 200.588ZM105.747 47.7065C105.747 47.1185 105.764 46.2 105.741 45.2814C105.725 44.7214 105.596 44.615 105.069 44.6206C101.827 44.643 98.5907 44.5422 95.3486 44.4638C89.5699 44.3237 83.7856 44.3573 78.0013 44.3237C77.9453 44.3237 77.8949 44.3237 77.8389 44.3237C77.5702 44.3293 77.4526 44.5086 77.4526 44.7382C77.4638 46.0879 77.475 47.4377 77.5198 48.7875C77.531 49.2131 77.6262 49.6388 77.7046 50.0644C77.7605 50.3949 77.9285 50.6581 78.2029 50.8653C79.11 51.5486 80.006 52.2487 80.9075 52.9376C81.2154 53.1728 81.5458 53.352 81.949 53.3184C83.2425 53.2176 84.5304 53.1168 85.8238 52.9992C89.2228 52.6911 92.6105 52.6407 96.015 52.9824C97.9468 53.1784 99.8954 53.2288 101.833 53.4024C103.412 53.5425 104.476 52.6463 105.523 51.6886C105.73 51.4982 105.786 51.2238 105.792 50.9437C105.82 49.9748 105.988 49.0059 105.758 47.7009L105.747 47.7065ZM97.2413 128.446C97.2413 128.446 97.2748 128.446 97.2916 128.446C97.2077 121.411 97.1013 114.377 97.0453 107.343C96.9949 101.495 97.0061 95.654 96.9893 89.8069C96.9669 83.1476 96.9389 76.494 96.9109 69.8348C96.8997 67.3481 96.8829 64.8558 96.8661 62.3691C96.8661 61.9939 96.8493 61.613 96.8269 61.2378C96.8101 61.0026 96.5637 60.9129 96.3565 61.0362C95.8414 61.3386 95.623 61.7587 95.6342 62.3747C95.6566 63.9989 95.6174 65.6231 95.6118 67.2473C95.5838 90.1933 95.6454 113.139 95.455 136.091C95.3542 148.373 95.4046 160.661 95.3934 172.943C95.3878 180.034 95.3934 187.124 95.3934 194.215C95.3934 194.596 95.3878 194.971 95.4046 195.352C95.427 195.85 95.5782 195.979 96.1214 196.007C97.622 196.085 97.6332 196.074 97.6388 194.534C97.6388 194.372 97.6388 194.209 97.6388 194.047C97.482 183.277 97.566 172.506 97.398 161.742C97.2301 150.647 97.286 139.552 97.2468 128.457L97.2413 128.446ZM87.5933 128.58C87.5933 128.58 87.5597 128.58 87.5429 128.58C87.4645 132.803 87.3525 137.021 87.3189 141.243C87.2685 147.628 87.2797 154.013 87.2573 160.403C87.2349 166.088 87.1901 171.767 87.1677 177.452C87.1453 183.243 87.2069 189.034 86.9997 194.825C86.9605 195.979 87.0445 196.018 88.17 196.007C89.1444 196.001 89.2003 195.951 89.2227 195.032C89.2339 194.601 89.2227 194.164 89.2227 193.733C89.2115 185.774 89.1948 177.822 89.1892 169.863C89.1612 135.928 89.1388 101.994 89.1108 68.0594C89.1108 66.2728 89.066 64.4862 89.0716 62.7052C89.0716 62.1451 88.8476 61.7923 88.366 61.5514C88.0524 61.3946 87.8789 61.4842 87.8565 61.8595C87.8453 62.0219 87.8453 62.1843 87.8453 62.3467C87.7949 70.7869 87.8733 79.2328 87.6493 87.673C87.5653 90.7534 87.5989 93.8393 87.5989 96.9253C87.5989 107.477 87.5989 118.034 87.5989 128.586L87.5933 128.58ZM84.5528 29.1907C84.6087 30.4564 84.8887 31.5486 85.1967 32.6407C85.9974 35.4747 87.8173 37.2669 90.6562 38.0398C91.2722 38.2078 91.7929 38.1406 92.3529 37.8269C94.6263 36.5444 96.2221 34.5897 97.6836 32.5007C98.0252 32.0078 97.9748 31.5206 97.7452 30.9773C96.2389 27.3313 93.6632 24.8222 89.9171 23.534C88.5228 23.058 87.2237 23.3716 86.311 24.5309C85.2191 25.9199 84.6535 27.5385 84.5528 29.1851V29.1907ZM92.2633 12.4559C92.6497 12.4783 93.0248 12.5007 93.4 12.5175C94.7719 12.5735 96.0766 12.2598 97.3532 11.8006C98.2884 11.4645 98.8371 10.7981 99.0387 9.80674C99.3411 8.33937 98.6635 6.51915 97.398 5.70705C96.2109 4.94535 94.9007 4.41889 93.5176 4.15566C92.5041 3.96524 91.485 4.01564 90.477 4.30688C89.5419 4.58131 88.6572 4.97336 87.7781 5.38221C86.2886 6.08229 85.6839 7.33684 85.5719 8.88263C85.4599 10.4172 86.0702 11.3301 87.5037 11.8622C87.8565 11.991 88.226 12.0862 88.5844 12.187C89.7939 12.5399 91.0258 12.5623 92.2633 12.4503V12.4559ZM84.7823 10.8093C84.6256 11.3469 84.8551 11.8566 84.9503 12.3551C85.2863 14.0745 85.9694 15.6483 87.0389 17.0484C87.7165 17.9333 88.5564 18.5718 89.6595 18.835C91.4793 19.2775 93.288 19.2719 95.1022 18.807C95.9702 18.583 96.7037 18.1406 97.2693 17.4629C98.8035 15.6315 99.6882 13.5256 99.873 11.1341C99.8786 11.0445 99.8114 10.9437 99.7778 10.8485C98.5235 12.299 98.0868 12.6407 96.1549 13.0271C93.4896 13.5648 90.8018 13.5648 88.1364 12.9207C87.7725 12.8311 87.4085 12.7135 87.0557 12.5847C86.3278 12.3214 85.6951 11.9238 85.2807 11.2461C85.1687 11.0613 85.0735 10.8653 84.7767 10.8037L84.7823 10.8093ZM45.485 166.76C47.9319 166.839 50.8325 166.547 53.7106 166.066C54.9817 165.853 56.2304 165.478 57.4847 165.153C57.7927 165.074 58.1063 164.94 58.3638 164.755C58.655 164.548 58.6886 164.201 58.5934 163.876C58.5038 163.557 58.2238 163.523 57.9439 163.562C57.3559 163.641 56.7736 163.753 56.18 163.82C52.3668 164.257 48.5311 164.352 44.6954 164.447C41.2909 164.531 37.8864 164.408 34.4875 164.217C31.3574 164.044 28.2553 163.635 25.1811 163.002C24.5484 162.873 23.9156 162.728 23.2773 162.61C23.0477 162.565 22.8573 162.672 22.7509 162.885C22.6445 163.092 22.6725 163.31 22.7957 163.495C23.0085 163.825 23.3445 164.01 23.6972 164.15C24.8004 164.593 25.9315 164.957 27.1074 165.164C29.9295 165.662 32.7629 165.993 35.6186 166.223C38.7431 166.48 41.8621 166.743 45.4794 166.76H45.485ZM138.834 166.693C140.022 166.693 141.214 166.755 142.396 166.682C144.983 166.519 147.564 166.318 150.14 166.083C152.503 165.864 154.86 165.573 157.19 165.108C158.248 164.895 159.284 164.582 160.281 164.161C160.628 164.016 160.997 163.859 161.171 163.506C161.255 163.333 161.255 163.086 161.21 162.885C161.16 162.644 160.941 162.576 160.706 162.604C160.544 162.627 160.387 162.66 160.23 162.7C155.112 163.921 149.893 164.279 144.652 164.43C140.441 164.548 136.231 164.397 132.025 164.173C131.219 164.128 130.413 164.049 129.606 163.965C128.375 163.837 127.143 163.68 125.911 163.551C125.564 163.512 125.323 163.825 125.384 164.184C125.44 164.514 125.552 164.817 125.905 164.934C126.465 165.125 127.025 165.326 127.602 165.472C131.281 166.419 135.032 166.771 138.829 166.693H138.834ZM85.0623 34.9762C85.0119 35.0042 84.9447 35.0154 84.9223 35.0546C83.7688 36.8916 83.3657 38.9415 83.2873 41.0697C83.2705 41.501 83.4441 41.6746 83.8472 41.697C84.3344 41.725 84.8215 41.7418 85.3087 41.7418C87.2013 41.7362 89.0996 41.6522 90.9866 41.725C93.9151 41.837 96.8213 41.5066 99.7386 41.473C99.845 41.473 99.9682 41.473 100.052 41.4226C100.175 41.3442 100.371 41.2098 100.36 41.1145C100.265 40.1568 100.321 39.1543 99.6546 38.3366C99.3523 37.967 99.1563 37.883 98.6915 38.1182C96.5861 39.1767 94.3407 39.3559 92.0449 39.1207C89.3963 38.8463 87.1565 37.7933 85.6111 35.5195C85.4655 35.301 85.3311 35.0602 85.0567 34.9706L85.0623 34.9762ZM41.7109 169.32C42.9876 169.421 44.4882 169.152 46.0057 169.112C48.0663 169.056 50.099 168.788 52.1148 168.362C53.8058 168.004 55.4913 167.611 57.1151 167.007C57.8711 166.727 58.6326 166.435 59.2486 165.881C59.2989 165.836 59.2822 165.702 59.271 165.618C59.271 165.59 59.1814 165.55 59.1366 165.556C58.9798 165.573 58.8174 165.59 58.6662 165.64C54.1138 167.253 49.3822 167.606 44.6002 167.567C40.3782 167.533 36.173 167.191 31.9789 166.727C30.3663 166.547 28.7592 166.329 27.1689 166.026C25.6851 165.746 24.218 165.36 22.8629 164.643C22.6165 164.514 22.3702 164.391 22.1294 164.632C21.9614 164.8 22.1294 165.102 22.5997 165.321C23.4789 165.73 24.3692 166.127 25.2763 166.48C30.4783 168.524 35.8986 169.348 41.7109 169.32ZM142.558 169.32C143.964 169.348 145.363 169.208 146.763 169.14C151.131 168.922 155.28 167.808 159.334 166.267C160.04 165.998 160.717 165.668 161.4 165.338C161.585 165.248 161.736 165.074 161.871 164.912C161.91 164.862 161.86 164.722 161.826 164.632C161.809 164.587 161.742 164.526 161.708 164.531C161.501 164.57 161.288 164.593 161.104 164.682C159.586 165.422 157.968 165.847 156.316 166.116C151.999 166.822 147.648 167.208 143.28 167.438C140.206 167.595 137.127 167.651 134.052 167.387C131.577 167.18 129.125 166.805 126.734 166.099C126.168 165.931 125.608 165.724 125.043 165.556C124.959 165.528 124.819 165.578 124.752 165.64C124.718 165.668 124.757 165.836 124.813 165.898C124.92 166.015 125.048 166.116 125.188 166.195C126.118 166.76 127.143 167.096 128.179 167.421C132.865 168.888 137.698 169.236 142.569 169.32H142.558ZM162.677 165.59C162.106 165.881 161.546 166.217 160.953 166.469C156.456 168.407 151.786 169.684 146.881 169.986C144.126 170.154 141.371 170.121 138.616 170.009C136.779 169.936 134.954 169.773 133.145 169.432C130.116 168.86 127.098 168.267 124.371 166.727C124.326 166.699 124.27 166.687 124.22 166.676C123.996 166.631 123.923 166.805 123.94 166.951C123.962 167.152 124.013 167.376 124.125 167.544C124.46 168.06 124.998 168.345 125.536 168.597C126.616 169.107 127.747 169.465 128.912 169.712C133.308 170.647 137.776 171.022 142.25 171.258C145.162 171.414 148.079 171.392 150.985 171.022C154.004 170.641 156.943 170.009 159.721 168.732C160.409 168.412 161.065 168.043 161.675 167.589C162.168 167.225 162.537 166.771 162.75 166.2C162.828 165.993 162.845 165.78 162.677 165.584V165.59ZM21.4182 165.668C21.3678 165.758 21.2839 165.847 21.2783 165.942C21.2783 166.099 21.3007 166.267 21.3567 166.413C21.5582 166.934 21.9502 167.303 22.387 167.634C23.1709 168.222 24.0444 168.642 24.9403 169.028C28.4176 170.513 32.0965 171.073 35.8258 171.269C41.3469 171.56 46.8288 170.994 52.2884 170.244C53.6714 170.053 55.0377 169.689 56.3984 169.364C57.2943 169.152 58.1455 168.793 58.9518 168.345C59.4277 168.082 59.8813 167.768 60.0493 167.208C60.0885 167.074 60.0605 166.883 59.9821 166.766C59.8869 166.626 59.7133 166.637 59.5565 166.732C58.4926 167.393 57.3335 167.824 56.1408 168.188C53.0275 169.135 49.847 169.723 46.6105 169.941C43.8611 170.126 41.1005 170.149 38.3456 170.031C36.7329 169.964 35.1091 169.829 33.5132 169.572C29.2856 168.883 25.2371 167.606 21.407 165.662L21.4182 165.668ZM83.556 30.154C81.9042 30.6581 80.7675 31.7166 79.9164 33.0776C78.3821 35.5307 77.7269 38.2358 77.7941 41.1145C77.8053 41.5402 77.9621 41.697 78.3877 41.7026C79.4684 41.7082 80.5547 41.7082 81.6354 41.6914C82.1898 41.6802 82.3353 41.5626 82.3745 41.0585C82.5705 38.7175 83.0969 36.4716 84.2168 34.3825C84.368 34.1025 84.508 33.8001 84.4184 33.4528C84.1328 32.3607 83.8472 31.2685 83.556 30.1484V30.154ZM91.9273 55.9731C94.2511 55.9731 96.5693 55.9731 98.8931 55.9731C99.2179 55.9731 99.5426 55.9899 99.8618 55.9507C100.556 55.8611 101.055 55.4971 101.34 54.8418C101.497 54.4834 101.351 54.1977 100.943 54.1641C99.817 54.0633 98.6859 53.9737 97.5548 53.8953C95.7798 53.7721 94.0047 53.6265 92.2241 53.5537C89.6819 53.4472 87.1565 53.7497 84.6256 53.8673C84.144 53.8897 83.6624 53.9793 83.1809 54.0521C82.6713 54.1305 82.5033 54.517 82.7497 54.993C83.0185 55.5027 83.4273 55.8387 83.9928 55.9339C84.3624 55.9956 84.7431 55.9843 85.1239 55.9843C87.3917 55.9843 89.6595 55.9843 91.9273 55.9843V55.9731ZM91.4738 22.9459C91.4738 23.0299 91.4738 23.114 91.4738 23.1924C91.7985 23.3772 92.1177 23.5676 92.4481 23.7356C93.4728 24.2453 94.3407 24.9566 95.1806 25.7239C97.0621 27.4489 98.1764 29.6444 99.0499 31.9854C99.1787 32.3327 99.2459 32.7247 99.2347 33.0888C99.2123 34.0017 99.2515 34.9202 99.0331 35.8219C98.9715 36.0739 98.8931 36.3372 99.1059 36.6284C99.8954 36.0459 100.226 35.1778 100.478 34.3097C101.245 31.655 100.859 29.0787 99.7442 26.6032C99.5091 26.0767 99.1339 25.5727 98.7195 25.1638C98.0364 24.4805 97.2748 23.8757 96.5469 23.2316C96.2893 23.0075 96.0038 22.9291 95.6566 22.9347C94.2567 22.9515 92.8624 22.9403 91.4626 22.9403L91.4738 22.9459ZM101.872 32.0694C101.39 32.9039 101.57 33.8673 101.251 34.7186C100.909 35.6259 100.394 36.438 99.9122 37.2893C100.797 38.2414 101.15 39.3447 101.167 40.5713C101.167 40.6777 101.189 40.7841 101.2 40.8905C101.234 41.2658 101.463 41.445 101.805 41.5458C102.65 41.7866 103.513 41.7026 104.369 41.7082C105.002 41.7082 105.4 41.2882 105.282 40.6721C104.801 38.191 104.341 35.6987 103.037 33.4752C102.746 32.9768 102.477 32.4335 101.872 32.075V32.0694ZM89.6875 43.5676C89.6875 43.5676 89.6875 43.5284 89.6875 43.5116C91.9553 43.5732 94.2231 43.6405 96.4965 43.6853C97.846 43.7133 99.2011 43.7189 100.551 43.7133C100.954 43.7133 101.094 43.534 101.122 43.0972C101.155 42.5819 101.004 42.3915 100.517 42.3635C100.192 42.3467 99.8674 42.3635 99.5427 42.3635C97.2749 42.4251 95.0014 42.5315 92.7336 42.5371C89.1668 42.5539 85.5943 42.5091 82.0274 42.4867C81.0027 42.4811 79.9724 42.4475 78.9476 42.4531C78.6901 42.4531 78.4269 42.5595 78.1805 42.6491C78.1021 42.6771 78.0013 42.8228 78.0125 42.9012C78.0349 43.0524 78.1021 43.2652 78.2085 43.31C78.4493 43.4108 78.7237 43.4612 78.9812 43.4724C80.006 43.5116 81.0363 43.5452 82.061 43.5508C84.6032 43.562 87.1453 43.5508 89.6819 43.5508L89.6875 43.5676ZM108.535 41.865C108.345 41.9042 108.188 41.921 108.032 41.9658C107.421 42.1563 107.152 42.7387 106.727 43.1364C106.391 43.4444 106.587 43.8421 106.604 44.2061C106.62 44.5814 106.637 44.9566 106.637 45.3375C106.654 46.9 106.676 48.4626 106.665 50.0196C106.66 50.7365 106.788 51.4086 107.13 52.0359C107.298 52.3383 107.718 52.3775 107.925 52.0863C108.11 51.8286 108.283 51.5486 108.412 51.2574C108.715 50.5629 108.888 49.8292 108.961 49.0731C109.129 47.4097 109.454 45.7743 109.991 44.1893C110.075 43.9373 110.165 43.6797 110.204 43.4164C110.277 42.9068 110.042 42.4251 109.583 42.2123C109.247 42.0555 108.871 41.9714 108.535 41.865ZM75.5711 41.8874C74.1433 42.0835 73.5945 42.5315 73.9529 44.0157C74.0313 44.3293 74.1545 44.6318 74.2497 44.9398C74.5632 45.9759 74.7984 47.0233 74.9216 48.1042C75 48.7987 75.0952 49.4988 75.252 50.182C75.4032 50.8653 75.6103 51.543 76.0751 52.0975C76.3103 52.3831 76.6686 52.3383 76.8814 52.0247C77.0998 51.6942 77.2006 51.347 77.0886 50.9549C76.6406 49.3811 76.5846 47.7626 76.5622 46.144C76.5454 45.063 76.5063 43.9821 76.5511 42.9012C76.5791 42.2347 76.1759 41.9266 75.5711 41.8874ZM92.672 58.5943C93.6912 58.5943 95.3374 58.275 96.9949 58.0398C97.1013 58.023 97.2077 57.995 97.3028 57.9502C97.5212 57.8606 97.678 57.4237 97.6164 57.0989C97.566 56.8469 97.3812 56.7572 97.1517 56.746C96.8829 56.7292 96.6141 56.7236 96.3397 56.7236C93.4224 56.7236 90.505 56.7236 87.5933 56.7236C87.3245 56.7236 87.0557 56.7236 86.787 56.7516C86.4006 56.7852 86.2438 57.0485 86.3782 57.4349C86.4902 57.7486 86.6358 58.0006 87.0333 58.051C88.6908 58.2638 90.337 58.5943 92.6776 58.5887L92.672 58.5943ZM87.3413 59.0031C87.7725 59.6304 87.9965 60.3249 88.6348 60.7001C90.5778 61.8427 92.6105 61.9995 94.6767 61.109C95.5782 60.7225 96.2893 60.056 96.8045 59.0031C95.1358 59.1487 93.596 59.384 92.0561 59.384C90.505 59.384 88.9484 59.1431 87.3357 59.0031H87.3413ZM92.4089 20.0336C91.8153 20.0336 91.2274 20.0504 90.6338 20.028C89.2004 19.972 89.2675 19.9328 89.2284 21.4394C89.2172 21.9322 89.4019 22.145 89.8835 22.1562C91.4962 22.1842 93.1088 22.1954 94.7215 22.1954C95.1246 22.1954 95.3598 21.9882 95.3598 21.6354C95.371 19.7928 95.4494 20.0056 93.8591 20.0336C93.3776 20.0448 92.8904 20.0336 92.4089 20.0336ZM93.2768 3.28755C93.9375 3.42197 94.3071 3.50038 94.6767 3.56759C95.0182 3.62919 95.203 3.44997 95.1638 3.14754C94.9175 1.2377 92.9856 0.604828 91.6473 0.918466C90.6338 1.15369 89.8891 1.70816 89.5587 2.74429C89.3571 3.37716 89.5531 3.60119 90.2083 3.51158C91.3226 3.35476 92.4201 2.93471 93.2712 3.29315L93.2768 3.28755ZM98.4395 33.1952C97.678 33.8673 97.2916 34.5113 96.7933 35.0546C96.2445 35.6483 95.679 36.2251 95.1526 36.8356C94.6711 37.3957 93.8703 37.6197 93.4728 38.4038C94.8167 38.4486 96.015 38.1854 97.2021 37.8437C97.5996 37.7317 97.8236 37.4797 97.9524 37.0821C98.3388 35.8947 98.2828 34.6738 98.4395 33.1952ZM183.026 146.497C182.628 145.472 181.951 145.108 181.133 144.912C180.864 144.845 180.607 144.85 180.344 144.934C179.465 145.203 178.843 145.741 178.524 146.615C178.417 146.906 178.602 147.18 178.91 147.13C180.237 146.934 181.559 146.727 183.031 146.497H183.026ZM1.08641 146.519C2.3687 146.71 3.64539 146.9 4.92208 147.091C5.13486 147.124 5.37564 147.186 5.47643 146.951C5.53243 146.827 5.48203 146.631 5.43164 146.486C5.15726 145.724 4.58051 145.27 3.84697 144.985C3.23663 144.744 2.67108 144.89 2.13912 145.17C1.61837 145.444 1.09761 145.763 1.08641 146.519ZM76.8086 146.872C77.447 146.805 77.9285 146.738 78.4101 146.71C78.8916 146.682 79.3732 146.704 79.8548 146.671C79.9892 146.659 80.1907 146.564 80.2243 146.463C80.2635 146.34 80.1963 146.138 80.1067 146.021C79.0484 144.581 77.1782 144.632 76.0415 146.127C75.8063 146.435 75.9407 146.755 76.3383 146.816C76.5511 146.85 76.7638 146.867 76.8142 146.872H76.8086ZM108.138 146.497C107.998 146.004 107.645 145.679 107.253 145.399C106.172 144.626 104.644 144.934 103.877 146.06C103.72 146.295 103.843 146.648 104.106 146.665C105.17 146.738 106.228 146.811 107.292 146.867C107.623 146.883 107.931 146.799 108.132 146.497H108.138ZM104.061 43.4164C104.549 43.45 104.868 43.4724 105.187 43.4948C105.529 43.5172 105.669 43.3436 105.663 43.0188C105.663 42.7331 105.596 42.4755 105.243 42.4699C104.386 42.4587 103.53 42.4587 102.673 42.4587C102.566 42.4587 102.454 42.4643 102.354 42.4979C102.057 42.5875 101.956 42.8284 101.928 43.1084C101.906 43.366 102.158 43.59 102.454 43.5676C103.042 43.5228 103.625 43.4612 104.05 43.4164H104.061ZM146.775 49.6444C147.351 51.4086 147.458 51.6046 148.23 52.4279C148.337 51.1846 147.682 50.4397 146.775 49.6444ZM110.507 46.0375C110.484 45.9983 110.467 45.9591 110.445 45.9199C110.417 45.9423 110.367 45.9759 110.372 45.9871C110.395 46.0487 110.434 46.0992 110.467 46.1552C110.478 46.116 110.495 46.0767 110.507 46.0375Z" fill="#6096BA"/>
</g>
<defs>
<clipPath id="clip0_699_8">
<rect width="184" height="211" fill="white"/>
</clipPath>
</defs>
</svg>
