<svg width="321" height="155" viewBox="0 0 321 155" fill="none" xmlns="http://www.w3.org/2000/svg">
<path d="M271.579 69C271.579 70.4728 270.385 71.6667 268.912 71.6667C267.44 71.6667 266.246 70.4728 266.246 69C266.246 67.5272 267.44 66.3333 268.912 66.3333C270.385 66.3333 271.579 67.5272 271.579 69ZM266.428 105.519L265.946 105.387L265.946 105.387L266.428 105.519ZM248.171 135.741L247.882 135.333L248.171 135.741ZM173.094 132.75L173.368 132.331L173.368 132.331L173.094 132.75ZM152.511 109.69L152.113 109.992L152.113 109.992L152.511 109.69ZM142.22 94.1852L142.611 93.8741L142.22 94.1852ZM126.96 82.4583L127.228 82.0363L126.96 82.4583ZM98.3327 76.1227L98.2984 75.6239L98.3327 76.1227ZM81.6927 88.8333L81.2823 88.5477L81.2823 88.5477L81.6927 88.8333ZM77.9468 107.998L77.4493 107.948L77.9468 107.998ZM71.5983 124.093L72.0092 124.378L71.5983 124.093ZM57.4031 129.169L57.4582 128.672L57.4031 129.169ZM43.0501 119.292L43.3201 118.871L43.0501 119.292ZM19.2336 127.083L19.6904 127.287L19.2336 127.083ZM0.14742 154.478C-0.116449 154.559 -0.396355 154.411 -0.477768 154.147C-0.559182 153.884 -0.411273 153.604 -0.147405 153.522L0.14742 154.478ZM269.426 72.057C269.428 72.3331 269.206 72.5588 268.93 72.561C268.654 72.5633 268.428 72.3412 268.426 72.0651L269.426 72.057ZM268.487 78.1863C268.484 77.9102 268.706 77.6846 268.983 77.6823C269.259 77.6801 269.484 77.9022 269.487 78.1783L268.487 78.1863ZM269.479 84.3112C269.475 84.5873 269.248 84.8079 268.972 84.8039C268.696 84.8 268.475 84.5729 268.479 84.2968L269.479 84.3112ZM268.264 90.3914C268.281 90.1158 268.518 89.9057 268.793 89.9222C269.069 89.9388 269.279 90.1756 269.263 90.4513L268.264 90.3914ZM268.696 96.5798C268.661 96.8537 268.41 97.0471 268.136 97.0118C267.862 96.9765 267.669 96.7259 267.704 96.452L268.696 96.5798ZM266.672 102.439C266.731 102.169 266.998 101.998 267.267 102.058C267.537 102.117 267.708 102.384 267.648 102.654L266.672 102.439ZM266.074 108.547C265.993 108.812 265.714 108.96 265.449 108.88C265.185 108.799 265.037 108.52 265.117 108.256L266.074 108.547ZM263.182 113.899C263.281 113.642 263.571 113.513 263.828 113.612C264.086 113.711 264.215 114.001 264.116 114.258L263.182 113.899ZM261.705 119.803C261.583 120.05 261.283 120.153 261.036 120.031C260.788 119.909 260.685 119.61 260.807 119.362L261.705 119.803ZM257.904 124.548C258.052 124.316 258.362 124.247 258.594 124.396C258.827 124.545 258.895 124.854 258.747 125.086L257.904 124.548ZM255.151 129.973C254.973 130.183 254.657 130.208 254.447 130.029C254.236 129.851 254.211 129.535 254.39 129.325L255.151 129.973ZM250.215 133.516C250.425 133.337 250.741 133.362 250.92 133.573C251.099 133.783 251.073 134.098 250.863 134.277L250.215 133.516ZM245.64 138.032C245.406 138.178 245.098 138.107 244.951 137.873C244.805 137.639 244.876 137.33 245.11 137.184L245.64 138.032ZM239.261 140.352C239.511 140.236 239.808 140.346 239.924 140.596C240.04 140.847 239.93 141.144 239.68 141.26L239.261 140.352ZM233.353 143.698C233.089 143.78 232.809 143.634 232.726 143.37C232.643 143.107 232.79 142.826 233.053 142.743L233.353 143.698ZM226.592 144.356C226.864 144.304 227.125 144.482 227.177 144.753C227.229 145.025 227.051 145.286 226.779 145.338L226.592 144.356ZM220.079 146.276C219.804 146.302 219.56 146.101 219.534 145.826C219.508 145.551 219.71 145.307 219.985 145.281L220.079 146.276ZM213.312 145.667C213.588 145.66 213.817 145.878 213.824 146.154C213.831 146.43 213.613 146.66 213.337 146.667L213.312 145.667ZM206.608 146.601C206.332 146.583 206.124 146.345 206.141 146.069C206.159 145.794 206.397 145.585 206.673 145.603L206.608 146.601ZM200.158 144.74C200.428 144.795 200.604 145.058 200.549 145.329C200.494 145.6 200.231 145.775 199.96 145.72L200.158 144.74ZM193.489 143.97C193.227 143.881 193.087 143.597 193.176 143.335C193.265 143.074 193.549 142.934 193.81 143.023L193.489 143.97ZM187.699 140.561C187.95 140.677 188.059 140.974 187.943 141.225C187.826 141.475 187.529 141.584 187.279 141.468L187.699 140.561ZM181.34 138.403C181.1 138.268 181.015 137.963 181.15 137.722C181.286 137.482 181.591 137.397 181.831 137.532L181.34 138.403ZM176.157 134.125C176.39 134.273 176.46 134.581 176.312 134.815C176.165 135.048 175.856 135.118 175.623 134.971L176.157 134.125ZM170.681 131.644C170.463 131.475 170.422 131.161 170.591 130.942C170.76 130.724 171.074 130.683 171.293 130.852L170.681 131.644ZM167.45 127.475C167.647 127.668 167.649 127.985 167.456 128.182C167.262 128.379 166.946 128.381 166.749 128.188L167.45 127.475ZM163.187 124.376C163.006 124.168 163.028 123.852 163.237 123.671C163.445 123.49 163.761 123.512 163.942 123.721L163.187 124.376ZM160.672 119.738C160.842 119.955 160.804 120.27 160.587 120.44C160.37 120.61 160.055 120.572 159.885 120.355L160.672 119.738ZM156.743 116.222C156.578 116.001 156.624 115.687 156.846 115.523C157.068 115.358 157.381 115.404 157.546 115.626L156.743 116.222ZM154.466 111.462C154.631 111.684 154.584 111.997 154.363 112.162C154.141 112.326 153.828 112.28 153.663 112.058L154.466 111.462ZM150.737 108.087C150.58 107.86 150.637 107.549 150.864 107.392C151.092 107.235 151.403 107.292 151.56 107.52L150.737 108.087ZM149.048 103.631C149.193 103.866 149.12 104.174 148.885 104.319C148.65 104.465 148.342 104.392 148.197 104.157L149.048 103.631ZM145.761 100.193C145.615 99.9586 145.686 99.6501 145.92 99.5039C146.154 99.3576 146.463 99.4289 146.609 99.6631L145.761 100.193ZM144.025 95.7553C144.185 95.9801 144.133 96.2923 143.908 96.4527C143.683 96.6131 143.371 96.5609 143.211 96.3361L144.025 95.7553ZM140.268 92.7083C140.078 92.5085 140.085 92.192 140.285 92.0014C140.485 91.8109 140.802 91.8184 140.992 92.0182L140.268 92.7083ZM137.346 88.7374C137.564 88.9079 137.601 89.2222 137.431 89.4394C137.26 89.6566 136.946 89.6945 136.729 89.524L137.346 88.7374ZM132.823 86.7459C132.592 86.5943 132.528 86.2843 132.679 86.0535C132.831 85.8227 133.141 85.7585 133.372 85.9101L132.823 86.7459ZM129.273 83.3183C129.508 83.4641 129.579 83.7724 129.434 84.0069C129.288 84.2414 128.979 84.3133 128.745 84.1674L129.273 83.3183ZM123.495 81.0562C123.249 80.9309 123.151 80.6298 123.276 80.3838C123.402 80.1377 123.703 80.0398 123.949 80.1652L123.495 81.0562ZM116.94 77.3839C117.205 77.462 117.357 77.74 117.279 78.0049C117.2 78.2698 116.922 78.4212 116.658 78.3431L116.94 77.3839ZM109.44 76.861C109.166 76.8271 108.971 76.5775 109.005 76.3034C109.039 76.0294 109.288 75.8346 109.562 75.8685L109.44 76.861ZM102.052 75.4701C102.329 75.4668 102.555 75.6879 102.558 75.964C102.562 76.2402 102.341 76.4667 102.064 76.47L102.052 75.4701ZM95.7411 76.9998C95.4718 77.0608 95.204 76.8919 95.143 76.6226C95.082 76.3532 95.2509 76.0855 95.5203 76.0245L95.7411 76.9998ZM90.3585 78.2159C90.5892 78.0642 90.8993 78.1283 91.051 78.359C91.2027 78.5898 91.1386 78.8998 90.9078 79.0515L90.3585 78.2159ZM86.9511 82.5922C86.7689 82.7997 86.453 82.8202 86.2455 82.6381C86.0379 82.4559 86.0174 82.14 86.1995 81.9325L86.9511 82.5922ZM82.8437 86.3046C83.0025 86.0787 83.3144 86.0244 83.5403 86.1832C83.7662 86.3421 83.8205 86.654 83.6617 86.8798L82.8437 86.3046ZM80.9296 91.1886C80.8145 91.4396 80.5178 91.5499 80.2667 91.4348C80.0157 91.3198 79.9055 91.023 80.0205 90.772L80.9296 91.1886ZM78.5447 95.6031C78.5963 95.3318 78.858 95.1537 79.1293 95.2052C79.4006 95.2568 79.5787 95.5185 79.5271 95.7898L78.5447 95.6031ZM78.9326 100.637C78.912 100.913 78.6721 101.119 78.3968 101.099C78.1214 101.078 77.9148 100.838 77.9354 100.563L78.9326 100.637ZM77.6398 105.503C77.6569 105.228 77.8941 105.018 78.1698 105.035C78.4454 105.052 78.6549 105.29 78.6379 105.565L77.6398 105.503ZM77.7143 112.431C77.6499 112.699 77.38 112.865 77.1114 112.8C76.8429 112.736 76.6775 112.466 76.7419 112.197L77.7143 112.431ZM73.5171 120.152C73.6544 119.913 73.9599 119.83 74.1995 119.967C74.4391 120.104 74.522 120.41 74.3847 120.649L73.5171 120.152ZM69.0382 127.215C68.8069 127.366 68.4971 127.301 68.3463 127.069C68.1954 126.838 68.2606 126.528 68.4919 126.377L69.0382 127.215ZM61.2911 128.699C61.5661 128.674 61.8095 128.876 61.8348 129.151C61.8601 129.426 61.6577 129.67 61.3828 129.695L61.2911 128.699ZM52.9935 128.189C52.7541 128.051 52.6716 127.745 52.8093 127.506C52.9469 127.267 53.2526 127.184 53.492 127.322L52.9935 128.189ZM46.8314 121.699C47.0337 121.887 47.0452 122.203 46.8572 122.406C46.6692 122.608 46.3529 122.62 46.1506 122.432L46.8314 121.699ZM39.3807 118.078C39.1192 117.989 38.9793 117.705 39.0681 117.444C39.1569 117.182 39.4409 117.042 39.7024 117.131L39.3807 118.078ZM31.8615 115.976C32.1376 115.982 32.3564 116.211 32.3503 116.487C32.3441 116.763 32.1153 116.982 31.8393 116.976L31.8615 115.976ZM24.9525 118.125C24.7399 118.302 24.4247 118.272 24.2485 118.06C24.0723 117.847 24.1018 117.532 24.3144 117.356L24.9525 118.125ZM20.2134 123.546C20.3266 123.294 20.6225 123.182 20.8744 123.295C21.1263 123.408 21.2388 123.704 21.1256 123.956L20.2134 123.546ZM19.1266 129.316C19.0815 129.588 18.824 129.772 18.5516 129.727C18.2792 129.682 18.0949 129.424 18.1401 129.152L19.1266 129.316ZM17.855 133.698C17.8553 133.422 18.0793 133.199 18.3555 133.199C18.6316 133.199 18.8553 133.423 18.855 133.699L17.855 133.698ZM18.5414 139.494C18.4831 139.764 18.217 139.936 17.9471 139.877C17.6771 139.819 17.5056 139.553 17.5639 139.283L18.5414 139.494ZM14.5387 145.181C14.7191 144.972 15.0349 144.949 15.2439 145.129C15.453 145.309 15.4763 145.625 15.2959 145.834L14.5387 145.181ZM9.81507 150.32C9.57859 150.463 9.27129 150.387 9.12871 150.15C8.98613 149.914 9.06225 149.607 9.29873 149.464L9.81507 150.32ZM3.11259 152.408C3.37087 152.31 3.65945 152.441 3.75716 152.699C3.85486 152.957 3.72469 153.246 3.46641 153.343L3.11259 152.408ZM269.412 69C269.412 70.021 269.418 71.0398 269.426 72.057L268.426 72.0651C268.418 71.0462 268.412 70.0245 268.412 69H269.412ZM269.487 78.1783C269.503 80.2275 269.508 82.2717 269.479 84.3112L268.479 84.2968C268.508 82.2681 268.503 80.2324 268.487 78.1863L269.487 78.1783ZM269.263 90.4513C269.14 92.496 268.959 94.5385 268.696 96.5798L267.704 96.452C267.964 94.4368 268.143 92.4173 268.264 90.3914L269.263 90.4513ZM267.648 102.654C267.428 103.652 267.183 104.651 266.91 105.65L265.946 105.387C266.214 104.404 266.455 103.422 266.672 102.439L267.648 102.654ZM266.91 105.65C266.647 106.614 266.369 107.581 266.074 108.547L265.117 108.256C265.409 107.299 265.685 106.342 265.946 105.387L266.91 105.65ZM264.116 114.258C263.393 116.138 262.593 117.994 261.705 119.803L260.807 119.362C261.681 117.582 262.469 115.754 263.182 113.899L264.116 114.258ZM258.747 125.086C257.656 126.795 256.462 128.432 255.151 129.973L254.39 129.325C255.668 127.822 256.836 126.222 257.904 124.548L258.747 125.086ZM250.863 134.277C250.094 134.932 249.294 135.556 248.461 136.148L247.882 135.333C248.691 134.758 249.468 134.152 250.215 133.516L250.863 134.277ZM248.461 136.148C247.523 136.815 246.583 137.442 245.64 138.032L245.11 137.184C246.036 136.605 246.96 135.988 247.882 135.333L248.461 136.148ZM239.68 141.26C237.596 142.221 235.49 143.027 233.353 143.698L233.053 142.743C235.151 142.085 237.217 141.295 239.261 140.352L239.68 141.26ZM226.779 145.338C224.587 145.755 222.357 146.061 220.079 146.276L219.985 145.281C222.235 145.068 224.435 144.766 226.592 144.356L226.779 145.338ZM213.337 146.667C212.225 146.695 211.1 146.708 209.963 146.708V145.708C211.093 145.708 212.209 145.695 213.312 145.667L213.337 146.667ZM209.963 146.708C208.824 146.708 207.706 146.672 206.608 146.601L206.673 145.603C207.749 145.672 208.845 145.708 209.963 145.708V146.708ZM199.96 145.72C197.739 145.272 195.589 144.682 193.489 143.97L193.81 143.023C195.872 143.722 197.981 144.301 200.158 144.74L199.96 145.72ZM187.279 141.468C185.277 140.539 183.305 139.511 181.34 138.403L181.831 137.532C183.777 138.629 185.726 139.645 187.699 140.561L187.279 141.468ZM175.623 134.971C174.692 134.383 173.759 133.781 172.821 133.169L173.368 132.331C174.303 132.942 175.232 133.541 176.157 134.125L175.623 134.971ZM172.821 133.169C172.094 132.694 171.381 132.184 170.681 131.644L171.293 130.852C171.973 131.377 172.665 131.872 173.368 132.331L172.821 133.169ZM166.749 128.188C165.523 126.983 164.337 125.702 163.187 124.376L163.942 123.721C165.078 125.031 166.246 126.292 167.45 127.475L166.749 128.188ZM159.885 120.355C158.809 118.982 157.763 117.594 156.743 116.222L157.546 115.626C158.564 116.995 159.604 118.375 160.672 119.738L159.885 120.355ZM153.663 112.058C153.141 111.355 152.624 110.665 152.113 109.992L152.909 109.387C153.423 110.064 153.942 110.757 154.466 111.462L153.663 112.058ZM152.113 109.992C151.638 109.367 151.181 108.731 150.737 108.087L151.56 107.52C151.996 108.153 152.445 108.776 152.909 109.387L152.113 109.992ZM148.197 104.157C147.376 102.827 146.583 101.508 145.761 100.193L146.609 99.6631C147.43 100.978 148.238 102.319 149.048 103.631L148.197 104.157ZM143.211 96.3361C142.765 95.7109 142.305 95.0966 141.828 94.4963L142.611 93.8741C143.1 94.4898 143.57 95.118 144.025 95.7553L143.211 96.3361ZM141.828 94.4963C141.332 93.8718 140.811 93.2773 140.268 92.7083L140.992 92.0182C141.554 92.6076 142.095 93.2247 142.611 93.8741L141.828 94.4963ZM136.729 89.524C135.478 88.5423 134.168 87.6291 132.823 86.7459L133.372 85.9101C134.731 86.8027 136.067 87.7327 137.346 88.7374L136.729 89.524ZM128.745 84.1674C128.06 83.7417 127.375 83.314 126.692 82.8804L127.228 82.0363C127.906 82.4671 128.589 82.8927 129.273 83.3183L128.745 84.1674ZM126.692 82.8804C125.643 82.2144 124.577 81.6074 123.495 81.0562L123.949 80.1652C125.059 80.7306 126.152 81.3532 127.228 82.0363L126.692 82.8804ZM116.658 78.3431C114.302 77.6487 111.891 77.1638 109.44 76.861L109.562 75.8685C112.063 76.1775 114.528 76.6729 116.94 77.3839L116.658 78.3431ZM102.064 76.47C100.838 76.4848 99.6045 76.5363 98.3671 76.6215L98.2984 75.6239C99.5536 75.5375 100.806 75.4851 102.052 75.4701L102.064 76.47ZM98.3671 76.6215C97.4326 76.6858 96.56 76.8144 95.7411 76.9998L95.5203 76.0245C96.3916 75.8272 97.3152 75.6915 98.2984 75.6239L98.3671 76.6215ZM90.9078 79.0515C89.4402 80.0164 88.154 81.2218 86.9511 82.5922L86.1995 81.9325C87.4429 80.516 88.7953 79.2436 90.3585 78.2159L90.9078 79.0515ZM83.6617 86.8798C83.1456 87.6137 82.6312 88.3601 82.1032 89.1189L81.2823 88.5477C81.8067 87.7941 82.3259 87.0409 82.8437 86.3046L83.6617 86.8798ZM82.1032 89.1189C81.6503 89.7698 81.2625 90.4621 80.9296 91.1886L80.0205 90.772C80.3757 89.9968 80.7923 89.252 81.2823 88.5477L82.1032 89.1189ZM79.5271 95.7898C79.228 97.3644 79.0549 98.9982 78.9326 100.637L77.9354 100.563C78.059 98.9058 78.2356 97.2302 78.5447 95.6031L79.5271 95.7898ZM78.6379 105.565C78.5853 106.412 78.5249 107.243 78.4443 108.048L77.4493 107.948C77.5281 107.161 77.5876 106.344 77.6398 105.503L78.6379 105.565ZM78.4443 108.048C78.2888 109.599 78.0458 111.049 77.7143 112.431L76.7419 112.197C77.0621 110.863 77.298 109.458 77.4493 107.948L78.4443 108.048ZM74.3847 120.649C73.6791 121.881 72.8869 123.112 72.0092 124.378L71.1875 123.808C72.0528 122.56 72.8288 121.353 73.5171 120.152L74.3847 120.649ZM72.0092 124.378C71.2154 125.522 70.1947 126.461 69.0382 127.215L68.4919 126.377C69.556 125.683 70.4775 124.831 71.1875 123.808L72.0092 124.378ZM61.3828 129.695C59.996 129.823 58.6239 129.807 57.348 129.666L57.4582 128.672C58.6656 128.806 59.97 128.821 61.2911 128.699L61.3828 129.695ZM57.348 129.666C55.7375 129.487 54.3057 128.943 52.9935 128.189L53.492 127.322C54.7096 128.022 56.0102 128.511 57.4582 128.672L57.348 129.666ZM46.1506 122.432C45.0509 121.409 43.9504 120.463 42.7801 119.713L43.3201 118.871C44.5664 119.67 45.7186 120.665 46.8314 121.699L46.1506 122.432ZM42.7801 119.713C41.6676 118.999 40.5348 118.47 39.3807 118.078L39.7024 117.131C40.9286 117.548 42.1354 118.111 43.3201 118.871L42.7801 119.713ZM31.8393 116.976C30.5642 116.947 29.2726 116.958 27.9479 116.958V115.958C29.261 115.958 30.5717 115.947 31.8615 115.976L31.8393 116.976ZM27.9479 116.958C26.822 116.958 25.8375 117.392 24.9525 118.125L24.3144 117.356C25.3369 116.508 26.5399 115.958 27.9479 115.958V116.958ZM21.1256 123.956C20.8555 124.557 20.604 125.149 20.3661 125.711C20.129 126.272 19.904 126.807 19.6904 127.287L18.7769 126.88C18.9857 126.411 19.2061 125.887 19.4451 125.322C19.6832 124.759 19.9384 124.159 20.2134 123.546L21.1256 123.956ZM19.6904 127.287C19.4359 127.858 19.2538 128.548 19.1266 129.316L18.1401 129.152C18.2754 128.335 18.476 127.556 18.7769 126.88L19.6904 127.287ZM18.855 133.699C18.8547 134.098 18.8574 134.487 18.8603 134.862C18.8632 135.237 18.8662 135.598 18.8662 135.937H17.8662C17.8662 135.603 17.8632 135.246 17.8603 134.87C17.8575 134.495 17.8547 134.102 17.855 133.698L18.855 133.699ZM18.8662 135.937C18.8662 136.735 18.8669 137.987 18.5414 139.494L17.5639 139.283C17.8654 137.888 17.8662 136.726 17.8662 135.937H18.8662ZM15.2959 145.834C13.9921 147.345 12.22 148.87 9.81507 150.32L9.29873 149.464C11.6235 148.062 13.3114 146.603 14.5387 145.181L15.2959 145.834ZM3.46641 153.343C2.43095 153.735 1.32617 154.114 0.14742 154.478L-0.147405 153.522C1.01259 153.164 2.09764 152.792 3.11259 152.408L3.46641 153.343Z" fill="white"/>
<path d="M320 18.5182L293.967 1.33008H243.571L217.872 18.5182V51.5595H268.602H320V18.5182Z" fill="white"/>
<path d="M293.967 1.33008L320 18.5182M293.967 1.33008L268.602 18.5182M293.967 1.33008H243.571M320 18.5182H268.602M320 18.5182V51.5595H268.602M268.602 18.5182V51.5595M268.602 18.5182L243.571 1.33008M268.602 18.5182H217.872M268.602 51.5595H217.872V18.5182M243.571 1.33008L217.872 18.5182" stroke="#465558"/>
<path d="M293.967 18.3516V51.5597" stroke="#465558" stroke-dasharray="4 4"/>
<path d="M243.905 18.3516V51.5597" stroke="#465558" stroke-dasharray="4 4"/>
</svg>
