<svg width="154" height="154" viewBox="0 0 154 154" fill="none" xmlns="http://www.w3.org/2000/svg">
<path d="M2 2H76.6269L113.194 39.8713L152 2V77L113.194 113.386L152 152H76.6269L38.5672 113.386L2 152V77L39.3134 39.5L2 2Z" fill="#EAEAEA"/>
<path d="M76.6269 77L113.194 39.8713M76.6269 77L113.194 113.386M76.6269 77L38.5672 113.386M76.6269 77L39.3134 39.5M113.194 39.8713L76.6269 2H2L39.3134 39.5M113.194 39.8713L152 2V77L113.194 113.386M113.194 113.386L152 152H76.6269L38.5672 113.386M38.5672 113.386L2 152V77L39.3134 39.5" stroke="#465558"/>
</svg>
