<svg width="40" height="40" viewBox="0 0 40 40" fill="none" xmlns="http://www.w3.org/2000/svg">
<circle cx="20.0001" cy="20" r="20" fill="#EAEAEA"/>
<path d="M17.0001 23.5L23.4876 19.75L17.0001 16V23.5ZM31.4501 13.7125C31.6126 14.3 31.7251 15.0875 31.8001 16.0875C31.8876 17.0875 31.9251 17.95 31.9251 18.7L32.0001 19.75C32.0001 22.4875 31.8001 24.5 31.4501 25.7875C31.1376 26.9125 30.4126 27.6375 29.2876 27.95C28.7001 28.1125 27.6251 28.225 25.9751 28.3C24.3501 28.3875 22.8626 28.425 21.4876 28.425L19.5001 28.5C14.2626 28.5 11.0001 28.3 9.71259 27.95C8.58759 27.6375 7.86259 26.9125 7.55009 25.7875C7.38759 25.2 7.27509 24.4125 7.20009 23.4125C7.11259 22.4125 7.07509 21.55 7.07509 20.8L7.00009 19.75C7.00009 17.0125 7.20009 15 7.55009 13.7125C7.86259 12.5875 8.58759 11.8625 9.71259 11.55C10.3001 11.3875 11.3751 11.275 13.0251 11.2C14.6501 11.1125 16.1376 11.075 17.5126 11.075L19.5001 11C24.7376 11 28.0001 11.2 29.2876 11.55C30.4126 11.8625 31.1376 12.5875 31.4501 13.7125Z" fill="#465558"/>
</svg>
