<svg width="391" height="149" viewBox="0 0 391 149" fill="none" xmlns="http://www.w3.org/2000/svg">
<path d="M278.729 4.49994H310.131V71.807H359.39V27.0832H389.561V71.807V147.998H359.39V99.1346H310.131L278.729 71.807V4.49994Z" fill="#EAEAEA"/>
<path d="M310.131 71.807V4.49994H278.729V71.807M310.131 71.807H278.729M310.131 71.807H359.39M278.729 71.807L310.131 99.1346H359.39M359.39 99.1346L389.561 71.807M359.39 99.1346V147.998H389.561V71.807M389.561 71.807V27.0832H359.39V71.807M389.561 71.807H359.39" stroke="black" stroke-width="2"/>
<path fill-rule="evenodd" clip-rule="evenodd" d="M169.62 1L142.775 24.9821V119.011L169.62 144.498H221.731L247.786 119.011V24.9821L221.731 1H169.62ZM221.328 24.8307H170.136V119.271H221.328V24.8307Z" fill="#EAEAEA"/>
<path d="M142.775 24.9821L169.62 1H221.731L247.786 24.9821M142.775 24.9821V119.011M142.775 24.9821H169.62M142.775 119.011L169.62 144.498H221.731L247.786 119.011M142.775 119.011H169.62M247.786 119.011V24.9821M247.786 119.011H221.328M247.786 24.9821H221.731M169.62 24.9821V119.011M169.62 24.9821H170.136M169.62 119.011H170.136M221.731 24.9821H221.328M221.731 24.9821L221.328 28.9874M170.136 24.8307H221.328V119.271H170.136V24.8307Z" stroke="black" stroke-width="2"/>
<path d="M1 1H32.4024V68.307H81.6611V23.5833H111.832V68.307V144.498H81.6611V95.6347H32.4024L1 68.307V1Z" fill="#EAEAEA"/>
<path d="M32.4024 68.307V1H1V68.307M32.4024 68.307H1M32.4024 68.307H81.6611M1 68.307L32.4024 95.6347H81.6611M81.6611 95.6347L111.832 68.307M81.6611 95.6347V144.498H111.832V68.307M111.832 68.307V23.5833H81.6611V68.307M111.832 68.307H81.6611" stroke="black" stroke-width="2"/>
</svg>
